<?xml version="1.0" encoding="utf-8"?>
<svg xmlns="http://www.w3.org/2000/svg" xmlns:xlink="http://www.w3.org/1999/xlink" width="450" height="350" viewBox="0 0 1800 1400">
<defs>
  <clipPath id="clip510">
    <rect x="0" y="0" width="1800" height="1400"/>
  </clipPath>
</defs>
<path clip-path="url(#clip510)" d="M0 1400 L1800 1400 L1800 0 L0 0  Z" fill="#ffffff" fill-rule="evenodd" fill-opacity="1"/>
<defs>
  <clipPath id="clip511">
    <rect x="360" y="0" width="1261" height="1261"/>
  </clipPath>
</defs>
<path clip-path="url(#clip510)" d="M249.299 847.747 L1752.76 847.747 L1752.76 141.732 L249.299 141.732  Z" fill="#ffffff" fill-rule="evenodd" fill-opacity="1"/>
<defs>
  <clipPath id="clip512">
    <rect x="249" y="141" width="1504" height="707"/>
  </clipPath>
</defs>
<polyline clip-path="url(#clip512)" style="stroke:#000000; stroke-linecap:round; stroke-linejoin:round; stroke-width:2; stroke-opacity:0.1; fill:none" points="291.849,847.747 291.849,141.732 "/>
<polyline clip-path="url(#clip512)" style="stroke:#000000; stroke-linecap:round; stroke-linejoin:round; stroke-width:2; stroke-opacity:0.1; fill:none" points="575.521,847.747 575.521,141.732 "/>
<polyline clip-path="url(#clip512)" style="stroke:#000000; stroke-linecap:round; stroke-linejoin:round; stroke-width:2; stroke-opacity:0.1; fill:none" points="859.192,847.747 859.192,141.732 "/>
<polyline clip-path="url(#clip512)" style="stroke:#000000; stroke-linecap:round; stroke-linejoin:round; stroke-width:2; stroke-opacity:0.1; fill:none" points="1142.86,847.747 1142.86,141.732 "/>
<polyline clip-path="url(#clip512)" style="stroke:#000000; stroke-linecap:round; stroke-linejoin:round; stroke-width:2; stroke-opacity:0.1; fill:none" points="1426.53,847.747 1426.53,141.732 "/>
<polyline clip-path="url(#clip512)" style="stroke:#000000; stroke-linecap:round; stroke-linejoin:round; stroke-width:2; stroke-opacity:0.1; fill:none" points="1710.21,847.747 1710.21,141.732 "/>
<polyline clip-path="url(#clip512)" style="stroke:#000000; stroke-linecap:round; stroke-linejoin:round; stroke-width:2; stroke-opacity:0.1; fill:none" points="291.849,847.747 291.849,141.732 "/>
<polyline clip-path="url(#clip512)" style="stroke:#000000; stroke-linecap:round; stroke-linejoin:round; stroke-width:2; stroke-opacity:0.1; fill:none" points="575.521,847.747 575.521,141.732 "/>
<polyline clip-path="url(#clip512)" style="stroke:#000000; stroke-linecap:round; stroke-linejoin:round; stroke-width:2; stroke-opacity:0.1; fill:none" points="859.192,847.747 859.192,141.732 "/>
<polyline clip-path="url(#clip512)" style="stroke:#000000; stroke-linecap:round; stroke-linejoin:round; stroke-width:2; stroke-opacity:0.1; fill:none" points="1142.86,847.747 1142.86,141.732 "/>
<polyline clip-path="url(#clip512)" style="stroke:#000000; stroke-linecap:round; stroke-linejoin:round; stroke-width:2; stroke-opacity:0.1; fill:none" points="1426.53,847.747 1426.53,141.732 "/>
<polyline clip-path="url(#clip512)" style="stroke:#000000; stroke-linecap:round; stroke-linejoin:round; stroke-width:2; stroke-opacity:0.1; fill:none" points="1710.21,847.747 1710.21,141.732 "/>
<polyline clip-path="url(#clip512)" style="stroke:#000000; stroke-linecap:round; stroke-linejoin:round; stroke-width:2; stroke-opacity:0.1; fill:none" points="249.299,795.45 1752.76,795.45 "/>
<polyline clip-path="url(#clip512)" style="stroke:#000000; stroke-linecap:round; stroke-linejoin:round; stroke-width:2; stroke-opacity:0.1; fill:none" points="249.299,664.706 1752.76,664.706 "/>
<polyline clip-path="url(#clip512)" style="stroke:#000000; stroke-linecap:round; stroke-linejoin:round; stroke-width:2; stroke-opacity:0.1; fill:none" points="249.299,533.963 1752.76,533.963 "/>
<polyline clip-path="url(#clip512)" style="stroke:#000000; stroke-linecap:round; stroke-linejoin:round; stroke-width:2; stroke-opacity:0.1; fill:none" points="249.299,403.219 1752.76,403.219 "/>
<polyline clip-path="url(#clip512)" style="stroke:#000000; stroke-linecap:round; stroke-linejoin:round; stroke-width:2; stroke-opacity:0.1; fill:none" points="249.299,272.476 1752.76,272.476 "/>
<polyline clip-path="url(#clip512)" style="stroke:#000000; stroke-linecap:round; stroke-linejoin:round; stroke-width:2; stroke-opacity:0.1; fill:none" points="249.299,141.732 1752.76,141.732 "/>
<polyline clip-path="url(#clip512)" style="stroke:#000000; stroke-linecap:round; stroke-linejoin:round; stroke-width:2; stroke-opacity:0.1; fill:none" points="249.299,795.45 1752.76,795.45 "/>
<polyline clip-path="url(#clip512)" style="stroke:#000000; stroke-linecap:round; stroke-linejoin:round; stroke-width:2; stroke-opacity:0.1; fill:none" points="249.299,664.706 1752.76,664.706 "/>
<polyline clip-path="url(#clip512)" style="stroke:#000000; stroke-linecap:round; stroke-linejoin:round; stroke-width:2; stroke-opacity:0.1; fill:none" points="249.299,533.963 1752.76,533.963 "/>
<polyline clip-path="url(#clip512)" style="stroke:#000000; stroke-linecap:round; stroke-linejoin:round; stroke-width:2; stroke-opacity:0.1; fill:none" points="249.299,403.219 1752.76,403.219 "/>
<polyline clip-path="url(#clip512)" style="stroke:#000000; stroke-linecap:round; stroke-linejoin:round; stroke-width:2; stroke-opacity:0.1; fill:none" points="249.299,272.476 1752.76,272.476 "/>
<polyline clip-path="url(#clip512)" style="stroke:#000000; stroke-linecap:round; stroke-linejoin:round; stroke-width:2; stroke-opacity:0.1; fill:none" points="249.299,141.732 1752.76,141.732 "/>
<polyline clip-path="url(#clip510)" style="stroke:#000000; stroke-linecap:round; stroke-linejoin:round; stroke-width:4; stroke-opacity:1; fill:none" points="249.299,847.747 1752.76,847.747 "/>
<polyline clip-path="url(#clip510)" style="stroke:#000000; stroke-linecap:round; stroke-linejoin:round; stroke-width:4; stroke-opacity:1; fill:none" points="249.299,141.732 1752.76,141.732 "/>
<polyline clip-path="url(#clip510)" style="stroke:#000000; stroke-linecap:round; stroke-linejoin:round; stroke-width:4; stroke-opacity:1; fill:none" points="291.849,847.747 291.849,835.097 "/>
<polyline clip-path="url(#clip510)" style="stroke:#000000; stroke-linecap:round; stroke-linejoin:round; stroke-width:4; stroke-opacity:1; fill:none" points="575.521,847.747 575.521,835.097 "/>
<polyline clip-path="url(#clip510)" style="stroke:#000000; stroke-linecap:round; stroke-linejoin:round; stroke-width:4; stroke-opacity:1; fill:none" points="859.192,847.747 859.192,835.097 "/>
<polyline clip-path="url(#clip510)" style="stroke:#000000; stroke-linecap:round; stroke-linejoin:round; stroke-width:4; stroke-opacity:1; fill:none" points="1142.86,847.747 1142.86,835.097 "/>
<polyline clip-path="url(#clip510)" style="stroke:#000000; stroke-linecap:round; stroke-linejoin:round; stroke-width:4; stroke-opacity:1; fill:none" points="1426.53,847.747 1426.53,835.097 "/>
<polyline clip-path="url(#clip510)" style="stroke:#000000; stroke-linecap:round; stroke-linejoin:round; stroke-width:4; stroke-opacity:1; fill:none" points="1710.21,847.747 1710.21,835.097 "/>
<polyline clip-path="url(#clip510)" style="stroke:#000000; stroke-linecap:round; stroke-linejoin:round; stroke-width:4; stroke-opacity:1; fill:none" points="291.849,141.732 291.849,154.383 "/>
<polyline clip-path="url(#clip510)" style="stroke:#000000; stroke-linecap:round; stroke-linejoin:round; stroke-width:4; stroke-opacity:1; fill:none" points="575.521,141.732 575.521,154.383 "/>
<polyline clip-path="url(#clip510)" style="stroke:#000000; stroke-linecap:round; stroke-linejoin:round; stroke-width:4; stroke-opacity:1; fill:none" points="859.192,141.732 859.192,154.383 "/>
<polyline clip-path="url(#clip510)" style="stroke:#000000; stroke-linecap:round; stroke-linejoin:round; stroke-width:4; stroke-opacity:1; fill:none" points="1142.86,141.732 1142.86,154.383 "/>
<polyline clip-path="url(#clip510)" style="stroke:#000000; stroke-linecap:round; stroke-linejoin:round; stroke-width:4; stroke-opacity:1; fill:none" points="1426.53,141.732 1426.53,154.383 "/>
<polyline clip-path="url(#clip510)" style="stroke:#000000; stroke-linecap:round; stroke-linejoin:round; stroke-width:4; stroke-opacity:1; fill:none" points="1710.21,141.732 1710.21,154.383 "/>
<path clip-path="url(#clip510)" d="M291.849 876.796 Q287.336 876.796 285.05 881.252 Q282.793 885.679 282.793 894.591 Q282.793 903.474 285.05 907.93 Q287.336 912.357 291.849 912.357 Q296.392 912.357 298.649 907.93 Q300.935 903.474 300.935 894.591 Q300.935 885.679 298.649 881.252 Q296.392 876.796 291.849 876.796 M291.849 872.166 Q299.112 872.166 302.932 877.924 Q306.78 883.653 306.78 894.591 Q306.78 905.499 302.932 911.257 Q299.112 916.986 291.849 916.986 Q284.587 916.986 280.738 911.257 Q276.919 905.499 276.919 894.591 Q276.919 883.653 280.738 877.924 Q284.587 872.166 291.849 872.166 Z" fill="#000000" fill-rule="nonzero" fill-opacity="1" /><path clip-path="url(#clip510)" d="M548.987 911.228 L569.386 911.228 L569.386 916.147 L541.956 916.147 L541.956 911.228 Q545.284 907.785 551.013 901.998 Q556.771 896.182 558.246 894.504 Q561.053 891.35 562.153 889.18 Q563.281 886.981 563.281 884.868 Q563.281 881.425 560.851 879.255 Q558.449 877.085 554.572 877.085 Q551.823 877.085 548.756 878.04 Q545.718 878.995 542.245 880.933 L542.245 875.031 Q545.775 873.613 548.843 872.889 Q551.91 872.166 554.456 872.166 Q561.169 872.166 565.162 875.522 Q569.155 878.879 569.155 884.492 Q569.155 887.154 568.142 889.556 Q567.158 891.929 564.525 895.169 Q563.802 896.008 559.925 900.03 Q556.047 904.023 548.987 911.228 Z" fill="#000000" fill-rule="nonzero" fill-opacity="1" /><path clip-path="url(#clip510)" d="M594.155 876.796 Q589.641 876.796 587.355 881.252 Q585.098 885.679 585.098 894.591 Q585.098 903.474 587.355 907.93 Q589.641 912.357 594.155 912.357 Q598.698 912.357 600.955 907.93 Q603.24 903.474 603.24 894.591 Q603.24 885.679 600.955 881.252 Q598.698 876.796 594.155 876.796 M594.155 872.166 Q601.417 872.166 605.237 877.924 Q609.085 883.653 609.085 894.591 Q609.085 905.499 605.237 911.257 Q601.417 916.986 594.155 916.986 Q586.892 916.986 583.044 911.257 Q579.224 905.499 579.224 894.591 Q579.224 883.653 583.044 877.924 Q586.892 872.166 594.155 872.166 Z" fill="#000000" fill-rule="nonzero" fill-opacity="1" /><path clip-path="url(#clip510)" d="M844.406 878.04 L829.649 901.101 L844.406 901.101 L844.406 878.04 M842.872 872.947 L850.222 872.947 L850.222 901.101 L856.385 901.101 L856.385 905.962 L850.222 905.962 L850.222 916.147 L844.406 916.147 L844.406 905.962 L824.904 905.962 L824.904 900.32 L842.872 872.947 Z" fill="#000000" fill-rule="nonzero" fill-opacity="1" /><path clip-path="url(#clip510)" d="M878.549 876.796 Q874.035 876.796 871.75 881.252 Q869.493 885.679 869.493 894.591 Q869.493 903.474 871.75 907.93 Q874.035 912.357 878.549 912.357 Q883.092 912.357 885.349 907.93 Q887.635 903.474 887.635 894.591 Q887.635 885.679 885.349 881.252 Q883.092 876.796 878.549 876.796 M878.549 872.166 Q885.812 872.166 889.631 877.924 Q893.48 883.653 893.48 894.591 Q893.48 905.499 889.631 911.257 Q885.812 916.986 878.549 916.986 Q871.287 916.986 867.438 911.257 Q863.619 905.499 863.619 894.591 Q863.619 883.653 867.438 877.924 Q871.287 872.166 878.549 872.166 Z" fill="#000000" fill-rule="nonzero" fill-opacity="1" /><path clip-path="url(#clip510)" d="M1124.62 892.218 Q1120.68 892.218 1118.37 894.909 Q1116.08 897.6 1116.08 902.287 Q1116.08 906.946 1118.37 909.666 Q1120.68 912.357 1124.62 912.357 Q1128.55 912.357 1130.84 909.666 Q1133.16 906.946 1133.16 902.287 Q1133.16 897.6 1130.84 894.909 Q1128.55 892.218 1124.62 892.218 M1136.22 873.902 L1136.22 879.226 Q1134.02 878.184 1131.77 877.635 Q1129.54 877.085 1127.34 877.085 Q1121.55 877.085 1118.49 880.991 Q1115.45 884.897 1115.01 892.797 Q1116.72 890.279 1119.3 888.948 Q1121.87 887.588 1124.97 887.588 Q1131.48 887.588 1135.24 891.552 Q1139.03 895.488 1139.03 902.287 Q1139.03 908.942 1135.09 912.964 Q1131.16 916.986 1124.62 916.986 Q1117.13 916.986 1113.16 911.257 Q1109.2 905.499 1109.2 894.591 Q1109.2 884.348 1114.06 878.271 Q1118.92 872.166 1127.11 872.166 Q1129.31 872.166 1131.53 872.6 Q1133.79 873.034 1136.22 873.902 Z" fill="#000000" fill-rule="nonzero" fill-opacity="1" /><path clip-path="url(#clip510)" d="M1161.6 876.796 Q1157.08 876.796 1154.8 881.252 Q1152.54 885.679 1152.54 894.591 Q1152.54 903.474 1154.8 907.93 Q1157.08 912.357 1161.6 912.357 Q1166.14 912.357 1168.4 907.93 Q1170.68 903.474 1170.68 894.591 Q1170.68 885.679 1168.4 881.252 Q1166.14 876.796 1161.6 876.796 M1161.6 872.166 Q1168.86 872.166 1172.68 877.924 Q1176.53 883.653 1176.53 894.591 Q1176.53 905.499 1172.68 911.257 Q1168.86 916.986 1161.6 916.986 Q1154.34 916.986 1150.49 911.257 Q1146.67 905.499 1146.67 894.591 Q1146.67 883.653 1150.49 877.924 Q1154.34 872.166 1161.6 872.166 Z" fill="#000000" fill-rule="nonzero" fill-opacity="1" /><path clip-path="url(#clip510)" d="M1407.63 895.632 Q1403.46 895.632 1401.06 897.86 Q1398.68 900.088 1398.68 903.994 Q1398.68 907.901 1401.06 910.129 Q1403.46 912.357 1407.63 912.357 Q1411.79 912.357 1414.19 910.129 Q1416.59 907.872 1416.59 903.994 Q1416.59 900.088 1414.19 897.86 Q1411.82 895.632 1407.63 895.632 M1401.78 893.144 Q1398.02 892.218 1395.91 889.643 Q1393.82 887.067 1393.82 883.364 Q1393.82 878.184 1397.5 875.175 Q1401.2 872.166 1407.63 872.166 Q1414.08 872.166 1417.75 875.175 Q1421.43 878.184 1421.43 883.364 Q1421.43 887.067 1419.31 889.643 Q1417.23 892.218 1413.5 893.144 Q1417.72 894.128 1420.07 896.992 Q1422.44 899.857 1422.44 903.994 Q1422.44 910.273 1418.59 913.63 Q1414.77 916.986 1407.63 916.986 Q1400.48 916.986 1396.63 913.63 Q1392.81 910.273 1392.81 903.994 Q1392.81 899.857 1395.18 896.992 Q1397.56 894.128 1401.78 893.144 M1399.64 883.914 Q1399.64 887.27 1401.72 889.151 Q1403.83 891.032 1407.63 891.032 Q1411.39 891.032 1413.5 889.151 Q1415.64 887.27 1415.64 883.914 Q1415.64 880.557 1413.5 878.676 Q1411.39 876.796 1407.63 876.796 Q1403.83 876.796 1401.72 878.676 Q1399.64 880.557 1399.64 883.914 Z" fill="#000000" fill-rule="nonzero" fill-opacity="1" /><path clip-path="url(#clip510)" d="M1445.33 876.796 Q1440.81 876.796 1438.53 881.252 Q1436.27 885.679 1436.27 894.591 Q1436.27 903.474 1438.53 907.93 Q1440.81 912.357 1445.33 912.357 Q1449.87 912.357 1452.13 907.93 Q1454.41 903.474 1454.41 894.591 Q1454.41 885.679 1452.13 881.252 Q1449.87 876.796 1445.33 876.796 M1445.33 872.166 Q1452.59 872.166 1456.41 877.924 Q1460.26 883.653 1460.26 894.591 Q1460.26 905.499 1456.41 911.257 Q1452.59 916.986 1445.33 916.986 Q1438.06 916.986 1434.22 911.257 Q1430.4 905.499 1430.4 894.591 Q1430.4 883.653 1434.22 877.924 Q1438.06 872.166 1445.33 872.166 Z" fill="#000000" fill-rule="nonzero" fill-opacity="1" /><path clip-path="url(#clip510)" d="M1659.71 911.228 L1669.26 911.228 L1669.26 878.271 L1658.87 880.355 L1658.87 875.031 L1669.2 872.947 L1675.05 872.947 L1675.05 911.228 L1684.6 911.228 L1684.6 916.147 L1659.71 916.147 L1659.71 911.228 Z" fill="#000000" fill-rule="nonzero" fill-opacity="1" /><path clip-path="url(#clip510)" d="M1708.9 876.796 Q1704.39 876.796 1702.1 881.252 Q1699.85 885.679 1699.85 894.591 Q1699.85 903.474 1702.1 907.93 Q1704.39 912.357 1708.9 912.357 Q1713.45 912.357 1715.7 907.93 Q1717.99 903.474 1717.99 894.591 Q1717.99 885.679 1715.7 881.252 Q1713.45 876.796 1708.9 876.796 M1708.9 872.166 Q1716.17 872.166 1719.99 877.924 Q1723.83 883.653 1723.83 894.591 Q1723.83 905.499 1719.99 911.257 Q1716.17 916.986 1708.9 916.986 Q1701.64 916.986 1697.79 911.257 Q1693.97 905.499 1693.97 894.591 Q1693.97 883.653 1697.79 877.924 Q1701.64 872.166 1708.9 872.166 Z" fill="#000000" fill-rule="nonzero" fill-opacity="1" /><path clip-path="url(#clip510)" d="M1746.61 876.796 Q1742.09 876.796 1739.81 881.252 Q1737.55 885.679 1737.55 894.591 Q1737.55 903.474 1739.81 907.93 Q1742.09 912.357 1746.61 912.357 Q1751.15 912.357 1753.41 907.93 Q1755.69 903.474 1755.69 894.591 Q1755.69 885.679 1753.41 881.252 Q1751.15 876.796 1746.61 876.796 M1746.61 872.166 Q1753.87 872.166 1757.69 877.924 Q1761.54 883.653 1761.54 894.591 Q1761.54 905.499 1757.69 911.257 Q1753.87 916.986 1746.61 916.986 Q1739.34 916.986 1735.49 911.257 Q1731.68 905.499 1731.68 894.591 Q1731.68 883.653 1735.49 877.924 Q1739.34 872.166 1746.61 872.166 Z" fill="#000000" fill-rule="nonzero" fill-opacity="1" /><path clip-path="url(#clip510)" d="M1002.54 965.186 Q1002.54 965.467 1002.23 966.557 Q1001.91 967.646 1001.14 969.332 Q1000.4 971.019 999.381 972.564 Q998.362 974.075 996.676 975.199 Q995.025 976.289 993.127 976.289 Q990.598 976.289 988.911 974.602 Q987.225 972.916 987.225 970.386 Q987.225 968.981 987.963 967.048 Q992.635 954.576 992.635 950.29 Q992.635 945.266 988.736 945.266 Q986.803 945.266 984.976 946.003 Q983.185 946.706 981.955 947.69 Q980.725 948.673 979.601 950.044 Q978.512 951.379 977.95 952.292 Q977.423 953.171 977.001 954.049 L976.088 957.633 Q975.877 958.616 974.858 962.446 L973.277 968.946 Q972.153 973.794 971.907 974.251 Q971.555 975.235 970.782 975.762 Q970.009 976.289 969.236 976.289 Q968.358 976.289 967.761 975.762 Q967.164 975.235 967.164 974.321 Q967.164 974.181 967.269 973.654 Q967.374 973.127 967.55 972.389 Q967.726 971.651 967.796 971.229 L971.977 954.611 Q972.75 951.59 972.926 950.641 Q973.136 949.657 973.136 948.568 Q973.136 945.266 970.888 945.266 Q969.061 945.266 967.866 947.444 Q966.672 949.622 965.653 953.838 Q965.337 954.998 965.126 955.243 Q964.95 955.489 964.423 955.489 Q963.545 955.454 963.545 954.752 Q963.545 954.576 963.826 953.417 Q964.107 952.257 964.634 950.606 Q965.196 948.919 965.723 947.795 Q966.18 946.952 966.426 946.565 Q966.707 946.144 967.374 945.336 Q968.077 944.493 968.991 944.106 Q969.939 943.685 971.099 943.685 Q973.698 943.685 975.596 945.371 Q977.493 947.022 977.739 949.938 Q982.412 943.685 988.946 943.685 Q992.811 943.685 995.025 945.722 Q997.238 947.76 997.238 951.379 Q997.238 952.222 997.062 953.311 Q996.922 954.365 996.57 955.7 Q996.254 957.035 995.973 958.054 Q995.692 959.073 995.13 960.724 Q994.568 962.34 994.322 963.043 Q994.076 963.746 993.479 965.397 Q992.917 967.013 992.846 967.189 Q991.546 970.456 991.546 972.318 Q991.546 973.548 991.933 974.11 Q992.354 974.672 993.268 974.672 Q995.727 974.672 997.554 972.248 Q999.416 969.789 1000.61 965.784 Q1000.89 964.905 1001.03 964.694 Q1001.21 964.484 1001.7 964.484 Q1002.54 964.484 1002.54 965.186 Z" fill="#000000" fill-rule="nonzero" fill-opacity="1" /><path clip-path="url(#clip510)" d="M1009.84 980.102 Q1009.84 972.7 1011.71 968.666 Q1014.31 962.665 1020.46 962.665 Q1021.77 962.665 1023.12 963.034 Q1024.5 963.379 1026.22 964.731 Q1027.96 966.084 1029.02 968.297 Q1031.04 972.577 1031.04 980.102 Q1031.04 987.456 1029.17 991.464 Q1026.44 997.318 1020.41 997.318 Q1018.15 997.318 1015.84 996.162 Q1013.55 995.006 1012.1 992.227 Q1009.84 988.07 1009.84 980.102 M1014.02 979.487 Q1014.02 987.087 1014.56 990.112 Q1015.17 993.383 1016.85 994.809 Q1018.54 996.211 1020.41 996.211 Q1022.43 996.211 1024.1 994.711 Q1025.8 993.186 1026.32 989.915 Q1026.88 986.693 1026.86 979.487 Q1026.86 972.478 1026.36 969.674 Q1025.7 966.404 1023.93 965.1 Q1022.18 963.772 1020.41 963.772 Q1019.75 963.772 1019.04 963.969 Q1018.35 964.166 1017.34 964.731 Q1016.33 965.297 1015.54 966.699 Q1014.78 968.101 1014.41 970.216 Q1014.02 972.945 1014.02 979.487 Z" fill="#000000" fill-rule="nonzero" fill-opacity="1" /><polyline clip-path="url(#clip510)" style="stroke:#000000; stroke-linecap:round; stroke-linejoin:round; stroke-width:4; stroke-opacity:1; fill:none" points="249.299,847.747 249.299,141.732 "/>
<polyline clip-path="url(#clip510)" style="stroke:#000000; stroke-linecap:round; stroke-linejoin:round; stroke-width:4; stroke-opacity:1; fill:none" points="1752.76,847.747 1752.76,141.732 "/>
<polyline clip-path="url(#clip510)" style="stroke:#000000; stroke-linecap:round; stroke-linejoin:round; stroke-width:4; stroke-opacity:1; fill:none" points="249.299,795.45 268.196,795.45 "/>
<polyline clip-path="url(#clip510)" style="stroke:#000000; stroke-linecap:round; stroke-linejoin:round; stroke-width:4; stroke-opacity:1; fill:none" points="249.299,664.706 268.196,664.706 "/>
<polyline clip-path="url(#clip510)" style="stroke:#000000; stroke-linecap:round; stroke-linejoin:round; stroke-width:4; stroke-opacity:1; fill:none" points="249.299,533.963 268.196,533.963 "/>
<polyline clip-path="url(#clip510)" style="stroke:#000000; stroke-linecap:round; stroke-linejoin:round; stroke-width:4; stroke-opacity:1; fill:none" points="249.299,403.219 268.196,403.219 "/>
<polyline clip-path="url(#clip510)" style="stroke:#000000; stroke-linecap:round; stroke-linejoin:round; stroke-width:4; stroke-opacity:1; fill:none" points="249.299,272.476 268.196,272.476 "/>
<polyline clip-path="url(#clip510)" style="stroke:#000000; stroke-linecap:round; stroke-linejoin:round; stroke-width:4; stroke-opacity:1; fill:none" points="249.299,141.732 268.196,141.732 "/>
<polyline clip-path="url(#clip510)" style="stroke:#000000; stroke-linecap:round; stroke-linejoin:round; stroke-width:4; stroke-opacity:1; fill:none" points="1752.76,795.45 1733.86,795.45 "/>
<polyline clip-path="url(#clip510)" style="stroke:#000000; stroke-linecap:round; stroke-linejoin:round; stroke-width:4; stroke-opacity:1; fill:none" points="1752.76,664.706 1733.86,664.706 "/>
<polyline clip-path="url(#clip510)" style="stroke:#000000; stroke-linecap:round; stroke-linejoin:round; stroke-width:4; stroke-opacity:1; fill:none" points="1752.76,533.963 1733.86,533.963 "/>
<polyline clip-path="url(#clip510)" style="stroke:#000000; stroke-linecap:round; stroke-linejoin:round; stroke-width:4; stroke-opacity:1; fill:none" points="1752.76,403.219 1733.86,403.219 "/>
<polyline clip-path="url(#clip510)" style="stroke:#000000; stroke-linecap:round; stroke-linejoin:round; stroke-width:4; stroke-opacity:1; fill:none" points="1752.76,272.476 1733.86,272.476 "/>
<polyline clip-path="url(#clip510)" style="stroke:#000000; stroke-linecap:round; stroke-linejoin:round; stroke-width:4; stroke-opacity:1; fill:none" points="1752.76,141.732 1733.86,141.732 "/>
<path clip-path="url(#clip510)" d="M145.968 796.014 L183.063 796.014 L183.063 800.933 L145.968 800.933 L145.968 796.014 Z" fill="#000000" fill-rule="nonzero" fill-opacity="1" /><path clip-path="url(#clip510)" d="M213.387 793.757 Q217.582 794.654 219.926 797.49 Q222.299 800.325 222.299 804.492 Q222.299 810.887 217.901 814.388 Q213.503 817.889 205.401 817.889 Q202.681 817.889 199.787 817.339 Q196.923 816.818 193.856 815.748 L193.856 810.105 Q196.286 811.523 199.18 812.247 Q202.073 812.97 205.227 812.97 Q210.725 812.97 213.589 810.8 Q216.483 808.63 216.483 804.492 Q216.483 800.673 213.792 798.531 Q211.13 796.361 206.356 796.361 L201.321 796.361 L201.321 791.558 L206.587 791.558 Q210.898 791.558 213.184 789.851 Q215.47 788.115 215.47 784.874 Q215.47 781.547 213.097 779.781 Q210.754 777.987 206.356 777.987 Q203.954 777.987 201.205 778.508 Q198.456 779.029 195.158 780.129 L195.158 774.92 Q198.485 773.994 201.379 773.532 Q204.301 773.069 206.876 773.069 Q213.531 773.069 217.409 776.107 Q221.286 779.116 221.286 784.266 Q221.286 787.854 219.232 790.343 Q217.177 792.802 213.387 793.757 Z" fill="#000000" fill-rule="nonzero" fill-opacity="1" /><path clip-path="url(#clip510)" d="M147.155 665.271 L184.249 665.271 L184.249 670.189 L147.155 670.189 L147.155 665.271 Z" fill="#000000" fill-rule="nonzero" fill-opacity="1" /><path clip-path="url(#clip510)" d="M201.9 681.387 L222.299 681.387 L222.299 686.306 L194.868 686.306 L194.868 681.387 Q198.196 677.944 203.925 672.157 Q209.683 666.341 211.159 664.663 Q213.966 661.509 215.065 659.339 Q216.194 657.14 216.194 655.028 Q216.194 651.584 213.763 649.414 Q211.361 647.244 207.484 647.244 Q204.735 647.244 201.668 648.199 Q198.63 649.154 195.158 651.092 L195.158 645.19 Q198.688 643.772 201.755 643.048 Q204.822 642.325 207.368 642.325 Q214.081 642.325 218.074 645.682 Q222.067 649.038 222.067 654.651 Q222.067 657.313 221.055 659.715 Q220.071 662.088 217.438 665.328 Q216.714 666.168 212.837 670.189 Q208.96 674.183 201.9 681.387 Z" fill="#000000" fill-rule="nonzero" fill-opacity="1" /><path clip-path="url(#clip510)" d="M146.692 534.527 L183.786 534.527 L183.786 539.446 L146.692 539.446 L146.692 534.527 Z" fill="#000000" fill-rule="nonzero" fill-opacity="1" /><path clip-path="url(#clip510)" d="M197.415 550.644 L206.963 550.644 L206.963 517.687 L196.576 519.77 L196.576 514.446 L206.905 512.363 L212.75 512.363 L212.75 550.644 L222.299 550.644 L222.299 555.563 L197.415 555.563 L197.415 550.644 Z" fill="#000000" fill-rule="nonzero" fill-opacity="1" /><path clip-path="url(#clip510)" d="M207.368 385.468 Q202.854 385.468 200.569 389.924 Q198.312 394.351 198.312 403.263 Q198.312 412.146 200.569 416.602 Q202.854 421.029 207.368 421.029 Q211.911 421.029 214.168 416.602 Q216.454 412.146 216.454 403.263 Q216.454 394.351 214.168 389.924 Q211.911 385.468 207.368 385.468 M207.368 380.838 Q214.631 380.838 218.45 386.596 Q222.299 392.325 222.299 403.263 Q222.299 414.171 218.45 419.929 Q214.631 425.658 207.368 425.658 Q200.106 425.658 196.257 419.929 Q192.438 414.171 192.438 403.263 Q192.438 392.325 196.257 386.596 Q200.106 380.838 207.368 380.838 Z" fill="#000000" fill-rule="nonzero" fill-opacity="1" /><path clip-path="url(#clip510)" d="M197.415 289.157 L206.963 289.157 L206.963 256.2 L196.576 258.283 L196.576 252.959 L206.905 250.876 L212.75 250.876 L212.75 289.157 L222.299 289.157 L222.299 294.076 L197.415 294.076 L197.415 289.157 Z" fill="#000000" fill-rule="nonzero" fill-opacity="1" /><path clip-path="url(#clip510)" d="M201.9 158.413 L222.299 158.413 L222.299 163.332 L194.868 163.332 L194.868 158.413 Q198.196 154.97 203.925 149.183 Q209.683 143.367 211.159 141.689 Q213.966 138.535 215.065 136.365 Q216.194 134.166 216.194 132.054 Q216.194 128.61 213.763 126.44 Q211.361 124.27 207.484 124.27 Q204.735 124.27 201.668 125.225 Q198.63 126.18 195.158 128.118 L195.158 122.216 Q198.688 120.798 201.755 120.074 Q204.822 119.351 207.368 119.351 Q214.081 119.351 218.074 122.708 Q222.067 126.064 222.067 131.677 Q222.067 134.339 221.055 136.741 Q220.071 139.114 217.438 142.354 Q216.714 143.194 212.837 147.215 Q208.96 151.209 201.9 158.413 Z" fill="#000000" fill-rule="nonzero" fill-opacity="1" /><path clip-path="url(#clip510)" d="M76.438 480.431 Q77.3515 480.431 79.1433 480.677 Q80.9351 480.923 83.535 481.52 Q86.1349 482.117 88.8754 482.995 Q91.6158 483.839 94.3562 485.174 Q97.0615 486.509 99.2047 488.09 Q101.348 489.671 102.683 491.884 Q104.018 494.098 104.018 496.592 Q104.018 497.752 103.842 498.876 Q103.667 500 103.104 501.405 Q102.542 502.811 101.629 503.83 Q100.68 504.849 98.9939 505.551 Q97.3074 506.254 95.094 506.254 Q92.8103 506.254 89.7537 505.411 Q86.6619 504.532 80.3379 502.143 Q77.0704 500.914 75.2786 500.914 Q74.4706 500.914 73.9787 501.089 Q73.4517 501.265 73.276 501.616 Q73.0652 501.968 73.0301 502.178 Q72.9949 502.354 72.9949 502.705 Q72.9949 504.638 74.9976 506.605 Q77.0002 508.573 81.9189 509.978 Q82.7972 510.259 83.008 510.435 Q83.2188 510.61 83.2188 511.137 Q83.1837 512.016 82.481 512.016 Q82.2702 512.016 81.4622 511.77 Q80.6189 511.524 79.3541 511.067 Q78.0542 510.61 76.7191 509.802 Q75.3489 508.994 74.1543 508.011 Q72.9598 506.992 72.1869 505.551 Q71.4139 504.111 71.4139 502.495 Q71.4139 499.86 73.1355 498.243 Q74.8219 496.592 77.3164 496.592 Q78.6866 496.592 80.9 497.47 Q84.9053 498.946 86.8376 499.614 Q88.77 500.281 91.5104 500.984 Q94.2508 501.651 96.148 501.651 Q99.029 501.651 100.715 500.316 Q102.402 498.981 102.402 496.311 Q102.402 493.922 100.68 491.779 Q98.9236 489.601 96.4291 488.16 Q93.8995 486.72 91.0888 485.63 Q88.2429 484.541 86.0998 484.049 Q83.9215 483.522 82.9026 483.522 Q79.3541 483.522 77.0353 485.947 Q76.3678 486.614 75.9462 486.86 Q75.5246 487.106 74.857 487.106 Q73.6273 487.106 72.5382 486.017 Q71.4139 484.893 71.4139 483.593 Q71.4139 482.398 72.6085 481.414 Q73.803 480.431 76.438 480.431 Z" fill="#000000" fill-rule="nonzero" fill-opacity="1" /><polyline clip-path="url(#clip512)" style="stroke:#009af9; stroke-linecap:round; stroke-linejoin:round; stroke-width:4; stroke-opacity:1; fill:none" points="291.849,232.282 575.521,288.29 859.192,344.216 1142.86,400.112 1426.53,456.053 1710.21,512.005 "/>
<polyline clip-path="url(#clip512)" style="stroke:#e26f46; stroke-linecap:round; stroke-linejoin:round; stroke-width:4; stroke-opacity:1; fill:none" points="291.849,332.189 575.521,386.675 859.192,441.157 1142.86,495.685 1426.53,550.22 1710.21,604.748 "/>
<polyline clip-path="url(#clip512)" style="stroke:#3da44d; stroke-linecap:round; stroke-linejoin:round; stroke-width:4; stroke-opacity:1; fill:none" points="291.849,419.384 575.521,472.449 859.192,525.571 1142.86,578.701 1426.53,631.823 1710.21,684.927 "/>
<polyline clip-path="url(#clip512)" style="stroke:#c271d2; stroke-linecap:round; stroke-linejoin:round; stroke-width:4; stroke-opacity:1; fill:none" points="291.849,494.798 575.521,546.57 859.192,598.35 1142.86,650.123 1426.53,701.881 1710.21,753.618 "/>
<polyline clip-path="url(#clip512)" style="stroke:#ac8d18; stroke-linecap:round; stroke-linejoin:round; stroke-width:4; stroke-opacity:1; fill:none" points="291.849,559.53 575.521,610.053 859.192,660.565 1142.86,711.062 1426.53,761.545 1710.21,812.007 "/>
<polyline clip-path="url(#clip512)" style="stroke:#000000; stroke-linecap:round; stroke-linejoin:round; stroke-width:6; stroke-opacity:1; fill:none" stroke-dasharray="24, 15" points="-1254.16,403.219 3256.21,403.219 "/>
<path clip-path="url(#clip512)" d="M271.849 212.282 L271.849 252.282 L311.849 252.282 L311.849 212.282 L271.849 212.282 Z" fill="#3a873c" fill-rule="evenodd" fill-opacity="1" stroke="#000000" stroke-opacity="1" stroke-width="2.8"/>
<path clip-path="url(#clip512)" d="M555.521 268.29 L555.521 308.29 L595.521 308.29 L595.521 268.29 L555.521 268.29 Z" fill="#3a873c" fill-rule="evenodd" fill-opacity="1" stroke="#000000" stroke-opacity="1" stroke-width="2.8"/>
<path clip-path="url(#clip512)" d="M839.192 324.216 L839.192 364.216 L879.192 364.216 L879.192 324.216 L839.192 324.216 Z" fill="#3a873c" fill-rule="evenodd" fill-opacity="1" stroke="#000000" stroke-opacity="1" stroke-width="2.8"/>
<path clip-path="url(#clip512)" d="M1122.86 380.112 L1122.86 420.112 L1162.86 420.112 L1162.86 380.112 L1122.86 380.112 Z" fill="#3a873c" fill-rule="evenodd" fill-opacity="1" stroke="#000000" stroke-opacity="1" stroke-width="2.8"/>
<path clip-path="url(#clip512)" d="M1426.53 436.053 L1406.53 456.053 L1426.53 476.053 L1446.53 456.053 L1426.53 436.053 Z" fill="#e5b12e" fill-rule="evenodd" fill-opacity="1" stroke="#000000" stroke-opacity="1" stroke-width="2.8"/>
<path clip-path="url(#clip512)" d="M1710.21 492.005 L1690.21 512.005 L1710.21 532.005 L1730.21 512.005 L1710.21 492.005 Z" fill="#e5b12e" fill-rule="evenodd" fill-opacity="1" stroke="#000000" stroke-opacity="1" stroke-width="2.8"/>
<path clip-path="url(#clip512)" d="M271.849 312.189 L271.849 352.189 L311.849 352.189 L311.849 312.189 L271.849 312.189 Z" fill="#3a873c" fill-rule="evenodd" fill-opacity="1" stroke="#000000" stroke-opacity="1" stroke-width="2.8"/>
<path clip-path="url(#clip512)" d="M555.521 366.675 L555.521 406.675 L595.521 406.675 L595.521 366.675 L555.521 366.675 Z" fill="#3a873c" fill-rule="evenodd" fill-opacity="1" stroke="#000000" stroke-opacity="1" stroke-width="2.8"/>
<path clip-path="url(#clip512)" d="M859.192 421.157 L839.192 441.157 L859.192 461.157 L879.192 441.157 L859.192 421.157 Z" fill="#e5b12e" fill-rule="evenodd" fill-opacity="1" stroke="#000000" stroke-opacity="1" stroke-width="2.8"/>
<circle clip-path="url(#clip512)" cx="1142.86" cy="495.685" r="18" fill="#8c5b89" fill-rule="evenodd" fill-opacity="1" stroke="#000000" stroke-opacity="1" stroke-width="2.8"/>
<circle clip-path="url(#clip512)" cx="1426.53" cy="550.22" r="18" fill="#8c5b89" fill-rule="evenodd" fill-opacity="1" stroke="#000000" stroke-opacity="1" stroke-width="2.8"/>
<circle clip-path="url(#clip512)" cx="1710.21" cy="604.748" r="18" fill="#8c5b89" fill-rule="evenodd" fill-opacity="1" stroke="#000000" stroke-opacity="1" stroke-width="2.8"/>
<circle clip-path="url(#clip512)" cx="291.849" cy="419.384" r="18" fill="#8c5b89" fill-rule="evenodd" fill-opacity="1" stroke="#000000" stroke-opacity="1" stroke-width="2.8"/>
<circle clip-path="url(#clip512)" cx="575.521" cy="472.449" r="18" fill="#8c5b89" fill-rule="evenodd" fill-opacity="1" stroke="#000000" stroke-opacity="1" stroke-width="2.8"/>
<circle clip-path="url(#clip512)" cx="859.192" cy="525.571" r="18" fill="#8c5b89" fill-rule="evenodd" fill-opacity="1" stroke="#000000" stroke-opacity="1" stroke-width="2.8"/>
<circle clip-path="url(#clip512)" cx="1142.86" cy="578.701" r="18" fill="#8c5b89" fill-rule="evenodd" fill-opacity="1" stroke="#000000" stroke-opacity="1" stroke-width="2.8"/>
<circle clip-path="url(#clip512)" cx="1426.53" cy="631.823" r="18" fill="#8c5b89" fill-rule="evenodd" fill-opacity="1" stroke="#000000" stroke-opacity="1" stroke-width="2.8"/>
<circle clip-path="url(#clip512)" cx="1710.21" cy="684.927" r="18" fill="#8c5b89" fill-rule="evenodd" fill-opacity="1" stroke="#000000" stroke-opacity="1" stroke-width="2.8"/>
<path clip-path="url(#clip512)" d="M291.849 474.798 L271.849 514.798 L311.849 514.798 L291.849 474.798 Z" fill="#50b3d1" fill-rule="evenodd" fill-opacity="1" stroke="#000000" stroke-opacity="1" stroke-width="2.8"/>
<path clip-path="url(#clip512)" d="M575.521 526.57 L555.521 566.57 L595.521 566.57 L575.521 526.57 Z" fill="#50b3d1" fill-rule="evenodd" fill-opacity="1" stroke="#000000" stroke-opacity="1" stroke-width="2.8"/>
<circle clip-path="url(#clip512)" cx="859.192" cy="598.35" r="18" fill="#8c5b89" fill-rule="evenodd" fill-opacity="1" stroke="#000000" stroke-opacity="1" stroke-width="2.8"/>
<circle clip-path="url(#clip512)" cx="1142.86" cy="650.123" r="18" fill="#8c5b89" fill-rule="evenodd" fill-opacity="1" stroke="#000000" stroke-opacity="1" stroke-width="2.8"/>
<circle clip-path="url(#clip512)" cx="1426.53" cy="701.881" r="18" fill="#8c5b89" fill-rule="evenodd" fill-opacity="1" stroke="#000000" stroke-opacity="1" stroke-width="2.8"/>
<circle clip-path="url(#clip512)" cx="1710.21" cy="753.618" r="18" fill="#8c5b89" fill-rule="evenodd" fill-opacity="1" stroke="#000000" stroke-opacity="1" stroke-width="2.8"/>
<path clip-path="url(#clip512)" d="M291.849 539.53 L271.849 579.53 L311.849 579.53 L291.849 539.53 Z" fill="#50b3d1" fill-rule="evenodd" fill-opacity="1" stroke="#000000" stroke-opacity="1" stroke-width="2.8"/>
<path clip-path="url(#clip512)" d="M575.521 590.053 L555.521 630.053 L595.521 630.053 L575.521 590.053 Z" fill="#50b3d1" fill-rule="evenodd" fill-opacity="1" stroke="#000000" stroke-opacity="1" stroke-width="2.8"/>
<path clip-path="url(#clip512)" d="M859.192 640.565 L839.192 680.565 L879.192 680.565 L859.192 640.565 Z" fill="#50b3d1" fill-rule="evenodd" fill-opacity="1" stroke="#000000" stroke-opacity="1" stroke-width="2.8"/>
<path clip-path="url(#clip512)" d="M1142.86 691.062 L1122.86 731.062 L1162.86 731.062 L1142.86 691.062 Z" fill="#50b3d1" fill-rule="evenodd" fill-opacity="1" stroke="#000000" stroke-opacity="1" stroke-width="2.8"/>
<circle clip-path="url(#clip512)" cx="1426.53" cy="761.545" r="18" fill="#8c5b89" fill-rule="evenodd" fill-opacity="1" stroke="#000000" stroke-opacity="1" stroke-width="2.8"/>
<circle clip-path="url(#clip512)" cx="1710.21" cy="812.007" r="18" fill="#8c5b89" fill-rule="evenodd" fill-opacity="1" stroke="#000000" stroke-opacity="1" stroke-width="2.8"/>
<path clip-path="url(#clip510)" d="M506.497 1196.38 L1495.56 1196.38 L1495.56 1025.46 L506.497 1025.46  Z" fill="#ffffff" fill-rule="evenodd" fill-opacity="1"/>
<polyline clip-path="url(#clip510)" style="stroke:#000000; stroke-linecap:round; stroke-linejoin:round; stroke-width:4; stroke-opacity:1; fill:none" points="506.497,1196.38 1495.56,1196.38 1495.56,1025.46 506.497,1025.46 506.497,1196.38 "/>
<polyline clip-path="url(#clip510)" style="stroke:#009af9; stroke-linecap:round; stroke-linejoin:round; stroke-width:4; stroke-opacity:1; fill:none" points="523.202,1082.43 623.432,1082.43 "/>
<path clip-path="url(#clip510)" d="M666.253 1059.94 Q666.253 1060.55 665.996 1061.72 Q665.176 1065.03 662.108 1067.3 Q661.592 1067.72 660.679 1068.26 Q661.78 1068.98 662.74 1070.32 Q664.169 1072.52 664.169 1075.5 Q664.169 1076.88 663.794 1078.56 Q662.74 1082.48 659.039 1085.29 Q655.315 1088.03 650.888 1088.03 Q648.499 1088.03 646.86 1086.76 Q645.244 1085.47 644.611 1083.32 L641.355 1096.46 Q641.285 1096.79 640.864 1096.79 L640.629 1096.79 Q640.137 1096.79 640.137 1096.22 L647.539 1066.71 Q648.031 1064.72 648.827 1062.85 Q649.624 1060.97 650.724 1059.29 Q651.849 1057.6 653.137 1056.36 Q654.425 1055.09 656.018 1054.37 Q657.611 1053.62 659.297 1053.62 Q662.834 1053.62 664.848 1056.03 Q666.253 1057.74 666.253 1059.94 M663.56 1059.1 Q663.56 1057.65 662.974 1056.64 Q661.78 1054.72 659.25 1054.72 Q657.728 1054.72 656.276 1055.42 Q654.847 1056.1 653.699 1057.27 Q652.551 1058.44 651.568 1060.04 Q650.584 1061.63 649.858 1063.36 Q649.155 1065.07 648.687 1066.95 L645.806 1078.56 Q645.525 1079.8 645.525 1080.91 Q645.525 1083.53 646.977 1085.24 Q648.429 1086.95 650.935 1086.95 Q654.261 1086.95 657.119 1084.47 Q659.602 1082.24 660.632 1078.33 Q661.218 1075.87 661.218 1074.16 Q661.218 1072.29 660.538 1070.83 Q660.047 1069.66 659.086 1068.96 Q657.306 1069.59 655.503 1069.59 Q654.636 1069.59 654.168 1069.57 Q653.722 1069.55 653.067 1069.45 Q652.434 1069.36 652.13 1069.1 Q651.849 1068.84 651.849 1068.45 Q651.849 1068.21 651.896 1068.12 Q651.989 1067.74 652.294 1067.48 Q652.598 1067.23 652.95 1067.11 Q653.301 1066.97 653.886 1066.9 Q654.495 1066.83 654.894 1066.83 Q655.292 1066.81 655.971 1066.81 Q657.564 1066.81 659.18 1067.44 Q659.789 1067.11 660.445 1066.52 Q662.529 1064.58 663.232 1061.49 Q663.56 1060.34 663.56 1059.1 M657.657 1068.16 Q656.674 1067.91 655.924 1067.91 Q653.184 1067.91 653.043 1068.35 Q653.043 1068.4 653.137 1068.45 Q653.231 1068.47 653.441 1068.49 Q653.676 1068.49 653.863 1068.52 Q654.074 1068.54 654.425 1068.54 Q654.776 1068.54 654.964 1068.54 Q655.175 1068.54 655.549 1068.54 Q656.486 1068.54 657.657 1068.16 Z" fill="#000000" fill-rule="nonzero" fill-opacity="1" /><path clip-path="url(#clip510)" d="M687.598 1105.74 Q687.598 1105.87 687.451 1106.38 Q687.303 1106.89 686.943 1107.67 Q686.598 1108.46 686.123 1109.18 Q685.647 1109.89 684.86 1110.41 Q684.09 1110.92 683.204 1110.92 Q682.024 1110.92 681.237 1110.13 Q680.45 1109.35 680.45 1108.17 Q680.45 1108 680.466 1107.84 Q680.483 1107.67 680.499 1107.58 Q680.515 1107.46 680.565 1107.28 Q680.63 1107.08 680.647 1107 Q680.679 1106.92 680.761 1106.67 Q680.86 1106.41 680.893 1106.31 Q682.975 1101 682.975 1098.79 Q682.975 1096.44 681.155 1096.44 Q679.532 1096.44 677.925 1097.62 Q677.187 1098.21 676.482 1099.26 Q675.777 1100.31 675.646 1100.71 Q675.498 1101.56 675.285 1102.21 Q675.187 1102.67 674.711 1104.46 L673.974 1107.49 L673.334 1110.04 Q673.203 1110.4 672.842 1110.66 Q672.482 1110.92 672.088 1110.92 Q671.76 1110.92 671.432 1110.69 Q671.121 1110.48 671.121 1109.97 Q671.121 1109.71 671.252 1109.23 L676.121 1089.89 L676.22 1089.23 Q676.22 1089.03 676.138 1088.93 Q676.072 1088.82 675.679 1088.74 Q675.302 1088.66 674.547 1088.66 Q674.236 1088.66 674.088 1088.64 Q673.957 1088.62 673.842 1088.54 Q673.728 1088.44 673.728 1088.25 Q673.728 1087.97 673.842 1087.82 Q673.974 1087.66 674.072 1087.62 Q674.17 1087.59 674.367 1087.57 Q674.646 1087.56 675.58 1087.47 Q676.515 1087.38 677.318 1087.31 Q678.122 1087.25 678.466 1087.25 Q678.663 1087.25 678.761 1087.34 Q678.876 1087.43 678.892 1087.52 L678.909 1087.61 L676.285 1098.28 Q678.368 1095.71 681.253 1095.71 Q683.122 1095.71 684.123 1096.67 Q685.123 1097.62 685.123 1099.3 Q685.123 1101.21 683.073 1106.67 Q682.467 1108.2 682.467 1109.07 Q682.467 1109.64 682.647 1109.9 Q682.844 1110.17 683.27 1110.17 Q683.926 1110.17 684.5 1109.79 Q685.09 1109.4 685.5 1108.76 Q685.91 1108.1 686.188 1107.44 Q686.484 1106.77 686.697 1106.02 Q686.828 1105.61 686.893 1105.51 Q686.975 1105.41 687.205 1105.41 Q687.598 1105.41 687.598 1105.74 Z" fill="#000000" fill-rule="nonzero" fill-opacity="1" /><path clip-path="url(#clip510)" d="M706.616 1086.76 Q705.866 1086.01 705.866 1084.96 Q705.866 1083.9 706.616 1083.15 Q707.366 1082.4 708.42 1082.4 Q709.474 1082.4 710.223 1083.15 Q710.973 1083.9 710.973 1084.96 Q710.973 1086.01 710.223 1086.76 Q709.474 1087.49 708.42 1087.49 Q707.366 1087.49 706.616 1086.76 M706.616 1071.16 Q705.866 1070.41 705.866 1069.36 Q705.866 1068.3 706.616 1067.55 Q707.366 1066.81 708.42 1066.81 Q709.474 1066.81 710.223 1067.55 Q710.973 1068.3 710.973 1069.36 Q710.973 1070.41 710.223 1071.16 Q709.474 1071.89 708.42 1071.89 Q707.366 1071.89 706.616 1071.16 Z" fill="#000000" fill-rule="nonzero" fill-opacity="1" /><path clip-path="url(#clip510)" d="M744.273 1056.01 Q740.662 1056.01 738.834 1059.57 Q737.028 1063.11 737.028 1070.24 Q737.028 1077.35 738.834 1080.91 Q740.662 1084.46 744.273 1084.46 Q747.908 1084.46 749.713 1080.91 Q751.542 1077.35 751.542 1070.24 Q751.542 1063.11 749.713 1059.57 Q747.908 1056.01 744.273 1056.01 M744.273 1052.3 Q750.084 1052.3 753.139 1056.91 Q756.218 1061.49 756.218 1070.24 Q756.218 1078.97 753.139 1083.58 Q750.084 1088.16 744.273 1088.16 Q738.463 1088.16 735.385 1083.58 Q732.329 1078.97 732.329 1070.24 Q732.329 1061.49 735.385 1056.91 Q738.463 1052.3 744.273 1052.3 Z" fill="#000000" fill-rule="nonzero" fill-opacity="1" /><path clip-path="url(#clip510)" d="M764.435 1081.61 L769.32 1081.61 L769.32 1087.49 L764.435 1087.49 L764.435 1081.61 Z" fill="#000000" fill-rule="nonzero" fill-opacity="1" /><path clip-path="url(#clip510)" d="M792.352 1057 L780.546 1075.45 L792.352 1075.45 L792.352 1057 M791.125 1052.93 L797.005 1052.93 L797.005 1075.45 L801.935 1075.45 L801.935 1079.34 L797.005 1079.34 L797.005 1087.49 L792.352 1087.49 L792.352 1079.34 L776.75 1079.34 L776.75 1074.83 L791.125 1052.93 Z" fill="#000000" fill-rule="nonzero" fill-opacity="1" /><polyline clip-path="url(#clip510)" style="stroke:#e26f46; stroke-linecap:round; stroke-linejoin:round; stroke-width:4; stroke-opacity:1; fill:none" points="847.321,1082.43 947.551,1082.43 "/>
<path clip-path="url(#clip510)" d="M990.372 1059.94 Q990.372 1060.55 990.114 1061.72 Q989.295 1065.03 986.226 1067.3 Q985.711 1067.72 984.798 1068.26 Q985.898 1068.98 986.859 1070.32 Q988.288 1072.52 988.288 1075.5 Q988.288 1076.88 987.913 1078.56 Q986.859 1082.48 983.158 1085.29 Q979.434 1088.03 975.007 1088.03 Q972.618 1088.03 970.978 1086.76 Q969.362 1085.47 968.73 1083.32 L965.474 1096.46 Q965.404 1096.79 964.982 1096.79 L964.748 1096.79 Q964.256 1096.79 964.256 1096.22 L971.658 1066.71 Q972.149 1064.72 972.946 1062.85 Q973.742 1060.97 974.843 1059.29 Q975.967 1057.6 977.256 1056.36 Q978.544 1055.09 980.137 1054.37 Q981.729 1053.62 983.416 1053.62 Q986.952 1053.62 988.967 1056.03 Q990.372 1057.74 990.372 1059.94 M987.679 1059.1 Q987.679 1057.65 987.093 1056.64 Q985.898 1054.72 983.369 1054.72 Q981.846 1054.72 980.394 1055.42 Q978.965 1056.1 977.818 1057.27 Q976.67 1058.44 975.686 1060.04 Q974.703 1061.63 973.976 1063.36 Q973.274 1065.07 972.805 1066.95 L969.924 1078.56 Q969.643 1079.8 969.643 1080.91 Q969.643 1083.53 971.095 1085.24 Q972.548 1086.95 975.054 1086.95 Q978.38 1086.95 981.237 1084.47 Q983.72 1082.24 984.751 1078.33 Q985.336 1075.87 985.336 1074.16 Q985.336 1072.29 984.657 1070.83 Q984.165 1069.66 983.205 1068.96 Q981.425 1069.59 979.621 1069.59 Q978.755 1069.59 978.286 1069.57 Q977.841 1069.55 977.185 1069.45 Q976.553 1069.36 976.248 1069.1 Q975.967 1068.84 975.967 1068.45 Q975.967 1068.21 976.014 1068.12 Q976.108 1067.74 976.412 1067.48 Q976.717 1067.23 977.068 1067.11 Q977.42 1066.97 978.005 1066.9 Q978.614 1066.83 979.012 1066.83 Q979.41 1066.81 980.09 1066.81 Q981.682 1066.81 983.299 1067.44 Q983.908 1067.11 984.563 1066.52 Q986.648 1064.58 987.351 1061.49 Q987.679 1060.34 987.679 1059.1 M981.776 1068.16 Q980.792 1067.91 980.043 1067.91 Q977.302 1067.91 977.162 1068.35 Q977.162 1068.4 977.256 1068.45 Q977.349 1068.47 977.56 1068.49 Q977.794 1068.49 977.982 1068.52 Q978.192 1068.54 978.544 1068.54 Q978.895 1068.54 979.083 1068.54 Q979.293 1068.54 979.668 1068.54 Q980.605 1068.54 981.776 1068.16 Z" fill="#000000" fill-rule="nonzero" fill-opacity="1" /><path clip-path="url(#clip510)" d="M1011.72 1105.74 Q1011.72 1105.87 1011.57 1106.38 Q1011.42 1106.89 1011.06 1107.67 Q1010.72 1108.46 1010.24 1109.18 Q1009.77 1109.89 1008.98 1110.41 Q1008.21 1110.92 1007.32 1110.92 Q1006.14 1110.92 1005.36 1110.13 Q1004.57 1109.35 1004.57 1108.17 Q1004.57 1108 1004.58 1107.84 Q1004.6 1107.67 1004.62 1107.58 Q1004.63 1107.46 1004.68 1107.28 Q1004.75 1107.08 1004.77 1107 Q1004.8 1106.92 1004.88 1106.67 Q1004.98 1106.41 1005.01 1106.31 Q1007.09 1101 1007.09 1098.79 Q1007.09 1096.44 1005.27 1096.44 Q1003.65 1096.44 1002.04 1097.62 Q1001.31 1098.21 1000.6 1099.26 Q999.896 1100.31 999.765 1100.71 Q999.617 1101.56 999.404 1102.21 Q999.306 1102.67 998.83 1104.46 L998.092 1107.49 L997.453 1110.04 Q997.322 1110.4 996.961 1110.66 Q996.6 1110.92 996.207 1110.92 Q995.879 1110.92 995.551 1110.69 Q995.239 1110.48 995.239 1109.97 Q995.239 1109.71 995.371 1109.23 L1000.24 1089.89 L1000.34 1089.23 Q1000.34 1089.03 1000.26 1088.93 Q1000.19 1088.82 999.797 1088.74 Q999.42 1088.66 998.666 1088.66 Q998.355 1088.66 998.207 1088.64 Q998.076 1088.62 997.961 1088.54 Q997.846 1088.44 997.846 1088.25 Q997.846 1087.97 997.961 1087.82 Q998.092 1087.66 998.191 1087.62 Q998.289 1087.59 998.486 1087.57 Q998.764 1087.56 999.699 1087.47 Q1000.63 1087.38 1001.44 1087.31 Q1002.24 1087.25 1002.58 1087.25 Q1002.78 1087.25 1002.88 1087.34 Q1002.99 1087.43 1003.01 1087.52 L1003.03 1087.61 L1000.4 1098.28 Q1002.49 1095.71 1005.37 1095.71 Q1007.24 1095.71 1008.24 1096.67 Q1009.24 1097.62 1009.24 1099.3 Q1009.24 1101.21 1007.19 1106.67 Q1006.59 1108.2 1006.59 1109.07 Q1006.59 1109.64 1006.77 1109.9 Q1006.96 1110.17 1007.39 1110.17 Q1008.04 1110.17 1008.62 1109.79 Q1009.21 1109.4 1009.62 1108.76 Q1010.03 1108.1 1010.31 1107.44 Q1010.6 1106.77 1010.82 1106.02 Q1010.95 1105.61 1011.01 1105.51 Q1011.09 1105.41 1011.32 1105.41 Q1011.72 1105.41 1011.72 1105.74 Z" fill="#000000" fill-rule="nonzero" fill-opacity="1" /><path clip-path="url(#clip510)" d="M1030.73 1086.76 Q1029.99 1086.01 1029.99 1084.96 Q1029.99 1083.9 1030.73 1083.15 Q1031.48 1082.4 1032.54 1082.4 Q1033.59 1082.4 1034.34 1083.15 Q1035.09 1083.9 1035.09 1084.96 Q1035.09 1086.01 1034.34 1086.76 Q1033.59 1087.49 1032.54 1087.49 Q1031.48 1087.49 1030.73 1086.76 M1030.73 1071.16 Q1029.99 1070.41 1029.99 1069.36 Q1029.99 1068.3 1030.73 1067.55 Q1031.48 1066.81 1032.54 1066.81 Q1033.59 1066.81 1034.34 1067.55 Q1035.09 1068.3 1035.09 1069.36 Q1035.09 1070.41 1034.34 1071.16 Q1033.59 1071.89 1032.54 1071.89 Q1031.48 1071.89 1030.73 1071.16 Z" fill="#000000" fill-rule="nonzero" fill-opacity="1" /><path clip-path="url(#clip510)" d="M1068.39 1056.01 Q1064.78 1056.01 1062.95 1059.57 Q1061.15 1063.11 1061.15 1070.24 Q1061.15 1077.35 1062.95 1080.91 Q1064.78 1084.46 1068.39 1084.46 Q1072.03 1084.46 1073.83 1080.91 Q1075.66 1077.35 1075.66 1070.24 Q1075.66 1063.11 1073.83 1059.57 Q1072.03 1056.01 1068.39 1056.01 M1068.39 1052.3 Q1074.2 1052.3 1077.26 1056.91 Q1080.34 1061.49 1080.34 1070.24 Q1080.34 1078.97 1077.26 1083.58 Q1074.2 1088.16 1068.39 1088.16 Q1062.58 1088.16 1059.5 1083.58 Q1056.45 1078.97 1056.45 1070.24 Q1056.45 1061.49 1059.5 1056.91 Q1062.58 1052.3 1068.39 1052.3 Z" fill="#000000" fill-rule="nonzero" fill-opacity="1" /><path clip-path="url(#clip510)" d="M1088.55 1081.61 L1093.44 1081.61 L1093.44 1087.49 L1088.55 1087.49 L1088.55 1081.61 Z" fill="#000000" fill-rule="nonzero" fill-opacity="1" /><path clip-path="url(#clip510)" d="M1116.47 1057 L1104.66 1075.45 L1116.47 1075.45 L1116.47 1057 M1115.24 1052.93 L1121.12 1052.93 L1121.12 1075.45 L1126.05 1075.45 L1126.05 1079.34 L1121.12 1079.34 L1121.12 1087.49 L1116.47 1087.49 L1116.47 1079.34 L1100.87 1079.34 L1100.87 1074.83 L1115.24 1052.93 Z" fill="#000000" fill-rule="nonzero" fill-opacity="1" /><path clip-path="url(#clip510)" d="M1133.83 1052.93 L1152.19 1052.93 L1152.19 1056.86 L1138.11 1056.86 L1138.11 1065.33 Q1139.13 1064.99 1140.15 1064.83 Q1141.17 1064.64 1142.19 1064.64 Q1147.97 1064.64 1151.35 1067.81 Q1154.73 1070.98 1154.73 1076.4 Q1154.73 1081.98 1151.26 1085.08 Q1147.79 1088.16 1141.47 1088.16 Q1139.29 1088.16 1137.03 1087.79 Q1134.78 1087.42 1132.37 1086.68 L1132.37 1081.98 Q1134.46 1083.11 1136.68 1083.67 Q1138.9 1084.22 1141.38 1084.22 Q1145.38 1084.22 1147.72 1082.12 Q1150.06 1080.01 1150.06 1076.4 Q1150.06 1072.79 1147.72 1070.68 Q1145.38 1068.58 1141.38 1068.58 Q1139.5 1068.58 1137.63 1068.99 Q1135.78 1069.41 1133.83 1070.29 L1133.83 1052.93 Z" fill="#000000" fill-rule="nonzero" fill-opacity="1" /><polyline clip-path="url(#clip510)" style="stroke:#3da44d; stroke-linecap:round; stroke-linejoin:round; stroke-width:4; stroke-opacity:1; fill:none" points="1171.44,1082.43 1271.67,1082.43 "/>
<path clip-path="url(#clip510)" d="M1314.49 1059.94 Q1314.49 1060.55 1314.23 1061.72 Q1313.41 1065.03 1310.35 1067.3 Q1309.83 1067.72 1308.92 1068.26 Q1310.02 1068.98 1310.98 1070.32 Q1312.41 1072.52 1312.41 1075.5 Q1312.41 1076.88 1312.03 1078.56 Q1310.98 1082.48 1307.28 1085.29 Q1303.55 1088.03 1299.13 1088.03 Q1296.74 1088.03 1295.1 1086.76 Q1293.48 1085.47 1292.85 1083.32 L1289.59 1096.46 Q1289.52 1096.79 1289.1 1096.79 L1288.87 1096.79 Q1288.37 1096.79 1288.37 1096.22 L1295.78 1066.71 Q1296.27 1064.72 1297.06 1062.85 Q1297.86 1060.97 1298.96 1059.29 Q1300.09 1057.6 1301.37 1056.36 Q1302.66 1055.09 1304.26 1054.37 Q1305.85 1053.62 1307.53 1053.62 Q1311.07 1053.62 1313.09 1056.03 Q1314.49 1057.74 1314.49 1059.94 M1311.8 1059.1 Q1311.8 1057.65 1311.21 1056.64 Q1310.02 1054.72 1307.49 1054.72 Q1305.97 1054.72 1304.51 1055.42 Q1303.08 1056.1 1301.94 1057.27 Q1300.79 1058.44 1299.8 1060.04 Q1298.82 1061.63 1298.1 1063.36 Q1297.39 1065.07 1296.92 1066.95 L1294.04 1078.56 Q1293.76 1079.8 1293.76 1080.91 Q1293.76 1083.53 1295.21 1085.24 Q1296.67 1086.95 1299.17 1086.95 Q1302.5 1086.95 1305.36 1084.47 Q1307.84 1082.24 1308.87 1078.33 Q1309.45 1075.87 1309.45 1074.16 Q1309.45 1072.29 1308.78 1070.83 Q1308.28 1069.66 1307.32 1068.96 Q1305.54 1069.59 1303.74 1069.59 Q1302.87 1069.59 1302.4 1069.57 Q1301.96 1069.55 1301.3 1069.45 Q1300.67 1069.36 1300.37 1069.1 Q1300.09 1068.84 1300.09 1068.45 Q1300.09 1068.21 1300.13 1068.12 Q1300.23 1067.74 1300.53 1067.48 Q1300.84 1067.23 1301.19 1067.11 Q1301.54 1066.97 1302.12 1066.9 Q1302.73 1066.83 1303.13 1066.83 Q1303.53 1066.81 1304.21 1066.81 Q1305.8 1066.81 1307.42 1067.44 Q1308.03 1067.11 1308.68 1066.52 Q1310.77 1064.58 1311.47 1061.49 Q1311.8 1060.34 1311.8 1059.1 M1305.89 1068.16 Q1304.91 1067.91 1304.16 1067.91 Q1301.42 1067.91 1301.28 1068.35 Q1301.28 1068.4 1301.37 1068.45 Q1301.47 1068.47 1301.68 1068.49 Q1301.91 1068.49 1302.1 1068.52 Q1302.31 1068.54 1302.66 1068.54 Q1303.01 1068.54 1303.2 1068.54 Q1303.41 1068.54 1303.79 1068.54 Q1304.72 1068.54 1305.89 1068.16 Z" fill="#000000" fill-rule="nonzero" fill-opacity="1" /><path clip-path="url(#clip510)" d="M1335.84 1105.74 Q1335.84 1105.87 1335.69 1106.38 Q1335.54 1106.89 1335.18 1107.67 Q1334.84 1108.46 1334.36 1109.18 Q1333.88 1109.89 1333.1 1110.41 Q1332.33 1110.92 1331.44 1110.92 Q1330.26 1110.92 1329.47 1110.13 Q1328.69 1109.35 1328.69 1108.17 Q1328.69 1108 1328.7 1107.84 Q1328.72 1107.67 1328.74 1107.58 Q1328.75 1107.46 1328.8 1107.28 Q1328.87 1107.08 1328.88 1107 Q1328.92 1106.92 1329 1106.67 Q1329.1 1106.41 1329.13 1106.31 Q1331.21 1101 1331.21 1098.79 Q1331.21 1096.44 1329.39 1096.44 Q1327.77 1096.44 1326.16 1097.62 Q1325.42 1098.21 1324.72 1099.26 Q1324.01 1100.31 1323.88 1100.71 Q1323.74 1101.56 1323.52 1102.21 Q1323.42 1102.67 1322.95 1104.46 L1322.21 1107.49 L1321.57 1110.04 Q1321.44 1110.4 1321.08 1110.66 Q1320.72 1110.92 1320.33 1110.92 Q1320 1110.92 1319.67 1110.69 Q1319.36 1110.48 1319.36 1109.97 Q1319.36 1109.71 1319.49 1109.23 L1324.36 1089.89 L1324.46 1089.23 Q1324.46 1089.03 1324.38 1088.93 Q1324.31 1088.82 1323.92 1088.74 Q1323.54 1088.66 1322.78 1088.66 Q1322.47 1088.66 1322.33 1088.64 Q1322.19 1088.62 1322.08 1088.54 Q1321.96 1088.44 1321.96 1088.25 Q1321.96 1087.97 1322.08 1087.82 Q1322.21 1087.66 1322.31 1087.62 Q1322.41 1087.59 1322.6 1087.57 Q1322.88 1087.56 1323.82 1087.47 Q1324.75 1087.38 1325.56 1087.31 Q1326.36 1087.25 1326.7 1087.25 Q1326.9 1087.25 1327 1087.34 Q1327.11 1087.43 1327.13 1087.52 L1327.15 1087.61 L1324.52 1098.28 Q1326.6 1095.71 1329.49 1095.71 Q1331.36 1095.71 1332.36 1096.67 Q1333.36 1097.62 1333.36 1099.3 Q1333.36 1101.21 1331.31 1106.67 Q1330.7 1108.2 1330.7 1109.07 Q1330.7 1109.64 1330.88 1109.9 Q1331.08 1110.17 1331.51 1110.17 Q1332.16 1110.17 1332.74 1109.79 Q1333.33 1109.4 1333.74 1108.76 Q1334.15 1108.1 1334.43 1107.44 Q1334.72 1106.77 1334.93 1106.02 Q1335.07 1105.61 1335.13 1105.51 Q1335.21 1105.41 1335.44 1105.41 Q1335.84 1105.41 1335.84 1105.74 Z" fill="#000000" fill-rule="nonzero" fill-opacity="1" /><path clip-path="url(#clip510)" d="M1354.85 1086.76 Q1354.1 1086.01 1354.1 1084.96 Q1354.1 1083.9 1354.85 1083.15 Q1355.6 1082.4 1356.66 1082.4 Q1357.71 1082.4 1358.46 1083.15 Q1359.21 1083.9 1359.21 1084.96 Q1359.21 1086.01 1358.46 1086.76 Q1357.71 1087.49 1356.66 1087.49 Q1355.6 1087.49 1354.85 1086.76 M1354.85 1071.16 Q1354.1 1070.41 1354.1 1069.36 Q1354.1 1068.3 1354.85 1067.55 Q1355.6 1066.81 1356.66 1066.81 Q1357.71 1066.81 1358.46 1067.55 Q1359.21 1068.3 1359.21 1069.36 Q1359.21 1070.41 1358.46 1071.16 Q1357.71 1071.89 1356.66 1071.89 Q1355.6 1071.89 1354.85 1071.16 Z" fill="#000000" fill-rule="nonzero" fill-opacity="1" /><path clip-path="url(#clip510)" d="M1392.51 1056.01 Q1388.9 1056.01 1387.07 1059.57 Q1385.27 1063.11 1385.27 1070.24 Q1385.27 1077.35 1387.07 1080.91 Q1388.9 1084.46 1392.51 1084.46 Q1396.14 1084.46 1397.95 1080.91 Q1399.78 1077.35 1399.78 1070.24 Q1399.78 1063.11 1397.95 1059.57 Q1396.14 1056.01 1392.51 1056.01 M1392.51 1052.3 Q1398.32 1052.3 1401.38 1056.91 Q1404.46 1061.49 1404.46 1070.24 Q1404.46 1078.97 1401.38 1083.58 Q1398.32 1088.16 1392.51 1088.16 Q1386.7 1088.16 1383.62 1083.58 Q1380.57 1078.97 1380.57 1070.24 Q1380.57 1061.49 1383.62 1056.91 Q1386.7 1052.3 1392.51 1052.3 Z" fill="#000000" fill-rule="nonzero" fill-opacity="1" /><path clip-path="url(#clip510)" d="M1412.67 1081.61 L1417.56 1081.61 L1417.56 1087.49 L1412.67 1087.49 L1412.67 1081.61 Z" fill="#000000" fill-rule="nonzero" fill-opacity="1" /><path clip-path="url(#clip510)" d="M1427.79 1052.93 L1446.14 1052.93 L1446.14 1056.86 L1432.07 1056.86 L1432.07 1065.33 Q1433.09 1064.99 1434.11 1064.83 Q1435.13 1064.64 1436.14 1064.64 Q1441.93 1064.64 1445.31 1067.81 Q1448.69 1070.98 1448.69 1076.4 Q1448.69 1081.98 1445.22 1085.08 Q1441.75 1088.16 1435.43 1088.16 Q1433.25 1088.16 1430.98 1087.79 Q1428.74 1087.42 1426.33 1086.68 L1426.33 1081.98 Q1428.41 1083.11 1430.64 1083.67 Q1432.86 1084.22 1435.33 1084.22 Q1439.34 1084.22 1441.68 1082.12 Q1444.02 1080.01 1444.02 1076.4 Q1444.02 1072.79 1441.68 1070.68 Q1439.34 1068.58 1435.33 1068.58 Q1433.46 1068.58 1431.58 1068.99 Q1429.73 1069.41 1427.79 1070.29 L1427.79 1052.93 Z" fill="#000000" fill-rule="nonzero" fill-opacity="1" /><polyline clip-path="url(#clip510)" style="stroke:#c271d2; stroke-linecap:round; stroke-linejoin:round; stroke-width:4; stroke-opacity:1; fill:none" points="523.202,1139.41 623.432,1139.41 "/>
<path clip-path="url(#clip510)" d="M666.253 1116.92 Q666.253 1117.52 665.996 1118.7 Q665.176 1122 662.108 1124.27 Q661.592 1124.69 660.679 1125.23 Q661.78 1125.96 662.74 1127.29 Q664.169 1129.49 664.169 1132.47 Q664.169 1133.85 663.794 1135.54 Q662.74 1139.45 659.039 1142.26 Q655.315 1145 650.888 1145 Q648.499 1145 646.86 1143.73 Q645.244 1142.45 644.611 1140.29 L641.355 1153.43 Q641.285 1153.76 640.864 1153.76 L640.629 1153.76 Q640.137 1153.76 640.137 1153.2 L647.539 1123.68 Q648.031 1121.69 648.827 1119.82 Q649.624 1117.95 650.724 1116.26 Q651.849 1114.57 653.137 1113.33 Q654.425 1112.07 656.018 1111.34 Q657.611 1110.59 659.297 1110.59 Q662.834 1110.59 664.848 1113 Q666.253 1114.71 666.253 1116.92 M663.56 1116.07 Q663.56 1114.62 662.974 1113.61 Q661.78 1111.69 659.25 1111.69 Q657.728 1111.69 656.276 1112.39 Q654.847 1113.07 653.699 1114.25 Q652.551 1115.42 651.568 1117.01 Q650.584 1118.6 649.858 1120.33 Q649.155 1122.04 648.687 1123.92 L645.806 1135.54 Q645.525 1136.78 645.525 1137.88 Q645.525 1140.5 646.977 1142.21 Q648.429 1143.92 650.935 1143.92 Q654.261 1143.92 657.119 1141.44 Q659.602 1139.21 660.632 1135.3 Q661.218 1132.84 661.218 1131.13 Q661.218 1129.26 660.538 1127.81 Q660.047 1126.64 659.086 1125.93 Q657.306 1126.57 655.503 1126.57 Q654.636 1126.57 654.168 1126.54 Q653.722 1126.52 653.067 1126.42 Q652.434 1126.33 652.13 1126.07 Q651.849 1125.82 651.849 1125.42 Q651.849 1125.18 651.896 1125.09 Q651.989 1124.71 652.294 1124.46 Q652.598 1124.2 652.95 1124.08 Q653.301 1123.94 653.886 1123.87 Q654.495 1123.8 654.894 1123.8 Q655.292 1123.78 655.971 1123.78 Q657.564 1123.78 659.18 1124.41 Q659.789 1124.08 660.445 1123.5 Q662.529 1121.55 663.232 1118.46 Q663.56 1117.31 663.56 1116.07 M657.657 1125.14 Q656.674 1124.88 655.924 1124.88 Q653.184 1124.88 653.043 1125.32 Q653.043 1125.37 653.137 1125.42 Q653.231 1125.44 653.441 1125.46 Q653.676 1125.46 653.863 1125.49 Q654.074 1125.51 654.425 1125.51 Q654.776 1125.51 654.964 1125.51 Q655.175 1125.51 655.549 1125.51 Q656.486 1125.51 657.657 1125.14 Z" fill="#000000" fill-rule="nonzero" fill-opacity="1" /><path clip-path="url(#clip510)" d="M687.598 1162.71 Q687.598 1162.84 687.451 1163.35 Q687.303 1163.86 686.943 1164.65 Q686.598 1165.43 686.123 1166.16 Q685.647 1166.86 684.86 1167.39 Q684.09 1167.89 683.204 1167.89 Q682.024 1167.89 681.237 1167.11 Q680.45 1166.32 680.45 1165.14 Q680.45 1164.97 680.466 1164.81 Q680.483 1164.65 680.499 1164.55 Q680.515 1164.43 680.565 1164.25 Q680.63 1164.06 680.647 1163.97 Q680.679 1163.89 680.761 1163.65 Q680.86 1163.38 680.893 1163.29 Q682.975 1157.97 682.975 1155.76 Q682.975 1153.42 681.155 1153.42 Q679.532 1153.42 677.925 1154.6 Q677.187 1155.19 676.482 1156.24 Q675.777 1157.29 675.646 1157.68 Q675.498 1158.53 675.285 1159.19 Q675.187 1159.65 674.711 1161.43 L673.974 1164.47 L673.334 1167.01 Q673.203 1167.37 672.842 1167.63 Q672.482 1167.89 672.088 1167.89 Q671.76 1167.89 671.432 1167.66 Q671.121 1167.45 671.121 1166.94 Q671.121 1166.68 671.252 1166.2 L676.121 1146.86 L676.22 1146.2 Q676.22 1146.01 676.138 1145.91 Q676.072 1145.79 675.679 1145.71 Q675.302 1145.63 674.547 1145.63 Q674.236 1145.63 674.088 1145.61 Q673.957 1145.6 673.842 1145.51 Q673.728 1145.41 673.728 1145.22 Q673.728 1144.94 673.842 1144.79 Q673.974 1144.63 674.072 1144.6 Q674.17 1144.56 674.367 1144.55 Q674.646 1144.53 675.58 1144.45 Q676.515 1144.35 677.318 1144.28 Q678.122 1144.22 678.466 1144.22 Q678.663 1144.22 678.761 1144.32 Q678.876 1144.4 678.892 1144.5 L678.909 1144.58 L676.285 1155.25 Q678.368 1152.68 681.253 1152.68 Q683.122 1152.68 684.123 1153.65 Q685.123 1154.6 685.123 1156.27 Q685.123 1158.19 683.073 1163.65 Q682.467 1165.17 682.467 1166.04 Q682.467 1166.61 682.647 1166.88 Q682.844 1167.14 683.27 1167.14 Q683.926 1167.14 684.5 1166.76 Q685.09 1166.37 685.5 1165.73 Q685.91 1165.07 686.188 1164.42 Q686.484 1163.75 686.697 1162.99 Q686.828 1162.58 686.893 1162.48 Q686.975 1162.38 687.205 1162.38 Q687.598 1162.38 687.598 1162.71 Z" fill="#000000" fill-rule="nonzero" fill-opacity="1" /><path clip-path="url(#clip510)" d="M706.616 1143.73 Q705.866 1142.98 705.866 1141.93 Q705.866 1140.88 706.616 1140.13 Q707.366 1139.38 708.42 1139.38 Q709.474 1139.38 710.223 1140.13 Q710.973 1140.88 710.973 1141.93 Q710.973 1142.98 710.223 1143.73 Q709.474 1144.46 708.42 1144.46 Q707.366 1144.46 706.616 1143.73 M706.616 1128.13 Q705.866 1127.39 705.866 1126.33 Q705.866 1125.28 706.616 1124.53 Q707.366 1123.78 708.42 1123.78 Q709.474 1123.78 710.223 1124.53 Q710.973 1125.28 710.973 1126.33 Q710.973 1127.39 710.223 1128.13 Q709.474 1128.86 708.42 1128.86 Q707.366 1128.86 706.616 1128.13 Z" fill="#000000" fill-rule="nonzero" fill-opacity="1" /><path clip-path="url(#clip510)" d="M744.273 1112.98 Q740.662 1112.98 738.834 1116.54 Q737.028 1120.09 737.028 1127.21 Q737.028 1134.32 738.834 1137.89 Q740.662 1141.43 744.273 1141.43 Q747.908 1141.43 749.713 1137.89 Q751.542 1134.32 751.542 1127.21 Q751.542 1120.09 749.713 1116.54 Q747.908 1112.98 744.273 1112.98 M744.273 1109.28 Q750.084 1109.28 753.139 1113.88 Q756.218 1118.46 756.218 1127.21 Q756.218 1135.94 753.139 1140.55 Q750.084 1145.13 744.273 1145.13 Q738.463 1145.13 735.385 1140.55 Q732.329 1135.94 732.329 1127.21 Q732.329 1118.46 735.385 1113.88 Q738.463 1109.28 744.273 1109.28 Z" fill="#000000" fill-rule="nonzero" fill-opacity="1" /><path clip-path="url(#clip510)" d="M764.435 1138.58 L769.32 1138.58 L769.32 1144.46 L764.435 1144.46 L764.435 1138.58 Z" fill="#000000" fill-rule="nonzero" fill-opacity="1" /><path clip-path="url(#clip510)" d="M779.551 1109.9 L797.907 1109.9 L797.907 1113.84 L783.833 1113.84 L783.833 1122.31 Q784.852 1121.96 785.87 1121.8 Q786.889 1121.61 787.907 1121.61 Q793.694 1121.61 797.074 1124.78 Q800.454 1127.96 800.454 1133.37 Q800.454 1138.95 796.981 1142.05 Q793.509 1145.13 787.19 1145.13 Q785.014 1145.13 782.745 1144.76 Q780.5 1144.39 778.093 1143.65 L778.093 1138.95 Q780.176 1140.09 782.398 1140.64 Q784.62 1141.2 787.097 1141.2 Q791.102 1141.2 793.44 1139.09 Q795.778 1136.98 795.778 1133.37 Q795.778 1129.76 793.44 1127.65 Q791.102 1125.55 787.097 1125.55 Q785.222 1125.55 783.347 1125.96 Q781.495 1126.38 779.551 1127.26 L779.551 1109.9 Z" fill="#000000" fill-rule="nonzero" fill-opacity="1" /><path clip-path="url(#clip510)" d="M809.713 1109.9 L828.069 1109.9 L828.069 1113.84 L813.995 1113.84 L813.995 1122.31 Q815.014 1121.96 816.032 1121.8 Q817.051 1121.61 818.069 1121.61 Q823.856 1121.61 827.236 1124.78 Q830.615 1127.96 830.615 1133.37 Q830.615 1138.95 827.143 1142.05 Q823.671 1145.13 817.352 1145.13 Q815.176 1145.13 812.907 1144.76 Q810.662 1144.39 808.254 1143.65 L808.254 1138.95 Q810.338 1140.09 812.56 1140.64 Q814.782 1141.2 817.259 1141.2 Q821.264 1141.2 823.602 1139.09 Q825.94 1136.98 825.94 1133.37 Q825.94 1129.76 823.602 1127.65 Q821.264 1125.55 817.259 1125.55 Q815.384 1125.55 813.509 1125.96 Q811.657 1126.38 809.713 1127.26 L809.713 1109.9 Z" fill="#000000" fill-rule="nonzero" fill-opacity="1" /><polyline clip-path="url(#clip510)" style="stroke:#ac8d18; stroke-linecap:round; stroke-linejoin:round; stroke-width:4; stroke-opacity:1; fill:none" points="847.321,1139.41 947.551,1139.41 "/>
<path clip-path="url(#clip510)" d="M990.372 1116.92 Q990.372 1117.52 990.114 1118.7 Q989.295 1122 986.226 1124.27 Q985.711 1124.69 984.798 1125.23 Q985.898 1125.96 986.859 1127.29 Q988.288 1129.49 988.288 1132.47 Q988.288 1133.85 987.913 1135.54 Q986.859 1139.45 983.158 1142.26 Q979.434 1145 975.007 1145 Q972.618 1145 970.978 1143.73 Q969.362 1142.45 968.73 1140.29 L965.474 1153.43 Q965.404 1153.76 964.982 1153.76 L964.748 1153.76 Q964.256 1153.76 964.256 1153.2 L971.658 1123.68 Q972.149 1121.69 972.946 1119.82 Q973.742 1117.95 974.843 1116.26 Q975.967 1114.57 977.256 1113.33 Q978.544 1112.07 980.137 1111.34 Q981.729 1110.59 983.416 1110.59 Q986.952 1110.59 988.967 1113 Q990.372 1114.71 990.372 1116.92 M987.679 1116.07 Q987.679 1114.62 987.093 1113.61 Q985.898 1111.69 983.369 1111.69 Q981.846 1111.69 980.394 1112.39 Q978.965 1113.07 977.818 1114.25 Q976.67 1115.42 975.686 1117.01 Q974.703 1118.6 973.976 1120.33 Q973.274 1122.04 972.805 1123.92 L969.924 1135.54 Q969.643 1136.78 969.643 1137.88 Q969.643 1140.5 971.095 1142.21 Q972.548 1143.92 975.054 1143.92 Q978.38 1143.92 981.237 1141.44 Q983.72 1139.21 984.751 1135.3 Q985.336 1132.84 985.336 1131.13 Q985.336 1129.26 984.657 1127.81 Q984.165 1126.64 983.205 1125.93 Q981.425 1126.57 979.621 1126.57 Q978.755 1126.57 978.286 1126.54 Q977.841 1126.52 977.185 1126.42 Q976.553 1126.33 976.248 1126.07 Q975.967 1125.82 975.967 1125.42 Q975.967 1125.18 976.014 1125.09 Q976.108 1124.71 976.412 1124.46 Q976.717 1124.2 977.068 1124.08 Q977.42 1123.94 978.005 1123.87 Q978.614 1123.8 979.012 1123.8 Q979.41 1123.78 980.09 1123.78 Q981.682 1123.78 983.299 1124.41 Q983.908 1124.08 984.563 1123.5 Q986.648 1121.55 987.351 1118.46 Q987.679 1117.31 987.679 1116.07 M981.776 1125.14 Q980.792 1124.88 980.043 1124.88 Q977.302 1124.88 977.162 1125.32 Q977.162 1125.37 977.256 1125.42 Q977.349 1125.44 977.56 1125.46 Q977.794 1125.46 977.982 1125.49 Q978.192 1125.51 978.544 1125.51 Q978.895 1125.51 979.083 1125.51 Q979.293 1125.51 979.668 1125.51 Q980.605 1125.51 981.776 1125.14 Z" fill="#000000" fill-rule="nonzero" fill-opacity="1" /><path clip-path="url(#clip510)" d="M1011.72 1162.71 Q1011.72 1162.84 1011.57 1163.35 Q1011.42 1163.86 1011.06 1164.65 Q1010.72 1165.43 1010.24 1166.16 Q1009.77 1166.86 1008.98 1167.39 Q1008.21 1167.89 1007.32 1167.89 Q1006.14 1167.89 1005.36 1167.11 Q1004.57 1166.32 1004.57 1165.14 Q1004.57 1164.97 1004.58 1164.81 Q1004.6 1164.65 1004.62 1164.55 Q1004.63 1164.43 1004.68 1164.25 Q1004.75 1164.06 1004.77 1163.97 Q1004.8 1163.89 1004.88 1163.65 Q1004.98 1163.38 1005.01 1163.29 Q1007.09 1157.97 1007.09 1155.76 Q1007.09 1153.42 1005.27 1153.42 Q1003.65 1153.42 1002.04 1154.6 Q1001.31 1155.19 1000.6 1156.24 Q999.896 1157.29 999.765 1157.68 Q999.617 1158.53 999.404 1159.19 Q999.306 1159.65 998.83 1161.43 L998.092 1164.47 L997.453 1167.01 Q997.322 1167.37 996.961 1167.63 Q996.6 1167.89 996.207 1167.89 Q995.879 1167.89 995.551 1167.66 Q995.239 1167.45 995.239 1166.94 Q995.239 1166.68 995.371 1166.2 L1000.24 1146.86 L1000.34 1146.2 Q1000.34 1146.01 1000.26 1145.91 Q1000.19 1145.79 999.797 1145.71 Q999.42 1145.63 998.666 1145.63 Q998.355 1145.63 998.207 1145.61 Q998.076 1145.6 997.961 1145.51 Q997.846 1145.41 997.846 1145.22 Q997.846 1144.94 997.961 1144.79 Q998.092 1144.63 998.191 1144.6 Q998.289 1144.56 998.486 1144.55 Q998.764 1144.53 999.699 1144.45 Q1000.63 1144.35 1001.44 1144.28 Q1002.24 1144.22 1002.58 1144.22 Q1002.78 1144.22 1002.88 1144.32 Q1002.99 1144.4 1003.01 1144.5 L1003.03 1144.58 L1000.4 1155.25 Q1002.49 1152.68 1005.37 1152.68 Q1007.24 1152.68 1008.24 1153.65 Q1009.24 1154.6 1009.24 1156.27 Q1009.24 1158.19 1007.19 1163.65 Q1006.59 1165.17 1006.59 1166.04 Q1006.59 1166.61 1006.77 1166.88 Q1006.96 1167.14 1007.39 1167.14 Q1008.04 1167.14 1008.62 1166.76 Q1009.21 1166.37 1009.62 1165.73 Q1010.03 1165.07 1010.31 1164.42 Q1010.6 1163.75 1010.82 1162.99 Q1010.95 1162.58 1011.01 1162.48 Q1011.09 1162.38 1011.32 1162.38 Q1011.72 1162.38 1011.72 1162.71 Z" fill="#000000" fill-rule="nonzero" fill-opacity="1" /><path clip-path="url(#clip510)" d="M1030.73 1143.73 Q1029.99 1142.98 1029.99 1141.93 Q1029.99 1140.88 1030.73 1140.13 Q1031.48 1139.38 1032.54 1139.38 Q1033.59 1139.38 1034.34 1140.13 Q1035.09 1140.88 1035.09 1141.93 Q1035.09 1142.98 1034.34 1143.73 Q1033.59 1144.46 1032.54 1144.46 Q1031.48 1144.46 1030.73 1143.73 M1030.73 1128.13 Q1029.99 1127.39 1029.99 1126.33 Q1029.99 1125.28 1030.73 1124.53 Q1031.48 1123.78 1032.54 1123.78 Q1033.59 1123.78 1034.34 1124.53 Q1035.09 1125.28 1035.09 1126.33 Q1035.09 1127.39 1034.34 1128.13 Q1033.59 1128.86 1032.54 1128.86 Q1031.48 1128.86 1030.73 1128.13 Z" fill="#000000" fill-rule="nonzero" fill-opacity="1" /><path clip-path="url(#clip510)" d="M1068.39 1112.98 Q1064.78 1112.98 1062.95 1116.54 Q1061.15 1120.09 1061.15 1127.21 Q1061.15 1134.32 1062.95 1137.89 Q1064.78 1141.43 1068.39 1141.43 Q1072.03 1141.43 1073.83 1137.89 Q1075.66 1134.32 1075.66 1127.21 Q1075.66 1120.09 1073.83 1116.54 Q1072.03 1112.98 1068.39 1112.98 M1068.39 1109.28 Q1074.2 1109.28 1077.26 1113.88 Q1080.34 1118.46 1080.34 1127.21 Q1080.34 1135.94 1077.26 1140.55 Q1074.2 1145.13 1068.39 1145.13 Q1062.58 1145.13 1059.5 1140.55 Q1056.45 1135.94 1056.45 1127.21 Q1056.45 1118.46 1059.5 1113.88 Q1062.58 1109.28 1068.39 1109.28 Z" fill="#000000" fill-rule="nonzero" fill-opacity="1" /><path clip-path="url(#clip510)" d="M1088.55 1138.58 L1093.44 1138.58 L1093.44 1144.46 L1088.55 1144.46 L1088.55 1138.58 Z" fill="#000000" fill-rule="nonzero" fill-opacity="1" /><path clip-path="url(#clip510)" d="M1114.2 1125.32 Q1111.05 1125.32 1109.2 1127.47 Q1107.37 1129.62 1107.37 1133.37 Q1107.37 1137.1 1109.2 1139.27 Q1111.05 1141.43 1114.2 1141.43 Q1117.35 1141.43 1119.18 1139.27 Q1121.03 1137.1 1121.03 1133.37 Q1121.03 1129.62 1119.18 1127.47 Q1117.35 1125.32 1114.2 1125.32 M1123.48 1110.66 L1123.48 1114.92 Q1121.73 1114.09 1119.92 1113.65 Q1118.14 1113.21 1116.38 1113.21 Q1111.75 1113.21 1109.29 1116.34 Q1106.86 1119.46 1106.52 1125.78 Q1107.88 1123.77 1109.94 1122.7 Q1112 1121.61 1114.48 1121.61 Q1119.69 1121.61 1122.7 1124.78 Q1125.73 1127.93 1125.73 1133.37 Q1125.73 1138.7 1122.58 1141.91 Q1119.43 1145.13 1114.2 1145.13 Q1108.21 1145.13 1105.04 1140.55 Q1101.86 1135.94 1101.86 1127.21 Q1101.86 1119.02 1105.75 1114.16 Q1109.64 1109.28 1116.19 1109.28 Q1117.95 1109.28 1119.73 1109.62 Q1121.54 1109.97 1123.48 1110.66 Z" fill="#000000" fill-rule="nonzero" fill-opacity="1" /><polyline clip-path="url(#clip510)" style="stroke:#000000; stroke-linecap:round; stroke-linejoin:round; stroke-width:6; stroke-opacity:1; fill:none" stroke-dasharray="24, 15" points="1171.44,1139.41 1271.67,1139.41 "/>
<path clip-path="url(#clip510)" d="M1309.43 1136.86 Q1309.43 1137.47 1309.27 1138.66 Q1309.1 1139.86 1308.71 1141.59 Q1308.31 1143.32 1307.72 1145.15 Q1307.16 1146.98 1306.27 1148.8 Q1305.38 1150.61 1304.33 1152.04 Q1303.27 1153.46 1301.8 1154.35 Q1300.32 1155.24 1298.66 1155.24 Q1297.88 1155.24 1297.13 1155.13 Q1296.39 1155.01 1295.45 1154.64 Q1294.51 1154.26 1293.83 1153.65 Q1293.15 1153.02 1292.68 1151.9 Q1292.22 1150.77 1292.22 1149.3 Q1292.22 1147.77 1292.78 1145.74 Q1293.36 1143.67 1294.96 1139.46 Q1295.78 1137.28 1295.78 1136.09 Q1295.78 1135.55 1295.66 1135.22 Q1295.54 1134.87 1295.31 1134.75 Q1295.07 1134.61 1294.93 1134.59 Q1294.82 1134.56 1294.58 1134.56 Q1293.29 1134.56 1291.98 1135.9 Q1290.67 1137.23 1289.73 1140.51 Q1289.55 1141.1 1289.43 1141.24 Q1289.31 1141.38 1288.96 1141.38 Q1288.37 1141.36 1288.37 1140.89 Q1288.37 1140.75 1288.54 1140.21 Q1288.7 1139.65 1289.01 1138.8 Q1289.31 1137.94 1289.85 1137.05 Q1290.39 1136.13 1291.04 1135.34 Q1291.72 1134.54 1292.68 1134.02 Q1293.64 1133.51 1294.72 1133.51 Q1296.48 1133.51 1297.56 1134.66 Q1298.66 1135.78 1298.66 1137.44 Q1298.66 1138.36 1298.07 1139.83 Q1297.09 1142.5 1296.64 1143.79 Q1296.2 1145.08 1295.73 1146.91 Q1295.28 1148.73 1295.28 1150 Q1295.28 1151.92 1296.17 1153.04 Q1297.06 1154.17 1298.84 1154.17 Q1300.44 1154.17 1301.87 1153.02 Q1303.32 1151.85 1304.28 1150.19 Q1305.24 1148.5 1305.97 1146.63 Q1306.69 1144.73 1307.02 1143.3 Q1307.37 1141.85 1307.37 1141.17 Q1307.37 1138.8 1305.75 1137.26 Q1305.31 1136.81 1305.15 1136.53 Q1304.98 1136.25 1304.98 1135.8 Q1304.98 1134.98 1305.71 1134.26 Q1306.46 1133.51 1307.32 1133.51 Q1308.12 1133.51 1308.78 1134.31 Q1309.43 1135.1 1309.43 1136.86 Z" fill="#000000" fill-rule="nonzero" fill-opacity="1" /><path clip-path="url(#clip510)" d="M1324.72 1147.42 Q1324.77 1146.84 1325.68 1146.84 L1355.07 1146.84 Q1356.46 1146.84 1356.48 1147.37 Q1356.48 1147.96 1355.17 1147.94 L1326.01 1147.94 Q1324.72 1147.96 1324.72 1147.42 M1324.72 1138.05 Q1324.72 1137.47 1325.73 1137.49 L1355.03 1137.49 Q1356.46 1137.49 1356.48 1138.05 Q1356.48 1138.59 1355.26 1138.59 L1325.68 1138.59 Q1324.72 1138.59 1324.72 1138.05 Z" fill="#000000" fill-rule="nonzero" fill-opacity="1" /><path clip-path="url(#clip510)" d="M1374.98 1139.36 Q1374.98 1132.31 1376.76 1128.47 Q1379.24 1122.76 1385.1 1122.76 Q1386.34 1122.76 1387.63 1123.11 Q1388.94 1123.44 1390.58 1124.73 Q1392.24 1126.01 1393.25 1128.12 Q1395.17 1132.2 1395.17 1139.36 Q1395.17 1146.37 1393.39 1150.19 Q1390.79 1155.76 1385.05 1155.76 Q1382.9 1155.76 1380.7 1154.66 Q1378.52 1153.56 1377.14 1150.91 Q1374.98 1146.95 1374.98 1139.36 M1378.96 1138.78 Q1378.96 1146.02 1379.48 1148.9 Q1380.06 1152.01 1381.66 1153.37 Q1383.27 1154.71 1385.05 1154.71 Q1386.97 1154.71 1388.57 1153.28 Q1390.18 1151.83 1390.68 1148.71 Q1391.21 1145.64 1391.19 1138.78 Q1391.19 1132.1 1390.72 1129.43 Q1390.09 1126.32 1388.4 1125.08 Q1386.74 1123.81 1385.05 1123.81 Q1384.42 1123.81 1383.74 1124 Q1383.09 1124.19 1382.13 1124.73 Q1381.17 1125.26 1380.42 1126.6 Q1379.69 1127.93 1379.34 1129.95 Q1378.96 1132.55 1378.96 1138.78 Z" fill="#000000" fill-rule="nonzero" fill-opacity="1" /><path clip-path="url(#clip510)" d="M280.854 100.699 Q280.532 101.085 279.952 101.085 Q279.405 101.085 279.018 100.699 L265.363 87.0432 L251.708 100.699 Q251.321 101.085 250.741 101.085 Q250.194 101.085 249.84 100.699 Q249.453 100.344 249.453 99.7967 Q249.453 99.2492 249.84 98.8628 L263.495 85.2075 L249.84 71.5522 Q249.453 71.1657 249.453 70.6182 Q249.453 70.0385 249.84 69.7165 Q250.194 69.33 250.741 69.33 Q251.321 69.33 251.708 69.7165 L265.363 83.3718 L279.018 69.7165 Q279.405 69.33 279.952 69.33 Q280.532 69.33 280.854 69.7165 Q281.24 70.0385 281.24 70.6182 Q281.24 71.1657 280.854 71.5522 L267.199 85.2075 L280.854 98.8628 Q281.24 99.2492 281.24 99.829 Q281.24 100.376 280.854 100.699 Z" fill="#000000" fill-rule="nonzero" fill-opacity="1" /><path clip-path="url(#clip510)" d="M286.687 64.0482 L286.687 61.9871 Q294.61 61.9871 298.7 57.7681 Q299.827 57.7681 300.02 58.0257 Q300.213 58.2834 300.213 59.475 L300.213 96.4795 Q300.213 98.4441 301.18 99.056 Q302.146 99.6679 306.365 99.6679 L308.458 99.6679 L308.458 101.697 Q306.139 101.504 297.766 101.504 Q289.392 101.504 287.106 101.697 L287.106 99.6679 L289.199 99.6679 Q293.354 99.6679 294.352 99.0882 Q295.35 98.4763 295.35 96.4795 L295.35 62.3091 Q291.904 64.0482 286.687 64.0482 Z" fill="#000000" fill-rule="nonzero" fill-opacity="1" /><path clip-path="url(#clip510)" d="M319.347 80.6021 Q319.347 70.9081 321.795 65.6263 Q325.209 57.7681 333.26 57.7681 Q334.967 57.7681 336.738 58.2512 Q338.542 58.7021 340.796 60.4734 Q343.083 62.2447 344.468 65.1432 Q347.108 70.7471 347.108 80.6021 Q347.108 90.2316 344.661 95.4812 Q341.086 103.146 333.196 103.146 Q330.233 103.146 327.205 101.632 Q324.21 100.119 322.31 96.4795 Q319.347 91.0368 319.347 80.6021 M324.822 79.7969 Q324.822 89.7485 325.531 93.7098 Q326.336 97.9932 328.526 99.8612 Q330.748 101.697 333.196 101.697 Q335.836 101.697 338.026 99.7323 Q340.249 97.7356 340.925 93.4522 Q341.666 89.2332 341.634 79.7969 Q341.634 70.6182 340.989 66.9468 Q340.12 62.6634 337.801 60.9565 Q335.514 59.2174 333.196 59.2174 Q332.326 59.2174 331.392 59.475 Q330.49 59.7327 329.17 60.4734 Q327.849 61.2141 326.819 63.0499 Q325.82 64.8856 325.337 67.6553 Q324.822 71.2301 324.822 79.7969 Z" fill="#000000" fill-rule="nonzero" fill-opacity="1" /><path clip-path="url(#clip510)" d="M384.359 55.2906 Q384.629 55.5611 384.629 55.9444 Q384.629 56.3276 384.359 56.5981 Q384.088 56.8687 383.705 56.8687 L354.804 56.8687 Q354.42 56.8687 354.15 56.5981 Q353.879 56.3276 353.879 55.9444 Q353.879 55.5611 354.15 55.2906 Q354.42 55.02 354.804 55.02 L383.705 55.02 Q384.088 55.02 384.359 55.2906 Z" fill="#000000" fill-rule="nonzero" fill-opacity="1" /><path clip-path="url(#clip510)" d="M389.445 59.867 L389.445 58.4467 L403.625 36.7819 Q403.986 36.2183 404.55 36.2408 Q405.068 36.2408 405.181 36.4437 Q405.293 36.6466 405.293 37.4356 L405.293 58.4467 L409.915 58.4467 L409.915 59.867 L405.293 59.867 L405.293 63.8799 Q405.293 65.21 405.835 65.6383 Q406.398 66.0667 408.788 66.0667 L409.757 66.0667 L409.757 67.4869 Q407.864 67.3517 403.49 67.3517 Q399.139 67.3517 397.245 67.4869 L397.245 66.0667 L398.215 66.0667 Q400.604 66.0667 401.168 65.6609 Q401.732 65.2325 401.732 63.8799 L401.732 59.867 L389.445 59.867 M390.753 58.4467 L402.002 58.4467 L402.002 41.2231 L390.753 58.4467 Z" fill="#000000" fill-rule="nonzero" fill-opacity="1" /></svg>
