<?xml version="1.0" encoding="utf-8"?>
<svg xmlns="http://www.w3.org/2000/svg" xmlns:xlink="http://www.w3.org/1999/xlink" width="400" height="250" viewBox="0 0 1600 1000">
<defs>
  <clipPath id="clip810">
    <rect x="0" y="0" width="1600" height="1000"/>
  </clipPath>
</defs>
<path clip-path="url(#clip810)" d="M0 1000 L1600 1000 L1600 0 L0 0  Z" fill="#ffffff" fill-rule="evenodd" fill-opacity="1"/>
<defs>
  <clipPath id="clip811">
    <rect x="320" y="0" width="1121" height="1000"/>
  </clipPath>
</defs>
<path clip-path="url(#clip810)" d="M205.577 834.31 L1552.76 834.31 L1552.76 110.236 L205.577 110.236  Z" fill="#ffffff" fill-rule="evenodd" fill-opacity="1"/>
<defs>
  <clipPath id="clip812">
    <rect x="205" y="110" width="1348" height="725"/>
  </clipPath>
</defs>
<polyline clip-path="url(#clip812)" style="stroke:#000000; stroke-linecap:round; stroke-linejoin:round; stroke-width:2; stroke-opacity:0.1; fill:none" points="205.577,834.31 205.577,110.236 "/>
<polyline clip-path="url(#clip812)" style="stroke:#000000; stroke-linecap:round; stroke-linejoin:round; stroke-width:2; stroke-opacity:0.1; fill:none" points="430.107,834.31 430.107,110.236 "/>
<polyline clip-path="url(#clip812)" style="stroke:#000000; stroke-linecap:round; stroke-linejoin:round; stroke-width:2; stroke-opacity:0.1; fill:none" points="654.636,834.31 654.636,110.236 "/>
<polyline clip-path="url(#clip812)" style="stroke:#000000; stroke-linecap:round; stroke-linejoin:round; stroke-width:2; stroke-opacity:0.1; fill:none" points="879.166,834.31 879.166,110.236 "/>
<polyline clip-path="url(#clip812)" style="stroke:#000000; stroke-linecap:round; stroke-linejoin:round; stroke-width:2; stroke-opacity:0.1; fill:none" points="1103.7,834.31 1103.7,110.236 "/>
<polyline clip-path="url(#clip812)" style="stroke:#000000; stroke-linecap:round; stroke-linejoin:round; stroke-width:2; stroke-opacity:0.1; fill:none" points="1328.23,834.31 1328.23,110.236 "/>
<polyline clip-path="url(#clip812)" style="stroke:#000000; stroke-linecap:round; stroke-linejoin:round; stroke-width:2; stroke-opacity:0.1; fill:none" points="1552.76,834.31 1552.76,110.236 "/>
<polyline clip-path="url(#clip812)" style="stroke:#000000; stroke-linecap:round; stroke-linejoin:round; stroke-width:2; stroke-opacity:0.1; fill:none" points="205.577,725.855 1552.76,725.855 "/>
<polyline clip-path="url(#clip812)" style="stroke:#000000; stroke-linecap:round; stroke-linejoin:round; stroke-width:2; stroke-opacity:0.1; fill:none" points="205.577,541.503 1552.76,541.503 "/>
<polyline clip-path="url(#clip812)" style="stroke:#000000; stroke-linecap:round; stroke-linejoin:round; stroke-width:2; stroke-opacity:0.1; fill:none" points="205.577,357.15 1552.76,357.15 "/>
<polyline clip-path="url(#clip812)" style="stroke:#000000; stroke-linecap:round; stroke-linejoin:round; stroke-width:2; stroke-opacity:0.1; fill:none" points="205.577,172.798 1552.76,172.798 "/>
<polyline clip-path="url(#clip810)" style="stroke:#000000; stroke-linecap:round; stroke-linejoin:round; stroke-width:4; stroke-opacity:1; fill:none" points="205.577,834.31 1552.76,834.31 "/>
<polyline clip-path="url(#clip810)" style="stroke:#000000; stroke-linecap:round; stroke-linejoin:round; stroke-width:4; stroke-opacity:1; fill:none" points="205.577,834.31 205.577,815.412 "/>
<polyline clip-path="url(#clip810)" style="stroke:#000000; stroke-linecap:round; stroke-linejoin:round; stroke-width:4; stroke-opacity:1; fill:none" points="430.107,834.31 430.107,815.412 "/>
<polyline clip-path="url(#clip810)" style="stroke:#000000; stroke-linecap:round; stroke-linejoin:round; stroke-width:4; stroke-opacity:1; fill:none" points="654.636,834.31 654.636,815.412 "/>
<polyline clip-path="url(#clip810)" style="stroke:#000000; stroke-linecap:round; stroke-linejoin:round; stroke-width:4; stroke-opacity:1; fill:none" points="879.166,834.31 879.166,815.412 "/>
<polyline clip-path="url(#clip810)" style="stroke:#000000; stroke-linecap:round; stroke-linejoin:round; stroke-width:4; stroke-opacity:1; fill:none" points="1103.7,834.31 1103.7,815.412 "/>
<polyline clip-path="url(#clip810)" style="stroke:#000000; stroke-linecap:round; stroke-linejoin:round; stroke-width:4; stroke-opacity:1; fill:none" points="1328.23,834.31 1328.23,815.412 "/>
<polyline clip-path="url(#clip810)" style="stroke:#000000; stroke-linecap:round; stroke-linejoin:round; stroke-width:4; stroke-opacity:1; fill:none" points="1552.76,834.31 1552.76,815.412 "/>
<path clip-path="url(#clip810)" d="M152.602 873.481 L182.278 873.481 L182.278 877.416 L152.602 877.416 L152.602 873.481 Z" fill="#000000" fill-rule="nonzero" fill-opacity="1" /><path clip-path="url(#clip810)" d="M193.181 886.375 L200.82 886.375 L200.82 860.009 L192.51 861.676 L192.51 857.417 L200.773 855.75 L205.449 855.75 L205.449 886.375 L213.088 886.375 L213.088 890.31 L193.181 890.31 L193.181 886.375 Z" fill="#000000" fill-rule="nonzero" fill-opacity="1" /><path clip-path="url(#clip810)" d="M222.533 884.43 L227.417 884.43 L227.417 890.31 L222.533 890.31 L222.533 884.43 Z" fill="#000000" fill-rule="nonzero" fill-opacity="1" /><path clip-path="url(#clip810)" d="M237.648 855.75 L256.005 855.75 L256.005 859.685 L241.931 859.685 L241.931 868.157 Q242.949 867.81 243.968 867.648 Q244.986 867.463 246.005 867.463 Q251.792 867.463 255.171 870.634 Q258.551 873.805 258.551 879.222 Q258.551 884.801 255.079 887.902 Q251.607 890.981 245.287 890.981 Q243.111 890.981 240.843 890.611 Q238.597 890.24 236.19 889.5 L236.19 884.801 Q238.273 885.935 240.495 886.49 Q242.718 887.046 245.195 887.046 Q249.199 887.046 251.537 884.94 Q253.875 882.833 253.875 879.222 Q253.875 875.611 251.537 873.504 Q249.199 871.398 245.195 871.398 Q243.32 871.398 241.445 871.815 Q239.593 872.231 237.648 873.111 L237.648 855.75 Z" fill="#000000" fill-rule="nonzero" fill-opacity="1" /><path clip-path="url(#clip810)" d="M376.635 873.481 L406.31 873.481 L406.31 877.416 L376.635 877.416 L376.635 873.481 Z" fill="#000000" fill-rule="nonzero" fill-opacity="1" /><path clip-path="url(#clip810)" d="M417.213 886.375 L424.852 886.375 L424.852 860.009 L416.542 861.676 L416.542 857.417 L424.806 855.75 L429.482 855.75 L429.482 886.375 L437.12 886.375 L437.12 890.31 L417.213 890.31 L417.213 886.375 Z" fill="#000000" fill-rule="nonzero" fill-opacity="1" /><path clip-path="url(#clip810)" d="M446.565 884.43 L451.449 884.43 L451.449 890.31 L446.565 890.31 L446.565 884.43 Z" fill="#000000" fill-rule="nonzero" fill-opacity="1" /><path clip-path="url(#clip810)" d="M471.634 858.829 Q468.023 858.829 466.194 862.393 Q464.389 865.935 464.389 873.065 Q464.389 880.171 466.194 883.736 Q468.023 887.277 471.634 887.277 Q475.268 887.277 477.074 883.736 Q478.903 880.171 478.903 873.065 Q478.903 865.935 477.074 862.393 Q475.268 858.829 471.634 858.829 M471.634 855.125 Q477.444 855.125 480.5 859.731 Q483.578 864.315 483.578 873.065 Q483.578 881.791 480.5 886.398 Q477.444 890.981 471.634 890.981 Q465.824 890.981 462.745 886.398 Q459.69 881.791 459.69 873.065 Q459.69 864.315 462.745 859.731 Q465.824 855.125 471.634 855.125 Z" fill="#000000" fill-rule="nonzero" fill-opacity="1" /><path clip-path="url(#clip810)" d="M601.662 873.481 L631.338 873.481 L631.338 877.416 L601.662 877.416 L601.662 873.481 Z" fill="#000000" fill-rule="nonzero" fill-opacity="1" /><path clip-path="url(#clip810)" d="M651.43 858.829 Q647.819 858.829 645.991 862.393 Q644.185 865.935 644.185 873.065 Q644.185 880.171 645.991 883.736 Q647.819 887.277 651.43 887.277 Q655.065 887.277 656.87 883.736 Q658.699 880.171 658.699 873.065 Q658.699 865.935 656.87 862.393 Q655.065 858.829 651.43 858.829 M651.43 855.125 Q657.241 855.125 660.296 859.731 Q663.375 864.315 663.375 873.065 Q663.375 881.791 660.296 886.398 Q657.241 890.981 651.43 890.981 Q645.62 890.981 642.542 886.398 Q639.486 881.791 639.486 873.065 Q639.486 864.315 642.542 859.731 Q645.62 855.125 651.43 855.125 Z" fill="#000000" fill-rule="nonzero" fill-opacity="1" /><path clip-path="url(#clip810)" d="M671.592 884.43 L676.477 884.43 L676.477 890.31 L671.592 890.31 L671.592 884.43 Z" fill="#000000" fill-rule="nonzero" fill-opacity="1" /><path clip-path="url(#clip810)" d="M686.708 855.75 L705.064 855.75 L705.064 859.685 L690.99 859.685 L690.99 868.157 Q692.009 867.81 693.027 867.648 Q694.046 867.463 695.064 867.463 Q700.851 867.463 704.231 870.634 Q707.611 873.805 707.611 879.222 Q707.611 884.801 704.138 887.902 Q700.666 890.981 694.347 890.981 Q692.171 890.981 689.902 890.611 Q687.657 890.24 685.25 889.5 L685.25 884.801 Q687.333 885.935 689.555 886.49 Q691.777 887.046 694.254 887.046 Q698.259 887.046 700.597 884.94 Q702.935 882.833 702.935 879.222 Q702.935 875.611 700.597 873.504 Q698.259 871.398 694.254 871.398 Q692.379 871.398 690.504 871.815 Q688.652 872.231 686.708 873.111 L686.708 855.75 Z" fill="#000000" fill-rule="nonzero" fill-opacity="1" /><path clip-path="url(#clip810)" d="M856.551 858.829 Q852.94 858.829 851.111 862.393 Q849.305 865.935 849.305 873.065 Q849.305 880.171 851.111 883.736 Q852.94 887.277 856.551 887.277 Q860.185 887.277 861.99 883.736 Q863.819 880.171 863.819 873.065 Q863.819 865.935 861.99 862.393 Q860.185 858.829 856.551 858.829 M856.551 855.125 Q862.361 855.125 865.416 859.731 Q868.495 864.315 868.495 873.065 Q868.495 881.791 865.416 886.398 Q862.361 890.981 856.551 890.981 Q850.741 890.981 847.662 886.398 Q844.606 881.791 844.606 873.065 Q844.606 864.315 847.662 859.731 Q850.741 855.125 856.551 855.125 Z" fill="#000000" fill-rule="nonzero" fill-opacity="1" /><path clip-path="url(#clip810)" d="M876.713 884.43 L881.597 884.43 L881.597 890.31 L876.713 890.31 L876.713 884.43 Z" fill="#000000" fill-rule="nonzero" fill-opacity="1" /><path clip-path="url(#clip810)" d="M901.782 858.829 Q898.171 858.829 896.342 862.393 Q894.537 865.935 894.537 873.065 Q894.537 880.171 896.342 883.736 Q898.171 887.277 901.782 887.277 Q905.416 887.277 907.222 883.736 Q909.05 880.171 909.05 873.065 Q909.05 865.935 907.222 862.393 Q905.416 858.829 901.782 858.829 M901.782 855.125 Q907.592 855.125 910.648 859.731 Q913.726 864.315 913.726 873.065 Q913.726 881.791 910.648 886.398 Q907.592 890.981 901.782 890.981 Q895.972 890.981 892.893 886.398 Q889.838 881.791 889.838 873.065 Q889.838 864.315 892.893 859.731 Q895.972 855.125 901.782 855.125 Z" fill="#000000" fill-rule="nonzero" fill-opacity="1" /><path clip-path="url(#clip810)" d="M1081.58 858.829 Q1077.97 858.829 1076.14 862.393 Q1074.33 865.935 1074.33 873.065 Q1074.33 880.171 1076.14 883.736 Q1077.97 887.277 1081.58 887.277 Q1085.21 887.277 1087.02 883.736 Q1088.85 880.171 1088.85 873.065 Q1088.85 865.935 1087.02 862.393 Q1085.21 858.829 1081.58 858.829 M1081.58 855.125 Q1087.39 855.125 1090.44 859.731 Q1093.52 864.315 1093.52 873.065 Q1093.52 881.791 1090.44 886.398 Q1087.39 890.981 1081.58 890.981 Q1075.77 890.981 1072.69 886.398 Q1069.63 881.791 1069.63 873.065 Q1069.63 864.315 1072.69 859.731 Q1075.77 855.125 1081.58 855.125 Z" fill="#000000" fill-rule="nonzero" fill-opacity="1" /><path clip-path="url(#clip810)" d="M1101.74 884.43 L1106.62 884.43 L1106.62 890.31 L1101.74 890.31 L1101.74 884.43 Z" fill="#000000" fill-rule="nonzero" fill-opacity="1" /><path clip-path="url(#clip810)" d="M1116.86 855.75 L1135.21 855.75 L1135.21 859.685 L1121.14 859.685 L1121.14 868.157 Q1122.16 867.81 1123.18 867.648 Q1124.19 867.463 1125.21 867.463 Q1131 867.463 1134.38 870.634 Q1137.76 873.805 1137.76 879.222 Q1137.76 884.801 1134.29 887.902 Q1130.81 890.981 1124.49 890.981 Q1122.32 890.981 1120.05 890.611 Q1117.8 890.24 1115.4 889.5 L1115.4 884.801 Q1117.48 885.935 1119.7 886.49 Q1121.93 887.046 1124.4 887.046 Q1128.41 887.046 1130.74 884.94 Q1133.08 882.833 1133.08 879.222 Q1133.08 875.611 1130.74 873.504 Q1128.41 871.398 1124.4 871.398 Q1122.53 871.398 1120.65 871.815 Q1118.8 872.231 1116.86 873.111 L1116.86 855.75 Z" fill="#000000" fill-rule="nonzero" fill-opacity="1" /><path clip-path="url(#clip810)" d="M1295.38 886.375 L1303.02 886.375 L1303.02 860.009 L1294.71 861.676 L1294.71 857.417 L1302.97 855.75 L1307.65 855.75 L1307.65 886.375 L1315.29 886.375 L1315.29 890.31 L1295.38 890.31 L1295.38 886.375 Z" fill="#000000" fill-rule="nonzero" fill-opacity="1" /><path clip-path="url(#clip810)" d="M1324.73 884.43 L1329.61 884.43 L1329.61 890.31 L1324.73 890.31 L1324.73 884.43 Z" fill="#000000" fill-rule="nonzero" fill-opacity="1" /><path clip-path="url(#clip810)" d="M1349.8 858.829 Q1346.19 858.829 1344.36 862.393 Q1342.55 865.935 1342.55 873.065 Q1342.55 880.171 1344.36 883.736 Q1346.19 887.277 1349.8 887.277 Q1353.43 887.277 1355.24 883.736 Q1357.07 880.171 1357.07 873.065 Q1357.07 865.935 1355.24 862.393 Q1353.43 858.829 1349.8 858.829 M1349.8 855.125 Q1355.61 855.125 1358.67 859.731 Q1361.74 864.315 1361.74 873.065 Q1361.74 881.791 1358.67 886.398 Q1355.61 890.981 1349.8 890.981 Q1343.99 890.981 1340.91 886.398 Q1337.86 881.791 1337.86 873.065 Q1337.86 864.315 1340.91 859.731 Q1343.99 855.125 1349.8 855.125 Z" fill="#000000" fill-rule="nonzero" fill-opacity="1" /><path clip-path="url(#clip810)" d="M1520.41 886.375 L1528.05 886.375 L1528.05 860.009 L1519.74 861.676 L1519.74 857.417 L1528 855.75 L1532.67 855.75 L1532.67 886.375 L1540.31 886.375 L1540.31 890.31 L1520.41 890.31 L1520.41 886.375 Z" fill="#000000" fill-rule="nonzero" fill-opacity="1" /><path clip-path="url(#clip810)" d="M1549.76 884.43 L1554.64 884.43 L1554.64 890.31 L1549.76 890.31 L1549.76 884.43 Z" fill="#000000" fill-rule="nonzero" fill-opacity="1" /><path clip-path="url(#clip810)" d="M1564.87 855.75 L1583.23 855.75 L1583.23 859.685 L1569.16 859.685 L1569.16 868.157 Q1570.17 867.81 1571.19 867.648 Q1572.21 867.463 1573.23 867.463 Q1579.02 867.463 1582.4 870.634 Q1585.78 873.805 1585.78 879.222 Q1585.78 884.801 1582.3 887.902 Q1578.83 890.981 1572.51 890.981 Q1570.34 890.981 1568.07 890.611 Q1565.82 890.24 1563.42 889.5 L1563.42 884.801 Q1565.5 885.935 1567.72 886.49 Q1569.94 887.046 1572.42 887.046 Q1576.42 887.046 1578.76 884.94 Q1581.1 882.833 1581.1 879.222 Q1581.1 875.611 1578.76 873.504 Q1576.42 871.398 1572.42 871.398 Q1570.55 871.398 1568.67 871.815 Q1566.82 872.231 1564.87 873.111 L1564.87 855.75 Z" fill="#000000" fill-rule="nonzero" fill-opacity="1" /><path clip-path="url(#clip810)" d="M891.658 917.554 Q891.658 918.037 891.304 918.746 Q890.982 919.39 890.305 919.808 Q889.661 920.195 888.953 920.195 Q888.727 920.195 888.212 920.066 Q887.343 919.68 885.99 918.81 Q884.637 917.941 883.413 917.393 Q882.222 916.813 880.901 916.749 Q879.742 916.749 878.776 917.168 Q877.906 917.651 877.326 918.681 Q877.069 919.1 877.069 919.808 Q877.069 920.807 877.616 922.127 Q878.164 923.448 879.291 925.155 Q880.45 926.862 881.288 928.021 Q882.125 929.148 883.574 931.016 Q883.703 931.177 883.768 931.274 Q883.832 931.338 883.929 931.499 Q884.025 931.628 884.122 931.725 Q887.181 935.557 887.954 939.776 Q888.148 941.258 888.148 942.803 Q888.148 945.895 887.214 949.534 Q886.409 952.852 884.702 955.718 Q882.995 958.552 880.418 960.42 Q877.874 962.288 875.104 962.288 Q872.367 962.288 870.112 961.096 Q867.858 959.873 866.505 957.779 Q864.67 955.009 864.67 951.177 Q864.67 949.019 865.185 947.183 Q865.893 944.253 867.568 941.547 Q869.243 938.842 871.658 936.749 Q875.33 933.657 879.323 932.787 Q877.455 929.245 876.36 926.507 Q875.298 923.738 875.298 921.387 Q875.298 919.325 876.07 918.005 Q876.747 916.588 878.132 915.783 Q879.291 915.074 880.966 914.72 Q881.996 914.591 882.673 914.591 Q884.959 914.591 890.273 915.847 Q891.658 916.169 891.658 917.554 M883.607 945.444 Q883.607 943.48 883.285 942.159 Q882.673 938.939 880.225 934.494 L880.032 934.172 Q876.908 935.074 874.364 937.812 Q871.175 941.161 869.565 947.506 Q868.695 951.048 868.695 953.045 Q868.695 955.203 869.5 957.071 Q870.273 958.81 871.723 959.808 Q873.204 960.807 875.169 960.807 Q876.65 960.807 877.938 959.969 Q879.227 959.1 880.161 957.586 Q881.095 956.072 881.739 954.43 Q882.415 952.755 882.93 950.791 Q883.607 948.15 883.607 945.444 Z" fill="#000000" fill-rule="nonzero" fill-opacity="1" /><polyline clip-path="url(#clip810)" style="stroke:#000000; stroke-linecap:round; stroke-linejoin:round; stroke-width:4; stroke-opacity:1; fill:none" points="205.577,834.31 205.577,110.236 "/>
<polyline clip-path="url(#clip810)" style="stroke:#000000; stroke-linecap:round; stroke-linejoin:round; stroke-width:4; stroke-opacity:1; fill:none" points="205.577,725.855 224.474,725.855 "/>
<polyline clip-path="url(#clip810)" style="stroke:#000000; stroke-linecap:round; stroke-linejoin:round; stroke-width:4; stroke-opacity:1; fill:none" points="205.577,541.503 224.474,541.503 "/>
<polyline clip-path="url(#clip810)" style="stroke:#000000; stroke-linecap:round; stroke-linejoin:round; stroke-width:4; stroke-opacity:1; fill:none" points="205.577,357.15 224.474,357.15 "/>
<polyline clip-path="url(#clip810)" style="stroke:#000000; stroke-linecap:round; stroke-linejoin:round; stroke-width:4; stroke-opacity:1; fill:none" points="205.577,172.798 224.474,172.798 "/>
<path clip-path="url(#clip810)" d="M121.461 726.306 L151.137 726.306 L151.137 730.241 L121.461 730.241 L121.461 726.306 Z" fill="#000000" fill-rule="nonzero" fill-opacity="1" /><path clip-path="url(#clip810)" d="M165.257 739.2 L181.577 739.2 L181.577 743.135 L159.632 743.135 L159.632 739.2 Q162.294 736.445 166.878 731.816 Q171.484 727.163 172.665 725.82 Q174.91 723.297 175.79 721.561 Q176.692 719.802 176.692 718.112 Q176.692 715.357 174.748 713.621 Q172.827 711.885 169.725 711.885 Q167.526 711.885 165.072 712.649 Q162.642 713.413 159.864 714.964 L159.864 710.242 Q162.688 709.107 165.142 708.529 Q167.595 707.95 169.632 707.95 Q175.003 707.95 178.197 710.635 Q181.391 713.32 181.391 717.811 Q181.391 719.941 180.581 721.862 Q179.794 723.76 177.688 726.353 Q177.109 727.024 174.007 730.241 Q170.905 733.436 165.257 739.2 Z" fill="#000000" fill-rule="nonzero" fill-opacity="1" /><path clip-path="url(#clip810)" d="M169.632 527.301 Q166.021 527.301 164.193 530.866 Q162.387 534.408 162.387 541.537 Q162.387 548.644 164.193 552.209 Q166.021 555.75 169.632 555.75 Q173.267 555.75 175.072 552.209 Q176.901 548.644 176.901 541.537 Q176.901 534.408 175.072 530.866 Q173.267 527.301 169.632 527.301 M169.632 523.598 Q175.442 523.598 178.498 528.204 Q181.577 532.787 181.577 541.537 Q181.577 550.264 178.498 554.871 Q175.442 559.454 169.632 559.454 Q163.822 559.454 160.743 554.871 Q157.688 550.264 157.688 541.537 Q157.688 532.787 160.743 528.204 Q163.822 523.598 169.632 523.598 Z" fill="#000000" fill-rule="nonzero" fill-opacity="1" /><path clip-path="url(#clip810)" d="M165.257 370.495 L181.577 370.495 L181.577 374.43 L159.632 374.43 L159.632 370.495 Q162.294 367.741 166.878 363.111 Q171.484 358.458 172.665 357.116 Q174.91 354.593 175.79 352.857 Q176.692 351.097 176.692 349.407 Q176.692 346.653 174.748 344.917 Q172.827 343.181 169.725 343.181 Q167.526 343.181 165.072 343.945 Q162.642 344.708 159.864 346.259 L159.864 341.537 Q162.688 340.403 165.142 339.824 Q167.595 339.245 169.632 339.245 Q175.003 339.245 178.197 341.931 Q181.391 344.616 181.391 349.107 Q181.391 351.236 180.581 353.157 Q179.794 355.056 177.688 357.648 Q177.109 358.319 174.007 361.537 Q170.905 364.731 165.257 370.495 Z" fill="#000000" fill-rule="nonzero" fill-opacity="1" /><path clip-path="url(#clip810)" d="M171.993 159.592 L160.188 178.041 L171.993 178.041 L171.993 159.592 M170.767 155.518 L176.646 155.518 L176.646 178.041 L181.577 178.041 L181.577 181.93 L176.646 181.93 L176.646 190.078 L171.993 190.078 L171.993 181.93 L156.392 181.93 L156.392 177.416 L170.767 155.518 Z" fill="#000000" fill-rule="nonzero" fill-opacity="1" /><path clip-path="url(#clip810)" d="M26.5573 467.465 Q27.4817 467.465 28.2482 468.142 Q29.0147 468.841 29.0147 469.968 Q29.0147 470.982 28.2707 471.681 Q27.5042 472.403 26.5573 472.403 Q25.6105 472.403 24.8665 471.726 Q24.1226 471.05 24.1226 469.923 Q24.1226 468.908 24.8665 468.187 Q25.6105 467.465 26.5573 467.465 Z" fill="#000000" fill-rule="nonzero" fill-opacity="1" /><path clip-path="url(#clip810)" d="M100.47 507.048 Q101.018 507.048 101.404 507.434 Q101.791 507.821 101.791 508.368 Q101.791 509.302 100.921 509.624 L69.2629 521.895 Q69.1341 521.959 68.812 521.959 Q68.49 521.959 68.3611 521.895 L36.7028 509.624 Q35.8332 509.302 35.8332 508.368 Q35.8332 507.821 36.2197 507.434 Q36.6062 507.048 37.1537 507.048 Q37.4757 507.048 37.6045 507.112 L68.812 519.254 L100.019 507.112 Q100.148 507.048 100.47 507.048 Z" fill="#000000" fill-rule="nonzero" fill-opacity="1" /><path clip-path="url(#clip810)" d="M75.8651 460.821 Q76.1227 460.821 77.1211 461.111 Q78.1195 461.401 79.6654 462.11 Q81.2113 462.786 82.6283 463.72 Q84.0132 464.654 85.0438 466.2 Q86.0422 467.714 86.0422 469.453 Q86.0422 471.771 84.4963 473.317 Q82.9504 474.863 80.6316 474.863 Q79.3433 474.863 77.572 474.187 Q66.1389 469.904 62.2098 469.904 Q57.6044 469.904 57.6044 473.478 Q57.6044 475.25 58.2807 476.924 Q58.9248 478.567 59.8266 479.694 Q60.7283 480.821 61.9844 481.852 Q63.2082 482.85 64.0455 483.366 Q64.8507 483.849 65.6558 484.235 L68.9408 485.073 Q69.8426 485.266 73.353 486.2 L79.3111 487.649 Q83.7555 488.68 84.1742 488.905 Q85.076 489.227 85.5591 489.936 Q86.0422 490.644 86.0422 491.353 Q86.0422 492.158 85.5591 492.705 Q85.076 493.253 84.2386 493.253 Q84.1098 493.253 83.6267 493.156 Q83.1436 493.06 82.4673 492.899 Q81.791 492.738 81.4045 492.673 L66.1711 488.841 Q63.4014 488.132 62.5319 487.971 Q61.6301 487.778 60.6317 487.778 Q57.6044 487.778 57.6044 489.839 Q57.6044 491.514 59.6011 492.609 Q61.5979 493.704 65.4626 494.638 Q66.5254 494.928 66.7508 495.121 Q66.9763 495.282 66.9763 495.765 Q66.9441 496.57 66.3 496.57 Q66.1389 496.57 65.0761 496.312 Q64.0133 496.055 62.4997 495.572 Q60.9538 495.056 59.9232 494.573 Q59.1503 494.155 58.796 493.929 Q58.4095 493.671 57.6688 493.06 Q56.8958 492.415 56.5416 491.578 Q56.1551 490.709 56.1551 489.646 Q56.1551 487.263 57.701 485.523 Q59.2147 483.784 61.8878 483.559 Q56.1551 479.275 56.1551 473.285 Q56.1551 469.743 58.0231 467.714 Q59.891 465.685 63.2082 465.685 Q63.9811 465.685 64.9795 465.846 Q65.9457 465.974 67.1695 466.296 Q68.3933 466.586 69.3273 466.844 Q70.2613 467.102 71.775 467.617 Q73.2564 468.132 73.9005 468.358 Q74.5447 468.583 76.0583 469.131 Q77.5398 469.646 77.7008 469.71 Q80.696 470.902 82.4029 470.902 Q83.5301 470.902 84.0454 470.548 Q84.5607 470.161 84.5607 469.324 Q84.5607 467.069 82.3385 465.395 Q80.0841 463.688 76.4126 462.593 Q75.6075 462.335 75.4142 462.206 Q75.221 462.045 75.221 461.594 Q75.221 460.821 75.8651 460.821 Z" fill="#000000" fill-rule="nonzero" fill-opacity="1" /><path clip-path="url(#clip810)" d="M73.527 444.26 L100.219 450.91 Q101.279 451.181 102.429 451.181 Q104.548 451.181 104.548 449.783 Q104.548 449.129 104.119 448.588 Q103.668 448.047 102.789 447.641 Q101.887 447.213 101.031 446.943 Q100.174 446.65 98.844 446.289 Q98.3255 446.176 98.1677 446.063 Q98.0099 445.951 98.0099 445.635 Q98.0099 445.071 98.4608 445.071 Q101.234 445.635 102.992 446.469 Q105.585 447.687 105.585 449.941 Q105.585 451.632 104.412 452.894 Q103.218 454.134 101.324 454.134 Q100.602 454.134 99.7458 453.909 L76.6606 448.092 L75.7589 447.935 Q75.5109 447.935 75.3756 448.025 Q75.2404 448.115 75.1051 448.656 Q74.9698 449.174 74.9698 450.211 Q74.9698 450.64 74.9473 450.843 Q74.9247 451.023 74.812 451.203 Q74.6993 451.361 74.4513 451.361 Q74.0455 451.361 73.8201 451.203 Q73.5946 451.023 73.5496 450.888 Q73.5045 450.753 73.4819 450.482 Q73.4594 450.099 73.3467 448.814 Q73.2114 447.529 73.1212 446.424 Q73.031 445.319 73.031 444.846 Q73.031 444.575 73.1663 444.44 Q73.279 444.282 73.4143 444.26 L73.527 444.26 Z" fill="#000000" fill-rule="nonzero" fill-opacity="1" /><path clip-path="url(#clip810)" d="M68.3611 422.501 Q68.49 422.437 68.812 422.437 Q69.1341 422.437 69.2629 422.501 L100.921 434.772 Q101.791 435.094 101.791 435.996 Q101.791 436.543 101.404 436.93 Q101.018 437.316 100.47 437.316 Q100.148 437.316 100.019 437.252 L68.812 425.142 L37.6045 437.252 Q37.4757 437.316 37.1537 437.316 Q36.6062 437.316 36.2197 436.93 Q35.8332 436.543 35.8332 435.996 Q35.8332 435.094 36.7028 434.772 L68.3611 422.501 Z" fill="#000000" fill-rule="nonzero" fill-opacity="1" /><polyline clip-path="url(#clip812)" style="stroke:#009af9; stroke-linecap:round; stroke-linejoin:round; stroke-width:8; stroke-opacity:1; fill:none" points="205.577,541.499 219.185,541.498 232.792,541.498 246.4,541.498 260.008,541.498 273.616,541.498 287.224,541.497 300.832,541.497 314.44,541.497 328.048,541.497 341.655,541.496 355.263,541.496 368.871,541.496 382.479,541.495 396.087,541.495 409.695,541.495 423.303,541.494 436.91,541.494 450.518,541.493 464.126,541.493 477.734,541.492 491.342,541.491 504.95,541.49 518.558,541.49 532.166,541.489 545.773,541.487 559.381,541.486 572.989,541.485 586.597,541.483 600.205,541.482 613.813,541.48 627.421,541.477 641.029,541.474 654.636,541.471 668.244,541.467 681.852,541.463 695.46,541.457 709.068,541.45 722.676,541.441 736.284,541.429 749.892,541.414 763.499,541.393 777.107,541.363 790.715,541.319 804.323,541.249 817.931,541.128 831.539,540.891 845.147,540.321 858.754,538.278 872.362,514.446 879.166,140.54 885.97,514.824 899.578,538.41 913.186,540.401 926.794,540.948 940.402,541.172 954.01,541.285 967.617,541.349 981.225,541.389 994.833,541.416 1008.44,541.435 1022.05,541.448 1035.66,541.458 1049.26,541.466 1062.87,541.471 1076.48,541.476 1090.09,541.48 1103.7,541.483 1117.3,541.486 1130.91,541.488 1144.52,541.49 1158.13,541.491 1171.74,541.493 1185.34,541.494 1198.95,541.495 1212.56,541.496 1226.17,541.496 1239.77,541.497 1253.38,541.498 1266.99,541.498 1280.6,541.499 1294.21,541.499 1307.81,541.499 1321.42,541.5 1335.03,541.5 1348.64,541.5 1362.25,541.5 1375.85,541.501 1389.46,541.501 1403.07,541.501 1416.68,541.501 1430.29,541.501 1443.89,541.502 1457.5,541.502 1471.11,541.502 1484.72,541.502 1498.32,541.502 1511.93,541.502 1525.54,541.502 1539.15,541.502 1552.76,541.502 "/>
<polyline clip-path="url(#clip812)" style="stroke:#e26f46; stroke-linecap:round; stroke-linejoin:round; stroke-width:8; stroke-opacity:1; fill:none" points="205.577,541.099 219.185,541.082 232.792,541.064 246.4,541.046 260.008,541.026 273.616,541.004 287.224,540.982 300.832,540.958 314.44,540.933 328.048,540.906 341.655,540.877 355.263,540.845 368.871,540.812 382.479,540.776 396.087,540.737 409.695,540.696 423.303,540.65 436.91,540.601 450.518,540.547 464.126,540.489 477.734,540.424 491.342,540.354 504.95,540.276 518.558,540.189 532.166,540.093 545.773,539.986 559.381,539.865 572.989,539.729 586.597,539.575 600.205,539.398 613.813,539.195 627.421,538.961 641.029,538.687 654.636,538.364 668.244,537.979 681.852,537.516 695.46,536.952 709.068,536.253 722.676,535.372 736.284,534.241 749.892,532.752 763.499,530.737 777.107,527.912 790.715,523.78 804.323,517.396 817.931,506.809 831.539,487.533 845.147,447.922 858.754,356.469 872.362,184.535 879.166,140.672 885.97,190.261 899.578,364.669 913.186,454.468 926.794,492.662 940.402,510.961 954.01,520.864 967.617,526.749 981.225,530.505 994.833,533.035 1008.44,534.816 1022.05,536.112 1035.66,537.083 1049.26,537.828 1062.87,538.412 1076.48,538.876 1090.09,539.252 1103.7,539.559 1117.3,539.813 1130.91,540.026 1144.52,540.206 1158.13,540.359 1171.74,540.49 1185.34,540.603 1198.95,540.701 1212.56,540.787 1226.17,540.862 1239.77,540.929 1253.38,540.987 1266.99,541.04 1280.6,541.086 1294.21,541.128 1307.81,541.165 1321.42,541.199 1335.03,541.23 1348.64,541.257 1362.25,541.282 1375.85,541.305 1389.46,541.326 1403.07,541.345 1416.68,541.362 1430.29,541.378 1443.89,541.393 1457.5,541.406 1471.11,541.419 1484.72,541.43 1498.32,541.441 1511.93,541.451 1525.54,541.46 1539.15,541.468 1552.76,541.476 "/>
<polyline clip-path="url(#clip812)" style="stroke:#3da44d; stroke-linecap:round; stroke-linejoin:round; stroke-width:8; stroke-opacity:1; fill:none" points="205.577,504.454 219.185,502.995 232.792,501.464 246.4,499.856 260.008,498.165 273.616,496.384 287.224,494.508 300.832,492.528 314.44,490.436 328.048,488.224 341.655,485.881 355.263,483.397 368.871,480.76 382.479,477.956 396.087,474.972 409.695,471.792 423.303,468.397 436.91,464.77 450.518,460.888 464.126,456.728 477.734,452.265 491.342,447.469 504.95,442.31 518.558,436.752 532.166,430.758 545.773,424.288 559.381,417.296 572.989,409.734 586.597,401.552 600.205,392.697 613.813,383.114 627.421,372.75 641.029,361.553 654.636,349.482 668.244,336.503 681.852,322.607 695.46,307.808 709.068,292.164 722.676,275.783 736.284,258.839 749.892,241.584 763.499,224.358 777.107,207.594 790.715,191.806 804.323,177.584 817.931,165.561 831.539,156.376 845.147,150.618 858.754,148.755 872.362,151.067 879.166,153.809 885.97,157.588 899.578,168.095 913.186,182.131 926.794,199.058 940.402,218.136 954.01,238.606 967.617,259.759 981.225,280.987 994.833,301.8 1008.44,321.83 1022.05,340.821 1035.66,358.612 1049.26,375.122 1062.87,390.329 1076.48,404.257 1090.09,416.957 1103.7,428.502 1117.3,438.975 1130.91,448.462 1144.52,457.05 1158.13,464.823 1171.74,471.86 1185.34,478.234 1198.95,484.011 1212.56,489.253 1226.17,494.015 1239.77,498.345 1253.38,502.288 1266.99,505.883 1280.6,509.166 1294.21,512.167 1307.81,514.915 1321.42,517.434 1335.03,519.747 1348.64,521.872 1362.25,523.829 1375.85,525.631 1389.46,527.295 1403.07,528.831 1416.68,530.252 1430.29,531.568 1443.89,532.787 1457.5,533.919 1471.11,534.97 1484.72,535.946 1498.32,536.855 1511.93,537.701 1525.54,538.49 1539.15,539.226 1552.76,539.913 "/>
<polyline clip-path="url(#clip812)" style="stroke:#c271d2; stroke-linecap:round; stroke-linejoin:round; stroke-width:8; stroke-opacity:1; fill:none" points="205.577,362.4 219.185,357.733 232.792,352.974 246.4,348.136 260.008,343.226 273.616,338.252 287.224,333.223 300.832,328.144 314.44,323.023 328.048,317.867 341.655,312.685 355.263,307.484 368.871,302.274 382.479,297.065 396.087,291.869 409.695,286.697 423.303,281.562 436.91,276.479 450.518,271.463 464.126,266.531 477.734,261.699 491.342,256.987 504.95,252.415 518.558,248.002 532.166,243.769 545.773,239.74 559.381,235.937 572.989,232.382 586.597,229.099 600.205,226.111 613.813,223.44 627.421,221.111 641.029,219.144 654.636,217.562 668.244,216.383 681.852,215.628 695.46,215.314 709.068,215.456 722.676,216.068 736.284,217.162 749.892,218.747 763.499,220.83 777.107,223.415 790.715,226.501 804.323,230.086 817.931,234.165 831.539,238.727 845.147,243.758 858.754,249.243 872.362,255.161 879.166,258.275 885.97,261.489 899.578,268.201 913.186,275.267 926.794,282.658 940.402,290.341 954.01,298.282 967.617,306.445 981.225,314.796 994.833,323.299 1008.44,331.919 1022.05,340.622 1035.66,349.375 1049.26,358.146 1062.87,366.904 1076.48,375.621 1090.09,384.271 1103.7,392.831 1117.3,401.277 1130.91,409.591 1144.52,417.756 1158.13,425.755 1171.74,433.578 1185.34,441.212 1198.95,448.65 1212.56,455.883 1226.17,462.908 1239.77,469.719 1253.38,476.315 1266.99,482.695 1280.6,488.858 1294.21,494.806 1307.81,500.54 1321.42,506.062 1335.03,511.377 1348.64,516.487 1362.25,521.398 1375.85,526.112 1389.46,530.636 1403.07,534.975 1416.68,539.133 1430.29,543.116 1443.89,546.929 1457.5,550.579 1471.11,554.07 1484.72,557.408 1498.32,560.599 1511.93,563.648 1525.54,566.56 1539.15,569.341 1552.76,571.995 "/>
<polyline clip-path="url(#clip812)" style="stroke:#ac8d18; stroke-linecap:round; stroke-linejoin:round; stroke-width:8; stroke-opacity:1; fill:none" points="205.577,130.729 219.185,220.765 232.792,279.76 246.4,320.508 260.008,349.444 273.616,370.991 287.224,387.131 300.832,399.63 314.44,409.497 328.048,417.309 341.655,423.746 355.263,429.05 368.871,433.565 382.479,437.505 396.087,441.025 409.695,444.231 423.303,447.242 436.91,450.11 450.518,452.938 464.126,455.725 477.734,458.571 491.342,461.436 504.95,464.374 518.558,467.438 532.166,470.59 545.773,473.861 559.381,477.254 572.989,480.776 586.597,484.433 600.205,488.224 613.813,492.15 627.421,496.208 641.029,500.403 654.636,504.713 668.244,509.157 681.852,513.714 695.46,518.39 709.068,523.175 722.676,528.056 736.284,533.044 749.892,538.115 763.499,543.28 777.107,548.521 790.715,553.837 804.323,559.218 817.931,564.662 831.539,570.16 845.147,575.706 858.754,581.294 872.362,586.918 879.166,589.742 885.97,592.572 899.578,598.248 913.186,603.941 926.794,609.644 940.402,615.35 954.01,621.053 967.617,626.746 981.225,632.424 994.833,638.081 1008.44,643.706 1022.05,649.332 1035.66,654.989 1049.26,660.614 1062.87,666.202 1076.48,671.747 1090.09,677.244 1103.7,682.687 1117.3,688.071 1130.91,693.393 1144.52,698.646 1158.13,703.829 1171.74,708.936 1185.34,713.964 1198.95,718.91 1212.56,723.771 1226.17,728.545 1239.77,733.228 1253.38,737.819 1266.99,742.316 1280.6,746.716 1294.21,751.02 1307.81,755.225 1321.42,759.33 1335.03,763.335 1348.64,767.239 1362.25,771.042 1375.85,774.744 1389.46,778.343 1403.07,781.842 1416.68,785.24 1430.29,788.537 1443.89,791.734 1457.5,794.831 1471.11,797.83 1484.72,800.732 1498.32,803.537 1511.93,806.247 1525.54,808.863 1539.15,811.386 1552.76,813.817 "/>
<path clip-path="url(#clip810)" d="M1146.44 406.532 L1507.85 406.532 L1507.85 134.372 L1146.44 134.372  Z" fill="#ffffff" fill-rule="evenodd" fill-opacity="1"/>
<polyline clip-path="url(#clip810)" style="stroke:#000000; stroke-linecap:round; stroke-linejoin:round; stroke-width:4; stroke-opacity:1; fill:none" points="1146.44,406.532 1507.85,406.532 1507.85,134.372 1146.44,134.372 1146.44,406.532 "/>
<polyline clip-path="url(#clip810)" style="stroke:#009af9; stroke-linecap:round; stroke-linejoin:round; stroke-width:7; stroke-opacity:1; fill:none" points="1161.41,179.732 1251.22,179.732 "/>
<path clip-path="url(#clip810)" d="M1282.74 183.246 Q1282.74 179.195 1281.06 176.967 Q1279.4 174.739 1276.38 174.739 Q1273.38 174.739 1271.7 176.967 Q1270.04 179.195 1270.04 183.246 Q1270.04 187.277 1271.7 189.505 Q1273.38 191.733 1276.38 191.733 Q1279.4 191.733 1281.06 189.505 Q1282.74 187.277 1282.74 183.246 M1286.47 192.037 Q1286.47 197.829 1283.9 200.645 Q1281.32 203.48 1276.02 203.48 Q1274.05 203.48 1272.31 203.177 Q1270.57 202.893 1268.93 202.285 L1268.93 198.66 Q1270.57 199.551 1272.17 199.976 Q1273.77 200.402 1275.43 200.402 Q1279.09 200.402 1280.92 198.478 Q1282.74 196.574 1282.74 192.705 L1282.74 190.862 Q1281.59 192.867 1279.78 193.86 Q1277.98 194.852 1275.47 194.852 Q1271.3 194.852 1268.74 191.672 Q1266.19 188.492 1266.19 183.246 Q1266.19 177.98 1268.74 174.8 Q1271.3 171.62 1275.47 171.62 Q1277.98 171.62 1279.78 172.613 Q1281.59 173.605 1282.74 175.61 L1282.74 172.167 L1286.47 172.167 L1286.47 192.037 Z" fill="#000000" fill-rule="nonzero" fill-opacity="1" /><path clip-path="url(#clip810)" d="M1307.82 176.015 L1333.78 176.015 L1333.78 179.418 L1307.82 179.418 L1307.82 176.015 M1307.82 184.279 L1333.78 184.279 L1333.78 187.722 L1307.82 187.722 L1307.82 184.279 Z" fill="#000000" fill-rule="nonzero" fill-opacity="1" /><path clip-path="url(#clip810)" d="M1364.55 167.306 Q1361.39 167.306 1359.79 170.425 Q1358.21 173.524 1358.21 179.762 Q1358.21 185.981 1359.79 189.1 Q1361.39 192.199 1364.55 192.199 Q1367.73 192.199 1369.31 189.1 Q1370.91 185.981 1370.91 179.762 Q1370.91 173.524 1369.31 170.425 Q1367.73 167.306 1364.55 167.306 M1364.55 164.065 Q1369.63 164.065 1372.31 168.096 Q1375 172.106 1375 179.762 Q1375 187.398 1372.31 191.429 Q1369.63 195.439 1364.55 195.439 Q1359.46 195.439 1356.77 191.429 Q1354.1 187.398 1354.1 179.762 Q1354.1 172.106 1356.77 168.096 Q1359.46 164.065 1364.55 164.065 Z" fill="#000000" fill-rule="nonzero" fill-opacity="1" /><path clip-path="url(#clip810)" d="M1382.19 189.707 L1386.46 189.707 L1386.46 194.852 L1382.19 194.852 L1382.19 189.707 Z" fill="#000000" fill-rule="nonzero" fill-opacity="1" /><path clip-path="url(#clip810)" d="M1404.13 167.306 Q1400.97 167.306 1399.37 170.425 Q1397.79 173.524 1397.79 179.762 Q1397.79 185.981 1399.37 189.1 Q1400.97 192.199 1404.13 192.199 Q1407.31 192.199 1408.89 189.1 Q1410.49 185.981 1410.49 179.762 Q1410.49 173.524 1408.89 170.425 Q1407.31 167.306 1404.13 167.306 M1404.13 164.065 Q1409.21 164.065 1411.88 168.096 Q1414.58 172.106 1414.58 179.762 Q1414.58 187.398 1411.88 191.429 Q1409.21 195.439 1404.13 195.439 Q1399.04 195.439 1396.35 191.429 Q1393.67 187.398 1393.67 179.762 Q1393.67 172.106 1396.35 168.096 Q1399.04 164.065 1404.13 164.065 Z" fill="#000000" fill-rule="nonzero" fill-opacity="1" /><path clip-path="url(#clip810)" d="M1430.52 167.306 Q1427.36 167.306 1425.76 170.425 Q1424.18 173.524 1424.18 179.762 Q1424.18 185.981 1425.76 189.1 Q1427.36 192.199 1430.52 192.199 Q1433.7 192.199 1435.28 189.1 Q1436.88 185.981 1436.88 179.762 Q1436.88 173.524 1435.28 170.425 Q1433.7 167.306 1430.52 167.306 M1430.52 164.065 Q1435.6 164.065 1438.28 168.096 Q1440.97 172.106 1440.97 179.762 Q1440.97 187.398 1438.28 191.429 Q1435.6 195.439 1430.52 195.439 Q1425.43 195.439 1422.74 191.429 Q1420.07 187.398 1420.07 179.762 Q1420.07 172.106 1422.74 168.096 Q1425.43 164.065 1430.52 164.065 Z" fill="#000000" fill-rule="nonzero" fill-opacity="1" /><path clip-path="url(#clip810)" d="M1456.91 167.306 Q1453.75 167.306 1452.15 170.425 Q1450.57 173.524 1450.57 179.762 Q1450.57 185.981 1452.15 189.1 Q1453.75 192.199 1456.91 192.199 Q1460.09 192.199 1461.67 189.1 Q1463.27 185.981 1463.27 179.762 Q1463.27 173.524 1461.67 170.425 Q1460.09 167.306 1456.91 167.306 M1456.91 164.065 Q1461.99 164.065 1464.67 168.096 Q1467.36 172.106 1467.36 179.762 Q1467.36 187.398 1464.67 191.429 Q1461.99 195.439 1456.91 195.439 Q1451.83 195.439 1449.13 191.429 Q1446.46 187.398 1446.46 179.762 Q1446.46 172.106 1449.13 168.096 Q1451.83 164.065 1456.91 164.065 Z" fill="#000000" fill-rule="nonzero" fill-opacity="1" /><path clip-path="url(#clip810)" d="M1474.59 164.612 L1490.65 164.612 L1490.65 168.055 L1478.34 168.055 L1478.34 175.468 Q1479.23 175.165 1480.12 175.023 Q1481.01 174.861 1481.9 174.861 Q1486.97 174.861 1489.92 177.636 Q1492.88 180.411 1492.88 185.15 Q1492.88 190.031 1489.84 192.746 Q1486.8 195.439 1481.28 195.439 Q1479.37 195.439 1477.39 195.115 Q1475.42 194.791 1473.32 194.143 L1473.32 190.031 Q1475.14 191.024 1477.08 191.51 Q1479.03 191.996 1481.19 191.996 Q1484.7 191.996 1486.74 190.153 Q1488.79 188.31 1488.79 185.15 Q1488.79 181.99 1486.74 180.147 Q1484.7 178.304 1481.19 178.304 Q1479.55 178.304 1477.91 178.669 Q1476.29 179.033 1474.59 179.803 L1474.59 164.612 Z" fill="#000000" fill-rule="nonzero" fill-opacity="1" /><polyline clip-path="url(#clip810)" style="stroke:#e26f46; stroke-linecap:round; stroke-linejoin:round; stroke-width:7; stroke-opacity:1; fill:none" points="1161.41,225.092 1251.22,225.092 "/>
<path clip-path="url(#clip810)" d="M1282.74 228.606 Q1282.74 224.555 1281.06 222.327 Q1279.4 220.099 1276.38 220.099 Q1273.38 220.099 1271.7 222.327 Q1270.04 224.555 1270.04 228.606 Q1270.04 232.637 1271.7 234.865 Q1273.38 237.093 1276.38 237.093 Q1279.4 237.093 1281.06 234.865 Q1282.74 232.637 1282.74 228.606 M1286.47 237.397 Q1286.47 243.189 1283.9 246.005 Q1281.32 248.84 1276.02 248.84 Q1274.05 248.84 1272.31 248.537 Q1270.57 248.253 1268.93 247.645 L1268.93 244.02 Q1270.57 244.911 1272.17 245.336 Q1273.77 245.762 1275.43 245.762 Q1279.09 245.762 1280.92 243.838 Q1282.74 241.934 1282.74 238.065 L1282.74 236.222 Q1281.59 238.227 1279.78 239.22 Q1277.98 240.212 1275.47 240.212 Q1271.3 240.212 1268.74 237.032 Q1266.19 233.852 1266.19 228.606 Q1266.19 223.34 1268.74 220.16 Q1271.3 216.98 1275.47 216.98 Q1277.98 216.98 1279.78 217.973 Q1281.59 218.965 1282.74 220.97 L1282.74 217.527 L1286.47 217.527 L1286.47 237.397 Z" fill="#000000" fill-rule="nonzero" fill-opacity="1" /><path clip-path="url(#clip810)" d="M1307.82 221.375 L1333.78 221.375 L1333.78 224.778 L1307.82 224.778 L1307.82 221.375 M1307.82 229.639 L1333.78 229.639 L1333.78 233.082 L1307.82 233.082 L1307.82 229.639 Z" fill="#000000" fill-rule="nonzero" fill-opacity="1" /><path clip-path="url(#clip810)" d="M1364.55 212.666 Q1361.39 212.666 1359.79 215.785 Q1358.21 218.884 1358.21 225.122 Q1358.21 231.341 1359.79 234.46 Q1361.39 237.559 1364.55 237.559 Q1367.73 237.559 1369.31 234.46 Q1370.91 231.341 1370.91 225.122 Q1370.91 218.884 1369.31 215.785 Q1367.73 212.666 1364.55 212.666 M1364.55 209.425 Q1369.63 209.425 1372.31 213.456 Q1375 217.466 1375 225.122 Q1375 232.758 1372.31 236.789 Q1369.63 240.799 1364.55 240.799 Q1359.46 240.799 1356.77 236.789 Q1354.1 232.758 1354.1 225.122 Q1354.1 217.466 1356.77 213.456 Q1359.46 209.425 1364.55 209.425 Z" fill="#000000" fill-rule="nonzero" fill-opacity="1" /><path clip-path="url(#clip810)" d="M1382.19 235.067 L1386.46 235.067 L1386.46 240.212 L1382.19 240.212 L1382.19 235.067 Z" fill="#000000" fill-rule="nonzero" fill-opacity="1" /><path clip-path="url(#clip810)" d="M1404.13 212.666 Q1400.97 212.666 1399.37 215.785 Q1397.79 218.884 1397.79 225.122 Q1397.79 231.341 1399.37 234.46 Q1400.97 237.559 1404.13 237.559 Q1407.31 237.559 1408.89 234.46 Q1410.49 231.341 1410.49 225.122 Q1410.49 218.884 1408.89 215.785 Q1407.31 212.666 1404.13 212.666 M1404.13 209.425 Q1409.21 209.425 1411.88 213.456 Q1414.58 217.466 1414.58 225.122 Q1414.58 232.758 1411.88 236.789 Q1409.21 240.799 1404.13 240.799 Q1399.04 240.799 1396.35 236.789 Q1393.67 232.758 1393.67 225.122 Q1393.67 217.466 1396.35 213.456 Q1399.04 209.425 1404.13 209.425 Z" fill="#000000" fill-rule="nonzero" fill-opacity="1" /><path clip-path="url(#clip810)" d="M1430.52 212.666 Q1427.36 212.666 1425.76 215.785 Q1424.18 218.884 1424.18 225.122 Q1424.18 231.341 1425.76 234.46 Q1427.36 237.559 1430.52 237.559 Q1433.7 237.559 1435.28 234.46 Q1436.88 231.341 1436.88 225.122 Q1436.88 218.884 1435.28 215.785 Q1433.7 212.666 1430.52 212.666 M1430.52 209.425 Q1435.6 209.425 1438.28 213.456 Q1440.97 217.466 1440.97 225.122 Q1440.97 232.758 1438.28 236.789 Q1435.6 240.799 1430.52 240.799 Q1425.43 240.799 1422.74 236.789 Q1420.07 232.758 1420.07 225.122 Q1420.07 217.466 1422.74 213.456 Q1425.43 209.425 1430.52 209.425 Z" fill="#000000" fill-rule="nonzero" fill-opacity="1" /><path clip-path="url(#clip810)" d="M1448.2 209.972 L1464.26 209.972 L1464.26 213.415 L1451.95 213.415 L1451.95 220.828 Q1452.84 220.525 1453.73 220.383 Q1454.62 220.221 1455.51 220.221 Q1460.58 220.221 1463.53 222.996 Q1466.49 225.771 1466.49 230.51 Q1466.49 235.391 1463.45 238.106 Q1460.41 240.799 1454.88 240.799 Q1452.98 240.799 1450.99 240.475 Q1449.03 240.151 1446.92 239.503 L1446.92 235.391 Q1448.75 236.384 1450.69 236.87 Q1452.64 237.356 1454.8 237.356 Q1458.31 237.356 1460.35 235.513 Q1462.4 233.67 1462.4 230.51 Q1462.4 227.35 1460.35 225.507 Q1458.31 223.664 1454.8 223.664 Q1453.16 223.664 1451.52 224.029 Q1449.9 224.393 1448.2 225.163 L1448.2 209.972 Z" fill="#000000" fill-rule="nonzero" fill-opacity="1" /><polyline clip-path="url(#clip810)" style="stroke:#3da44d; stroke-linecap:round; stroke-linejoin:round; stroke-width:7; stroke-opacity:1; fill:none" points="1161.41,270.452 1251.22,270.452 "/>
<path clip-path="url(#clip810)" d="M1282.74 273.966 Q1282.74 269.915 1281.06 267.687 Q1279.4 265.459 1276.38 265.459 Q1273.38 265.459 1271.7 267.687 Q1270.04 269.915 1270.04 273.966 Q1270.04 277.997 1271.7 280.225 Q1273.38 282.453 1276.38 282.453 Q1279.4 282.453 1281.06 280.225 Q1282.74 277.997 1282.74 273.966 M1286.47 282.757 Q1286.47 288.549 1283.9 291.365 Q1281.32 294.2 1276.02 294.2 Q1274.05 294.2 1272.31 293.897 Q1270.57 293.613 1268.93 293.005 L1268.93 289.38 Q1270.57 290.271 1272.17 290.696 Q1273.77 291.122 1275.43 291.122 Q1279.09 291.122 1280.92 289.198 Q1282.74 287.294 1282.74 283.425 L1282.74 281.582 Q1281.59 283.587 1279.78 284.58 Q1277.98 285.572 1275.47 285.572 Q1271.3 285.572 1268.74 282.392 Q1266.19 279.212 1266.19 273.966 Q1266.19 268.7 1268.74 265.52 Q1271.3 262.34 1275.47 262.34 Q1277.98 262.34 1279.78 263.333 Q1281.59 264.325 1282.74 266.33 L1282.74 262.887 L1286.47 262.887 L1286.47 282.757 Z" fill="#000000" fill-rule="nonzero" fill-opacity="1" /><path clip-path="url(#clip810)" d="M1307.82 266.735 L1333.78 266.735 L1333.78 270.138 L1307.82 270.138 L1307.82 266.735 M1307.82 274.999 L1333.78 274.999 L1333.78 278.442 L1307.82 278.442 L1307.82 274.999 Z" fill="#000000" fill-rule="nonzero" fill-opacity="1" /><path clip-path="url(#clip810)" d="M1364.55 258.026 Q1361.39 258.026 1359.79 261.145 Q1358.21 264.244 1358.21 270.482 Q1358.21 276.701 1359.79 279.82 Q1361.39 282.919 1364.55 282.919 Q1367.73 282.919 1369.31 279.82 Q1370.91 276.701 1370.91 270.482 Q1370.91 264.244 1369.31 261.145 Q1367.73 258.026 1364.55 258.026 M1364.55 254.785 Q1369.63 254.785 1372.31 258.816 Q1375 262.826 1375 270.482 Q1375 278.118 1372.31 282.149 Q1369.63 286.159 1364.55 286.159 Q1359.46 286.159 1356.77 282.149 Q1354.1 278.118 1354.1 270.482 Q1354.1 262.826 1356.77 258.816 Q1359.46 254.785 1364.55 254.785 Z" fill="#000000" fill-rule="nonzero" fill-opacity="1" /><path clip-path="url(#clip810)" d="M1382.19 280.427 L1386.46 280.427 L1386.46 285.572 L1382.19 285.572 L1382.19 280.427 Z" fill="#000000" fill-rule="nonzero" fill-opacity="1" /><path clip-path="url(#clip810)" d="M1404.13 258.026 Q1400.97 258.026 1399.37 261.145 Q1397.79 264.244 1397.79 270.482 Q1397.79 276.701 1399.37 279.82 Q1400.97 282.919 1404.13 282.919 Q1407.31 282.919 1408.89 279.82 Q1410.49 276.701 1410.49 270.482 Q1410.49 264.244 1408.89 261.145 Q1407.31 258.026 1404.13 258.026 M1404.13 254.785 Q1409.21 254.785 1411.88 258.816 Q1414.58 262.826 1414.58 270.482 Q1414.58 278.118 1411.88 282.149 Q1409.21 286.159 1404.13 286.159 Q1399.04 286.159 1396.35 282.149 Q1393.67 278.118 1393.67 270.482 Q1393.67 262.826 1396.35 258.816 Q1399.04 254.785 1404.13 254.785 Z" fill="#000000" fill-rule="nonzero" fill-opacity="1" /><path clip-path="url(#clip810)" d="M1421.81 255.332 L1437.87 255.332 L1437.87 258.775 L1425.56 258.775 L1425.56 266.188 Q1426.45 265.885 1427.34 265.743 Q1428.23 265.581 1429.12 265.581 Q1434.18 265.581 1437.14 268.356 Q1440.1 271.131 1440.1 275.87 Q1440.1 280.751 1437.06 283.466 Q1434.02 286.159 1428.49 286.159 Q1426.59 286.159 1424.6 285.835 Q1422.64 285.511 1420.53 284.863 L1420.53 280.751 Q1422.36 281.744 1424.3 282.23 Q1426.24 282.716 1428.41 282.716 Q1431.92 282.716 1433.96 280.873 Q1436.01 279.03 1436.01 275.87 Q1436.01 272.71 1433.96 270.867 Q1431.92 269.024 1428.41 269.024 Q1426.77 269.024 1425.13 269.389 Q1423.51 269.753 1421.81 270.523 L1421.81 255.332 Z" fill="#000000" fill-rule="nonzero" fill-opacity="1" /><polyline clip-path="url(#clip810)" style="stroke:#c271d2; stroke-linecap:round; stroke-linejoin:round; stroke-width:7; stroke-opacity:1; fill:none" points="1161.41,315.812 1251.22,315.812 "/>
<path clip-path="url(#clip810)" d="M1282.74 319.326 Q1282.74 315.275 1281.06 313.047 Q1279.4 310.819 1276.38 310.819 Q1273.38 310.819 1271.7 313.047 Q1270.04 315.275 1270.04 319.326 Q1270.04 323.357 1271.7 325.585 Q1273.38 327.813 1276.38 327.813 Q1279.4 327.813 1281.06 325.585 Q1282.74 323.357 1282.74 319.326 M1286.47 328.117 Q1286.47 333.909 1283.9 336.725 Q1281.32 339.56 1276.02 339.56 Q1274.05 339.56 1272.31 339.257 Q1270.57 338.973 1268.93 338.365 L1268.93 334.74 Q1270.57 335.631 1272.17 336.056 Q1273.77 336.482 1275.43 336.482 Q1279.09 336.482 1280.92 334.558 Q1282.74 332.654 1282.74 328.785 L1282.74 326.942 Q1281.59 328.947 1279.78 329.94 Q1277.98 330.932 1275.47 330.932 Q1271.3 330.932 1268.74 327.752 Q1266.19 324.572 1266.19 319.326 Q1266.19 314.06 1268.74 310.88 Q1271.3 307.7 1275.47 307.7 Q1277.98 307.7 1279.78 308.693 Q1281.59 309.685 1282.74 311.69 L1282.74 308.247 L1286.47 308.247 L1286.47 328.117 Z" fill="#000000" fill-rule="nonzero" fill-opacity="1" /><path clip-path="url(#clip810)" d="M1307.82 312.095 L1333.78 312.095 L1333.78 315.498 L1307.82 315.498 L1307.82 312.095 M1307.82 320.359 L1333.78 320.359 L1333.78 323.802 L1307.82 323.802 L1307.82 320.359 Z" fill="#000000" fill-rule="nonzero" fill-opacity="1" /><path clip-path="url(#clip810)" d="M1364.55 303.386 Q1361.39 303.386 1359.79 306.505 Q1358.21 309.604 1358.21 315.842 Q1358.21 322.061 1359.79 325.18 Q1361.39 328.279 1364.55 328.279 Q1367.73 328.279 1369.31 325.18 Q1370.91 322.061 1370.91 315.842 Q1370.91 309.604 1369.31 306.505 Q1367.73 303.386 1364.55 303.386 M1364.55 300.145 Q1369.63 300.145 1372.31 304.176 Q1375 308.186 1375 315.842 Q1375 323.478 1372.31 327.509 Q1369.63 331.519 1364.55 331.519 Q1359.46 331.519 1356.77 327.509 Q1354.1 323.478 1354.1 315.842 Q1354.1 308.186 1356.77 304.176 Q1359.46 300.145 1364.55 300.145 Z" fill="#000000" fill-rule="nonzero" fill-opacity="1" /><path clip-path="url(#clip810)" d="M1382.19 325.787 L1386.46 325.787 L1386.46 330.932 L1382.19 330.932 L1382.19 325.787 Z" fill="#000000" fill-rule="nonzero" fill-opacity="1" /><path clip-path="url(#clip810)" d="M1396.08 327.489 L1402.77 327.489 L1402.77 304.419 L1395.5 305.877 L1395.5 302.15 L1402.73 300.692 L1406.82 300.692 L1406.82 327.489 L1413.5 327.489 L1413.5 330.932 L1396.08 330.932 L1396.08 327.489 Z" fill="#000000" fill-rule="nonzero" fill-opacity="1" /><path clip-path="url(#clip810)" d="M1421.81 300.692 L1437.87 300.692 L1437.87 304.135 L1425.56 304.135 L1425.56 311.548 Q1426.45 311.245 1427.34 311.103 Q1428.23 310.941 1429.12 310.941 Q1434.18 310.941 1437.14 313.716 Q1440.1 316.491 1440.1 321.23 Q1440.1 326.111 1437.06 328.826 Q1434.02 331.519 1428.49 331.519 Q1426.59 331.519 1424.6 331.195 Q1422.64 330.871 1420.53 330.223 L1420.53 326.111 Q1422.36 327.104 1424.3 327.59 Q1426.24 328.076 1428.41 328.076 Q1431.92 328.076 1433.96 326.233 Q1436.01 324.39 1436.01 321.23 Q1436.01 318.07 1433.96 316.227 Q1431.92 314.384 1428.41 314.384 Q1426.77 314.384 1425.13 314.749 Q1423.51 315.113 1421.81 315.883 L1421.81 300.692 Z" fill="#000000" fill-rule="nonzero" fill-opacity="1" /><polyline clip-path="url(#clip810)" style="stroke:#ac8d18; stroke-linecap:round; stroke-linejoin:round; stroke-width:7; stroke-opacity:1; fill:none" points="1161.41,361.172 1251.22,361.172 "/>
<path clip-path="url(#clip810)" d="M1282.74 364.686 Q1282.74 360.635 1281.06 358.407 Q1279.4 356.179 1276.38 356.179 Q1273.38 356.179 1271.7 358.407 Q1270.04 360.635 1270.04 364.686 Q1270.04 368.717 1271.7 370.945 Q1273.38 373.173 1276.38 373.173 Q1279.4 373.173 1281.06 370.945 Q1282.74 368.717 1282.74 364.686 M1286.47 373.477 Q1286.47 379.269 1283.9 382.085 Q1281.32 384.92 1276.02 384.92 Q1274.05 384.92 1272.31 384.617 Q1270.57 384.333 1268.93 383.725 L1268.93 380.1 Q1270.57 380.991 1272.17 381.416 Q1273.77 381.842 1275.43 381.842 Q1279.09 381.842 1280.92 379.918 Q1282.74 378.014 1282.74 374.145 L1282.74 372.302 Q1281.59 374.307 1279.78 375.3 Q1277.98 376.292 1275.47 376.292 Q1271.3 376.292 1268.74 373.112 Q1266.19 369.932 1266.19 364.686 Q1266.19 359.42 1268.74 356.24 Q1271.3 353.06 1275.47 353.06 Q1277.98 353.06 1279.78 354.053 Q1281.59 355.045 1282.74 357.05 L1282.74 353.607 L1286.47 353.607 L1286.47 373.477 Z" fill="#000000" fill-rule="nonzero" fill-opacity="1" /><path clip-path="url(#clip810)" d="M1307.82 357.455 L1333.78 357.455 L1333.78 360.858 L1307.82 360.858 L1307.82 357.455 M1307.82 365.719 L1333.78 365.719 L1333.78 369.162 L1307.82 369.162 L1307.82 365.719 Z" fill="#000000" fill-rule="nonzero" fill-opacity="1" /><path clip-path="url(#clip810)" d="M1364.55 348.746 Q1361.39 348.746 1359.79 351.865 Q1358.21 354.964 1358.21 361.202 Q1358.21 367.421 1359.79 370.54 Q1361.39 373.639 1364.55 373.639 Q1367.73 373.639 1369.31 370.54 Q1370.91 367.421 1370.91 361.202 Q1370.91 354.964 1369.31 351.865 Q1367.73 348.746 1364.55 348.746 M1364.55 345.505 Q1369.63 345.505 1372.31 349.536 Q1375 353.546 1375 361.202 Q1375 368.838 1372.31 372.869 Q1369.63 376.879 1364.55 376.879 Q1359.46 376.879 1356.77 372.869 Q1354.1 368.838 1354.1 361.202 Q1354.1 353.546 1356.77 349.536 Q1359.46 345.505 1364.55 345.505 Z" fill="#000000" fill-rule="nonzero" fill-opacity="1" /><path clip-path="url(#clip810)" d="M1382.19 371.147 L1386.46 371.147 L1386.46 376.292 L1382.19 376.292 L1382.19 371.147 Z" fill="#000000" fill-rule="nonzero" fill-opacity="1" /><path clip-path="url(#clip810)" d="M1407.77 359.987 Q1410.71 360.615 1412.35 362.6 Q1414.01 364.585 1414.01 367.502 Q1414.01 371.978 1410.93 374.429 Q1407.85 376.879 1402.18 376.879 Q1400.28 376.879 1398.25 376.495 Q1396.25 376.13 1394.1 375.381 L1394.1 371.431 Q1395.8 372.423 1397.83 372.93 Q1399.85 373.436 1402.06 373.436 Q1405.91 373.436 1407.91 371.917 Q1409.94 370.398 1409.94 367.502 Q1409.94 364.828 1408.06 363.329 Q1406.19 361.81 1402.85 361.81 L1399.33 361.81 L1399.33 358.448 L1403.01 358.448 Q1406.03 358.448 1407.63 357.253 Q1409.23 356.037 1409.23 353.769 Q1409.23 351.44 1407.57 350.204 Q1405.93 348.948 1402.85 348.948 Q1401.17 348.948 1399.24 349.313 Q1397.32 349.678 1395.01 350.447 L1395.01 346.801 Q1397.34 346.153 1399.37 345.829 Q1401.41 345.505 1403.21 345.505 Q1407.87 345.505 1410.59 347.632 Q1413.3 349.738 1413.3 353.344 Q1413.3 355.855 1411.86 357.597 Q1410.43 359.319 1407.77 359.987 Z" fill="#000000" fill-rule="nonzero" fill-opacity="1" /><path clip-path="url(#clip810)" d="M236.977 95.8695 Q236.626 96.2911 235.993 96.2911 Q235.396 96.2911 234.975 95.8695 L220.078 80.9728 L205.181 95.8695 Q204.76 96.2911 204.127 96.2911 Q203.53 96.2911 203.143 95.8695 Q202.722 95.483 202.722 94.8857 Q202.722 94.2885 203.143 93.8669 L218.04 78.9702 L203.143 64.0735 Q202.722 63.6519 202.722 63.0546 Q202.722 62.4222 203.143 62.0709 Q203.53 61.6493 204.127 61.6493 Q204.76 61.6493 205.181 62.0709 L220.078 76.9676 L234.975 62.0709 Q235.396 61.6493 235.993 61.6493 Q236.626 61.6493 236.977 62.0709 Q237.399 62.4222 237.399 63.0546 Q237.399 63.6519 236.977 64.0735 L222.08 78.9702 L236.977 93.8669 Q237.399 94.2885 237.399 94.9209 Q237.399 95.5181 236.977 95.8695 Z" fill="#000000" fill-rule="nonzero" fill-opacity="1" /><path clip-path="url(#clip810)" d="M243.334 55.8874 L243.334 53.6388 Q251.977 53.6388 256.439 49.0363 Q257.669 49.0363 257.88 49.3174 Q258.091 49.5984 258.091 50.8984 L258.091 91.267 Q258.091 93.4101 259.145 94.0777 Q260.199 94.7452 264.801 94.7452 L267.085 94.7452 L267.085 96.9586 Q264.555 96.7478 255.42 96.7478 Q246.286 96.7478 243.791 96.9586 L243.791 94.7452 L246.075 94.7452 Q250.607 94.7452 251.696 94.1128 Q252.785 93.4452 252.785 91.267 L252.785 53.9901 Q249.026 55.8874 243.334 55.8874 Z" fill="#000000" fill-rule="nonzero" fill-opacity="1" /><path clip-path="url(#clip810)" d="M278.965 73.9461 Q278.965 63.3708 281.635 57.6089 Q285.359 49.0363 294.142 49.0363 Q296.004 49.0363 297.937 49.5633 Q299.904 50.0552 302.364 51.9875 Q304.858 53.9199 306.369 57.0819 Q309.25 63.1952 309.25 73.9461 Q309.25 84.451 306.58 90.1778 Q302.68 98.5396 294.072 98.5396 Q290.84 98.5396 287.537 96.8883 Q284.27 95.2371 282.197 91.267 Q278.965 85.3294 278.965 73.9461 M284.937 73.0677 Q284.937 83.924 285.71 88.2455 Q286.589 92.9182 288.978 94.956 Q291.402 96.9586 294.072 96.9586 Q296.953 96.9586 299.342 94.8155 Q301.766 92.6372 302.504 87.9644 Q303.312 83.3619 303.277 73.0677 Q303.277 63.0546 302.574 59.0494 Q301.626 54.3766 299.096 52.5145 Q296.602 50.6173 294.072 50.6173 Q293.124 50.6173 292.105 50.8984 Q291.121 51.1794 289.68 51.9875 Q288.24 52.7956 287.116 54.7982 Q286.027 56.8008 285.5 59.8223 Q284.937 63.7222 284.937 73.0677 Z" fill="#000000" fill-rule="nonzero" fill-opacity="1" /><path clip-path="url(#clip810)" d="M349.885 46.3298 Q350.18 46.625 350.18 47.0431 Q350.18 47.4612 349.885 47.7563 Q349.59 48.0514 349.172 48.0514 L317.643 48.0514 Q317.225 48.0514 316.929 47.7563 Q316.634 47.4612 316.634 47.0431 Q316.634 46.625 316.929 46.3298 Q317.225 46.0347 317.643 46.0347 L349.172 46.0347 Q349.59 46.0347 349.885 46.3298 Z" fill="#000000" fill-rule="nonzero" fill-opacity="1" /><path clip-path="url(#clip810)" d="M355.434 51.3223 L355.434 49.7729 L370.904 26.1385 Q371.297 25.5237 371.912 25.5483 Q372.478 25.5483 372.601 25.7696 Q372.724 25.991 372.724 26.8517 L372.724 49.7729 L377.765 49.7729 L377.765 51.3223 L372.724 51.3223 L372.724 55.7 Q372.724 57.151 373.314 57.6183 Q373.929 58.0856 376.536 58.0856 L377.593 58.0856 L377.593 59.635 Q375.527 59.4874 370.756 59.4874 Q366.01 59.4874 363.944 59.635 L363.944 58.0856 L365.001 58.0856 Q367.608 58.0856 368.223 57.6429 Q368.838 57.1756 368.838 55.7 L368.838 51.3223 L355.434 51.3223 M356.861 49.7729 L369.133 49.7729 L369.133 30.9835 L356.861 49.7729 Z" fill="#000000" fill-rule="nonzero" fill-opacity="1" /></svg>
