<?xml version="1.0" encoding="utf-8"?>
<svg xmlns="http://www.w3.org/2000/svg" xmlns:xlink="http://www.w3.org/1999/xlink" width="400" height="400" viewBox="0 0 1600 1600">
<defs>
  <clipPath id="clip330">
    <rect x="0" y="0" width="1600" height="1600"/>
  </clipPath>
</defs>
<path clip-path="url(#clip330)" d="M0 1600 L1600 1600 L1600 0 L0 0  Z" fill="#ffffff" fill-rule="evenodd" fill-opacity="1"/>
<defs>
  <clipPath id="clip331">
    <rect x="320" y="160" width="1121" height="1121"/>
  </clipPath>
</defs>
<path clip-path="url(#clip330)" d="M235.626 1382.14 L1552.76 1382.14 L1552.76 47.2441 L235.626 47.2441  Z" fill="#ffffff" fill-rule="evenodd" fill-opacity="1"/>
<defs>
  <clipPath id="clip332">
    <rect x="235" y="47" width="1318" height="1336"/>
  </clipPath>
</defs>
<polyline clip-path="url(#clip332)" style="stroke:#000000; stroke-linecap:round; stroke-linejoin:round; stroke-width:2; stroke-opacity:0.1; fill:none" points="455.148,1382.14 455.148,47.2441 "/>
<polyline clip-path="url(#clip332)" style="stroke:#000000; stroke-linecap:round; stroke-linejoin:round; stroke-width:2; stroke-opacity:0.1; fill:none" points="699.061,1382.14 699.061,47.2441 "/>
<polyline clip-path="url(#clip332)" style="stroke:#000000; stroke-linecap:round; stroke-linejoin:round; stroke-width:2; stroke-opacity:0.1; fill:none" points="942.974,1382.14 942.974,47.2441 "/>
<polyline clip-path="url(#clip332)" style="stroke:#000000; stroke-linecap:round; stroke-linejoin:round; stroke-width:2; stroke-opacity:0.1; fill:none" points="1186.89,1382.14 1186.89,47.2441 "/>
<polyline clip-path="url(#clip332)" style="stroke:#000000; stroke-linecap:round; stroke-linejoin:round; stroke-width:2; stroke-opacity:0.1; fill:none" points="1430.8,1382.14 1430.8,47.2441 "/>
<polyline clip-path="url(#clip332)" style="stroke:#000000; stroke-linecap:round; stroke-linejoin:round; stroke-width:2; stroke-opacity:0.1; fill:none" points="455.148,1382.14 455.148,47.2441 "/>
<polyline clip-path="url(#clip332)" style="stroke:#000000; stroke-linecap:round; stroke-linejoin:round; stroke-width:2; stroke-opacity:0.1; fill:none" points="699.061,1382.14 699.061,47.2441 "/>
<polyline clip-path="url(#clip332)" style="stroke:#000000; stroke-linecap:round; stroke-linejoin:round; stroke-width:2; stroke-opacity:0.1; fill:none" points="942.974,1382.14 942.974,47.2441 "/>
<polyline clip-path="url(#clip332)" style="stroke:#000000; stroke-linecap:round; stroke-linejoin:round; stroke-width:2; stroke-opacity:0.1; fill:none" points="1186.89,1382.14 1186.89,47.2441 "/>
<polyline clip-path="url(#clip332)" style="stroke:#000000; stroke-linecap:round; stroke-linejoin:round; stroke-width:2; stroke-opacity:0.1; fill:none" points="1430.8,1382.14 1430.8,47.2441 "/>
<polyline clip-path="url(#clip332)" style="stroke:#000000; stroke-linecap:round; stroke-linejoin:round; stroke-width:2; stroke-opacity:0.1; fill:none" points="235.626,1382.14 1552.76,1382.14 "/>
<polyline clip-path="url(#clip332)" style="stroke:#000000; stroke-linecap:round; stroke-linejoin:round; stroke-width:2; stroke-opacity:0.1; fill:none" points="235.626,1115.16 1552.76,1115.16 "/>
<polyline clip-path="url(#clip332)" style="stroke:#000000; stroke-linecap:round; stroke-linejoin:round; stroke-width:2; stroke-opacity:0.1; fill:none" points="235.626,848.182 1552.76,848.182 "/>
<polyline clip-path="url(#clip332)" style="stroke:#000000; stroke-linecap:round; stroke-linejoin:round; stroke-width:2; stroke-opacity:0.1; fill:none" points="235.626,581.202 1552.76,581.202 "/>
<polyline clip-path="url(#clip332)" style="stroke:#000000; stroke-linecap:round; stroke-linejoin:round; stroke-width:2; stroke-opacity:0.1; fill:none" points="235.626,314.223 1552.76,314.223 "/>
<polyline clip-path="url(#clip332)" style="stroke:#000000; stroke-linecap:round; stroke-linejoin:round; stroke-width:2; stroke-opacity:0.1; fill:none" points="235.626,47.2441 1552.76,47.2441 "/>
<polyline clip-path="url(#clip332)" style="stroke:#000000; stroke-linecap:round; stroke-linejoin:round; stroke-width:2; stroke-opacity:0.1; fill:none" points="235.626,1382.14 1552.76,1382.14 "/>
<polyline clip-path="url(#clip332)" style="stroke:#000000; stroke-linecap:round; stroke-linejoin:round; stroke-width:2; stroke-opacity:0.1; fill:none" points="235.626,1115.16 1552.76,1115.16 "/>
<polyline clip-path="url(#clip332)" style="stroke:#000000; stroke-linecap:round; stroke-linejoin:round; stroke-width:2; stroke-opacity:0.1; fill:none" points="235.626,848.182 1552.76,848.182 "/>
<polyline clip-path="url(#clip332)" style="stroke:#000000; stroke-linecap:round; stroke-linejoin:round; stroke-width:2; stroke-opacity:0.1; fill:none" points="235.626,581.202 1552.76,581.202 "/>
<polyline clip-path="url(#clip332)" style="stroke:#000000; stroke-linecap:round; stroke-linejoin:round; stroke-width:2; stroke-opacity:0.1; fill:none" points="235.626,314.223 1552.76,314.223 "/>
<polyline clip-path="url(#clip332)" style="stroke:#000000; stroke-linecap:round; stroke-linejoin:round; stroke-width:2; stroke-opacity:0.1; fill:none" points="235.626,47.2441 1552.76,47.2441 "/>
<polyline clip-path="url(#clip330)" style="stroke:#000000; stroke-linecap:round; stroke-linejoin:round; stroke-width:4; stroke-opacity:1; fill:none" points="235.626,1382.14 1552.76,1382.14 "/>
<polyline clip-path="url(#clip330)" style="stroke:#000000; stroke-linecap:round; stroke-linejoin:round; stroke-width:4; stroke-opacity:1; fill:none" points="235.626,47.2441 1552.76,47.2441 "/>
<polyline clip-path="url(#clip330)" style="stroke:#000000; stroke-linecap:round; stroke-linejoin:round; stroke-width:4; stroke-opacity:1; fill:none" points="455.148,1382.14 455.148,1363.24 "/>
<polyline clip-path="url(#clip330)" style="stroke:#000000; stroke-linecap:round; stroke-linejoin:round; stroke-width:4; stroke-opacity:1; fill:none" points="699.061,1382.14 699.061,1363.24 "/>
<polyline clip-path="url(#clip330)" style="stroke:#000000; stroke-linecap:round; stroke-linejoin:round; stroke-width:4; stroke-opacity:1; fill:none" points="942.974,1382.14 942.974,1363.24 "/>
<polyline clip-path="url(#clip330)" style="stroke:#000000; stroke-linecap:round; stroke-linejoin:round; stroke-width:4; stroke-opacity:1; fill:none" points="1186.89,1382.14 1186.89,1363.24 "/>
<polyline clip-path="url(#clip330)" style="stroke:#000000; stroke-linecap:round; stroke-linejoin:round; stroke-width:4; stroke-opacity:1; fill:none" points="1430.8,1382.14 1430.8,1363.24 "/>
<polyline clip-path="url(#clip330)" style="stroke:#000000; stroke-linecap:round; stroke-linejoin:round; stroke-width:4; stroke-opacity:1; fill:none" points="455.148,47.2441 455.148,66.1417 "/>
<polyline clip-path="url(#clip330)" style="stroke:#000000; stroke-linecap:round; stroke-linejoin:round; stroke-width:4; stroke-opacity:1; fill:none" points="699.061,47.2441 699.061,66.1417 "/>
<polyline clip-path="url(#clip330)" style="stroke:#000000; stroke-linecap:round; stroke-linejoin:round; stroke-width:4; stroke-opacity:1; fill:none" points="942.974,47.2441 942.974,66.1417 "/>
<polyline clip-path="url(#clip330)" style="stroke:#000000; stroke-linecap:round; stroke-linejoin:round; stroke-width:4; stroke-opacity:1; fill:none" points="1186.89,47.2441 1186.89,66.1417 "/>
<polyline clip-path="url(#clip330)" style="stroke:#000000; stroke-linecap:round; stroke-linejoin:round; stroke-width:4; stroke-opacity:1; fill:none" points="1430.8,47.2441 1430.8,66.1417 "/>
<path clip-path="url(#clip330)" d="M445.53 1434.2 L453.169 1434.2 L453.169 1407.84 L444.859 1409.51 L444.859 1405.25 L453.122 1403.58 L457.798 1403.58 L457.798 1434.2 L465.437 1434.2 L465.437 1438.14 L445.53 1438.14 L445.53 1434.2 Z" fill="#000000" fill-rule="nonzero" fill-opacity="1" /><path clip-path="url(#clip330)" d="M693.714 1434.2 L710.033 1434.2 L710.033 1438.14 L688.089 1438.14 L688.089 1434.2 Q690.751 1431.45 695.334 1426.82 Q699.94 1422.17 701.121 1420.83 Q703.366 1418.3 704.246 1416.57 Q705.149 1414.81 705.149 1413.12 Q705.149 1410.36 703.204 1408.63 Q701.283 1406.89 698.181 1406.89 Q695.982 1406.89 693.528 1407.65 Q691.098 1408.42 688.32 1409.97 L688.32 1405.25 Q691.144 1404.11 693.598 1403.53 Q696.052 1402.95 698.089 1402.95 Q703.459 1402.95 706.653 1405.64 Q709.848 1408.33 709.848 1412.82 Q709.848 1414.95 709.038 1416.87 Q708.251 1418.76 706.144 1421.36 Q705.565 1422.03 702.464 1425.25 Q699.362 1428.44 693.714 1434.2 Z" fill="#000000" fill-rule="nonzero" fill-opacity="1" /><path clip-path="url(#clip330)" d="M947.221 1419.51 Q950.578 1420.22 952.453 1422.49 Q954.351 1424.76 954.351 1428.09 Q954.351 1433.21 950.832 1436.01 Q947.314 1438.81 940.832 1438.81 Q938.657 1438.81 936.342 1438.37 Q934.05 1437.95 931.596 1437.1 L931.596 1432.58 Q933.541 1433.72 935.856 1434.3 Q938.17 1434.88 940.694 1434.88 Q945.092 1434.88 947.383 1433.14 Q949.698 1431.4 949.698 1428.09 Q949.698 1425.04 947.545 1423.33 Q945.416 1421.59 941.596 1421.59 L937.569 1421.59 L937.569 1417.75 L941.782 1417.75 Q945.231 1417.75 947.059 1416.38 Q948.888 1414.99 948.888 1412.4 Q948.888 1409.74 946.99 1408.33 Q945.115 1406.89 941.596 1406.89 Q939.675 1406.89 937.476 1407.31 Q935.277 1407.72 932.638 1408.6 L932.638 1404.44 Q935.3 1403.7 937.615 1403.33 Q939.953 1402.95 942.013 1402.95 Q947.337 1402.95 950.439 1405.39 Q953.541 1407.79 953.541 1411.91 Q953.541 1414.78 951.897 1416.77 Q950.254 1418.74 947.221 1419.51 Z" fill="#000000" fill-rule="nonzero" fill-opacity="1" /><path clip-path="url(#clip330)" d="M1189.9 1407.65 L1178.09 1426.1 L1189.9 1426.1 L1189.9 1407.65 M1188.67 1403.58 L1194.55 1403.58 L1194.55 1426.1 L1199.48 1426.1 L1199.48 1429.99 L1194.55 1429.99 L1194.55 1438.14 L1189.9 1438.14 L1189.9 1429.99 L1174.29 1429.99 L1174.29 1425.48 L1188.67 1403.58 Z" fill="#000000" fill-rule="nonzero" fill-opacity="1" /><path clip-path="url(#clip330)" d="M1421.08 1403.58 L1439.43 1403.58 L1439.43 1407.52 L1425.36 1407.52 L1425.36 1415.99 Q1426.38 1415.64 1427.4 1415.48 Q1428.42 1415.29 1429.43 1415.29 Q1435.22 1415.29 1438.6 1418.46 Q1441.98 1421.64 1441.98 1427.05 Q1441.98 1432.63 1438.51 1435.73 Q1435.04 1438.81 1428.72 1438.81 Q1426.54 1438.81 1424.27 1438.44 Q1422.03 1438.07 1419.62 1437.33 L1419.62 1432.63 Q1421.7 1433.76 1423.92 1434.32 Q1426.15 1434.88 1428.62 1434.88 Q1432.63 1434.88 1434.97 1432.77 Q1437.3 1430.66 1437.3 1427.05 Q1437.3 1423.44 1434.97 1421.33 Q1432.63 1419.23 1428.62 1419.23 Q1426.75 1419.23 1424.87 1419.64 Q1423.02 1420.06 1421.08 1420.94 L1421.08 1403.58 Z" fill="#000000" fill-rule="nonzero" fill-opacity="1" /><path clip-path="url(#clip330)" d="M898.04 1469.7 Q898.04 1472.7 896.527 1478.49 Q895.915 1481.01 895.078 1483.29 Q894.272 1485.55 893.081 1487.74 Q891.889 1489.93 890.504 1491.51 Q889.119 1493.05 887.316 1494.02 Q885.512 1494.98 883.516 1494.98 Q880.359 1494.98 878.492 1493.12 Q876.656 1491.22 876.076 1487.96 Q871.761 1494.98 865.996 1494.98 Q862.421 1494.98 860.746 1492.44 Q859.071 1489.86 859.071 1485.55 Q859.071 1481.91 860.038 1478.14 Q861.873 1470.99 865.448 1466 Q865.931 1465.42 866.64 1465.42 Q867.058 1465.42 867.252 1465.55 Q867.831 1465.9 867.831 1466.48 Q867.831 1466.9 867.509 1467.32 Q865.255 1470.44 863.773 1473.12 Q862.292 1475.79 861.616 1478.49 Q861.1 1480.81 861.1 1482.78 Q861.1 1486.09 862.517 1488.16 Q863.967 1490.22 866.833 1490.22 Q869.474 1490.22 871.793 1488.57 Q874.112 1486.9 875.818 1484.1 Q875.915 1481.04 876.656 1478.14 Q877.332 1475.05 878.91 1475.05 Q880.166 1475.05 880.166 1476.75 Q880.166 1477.33 879.909 1478.49 Q879.2 1481.55 877.912 1484.29 Q878.363 1486.96 880.037 1488.61 Q881.712 1490.22 884.385 1490.22 Q886.865 1490.22 889.055 1488.41 Q891.277 1486.61 892.694 1483.97 Q894.144 1481.3 894.949 1478.14 Q895.206 1477.08 895.206 1475.72 Q895.206 1472.12 892.694 1469.9 Q891.986 1469.19 891.986 1468.25 Q891.986 1467.16 892.888 1466.16 Q893.95 1465.1 895.206 1465.1 Q896.14 1465.1 896.72 1465.68 Q898.04 1466.84 898.04 1469.7 Z" fill="#000000" fill-rule="nonzero" fill-opacity="1" /><path clip-path="url(#clip330)" d="M922.267 1501.75 Q922.447 1501.96 922.447 1502.16 Q922.447 1502.36 921.996 1502.95 Q921.568 1503.53 920.644 1504.32 Q919.72 1505.11 918.525 1505.86 Q917.33 1506.6 915.571 1507.1 Q913.813 1507.61 911.964 1507.61 Q908.65 1507.61 906.666 1505.25 Q904.705 1502.88 904.705 1499.25 Q904.705 1496.93 905.472 1494.88 Q906.238 1492.8 907.478 1491.34 Q908.741 1489.87 910.319 1488.81 Q911.919 1487.73 913.588 1487.21 Q915.256 1486.69 916.811 1486.69 Q919.088 1486.69 920.418 1487.84 Q921.748 1488.99 921.748 1490.62 Q921.748 1491 921.636 1491.47 Q921.546 1491.95 921.23 1492.69 Q920.937 1493.43 920.17 1494.18 Q919.404 1494.9 918.277 1495.37 Q915.774 1496.43 911.22 1496.43 L908.763 1496.43 Q908.042 1499.34 908.042 1501.23 Q908.042 1501.98 908.177 1502.74 Q908.312 1503.49 908.673 1504.43 Q909.056 1505.38 909.913 1505.99 Q910.792 1506.58 912.055 1506.58 Q912.46 1506.58 912.889 1506.55 Q913.34 1506.53 914.467 1506.28 Q915.616 1506.04 916.631 1505.61 Q917.645 1505.18 918.93 1504.25 Q920.238 1503.31 921.275 1502.02 Q921.636 1501.55 921.884 1501.55 Q922.087 1501.55 922.267 1501.75 M920.215 1490.62 Q920.215 1489.38 919.291 1488.54 Q918.389 1487.71 916.811 1487.71 Q916.315 1487.71 915.707 1487.82 Q915.098 1487.93 914.083 1488.41 Q913.092 1488.88 912.212 1489.67 Q911.333 1490.43 910.454 1491.95 Q909.575 1493.43 909.056 1495.42 L910.95 1495.42 Q911.604 1495.42 912.077 1495.42 Q912.55 1495.39 913.588 1495.3 Q914.647 1495.21 915.414 1495.06 Q916.18 1494.88 917.149 1494.52 Q918.119 1494.15 918.728 1493.68 Q919.359 1493.19 919.787 1492.4 Q920.215 1491.61 920.215 1490.62 Z" fill="#000000" fill-rule="nonzero" fill-opacity="1" /><polyline clip-path="url(#clip330)" style="stroke:#000000; stroke-linecap:round; stroke-linejoin:round; stroke-width:4; stroke-opacity:1; fill:none" points="235.626,1382.14 235.626,47.2441 "/>
<polyline clip-path="url(#clip330)" style="stroke:#000000; stroke-linecap:round; stroke-linejoin:round; stroke-width:4; stroke-opacity:1; fill:none" points="1552.76,1382.14 1552.76,47.2441 "/>
<polyline clip-path="url(#clip330)" style="stroke:#000000; stroke-linecap:round; stroke-linejoin:round; stroke-width:4; stroke-opacity:1; fill:none" points="235.626,1382.14 254.524,1382.14 "/>
<polyline clip-path="url(#clip330)" style="stroke:#000000; stroke-linecap:round; stroke-linejoin:round; stroke-width:4; stroke-opacity:1; fill:none" points="235.626,1115.16 254.524,1115.16 "/>
<polyline clip-path="url(#clip330)" style="stroke:#000000; stroke-linecap:round; stroke-linejoin:round; stroke-width:4; stroke-opacity:1; fill:none" points="235.626,848.182 254.524,848.182 "/>
<polyline clip-path="url(#clip330)" style="stroke:#000000; stroke-linecap:round; stroke-linejoin:round; stroke-width:4; stroke-opacity:1; fill:none" points="235.626,581.202 254.524,581.202 "/>
<polyline clip-path="url(#clip330)" style="stroke:#000000; stroke-linecap:round; stroke-linejoin:round; stroke-width:4; stroke-opacity:1; fill:none" points="235.626,314.223 254.524,314.223 "/>
<polyline clip-path="url(#clip330)" style="stroke:#000000; stroke-linecap:round; stroke-linejoin:round; stroke-width:4; stroke-opacity:1; fill:none" points="235.626,47.2441 254.524,47.2441 "/>
<polyline clip-path="url(#clip330)" style="stroke:#000000; stroke-linecap:round; stroke-linejoin:round; stroke-width:4; stroke-opacity:1; fill:none" points="1552.76,1382.14 1533.86,1382.14 "/>
<polyline clip-path="url(#clip330)" style="stroke:#000000; stroke-linecap:round; stroke-linejoin:round; stroke-width:4; stroke-opacity:1; fill:none" points="1552.76,1115.16 1533.86,1115.16 "/>
<polyline clip-path="url(#clip330)" style="stroke:#000000; stroke-linecap:round; stroke-linejoin:round; stroke-width:4; stroke-opacity:1; fill:none" points="1552.76,848.182 1533.86,848.182 "/>
<polyline clip-path="url(#clip330)" style="stroke:#000000; stroke-linecap:round; stroke-linejoin:round; stroke-width:4; stroke-opacity:1; fill:none" points="1552.76,581.202 1533.86,581.202 "/>
<polyline clip-path="url(#clip330)" style="stroke:#000000; stroke-linecap:round; stroke-linejoin:round; stroke-width:4; stroke-opacity:1; fill:none" points="1552.76,314.223 1533.86,314.223 "/>
<polyline clip-path="url(#clip330)" style="stroke:#000000; stroke-linecap:round; stroke-linejoin:round; stroke-width:4; stroke-opacity:1; fill:none" points="1552.76,47.2441 1533.86,47.2441 "/>
<path clip-path="url(#clip330)" d="M154.451 1367.94 Q150.84 1367.94 149.011 1371.5 Q147.205 1375.04 147.205 1382.17 Q147.205 1389.28 149.011 1392.85 Q150.84 1396.39 154.451 1396.39 Q158.085 1396.39 159.89 1392.85 Q161.719 1389.28 161.719 1382.17 Q161.719 1375.04 159.89 1371.5 Q158.085 1367.94 154.451 1367.94 M154.451 1364.23 Q160.261 1364.23 163.316 1368.84 Q166.395 1373.42 166.395 1382.17 Q166.395 1390.9 163.316 1395.51 Q160.261 1400.09 154.451 1400.09 Q148.64 1400.09 145.562 1395.51 Q142.506 1390.9 142.506 1382.17 Q142.506 1373.42 145.562 1368.84 Q148.64 1364.23 154.451 1364.23 Z" fill="#000000" fill-rule="nonzero" fill-opacity="1" /><path clip-path="url(#clip330)" d="M174.613 1393.54 L179.497 1393.54 L179.497 1399.42 L174.613 1399.42 L174.613 1393.54 Z" fill="#000000" fill-rule="nonzero" fill-opacity="1" /><path clip-path="url(#clip330)" d="M199.682 1367.94 Q196.071 1367.94 194.242 1371.5 Q192.437 1375.04 192.437 1382.17 Q192.437 1389.28 194.242 1392.85 Q196.071 1396.39 199.682 1396.39 Q203.316 1396.39 205.122 1392.85 Q206.95 1389.28 206.95 1382.17 Q206.95 1375.04 205.122 1371.5 Q203.316 1367.94 199.682 1367.94 M199.682 1364.23 Q205.492 1364.23 208.548 1368.84 Q211.626 1373.42 211.626 1382.17 Q211.626 1390.9 208.548 1395.51 Q205.492 1400.09 199.682 1400.09 Q193.872 1400.09 190.793 1395.51 Q187.738 1390.9 187.738 1382.17 Q187.738 1373.42 190.793 1368.84 Q193.872 1364.23 199.682 1364.23 Z" fill="#000000" fill-rule="nonzero" fill-opacity="1" /><path clip-path="url(#clip330)" d="M156.048 1100.96 Q152.437 1100.96 150.608 1104.52 Q148.803 1108.07 148.803 1115.2 Q148.803 1122.3 150.608 1125.87 Q152.437 1129.41 156.048 1129.41 Q159.682 1129.41 161.488 1125.87 Q163.316 1122.3 163.316 1115.2 Q163.316 1108.07 161.488 1104.52 Q159.682 1100.96 156.048 1100.96 M156.048 1097.26 Q161.858 1097.26 164.914 1101.86 Q167.992 1106.45 167.992 1115.2 Q167.992 1123.92 164.914 1128.53 Q161.858 1133.11 156.048 1133.11 Q150.238 1133.11 147.159 1128.53 Q144.103 1123.92 144.103 1115.2 Q144.103 1106.45 147.159 1101.86 Q150.238 1097.26 156.048 1097.26 Z" fill="#000000" fill-rule="nonzero" fill-opacity="1" /><path clip-path="url(#clip330)" d="M176.21 1126.56 L181.094 1126.56 L181.094 1132.44 L176.21 1132.44 L176.21 1126.56 Z" fill="#000000" fill-rule="nonzero" fill-opacity="1" /><path clip-path="url(#clip330)" d="M195.307 1128.51 L211.626 1128.51 L211.626 1132.44 L189.682 1132.44 L189.682 1128.51 Q192.344 1125.75 196.927 1121.12 Q201.534 1116.47 202.714 1115.13 Q204.96 1112.6 205.839 1110.87 Q206.742 1109.11 206.742 1107.42 Q206.742 1104.66 204.798 1102.93 Q202.876 1101.19 199.774 1101.19 Q197.575 1101.19 195.122 1101.95 Q192.691 1102.72 189.913 1104.27 L189.913 1099.55 Q192.737 1098.41 195.191 1097.83 Q197.645 1097.26 199.682 1097.26 Q205.052 1097.26 208.247 1099.94 Q211.441 1102.63 211.441 1107.12 Q211.441 1109.25 210.631 1111.17 Q209.844 1113.07 207.737 1115.66 Q207.159 1116.33 204.057 1119.55 Q200.955 1122.74 195.307 1128.51 Z" fill="#000000" fill-rule="nonzero" fill-opacity="1" /><path clip-path="url(#clip330)" d="M153.965 833.98 Q150.353 833.98 148.525 837.545 Q146.719 841.087 146.719 848.216 Q146.719 855.323 148.525 858.888 Q150.353 862.429 153.965 862.429 Q157.599 862.429 159.404 858.888 Q161.233 855.323 161.233 848.216 Q161.233 841.087 159.404 837.545 Q157.599 833.98 153.965 833.98 M153.965 830.277 Q159.775 830.277 162.83 834.883 Q165.909 839.466 165.909 848.216 Q165.909 856.943 162.83 861.55 Q159.775 866.133 153.965 866.133 Q148.154 866.133 145.076 861.55 Q142.02 856.943 142.02 848.216 Q142.02 839.466 145.076 834.883 Q148.154 830.277 153.965 830.277 Z" fill="#000000" fill-rule="nonzero" fill-opacity="1" /><path clip-path="url(#clip330)" d="M174.126 859.582 L179.011 859.582 L179.011 865.462 L174.126 865.462 L174.126 859.582 Z" fill="#000000" fill-rule="nonzero" fill-opacity="1" /><path clip-path="url(#clip330)" d="M202.043 834.976 L190.237 853.425 L202.043 853.425 L202.043 834.976 M200.816 830.902 L206.696 830.902 L206.696 853.425 L211.626 853.425 L211.626 857.313 L206.696 857.313 L206.696 865.462 L202.043 865.462 L202.043 857.313 L186.441 857.313 L186.441 852.8 L200.816 830.902 Z" fill="#000000" fill-rule="nonzero" fill-opacity="1" /><path clip-path="url(#clip330)" d="M154.289 567.001 Q150.678 567.001 148.849 570.566 Q147.043 574.108 147.043 581.237 Q147.043 588.344 148.849 591.908 Q150.678 595.45 154.289 595.45 Q157.923 595.45 159.728 591.908 Q161.557 588.344 161.557 581.237 Q161.557 574.108 159.728 570.566 Q157.923 567.001 154.289 567.001 M154.289 563.297 Q160.099 563.297 163.154 567.904 Q166.233 572.487 166.233 581.237 Q166.233 589.964 163.154 594.57 Q160.099 599.154 154.289 599.154 Q148.478 599.154 145.4 594.57 Q142.344 589.964 142.344 581.237 Q142.344 572.487 145.4 567.904 Q148.478 563.297 154.289 563.297 Z" fill="#000000" fill-rule="nonzero" fill-opacity="1" /><path clip-path="url(#clip330)" d="M174.451 592.603 L179.335 592.603 L179.335 598.482 L174.451 598.482 L174.451 592.603 Z" fill="#000000" fill-rule="nonzero" fill-opacity="1" /><path clip-path="url(#clip330)" d="M200.099 579.339 Q196.95 579.339 195.099 581.492 Q193.27 583.645 193.27 587.394 Q193.27 591.121 195.099 593.297 Q196.95 595.45 200.099 595.45 Q203.247 595.45 205.075 593.297 Q206.927 591.121 206.927 587.394 Q206.927 583.645 205.075 581.492 Q203.247 579.339 200.099 579.339 M209.381 564.686 L209.381 568.946 Q207.622 568.112 205.816 567.672 Q204.034 567.233 202.274 567.233 Q197.645 567.233 195.191 570.358 Q192.761 573.483 192.413 579.802 Q193.779 577.788 195.839 576.723 Q197.899 575.635 200.376 575.635 Q205.585 575.635 208.594 578.807 Q211.626 581.955 211.626 587.394 Q211.626 592.719 208.478 595.936 Q205.33 599.154 200.099 599.154 Q194.103 599.154 190.932 594.57 Q187.761 589.964 187.761 581.237 Q187.761 573.043 191.65 568.182 Q195.538 563.297 202.089 563.297 Q203.849 563.297 205.631 563.645 Q207.436 563.992 209.381 564.686 Z" fill="#000000" fill-rule="nonzero" fill-opacity="1" /><path clip-path="url(#clip330)" d="M154.543 300.022 Q150.932 300.022 149.103 303.587 Q147.298 307.128 147.298 314.258 Q147.298 321.364 149.103 324.929 Q150.932 328.471 154.543 328.471 Q158.177 328.471 159.983 324.929 Q161.812 321.364 161.812 314.258 Q161.812 307.128 159.983 303.587 Q158.177 300.022 154.543 300.022 M154.543 296.318 Q160.353 296.318 163.409 300.925 Q166.488 305.508 166.488 314.258 Q166.488 322.985 163.409 327.591 Q160.353 332.175 154.543 332.175 Q148.733 332.175 145.654 327.591 Q142.599 322.985 142.599 314.258 Q142.599 305.508 145.654 300.925 Q148.733 296.318 154.543 296.318 Z" fill="#000000" fill-rule="nonzero" fill-opacity="1" /><path clip-path="url(#clip330)" d="M174.705 325.624 L179.589 325.624 L179.589 331.503 L174.705 331.503 L174.705 325.624 Z" fill="#000000" fill-rule="nonzero" fill-opacity="1" /><path clip-path="url(#clip330)" d="M199.774 315.091 Q196.441 315.091 194.52 316.874 Q192.622 318.656 192.622 321.781 Q192.622 324.906 194.52 326.688 Q196.441 328.471 199.774 328.471 Q203.108 328.471 205.029 326.688 Q206.95 324.883 206.95 321.781 Q206.95 318.656 205.029 316.874 Q203.131 315.091 199.774 315.091 M195.099 313.101 Q192.089 312.36 190.4 310.3 Q188.733 308.239 188.733 305.277 Q188.733 301.133 191.673 298.726 Q194.636 296.318 199.774 296.318 Q204.936 296.318 207.876 298.726 Q210.816 301.133 210.816 305.277 Q210.816 308.239 209.126 310.3 Q207.46 312.36 204.474 313.101 Q207.853 313.888 209.728 316.179 Q211.626 318.471 211.626 321.781 Q211.626 326.804 208.548 329.489 Q205.492 332.175 199.774 332.175 Q194.057 332.175 190.978 329.489 Q187.923 326.804 187.923 321.781 Q187.923 318.471 189.821 316.179 Q191.719 313.888 195.099 313.101 M193.386 305.716 Q193.386 308.402 195.052 309.906 Q196.742 311.411 199.774 311.411 Q202.784 311.411 204.474 309.906 Q206.186 308.402 206.186 305.716 Q206.186 303.031 204.474 301.527 Q202.784 300.022 199.774 300.022 Q196.742 300.022 195.052 301.527 Q193.386 303.031 193.386 305.716 Z" fill="#000000" fill-rule="nonzero" fill-opacity="1" /><path clip-path="url(#clip330)" d="M145.261 60.5889 L152.9 60.5889 L152.9 34.2233 L144.59 35.89 L144.59 31.6308 L152.853 29.9641 L157.529 29.9641 L157.529 60.5889 L165.168 60.5889 L165.168 64.5241 L145.261 64.5241 L145.261 60.5889 Z" fill="#000000" fill-rule="nonzero" fill-opacity="1" /><path clip-path="url(#clip330)" d="M174.613 58.6445 L179.497 58.6445 L179.497 64.5241 L174.613 64.5241 L174.613 58.6445 Z" fill="#000000" fill-rule="nonzero" fill-opacity="1" /><path clip-path="url(#clip330)" d="M199.682 33.0428 Q196.071 33.0428 194.242 36.6076 Q192.437 40.1492 192.437 47.2788 Q192.437 54.3853 194.242 57.9501 Q196.071 61.4917 199.682 61.4917 Q203.316 61.4917 205.122 57.9501 Q206.95 54.3853 206.95 47.2788 Q206.95 40.1492 205.122 36.6076 Q203.316 33.0428 199.682 33.0428 M199.682 29.3391 Q205.492 29.3391 208.548 33.9456 Q211.626 38.5289 211.626 47.2788 Q211.626 56.0056 208.548 60.6121 Q205.492 65.1954 199.682 65.1954 Q193.872 65.1954 190.793 60.6121 Q187.738 56.0056 187.738 47.2788 Q187.738 38.5289 190.793 33.9456 Q193.872 29.3391 199.682 29.3391 Z" fill="#000000" fill-rule="nonzero" fill-opacity="1" /><path clip-path="url(#clip330)" d="M68.4836 714.954 Q70.2871 714.954 72.3161 715.502 L102.171 723.006 Q104.812 723.682 104.812 725.711 Q104.812 726.548 104.297 727.064 Q103.813 727.547 103.04 727.547 Q102.783 727.547 101.978 727.353 L71.6398 719.849 Q68.8701 719.173 67.4852 719.173 Q62.8798 719.173 62.8798 722.748 Q62.8798 725.904 65.1986 729.06 Q66.358 730.51 68.4514 731.927 Q70.5126 733.312 71.2533 733.569 Q72.928 733.859 74.2162 734.278 Q75.118 734.471 78.6284 735.405 L84.5865 736.854 Q89.0309 737.885 89.4496 738.11 Q90.3514 738.432 90.8345 739.141 Q91.3175 739.849 91.3175 740.558 Q91.3175 741.363 90.8345 741.91 Q90.3514 742.458 89.514 742.458 Q89.3852 742.458 88.9021 742.361 Q88.419 742.265 87.7427 742.104 Q87.0664 741.943 86.6799 741.878 L71.4465 738.046 Q68.6768 737.337 67.8073 737.176 Q66.9055 736.983 65.9071 736.983 Q64.168 736.983 63.5239 737.53 Q62.8798 738.078 62.8798 739.044 Q62.8798 740.719 64.8765 741.814 Q66.8733 742.909 70.738 743.843 Q71.8008 744.133 72.0262 744.326 Q72.2517 744.487 72.2517 744.97 Q72.2195 745.775 71.5753 745.775 Q71.4143 745.775 70.3837 745.518 Q69.3209 745.26 67.7751 744.777 Q66.197 744.262 65.1986 743.714 Q64.5223 743.392 64.0714 743.102 Q63.6205 742.812 62.912 742.233 Q62.2034 741.653 61.817 740.783 Q61.4305 739.914 61.4305 738.851 Q61.4305 736.5 62.9442 734.761 Q64.4578 732.989 67.1631 732.764 Q66.1648 732.088 65.263 731.218 Q64.3612 730.316 63.4595 729.06 Q62.5255 727.804 61.978 726.097 Q61.4305 724.391 61.4305 722.555 Q61.4305 718.883 63.3306 716.919 Q65.1986 714.954 68.4836 714.954 Z" fill="#000000" fill-rule="nonzero" fill-opacity="1" /><path clip-path="url(#clip330)" d="M111.451 690.653 Q111.654 690.472 111.857 690.472 Q112.059 690.472 112.646 690.923 Q113.232 691.351 114.021 692.276 Q114.81 693.2 115.554 694.395 Q116.298 695.59 116.794 697.348 Q117.312 699.107 117.312 700.955 Q117.312 704.269 114.945 706.253 Q112.578 708.214 108.948 708.214 Q106.626 708.214 104.575 707.448 Q102.501 706.681 101.035 705.441 Q99.57 704.179 98.5104 702.601 Q97.4283 701 96.9098 699.332 Q96.3913 697.664 96.3913 696.108 Q96.3913 693.831 97.541 692.501 Q98.6908 691.171 100.314 691.171 Q100.697 691.171 101.171 691.284 Q101.644 691.374 102.388 691.69 Q103.132 691.983 103.876 692.749 Q104.597 693.516 105.071 694.643 Q106.13 697.145 106.13 701.699 L106.13 704.156 Q109.039 704.878 110.932 704.878 Q111.676 704.878 112.443 704.743 Q113.187 704.607 114.133 704.247 Q115.08 703.863 115.689 703.007 Q116.275 702.127 116.275 700.865 Q116.275 700.459 116.253 700.031 Q116.23 699.58 115.982 698.453 Q115.734 697.303 115.306 696.289 Q114.877 695.274 113.953 693.989 Q113.006 692.681 111.721 691.644 Q111.248 691.284 111.248 691.036 Q111.248 690.833 111.451 690.653 M100.314 692.704 Q99.074 692.704 98.2399 693.628 Q97.4057 694.53 97.4057 696.108 Q97.4057 696.604 97.5185 697.213 Q97.6312 697.822 98.1046 698.836 Q98.578 699.828 99.3671 700.707 Q100.134 701.586 101.644 702.466 Q103.132 703.345 105.116 703.863 L105.116 701.97 Q105.116 701.316 105.116 700.842 Q105.093 700.369 105.003 699.332 Q104.913 698.272 104.755 697.506 Q104.575 696.739 104.214 695.77 Q103.853 694.801 103.38 694.192 Q102.884 693.561 102.095 693.132 Q101.306 692.704 100.314 692.704 Z" fill="#000000" fill-rule="nonzero" fill-opacity="1" /><polyline clip-path="url(#clip332)" style="stroke:#009af9; stroke-linecap:round; stroke-linejoin:round; stroke-width:4; stroke-opacity:1; fill:none" points="235.626,1260.91 284.409,1074.33 333.191,937.266 381.974,832.455 430.757,749.53 479.539,682.265 528.322,628.51 577.104,583.713 625.887,543.971 674.669,509.449 723.452,479.309 772.235,452.777 821.017,429.272 869.8,408.296 918.582,389.697 967.365,1382.14 1016.15,1382.14 1064.93,1382.14 1113.71,1382.14 1162.5,1382.14 1211.28,1382.14 1260.06,1382.14 1308.84,1382.14 1357.63,1382.14 1406.41,1382.14 1455.19,1382.14 1503.97,1382.14 1552.76,1382.14 "/>
<circle clip-path="url(#clip332)" cx="235.626" cy="1260.91" r="7.2" fill="#009af9" fill-rule="evenodd" fill-opacity="1" stroke="#000000" stroke-opacity="1" stroke-width="3.2"/>
<circle clip-path="url(#clip332)" cx="284.409" cy="1074.33" r="7.2" fill="#009af9" fill-rule="evenodd" fill-opacity="1" stroke="#000000" stroke-opacity="1" stroke-width="3.2"/>
<circle clip-path="url(#clip332)" cx="333.191" cy="937.266" r="7.2" fill="#009af9" fill-rule="evenodd" fill-opacity="1" stroke="#000000" stroke-opacity="1" stroke-width="3.2"/>
<circle clip-path="url(#clip332)" cx="381.974" cy="832.455" r="7.2" fill="#009af9" fill-rule="evenodd" fill-opacity="1" stroke="#000000" stroke-opacity="1" stroke-width="3.2"/>
<circle clip-path="url(#clip332)" cx="430.757" cy="749.53" r="7.2" fill="#009af9" fill-rule="evenodd" fill-opacity="1" stroke="#000000" stroke-opacity="1" stroke-width="3.2"/>
<circle clip-path="url(#clip332)" cx="479.539" cy="682.265" r="7.2" fill="#009af9" fill-rule="evenodd" fill-opacity="1" stroke="#000000" stroke-opacity="1" stroke-width="3.2"/>
<circle clip-path="url(#clip332)" cx="528.322" cy="628.51" r="7.2" fill="#009af9" fill-rule="evenodd" fill-opacity="1" stroke="#000000" stroke-opacity="1" stroke-width="3.2"/>
<circle clip-path="url(#clip332)" cx="577.104" cy="583.713" r="7.2" fill="#009af9" fill-rule="evenodd" fill-opacity="1" stroke="#000000" stroke-opacity="1" stroke-width="3.2"/>
<circle clip-path="url(#clip332)" cx="625.887" cy="543.971" r="7.2" fill="#009af9" fill-rule="evenodd" fill-opacity="1" stroke="#000000" stroke-opacity="1" stroke-width="3.2"/>
<circle clip-path="url(#clip332)" cx="674.669" cy="509.449" r="7.2" fill="#009af9" fill-rule="evenodd" fill-opacity="1" stroke="#000000" stroke-opacity="1" stroke-width="3.2"/>
<circle clip-path="url(#clip332)" cx="723.452" cy="479.309" r="7.2" fill="#009af9" fill-rule="evenodd" fill-opacity="1" stroke="#000000" stroke-opacity="1" stroke-width="3.2"/>
<circle clip-path="url(#clip332)" cx="772.235" cy="452.777" r="7.2" fill="#009af9" fill-rule="evenodd" fill-opacity="1" stroke="#000000" stroke-opacity="1" stroke-width="3.2"/>
<circle clip-path="url(#clip332)" cx="821.017" cy="429.272" r="7.2" fill="#009af9" fill-rule="evenodd" fill-opacity="1" stroke="#000000" stroke-opacity="1" stroke-width="3.2"/>
<circle clip-path="url(#clip332)" cx="869.8" cy="408.296" r="7.2" fill="#009af9" fill-rule="evenodd" fill-opacity="1" stroke="#000000" stroke-opacity="1" stroke-width="3.2"/>
<circle clip-path="url(#clip332)" cx="918.582" cy="389.697" r="7.2" fill="#009af9" fill-rule="evenodd" fill-opacity="1" stroke="#000000" stroke-opacity="1" stroke-width="3.2"/>
<circle clip-path="url(#clip332)" cx="967.365" cy="1382.14" r="7.2" fill="#009af9" fill-rule="evenodd" fill-opacity="1" stroke="#000000" stroke-opacity="1" stroke-width="3.2"/>
<circle clip-path="url(#clip332)" cx="1016.15" cy="1382.14" r="7.2" fill="#009af9" fill-rule="evenodd" fill-opacity="1" stroke="#000000" stroke-opacity="1" stroke-width="3.2"/>
<circle clip-path="url(#clip332)" cx="1064.93" cy="1382.14" r="7.2" fill="#009af9" fill-rule="evenodd" fill-opacity="1" stroke="#000000" stroke-opacity="1" stroke-width="3.2"/>
<circle clip-path="url(#clip332)" cx="1113.71" cy="1382.14" r="7.2" fill="#009af9" fill-rule="evenodd" fill-opacity="1" stroke="#000000" stroke-opacity="1" stroke-width="3.2"/>
<circle clip-path="url(#clip332)" cx="1162.5" cy="1382.14" r="7.2" fill="#009af9" fill-rule="evenodd" fill-opacity="1" stroke="#000000" stroke-opacity="1" stroke-width="3.2"/>
<circle clip-path="url(#clip332)" cx="1211.28" cy="1382.14" r="7.2" fill="#009af9" fill-rule="evenodd" fill-opacity="1" stroke="#000000" stroke-opacity="1" stroke-width="3.2"/>
<circle clip-path="url(#clip332)" cx="1260.06" cy="1382.14" r="7.2" fill="#009af9" fill-rule="evenodd" fill-opacity="1" stroke="#000000" stroke-opacity="1" stroke-width="3.2"/>
<circle clip-path="url(#clip332)" cx="1308.84" cy="1382.14" r="7.2" fill="#009af9" fill-rule="evenodd" fill-opacity="1" stroke="#000000" stroke-opacity="1" stroke-width="3.2"/>
<circle clip-path="url(#clip332)" cx="1357.63" cy="1382.14" r="7.2" fill="#009af9" fill-rule="evenodd" fill-opacity="1" stroke="#000000" stroke-opacity="1" stroke-width="3.2"/>
<circle clip-path="url(#clip332)" cx="1406.41" cy="1382.14" r="7.2" fill="#009af9" fill-rule="evenodd" fill-opacity="1" stroke="#000000" stroke-opacity="1" stroke-width="3.2"/>
<circle clip-path="url(#clip332)" cx="1455.19" cy="1382.14" r="7.2" fill="#009af9" fill-rule="evenodd" fill-opacity="1" stroke="#000000" stroke-opacity="1" stroke-width="3.2"/>
<circle clip-path="url(#clip332)" cx="1503.97" cy="1382.14" r="7.2" fill="#009af9" fill-rule="evenodd" fill-opacity="1" stroke="#000000" stroke-opacity="1" stroke-width="3.2"/>
<circle clip-path="url(#clip332)" cx="1552.76" cy="1382.14" r="7.2" fill="#009af9" fill-rule="evenodd" fill-opacity="1" stroke="#000000" stroke-opacity="1" stroke-width="3.2"/>
<polyline clip-path="url(#clip332)" style="stroke:#e26f46; stroke-linecap:round; stroke-linejoin:round; stroke-width:4; stroke-opacity:1; fill:none" stroke-dasharray="16, 10" points="-1081.5,380.968 2869.89,380.968 "/>
<polyline clip-path="url(#clip332)" style="stroke:#3da44d; stroke-linecap:round; stroke-linejoin:round; stroke-width:4; stroke-opacity:1; fill:none" stroke-dasharray="16, 8, 2, 8" points="235.626,1260.79 284.409,1074.09 333.191,937.175 381.974,832.477 430.757,749.821 479.539,682.909 528.322,627.634 577.104,581.202 625.887,541.65 674.669,507.553 723.452,477.856 772.235,451.758 821.017,428.643 869.8,408.027 918.582,389.525 967.365,372.828 1016.15,357.685 1064.93,343.888 1113.71,331.264 1162.5,319.672 1211.28,308.988 1260.06,299.111 1308.84,289.952 1357.63,281.436 1406.41,273.498 1455.19,266.079 1503.97,259.132 1552.76,252.613 "/>
<path clip-path="url(#clip330)" d="M1139.17 1337.64 L1508.85 1337.64 L1508.85 957.192 L1139.17 957.192  Z" fill="#ffffff" fill-rule="evenodd" fill-opacity="1"/>
<polyline clip-path="url(#clip330)" style="stroke:#000000; stroke-linecap:round; stroke-linejoin:round; stroke-width:4; stroke-opacity:1; fill:none" points="1139.17,1337.64 1508.85,1337.64 1508.85,957.192 1139.17,957.192 1139.17,1337.64 "/>
<polyline clip-path="url(#clip330)" style="stroke:#009af9; stroke-linecap:round; stroke-linejoin:round; stroke-width:4; stroke-opacity:1; fill:none" points="1153.8,1052.3 1241.61,1052.3 "/>
<circle clip-path="url(#clip330)" cx="1197.71" cy="1052.3" r="6.64707" fill="#009af9" fill-rule="evenodd" fill-opacity="1" stroke="#000000" stroke-opacity="1" stroke-width="5.90851"/>
<path clip-path="url(#clip330)" d="M1278.66 1037.01 Q1278.66 1038.32 1278.27 1039.8 L1272.81 1061.51 Q1272.32 1063.43 1270.84 1063.43 Q1270.23 1063.43 1269.86 1063.06 Q1269.51 1062.71 1269.51 1062.15 Q1269.51 1061.96 1269.65 1061.37 L1275.1 1039.31 Q1275.6 1037.29 1275.6 1036.29 Q1275.6 1032.94 1273 1032.94 Q1270.7 1032.94 1268.4 1034.62 Q1267.35 1035.47 1266.32 1036.99 Q1265.31 1038.49 1265.13 1039.03 Q1264.91 1040.25 1264.61 1041.18 Q1264.47 1041.84 1263.79 1044.39 L1262.74 1048.72 Q1261.99 1051.96 1261.82 1052.26 Q1261.59 1052.92 1261.07 1053.27 Q1260.56 1053.62 1260.04 1053.62 Q1259.46 1053.62 1259.06 1053.27 Q1258.66 1052.92 1258.66 1052.31 Q1258.66 1052.21 1258.73 1051.86 Q1258.8 1051.51 1258.92 1051.02 Q1259.04 1050.53 1259.08 1050.25 L1261.87 1039.17 Q1262.38 1037.15 1262.5 1036.52 Q1262.64 1035.87 1262.64 1035.14 Q1262.64 1033.87 1262.24 1033.41 Q1261.85 1032.94 1261.14 1032.94 Q1259.93 1032.94 1259.13 1034.39 Q1258.33 1035.84 1257.65 1038.65 Q1257.44 1039.43 1257.3 1039.59 Q1257.19 1039.75 1256.83 1039.75 Q1256.25 1039.73 1256.25 1039.26 Q1256.25 1039.14 1256.44 1038.39 Q1256.62 1037.62 1256.97 1036.5 Q1257.35 1035.35 1257.75 1034.62 Q1257.98 1034.13 1258.19 1033.8 Q1258.4 1033.48 1258.82 1032.96 Q1259.25 1032.45 1259.88 1032.16 Q1260.51 1031.88 1261.28 1031.88 Q1262.99 1031.88 1264.26 1032.98 Q1265.55 1034.09 1265.71 1036.05 Q1266.2 1035.33 1266.84 1034.67 Q1267.49 1034.01 1268.4 1033.36 Q1269.32 1032.68 1270.56 1032.28 Q1271.8 1031.88 1273.14 1031.88 Q1275.81 1031.88 1277.23 1033.27 Q1278.66 1034.62 1278.66 1037.01 Z" fill="#000000" fill-rule="nonzero" fill-opacity="1" /><path clip-path="url(#clip330)" d="M1296.34 1068.26 Q1296.47 1068.41 1296.47 1068.56 Q1296.47 1068.7 1296.14 1069.13 Q1295.83 1069.56 1295.16 1070.13 Q1294.49 1070.7 1293.62 1071.24 Q1292.75 1071.79 1291.47 1072.15 Q1290.19 1072.52 1288.85 1072.52 Q1286.44 1072.52 1284.99 1070.8 Q1283.57 1069.08 1283.57 1066.44 Q1283.57 1064.75 1284.12 1063.26 Q1284.68 1061.75 1285.58 1060.69 Q1286.5 1059.62 1287.65 1058.85 Q1288.81 1058.06 1290.03 1057.69 Q1291.24 1057.31 1292.37 1057.31 Q1294.03 1057.31 1294.99 1058.14 Q1295.96 1058.98 1295.96 1060.16 Q1295.96 1060.44 1295.88 1060.78 Q1295.81 1061.13 1295.58 1061.67 Q1295.37 1062.21 1294.81 1062.75 Q1294.26 1063.28 1293.44 1063.62 Q1291.62 1064.39 1288.3 1064.39 L1286.52 1064.39 Q1285.99 1066.51 1285.99 1067.88 Q1285.99 1068.42 1286.09 1068.98 Q1286.19 1069.52 1286.45 1070.21 Q1286.73 1070.9 1287.35 1071.34 Q1287.99 1071.77 1288.91 1071.77 Q1289.21 1071.77 1289.52 1071.75 Q1289.85 1071.74 1290.67 1071.56 Q1291.5 1071.38 1292.24 1071.06 Q1292.98 1070.75 1293.91 1070.08 Q1294.86 1069.39 1295.62 1068.46 Q1295.88 1068.11 1296.06 1068.11 Q1296.21 1068.11 1296.34 1068.26 M1294.85 1060.16 Q1294.85 1059.26 1294.17 1058.65 Q1293.52 1058.05 1292.37 1058.05 Q1292.01 1058.05 1291.57 1058.13 Q1291.12 1058.21 1290.39 1058.55 Q1289.67 1058.9 1289.03 1059.47 Q1288.39 1060.03 1287.75 1061.13 Q1287.11 1062.21 1286.73 1063.65 L1288.11 1063.65 Q1288.58 1063.65 1288.93 1063.65 Q1289.27 1063.64 1290.03 1063.57 Q1290.8 1063.51 1291.35 1063.39 Q1291.91 1063.26 1292.62 1063 Q1293.32 1062.74 1293.76 1062.39 Q1294.22 1062.03 1294.53 1061.46 Q1294.85 1060.88 1294.85 1060.16 Z" fill="#000000" fill-rule="nonzero" fill-opacity="1" /><polyline clip-path="url(#clip330)" style="stroke:#e26f46; stroke-linecap:round; stroke-linejoin:round; stroke-width:4; stroke-opacity:1; fill:none" stroke-dasharray="16, 10" points="1153.8,1147.42 1241.61,1147.42 "/>
<path clip-path="url(#clip330)" d="M1278.66 1132.13 Q1278.66 1133.44 1278.27 1134.91 L1272.81 1156.63 Q1272.32 1158.55 1270.84 1158.55 Q1270.23 1158.55 1269.86 1158.17 Q1269.51 1157.82 1269.51 1157.26 Q1269.51 1157.07 1269.65 1156.49 L1275.1 1134.42 Q1275.6 1132.41 1275.6 1131.4 Q1275.6 1128.05 1273 1128.05 Q1270.7 1128.05 1268.4 1129.74 Q1267.35 1130.58 1266.32 1132.1 Q1265.31 1133.6 1265.13 1134.14 Q1264.91 1135.36 1264.61 1136.29 Q1264.47 1136.95 1263.79 1139.5 L1262.74 1143.84 Q1261.99 1147.07 1261.82 1147.37 Q1261.59 1148.03 1261.07 1148.38 Q1260.56 1148.73 1260.04 1148.73 Q1259.46 1148.73 1259.06 1148.38 Q1258.66 1148.03 1258.66 1147.42 Q1258.66 1147.33 1258.73 1146.98 Q1258.8 1146.62 1258.92 1146.13 Q1259.04 1145.64 1259.08 1145.36 L1261.87 1134.28 Q1262.38 1132.27 1262.5 1131.63 Q1262.64 1130.98 1262.64 1130.25 Q1262.64 1128.99 1262.24 1128.52 Q1261.85 1128.05 1261.14 1128.05 Q1259.93 1128.05 1259.13 1129.5 Q1258.33 1130.95 1257.65 1133.77 Q1257.44 1134.54 1257.3 1134.7 Q1257.19 1134.87 1256.83 1134.87 Q1256.25 1134.84 1256.25 1134.37 Q1256.25 1134.26 1256.44 1133.51 Q1256.62 1132.73 1256.97 1131.61 Q1257.35 1130.46 1257.75 1129.74 Q1257.98 1129.24 1258.19 1128.92 Q1258.4 1128.59 1258.82 1128.07 Q1259.25 1127.56 1259.88 1127.28 Q1260.51 1127 1261.28 1127 Q1262.99 1127 1264.26 1128.1 Q1265.55 1129.2 1265.71 1131.17 Q1266.2 1130.44 1266.84 1129.78 Q1267.49 1129.13 1268.4 1128.47 Q1269.32 1127.79 1270.56 1127.39 Q1271.8 1127 1273.14 1127 Q1275.81 1127 1277.23 1128.38 Q1278.66 1129.74 1278.66 1132.13 Z" fill="#000000" fill-rule="nonzero" fill-opacity="1" /><path clip-path="url(#clip330)" d="M1296.5 1163.37 Q1296.63 1163.52 1296.63 1163.67 Q1296.63 1163.82 1296.31 1164.24 Q1295.99 1164.67 1295.32 1165.24 Q1294.65 1165.82 1293.78 1166.36 Q1292.91 1166.9 1291.63 1167.26 Q1290.35 1167.64 1289.01 1167.64 Q1286.5 1167.64 1285.03 1165.98 Q1283.57 1164.32 1283.57 1161.95 Q1283.57 1159.64 1284.86 1157.42 Q1286.16 1155.19 1288.26 1153.81 Q1290.35 1152.42 1292.57 1152.42 Q1294.32 1152.42 1295.42 1153.24 Q1296.52 1154.06 1296.52 1155.31 Q1296.52 1156.27 1295.96 1156.86 Q1295.4 1157.45 1294.65 1157.45 Q1294.12 1157.45 1293.76 1157.16 Q1293.4 1156.85 1293.4 1156.27 Q1293.4 1155.54 1294.01 1154.96 Q1294.24 1154.73 1294.5 1154.63 Q1294.78 1154.52 1294.94 1154.52 Q1295.11 1154.5 1295.49 1154.5 Q1295.14 1153.86 1294.32 1153.52 Q1293.52 1153.16 1292.6 1153.16 Q1291.24 1153.16 1289.94 1154.11 Q1288.65 1155.04 1287.86 1156.52 Q1287.07 1157.96 1286.57 1160.01 Q1286.06 1162.05 1286.06 1163.23 Q1286.06 1164.85 1286.81 1165.87 Q1287.57 1166.88 1289.08 1166.88 Q1289.37 1166.88 1289.68 1166.87 Q1290.01 1166.85 1290.83 1166.67 Q1291.67 1166.49 1292.4 1166.18 Q1293.14 1165.87 1294.08 1165.19 Q1295.03 1164.5 1295.78 1163.57 Q1296.04 1163.23 1296.22 1163.23 Q1296.37 1163.23 1296.5 1163.37 Z" fill="#000000" fill-rule="nonzero" fill-opacity="1" /><polyline clip-path="url(#clip330)" style="stroke:#3da44d; stroke-linecap:round; stroke-linejoin:round; stroke-width:4; stroke-opacity:1; fill:none" stroke-dasharray="16, 8, 2, 8" points="1153.8,1242.53 1241.61,1242.53 "/>
<path clip-path="url(#clip330)" d="M1278.66 1233.01 Q1278.66 1234.32 1278.27 1235.8 L1272.81 1257.51 Q1272.32 1259.43 1270.84 1259.43 Q1270.23 1259.43 1269.86 1259.06 Q1269.51 1258.7 1269.51 1258.14 Q1269.51 1257.95 1269.65 1257.37 L1275.1 1235.3 Q1275.6 1233.29 1275.6 1232.28 Q1275.6 1228.93 1273 1228.93 Q1270.7 1228.93 1268.4 1230.62 Q1267.35 1231.46 1266.32 1232.99 Q1265.31 1234.49 1265.13 1235.02 Q1264.91 1236.24 1264.61 1237.18 Q1264.47 1237.83 1263.79 1240.39 L1262.74 1244.72 Q1261.99 1247.95 1261.82 1248.26 Q1261.59 1248.91 1261.07 1249.26 Q1260.56 1249.62 1260.04 1249.62 Q1259.46 1249.62 1259.06 1249.26 Q1258.66 1248.91 1258.66 1248.3 Q1258.66 1248.21 1258.73 1247.86 Q1258.8 1247.51 1258.92 1247.02 Q1259.04 1246.52 1259.08 1246.24 L1261.87 1235.16 Q1262.38 1233.15 1262.5 1232.52 Q1262.64 1231.86 1262.64 1231.14 Q1262.64 1229.87 1262.24 1229.4 Q1261.85 1228.93 1261.14 1228.93 Q1259.93 1228.93 1259.13 1230.39 Q1258.33 1231.84 1257.65 1234.65 Q1257.44 1235.42 1257.3 1235.59 Q1257.19 1235.75 1256.83 1235.75 Q1256.25 1235.73 1256.25 1235.26 Q1256.25 1235.14 1256.44 1234.39 Q1256.62 1233.62 1256.97 1232.49 Q1257.35 1231.35 1257.75 1230.62 Q1257.98 1230.13 1258.19 1229.8 Q1258.4 1229.47 1258.82 1228.96 Q1259.25 1228.44 1259.88 1228.16 Q1260.51 1227.88 1261.28 1227.88 Q1262.99 1227.88 1264.26 1228.98 Q1265.55 1230.08 1265.71 1232.05 Q1266.2 1231.32 1266.84 1230.67 Q1267.49 1230.01 1268.4 1229.36 Q1269.32 1228.68 1270.56 1228.28 Q1271.8 1227.88 1273.14 1227.88 Q1275.81 1227.88 1277.23 1229.26 Q1278.66 1230.62 1278.66 1233.01 Z" fill="#000000" fill-rule="nonzero" fill-opacity="1" /><path clip-path="url(#clip330)" d="M1293.15 1241.79 Q1293.2 1241.21 1294.11 1241.21 L1323.5 1241.21 Q1324.89 1241.21 1324.91 1241.75 Q1324.91 1242.33 1323.6 1242.31 L1294.44 1242.31 Q1293.15 1242.33 1293.15 1241.79 M1293.15 1232.42 Q1293.15 1231.84 1294.16 1231.86 L1323.46 1231.86 Q1324.89 1231.86 1324.91 1232.42 Q1324.91 1232.96 1323.69 1232.96 L1294.11 1232.96 Q1293.15 1232.96 1293.15 1232.42 Z" fill="#000000" fill-rule="nonzero" fill-opacity="1" /><path clip-path="url(#clip330)" d="M1421.33 1198.12 Q1421.33 1200.29 1420.23 1204.51 Q1419.78 1206.34 1419.17 1208 Q1418.59 1209.64 1417.72 1211.23 Q1416.85 1212.82 1415.85 1213.97 Q1414.84 1215.1 1413.53 1215.8 Q1412.21 1216.5 1410.76 1216.5 Q1408.47 1216.5 1407.11 1215.14 Q1405.77 1213.76 1405.35 1211.4 Q1402.21 1216.5 1398.02 1216.5 Q1395.42 1216.5 1394.2 1214.65 Q1392.98 1212.78 1392.98 1209.64 Q1392.98 1206.99 1393.69 1204.25 Q1395.02 1199.05 1397.62 1195.42 Q1397.97 1195 1398.49 1195 Q1398.79 1195 1398.93 1195.09 Q1399.36 1195.35 1399.36 1195.77 Q1399.36 1196.08 1399.12 1196.38 Q1397.48 1198.65 1396.4 1200.6 Q1395.33 1202.54 1394.84 1204.51 Q1394.46 1206.2 1394.46 1207.63 Q1394.46 1210.04 1395.49 1211.54 Q1396.55 1213.04 1398.63 1213.04 Q1400.55 1213.04 1402.24 1211.84 Q1403.92 1210.62 1405.16 1208.59 Q1405.23 1206.36 1405.77 1204.25 Q1406.27 1202 1407.41 1202 Q1408.33 1202 1408.33 1203.25 Q1408.33 1203.67 1408.14 1204.51 Q1407.62 1206.74 1406.69 1208.73 Q1407.02 1210.67 1408.23 1211.86 Q1409.45 1213.04 1411.4 1213.04 Q1413.2 1213.04 1414.79 1211.72 Q1416.41 1210.41 1417.44 1208.49 Q1418.49 1206.55 1419.08 1204.25 Q1419.26 1203.48 1419.26 1202.5 Q1419.26 1199.87 1417.44 1198.26 Q1416.92 1197.74 1416.92 1197.06 Q1416.92 1196.27 1417.58 1195.54 Q1418.35 1194.77 1419.26 1194.77 Q1419.94 1194.77 1420.37 1195.19 Q1421.33 1196.03 1421.33 1198.12 Z" fill="#000000" fill-rule="nonzero" fill-opacity="1" /><path clip-path="url(#clip330)" d="M1438.94 1221.42 Q1439.07 1221.57 1439.07 1221.72 Q1439.07 1221.87 1438.74 1222.29 Q1438.43 1222.72 1437.76 1223.29 Q1437.09 1223.87 1436.22 1224.41 Q1435.35 1224.95 1434.07 1225.31 Q1432.79 1225.69 1431.45 1225.69 Q1429.04 1225.69 1427.59 1223.97 Q1426.17 1222.24 1426.17 1219.6 Q1426.17 1217.92 1426.72 1216.42 Q1427.28 1214.92 1428.18 1213.85 Q1429.1 1212.78 1430.25 1212.01 Q1431.41 1211.23 1432.63 1210.85 Q1433.84 1210.47 1434.97 1210.47 Q1436.63 1210.47 1437.6 1211.31 Q1438.56 1212.14 1438.56 1213.33 Q1438.56 1213.6 1438.48 1213.95 Q1438.42 1214.29 1438.19 1214.83 Q1437.97 1215.37 1437.41 1215.92 Q1436.86 1216.44 1436.04 1216.78 Q1434.22 1217.56 1430.91 1217.56 L1429.12 1217.56 Q1428.59 1219.67 1428.59 1221.05 Q1428.59 1221.59 1428.69 1222.15 Q1428.79 1222.69 1429.05 1223.38 Q1429.33 1224.06 1429.95 1224.51 Q1430.59 1224.93 1431.51 1224.93 Q1431.81 1224.93 1432.12 1224.92 Q1432.45 1224.9 1433.27 1224.72 Q1434.1 1224.54 1434.84 1224.23 Q1435.58 1223.92 1436.51 1223.24 Q1437.46 1222.56 1438.22 1221.62 Q1438.48 1221.28 1438.66 1221.28 Q1438.81 1221.28 1438.94 1221.42 M1437.45 1213.33 Q1437.45 1212.42 1436.78 1211.82 Q1436.12 1211.21 1434.97 1211.21 Q1434.61 1211.21 1434.17 1211.29 Q1433.73 1211.37 1432.99 1211.72 Q1432.27 1212.06 1431.63 1212.64 Q1430.99 1213.19 1430.35 1214.29 Q1429.71 1215.37 1429.33 1216.82 L1430.71 1216.82 Q1431.18 1216.82 1431.53 1216.82 Q1431.87 1216.8 1432.63 1216.74 Q1433.4 1216.67 1433.96 1216.56 Q1434.51 1216.42 1435.22 1216.16 Q1435.92 1215.9 1436.37 1215.55 Q1436.82 1215.19 1437.14 1214.62 Q1437.45 1214.05 1437.45 1213.33 Z" fill="#000000" fill-rule="nonzero" fill-opacity="1" /><path clip-path="url(#clip330)" d="M1353.65 1238.48 L1489.1 1238.48 L1489.1 1235.92 L1353.65 1235.92  Z" fill="#000000" fill-rule="evenodd" fill-opacity="1"/>
<path clip-path="url(#clip330)" d="M1381.99 1262.52 Q1381.99 1264.7 1380.89 1268.91 Q1380.45 1270.74 1379.84 1272.4 Q1379.25 1274.04 1378.39 1275.64 Q1377.52 1277.23 1376.51 1278.38 Q1375.5 1279.5 1374.19 1280.2 Q1372.88 1280.91 1371.43 1280.91 Q1369.13 1280.91 1367.78 1279.55 Q1366.44 1278.17 1366.02 1275.8 Q1362.88 1280.91 1358.69 1280.91 Q1356.09 1280.91 1354.87 1279.06 Q1353.65 1277.18 1353.65 1274.04 Q1353.65 1271.4 1354.35 1268.66 Q1355.69 1263.46 1358.29 1259.83 Q1358.64 1259.41 1359.16 1259.41 Q1359.46 1259.41 1359.6 1259.5 Q1360.02 1259.76 1360.02 1260.18 Q1360.02 1260.48 1359.79 1260.79 Q1358.15 1263.06 1357.07 1265 Q1355.99 1266.95 1355.5 1268.91 Q1355.13 1270.6 1355.13 1272.03 Q1355.13 1274.44 1356.16 1275.94 Q1357.21 1277.44 1359.3 1277.44 Q1361.22 1277.44 1362.9 1276.25 Q1364.59 1275.03 1365.83 1272.99 Q1365.9 1270.76 1366.44 1268.66 Q1366.93 1266.41 1368.08 1266.41 Q1368.99 1266.41 1368.99 1267.65 Q1368.99 1268.07 1368.81 1268.91 Q1368.29 1271.14 1367.35 1273.13 Q1367.68 1275.07 1368.9 1276.27 Q1370.12 1277.44 1372.06 1277.44 Q1373.87 1277.44 1375.46 1276.13 Q1377.07 1274.82 1378.1 1272.9 Q1379.16 1270.95 1379.74 1268.66 Q1379.93 1267.88 1379.93 1266.9 Q1379.93 1264.28 1378.1 1262.66 Q1377.59 1262.15 1377.59 1261.47 Q1377.59 1260.67 1378.25 1259.94 Q1379.02 1259.17 1379.93 1259.17 Q1380.61 1259.17 1381.03 1259.59 Q1381.99 1260.44 1381.99 1262.52 Z" fill="#000000" fill-rule="nonzero" fill-opacity="1" /><path clip-path="url(#clip330)" d="M1399.61 1285.83 Q1399.74 1285.98 1399.74 1286.12 Q1399.74 1286.27 1399.41 1286.7 Q1399.1 1287.12 1398.43 1287.7 Q1397.75 1288.27 1396.88 1288.81 Q1396.02 1289.35 1394.74 1289.71 Q1393.46 1290.09 1392.11 1290.09 Q1389.7 1290.09 1388.26 1288.37 Q1386.83 1286.65 1386.83 1284.01 Q1386.83 1282.32 1387.39 1280.83 Q1387.95 1279.32 1388.85 1278.25 Q1389.77 1277.19 1390.92 1276.42 Q1392.08 1275.63 1393.29 1275.25 Q1394.51 1274.88 1395.64 1274.88 Q1397.29 1274.88 1398.26 1275.71 Q1399.23 1276.55 1399.23 1277.73 Q1399.23 1278.01 1399.15 1278.35 Q1399.08 1278.7 1398.85 1279.24 Q1398.64 1279.78 1398.08 1280.32 Q1397.52 1280.84 1396.7 1281.19 Q1394.88 1281.96 1391.57 1281.96 L1389.79 1281.96 Q1389.26 1284.07 1389.26 1285.45 Q1389.26 1285.99 1389.36 1286.55 Q1389.46 1287.09 1389.72 1287.78 Q1390 1288.47 1390.62 1288.91 Q1391.26 1289.34 1392.18 1289.34 Q1392.47 1289.34 1392.79 1289.32 Q1393.11 1289.31 1393.93 1289.12 Q1394.77 1288.94 1395.51 1288.63 Q1396.25 1288.32 1397.18 1287.65 Q1398.13 1286.96 1398.88 1286.03 Q1399.15 1285.68 1399.33 1285.68 Q1399.48 1285.68 1399.61 1285.83 M1398.11 1277.73 Q1398.11 1276.83 1397.44 1276.22 Q1396.79 1275.61 1395.64 1275.61 Q1395.28 1275.61 1394.84 1275.7 Q1394.39 1275.78 1393.65 1276.12 Q1392.93 1276.47 1392.29 1277.04 Q1391.65 1277.6 1391.02 1278.7 Q1390.38 1279.78 1390 1281.22 L1391.38 1281.22 Q1391.85 1281.22 1392.2 1281.22 Q1392.54 1281.21 1393.29 1281.14 Q1394.06 1281.07 1394.62 1280.96 Q1395.18 1280.83 1395.88 1280.57 Q1396.59 1280.3 1397.03 1279.96 Q1397.49 1279.6 1397.8 1279.02 Q1398.11 1278.45 1398.11 1277.73 Z" fill="#000000" fill-rule="nonzero" fill-opacity="1" /><path clip-path="url(#clip330)" d="M1419.14 1268.96 Q1418.04 1268.96 1418.04 1268.38 Q1418.04 1267.79 1419.18 1267.79 Q1419.33 1267.79 1419.56 1267.81 Q1419.82 1267.84 1419.86 1267.84 L1433.38 1267.84 L1433.38 1254.28 Q1433.38 1254.23 1433.36 1254.02 Q1433.33 1253.78 1433.33 1253.64 Q1433.33 1252.5 1433.89 1252.5 Q1434.48 1252.5 1434.48 1253.64 L1434.48 1267.84 L1448.02 1267.84 Q1448.06 1267.84 1448.3 1267.81 Q1448.53 1267.79 1448.67 1267.79 Q1449.77 1267.79 1449.77 1268.38 Q1449.8 1268.96 1448.63 1268.96 Q1448.49 1268.96 1448.28 1268.94 Q1448.06 1268.91 1448.02 1268.91 L1434.48 1268.91 L1434.48 1283.16 Q1434.48 1284.26 1433.89 1284.26 Q1433.33 1284.26 1433.33 1283.11 Q1433.33 1282.97 1433.36 1282.73 Q1433.38 1282.52 1433.38 1282.48 L1433.38 1268.91 L1419.86 1268.91 Q1419.82 1268.91 1419.54 1268.94 Q1419.28 1268.96 1419.14 1268.96 Z" fill="#000000" fill-rule="nonzero" fill-opacity="1" /><path clip-path="url(#clip330)" d="M1468.3 1252.99 L1468.3 1251.49 Q1474.06 1251.49 1477.04 1248.42 Q1477.86 1248.42 1478 1248.61 Q1478.14 1248.79 1478.14 1249.66 L1478.14 1276.57 Q1478.14 1278 1478.84 1278.45 Q1479.54 1278.89 1482.61 1278.89 L1484.13 1278.89 L1484.13 1280.37 Q1482.45 1280.23 1476.36 1280.23 Q1470.27 1280.23 1468.6 1280.37 L1468.6 1278.89 L1470.13 1278.89 Q1473.15 1278.89 1473.87 1278.47 Q1474.6 1278.03 1474.6 1276.57 L1474.6 1251.72 Q1472.09 1252.99 1468.3 1252.99 Z" fill="#000000" fill-rule="nonzero" fill-opacity="1" /></svg>
