<?xml version="1.0" encoding="utf-8"?>
<svg xmlns="http://www.w3.org/2000/svg" xmlns:xlink="http://www.w3.org/1999/xlink" width="500" height="400" viewBox="0 0 2000 1600">
<defs>
  <clipPath id="clip130">
    <rect x="0" y="0" width="2000" height="1600"/>
  </clipPath>
</defs>
<path clip-path="url(#clip130)" d="M0 1600 L2000 1600 L2000 0 L0 0  Z" fill="#ffffff" fill-rule="evenodd" fill-opacity="1"/>
<defs>
  <clipPath id="clip131">
    <rect x="400" y="0" width="1401" height="1401"/>
  </clipPath>
</defs>
<path clip-path="url(#clip130)" d="M285.208 1406.76 L1952.76 1406.76 L1952.76 47.2441 L285.208 47.2441  Z" fill="#ffffff" fill-rule="evenodd" fill-opacity="1"/>
<defs>
  <clipPath id="clip132">
    <rect x="285" y="47" width="1669" height="1361"/>
  </clipPath>
</defs>
<polyline clip-path="url(#clip132)" style="stroke:#000000; stroke-linecap:round; stroke-linejoin:round; stroke-width:2; stroke-opacity:0.1; fill:none" points="612.014,1406.76 612.014,47.2441 "/>
<polyline clip-path="url(#clip132)" style="stroke:#000000; stroke-linecap:round; stroke-linejoin:round; stroke-width:2; stroke-opacity:0.1; fill:none" points="947.199,1406.76 947.199,47.2441 "/>
<polyline clip-path="url(#clip132)" style="stroke:#000000; stroke-linecap:round; stroke-linejoin:round; stroke-width:2; stroke-opacity:0.1; fill:none" points="1282.38,1406.76 1282.38,47.2441 "/>
<polyline clip-path="url(#clip132)" style="stroke:#000000; stroke-linecap:round; stroke-linejoin:round; stroke-width:2; stroke-opacity:0.1; fill:none" points="1617.57,1406.76 1617.57,47.2441 "/>
<polyline clip-path="url(#clip132)" style="stroke:#000000; stroke-linecap:round; stroke-linejoin:round; stroke-width:2; stroke-opacity:0.1; fill:none" points="612.014,1406.76 612.014,47.2441 "/>
<polyline clip-path="url(#clip132)" style="stroke:#000000; stroke-linecap:round; stroke-linejoin:round; stroke-width:2; stroke-opacity:0.1; fill:none" points="947.199,1406.76 947.199,47.2441 "/>
<polyline clip-path="url(#clip132)" style="stroke:#000000; stroke-linecap:round; stroke-linejoin:round; stroke-width:2; stroke-opacity:0.1; fill:none" points="1282.38,1406.76 1282.38,47.2441 "/>
<polyline clip-path="url(#clip132)" style="stroke:#000000; stroke-linecap:round; stroke-linejoin:round; stroke-width:2; stroke-opacity:0.1; fill:none" points="1617.57,1406.76 1617.57,47.2441 "/>
<polyline clip-path="url(#clip132)" style="stroke:#000000; stroke-linecap:round; stroke-linejoin:round; stroke-width:2; stroke-opacity:0.1; fill:none" points="285.208,1369.56 1952.76,1369.56 "/>
<polyline clip-path="url(#clip132)" style="stroke:#000000; stroke-linecap:round; stroke-linejoin:round; stroke-width:2; stroke-opacity:0.1; fill:none" points="285.208,980.268 1952.76,980.268 "/>
<polyline clip-path="url(#clip132)" style="stroke:#000000; stroke-linecap:round; stroke-linejoin:round; stroke-width:2; stroke-opacity:0.1; fill:none" points="285.208,590.981 1952.76,590.981 "/>
<polyline clip-path="url(#clip132)" style="stroke:#000000; stroke-linecap:round; stroke-linejoin:round; stroke-width:2; stroke-opacity:0.1; fill:none" points="285.208,201.693 1952.76,201.693 "/>
<polyline clip-path="url(#clip132)" style="stroke:#000000; stroke-linecap:round; stroke-linejoin:round; stroke-width:2; stroke-opacity:0.1; fill:none" points="285.208,1369.56 1952.76,1369.56 "/>
<polyline clip-path="url(#clip132)" style="stroke:#000000; stroke-linecap:round; stroke-linejoin:round; stroke-width:2; stroke-opacity:0.1; fill:none" points="285.208,980.268 1952.76,980.268 "/>
<polyline clip-path="url(#clip132)" style="stroke:#000000; stroke-linecap:round; stroke-linejoin:round; stroke-width:2; stroke-opacity:0.1; fill:none" points="285.208,590.981 1952.76,590.981 "/>
<polyline clip-path="url(#clip132)" style="stroke:#000000; stroke-linecap:round; stroke-linejoin:round; stroke-width:2; stroke-opacity:0.1; fill:none" points="285.208,201.693 1952.76,201.693 "/>
<polyline clip-path="url(#clip130)" style="stroke:#000000; stroke-linecap:round; stroke-linejoin:round; stroke-width:4; stroke-opacity:1; fill:none" points="285.208,1406.76 1952.76,1406.76 "/>
<polyline clip-path="url(#clip130)" style="stroke:#000000; stroke-linecap:round; stroke-linejoin:round; stroke-width:4; stroke-opacity:1; fill:none" points="285.208,47.2441 1952.76,47.2441 "/>
<polyline clip-path="url(#clip130)" style="stroke:#000000; stroke-linecap:round; stroke-linejoin:round; stroke-width:4; stroke-opacity:1; fill:none" points="612.014,1406.76 612.014,1387.87 "/>
<polyline clip-path="url(#clip130)" style="stroke:#000000; stroke-linecap:round; stroke-linejoin:round; stroke-width:4; stroke-opacity:1; fill:none" points="947.199,1406.76 947.199,1387.87 "/>
<polyline clip-path="url(#clip130)" style="stroke:#000000; stroke-linecap:round; stroke-linejoin:round; stroke-width:4; stroke-opacity:1; fill:none" points="1282.38,1406.76 1282.38,1387.87 "/>
<polyline clip-path="url(#clip130)" style="stroke:#000000; stroke-linecap:round; stroke-linejoin:round; stroke-width:4; stroke-opacity:1; fill:none" points="1617.57,1406.76 1617.57,1387.87 "/>
<polyline clip-path="url(#clip130)" style="stroke:#000000; stroke-linecap:round; stroke-linejoin:round; stroke-width:4; stroke-opacity:1; fill:none" points="612.014,47.2441 612.014,66.1417 "/>
<polyline clip-path="url(#clip130)" style="stroke:#000000; stroke-linecap:round; stroke-linejoin:round; stroke-width:4; stroke-opacity:1; fill:none" points="947.199,47.2441 947.199,66.1417 "/>
<polyline clip-path="url(#clip130)" style="stroke:#000000; stroke-linecap:round; stroke-linejoin:round; stroke-width:4; stroke-opacity:1; fill:none" points="1282.38,47.2441 1282.38,66.1417 "/>
<polyline clip-path="url(#clip130)" style="stroke:#000000; stroke-linecap:round; stroke-linejoin:round; stroke-width:4; stroke-opacity:1; fill:none" points="1617.57,47.2441 1617.57,66.1417 "/>
<path clip-path="url(#clip130)" d="M575.116 1434.48 Q571.505 1434.48 569.676 1438.05 Q567.871 1441.59 567.871 1448.72 Q567.871 1455.83 569.676 1459.39 Q571.505 1462.93 575.116 1462.93 Q578.75 1462.93 580.556 1459.39 Q582.384 1455.83 582.384 1448.72 Q582.384 1441.59 580.556 1438.05 Q578.75 1434.48 575.116 1434.48 M575.116 1430.78 Q580.926 1430.78 583.982 1435.39 Q587.06 1439.97 587.06 1448.72 Q587.06 1457.45 583.982 1462.05 Q580.926 1466.64 575.116 1466.64 Q569.306 1466.64 566.227 1462.05 Q563.171 1457.45 563.171 1448.72 Q563.171 1439.97 566.227 1435.39 Q569.306 1430.78 575.116 1430.78 Z" fill="#000000" fill-rule="nonzero" fill-opacity="1" /><path clip-path="url(#clip130)" d="M595.278 1460.08 L600.162 1460.08 L600.162 1465.96 L595.278 1465.96 L595.278 1460.08 Z" fill="#000000" fill-rule="nonzero" fill-opacity="1" /><path clip-path="url(#clip130)" d="M620.347 1434.48 Q616.736 1434.48 614.907 1438.05 Q613.102 1441.59 613.102 1448.72 Q613.102 1455.83 614.907 1459.39 Q616.736 1462.93 620.347 1462.93 Q623.981 1462.93 625.787 1459.39 Q627.616 1455.83 627.616 1448.72 Q627.616 1441.59 625.787 1438.05 Q623.981 1434.48 620.347 1434.48 M620.347 1430.78 Q626.157 1430.78 629.213 1435.39 Q632.291 1439.97 632.291 1448.72 Q632.291 1457.45 629.213 1462.05 Q626.157 1466.64 620.347 1466.64 Q614.537 1466.64 611.458 1462.05 Q608.403 1457.45 608.403 1448.72 Q608.403 1439.97 611.458 1435.39 Q614.537 1430.78 620.347 1430.78 Z" fill="#000000" fill-rule="nonzero" fill-opacity="1" /><path clip-path="url(#clip130)" d="M644.537 1462.03 L660.856 1462.03 L660.856 1465.96 L638.912 1465.96 L638.912 1462.03 Q641.574 1459.27 646.157 1454.64 Q650.764 1449.99 651.944 1448.65 Q654.189 1446.13 655.069 1444.39 Q655.972 1442.63 655.972 1440.94 Q655.972 1438.19 654.027 1436.45 Q652.106 1434.71 649.004 1434.71 Q646.805 1434.71 644.352 1435.48 Q641.921 1436.24 639.143 1437.79 L639.143 1433.07 Q641.967 1431.94 644.421 1431.36 Q646.875 1430.78 648.912 1430.78 Q654.282 1430.78 657.477 1433.46 Q660.671 1436.15 660.671 1440.64 Q660.671 1442.77 659.861 1444.69 Q659.074 1446.59 656.967 1449.18 Q656.389 1449.85 653.287 1453.07 Q650.185 1456.26 644.537 1462.03 Z" fill="#000000" fill-rule="nonzero" fill-opacity="1" /><path clip-path="url(#clip130)" d="M909.26 1434.48 Q905.649 1434.48 903.82 1438.05 Q902.014 1441.59 902.014 1448.72 Q902.014 1455.83 903.82 1459.39 Q905.649 1462.93 909.26 1462.93 Q912.894 1462.93 914.699 1459.39 Q916.528 1455.83 916.528 1448.72 Q916.528 1441.59 914.699 1438.05 Q912.894 1434.48 909.26 1434.48 M909.26 1430.78 Q915.07 1430.78 918.125 1435.39 Q921.204 1439.97 921.204 1448.72 Q921.204 1457.45 918.125 1462.05 Q915.07 1466.64 909.26 1466.64 Q903.45 1466.64 900.371 1462.05 Q897.315 1457.45 897.315 1448.72 Q897.315 1439.97 900.371 1435.39 Q903.45 1430.78 909.26 1430.78 Z" fill="#000000" fill-rule="nonzero" fill-opacity="1" /><path clip-path="url(#clip130)" d="M929.422 1460.08 L934.306 1460.08 L934.306 1465.96 L929.422 1465.96 L929.422 1460.08 Z" fill="#000000" fill-rule="nonzero" fill-opacity="1" /><path clip-path="url(#clip130)" d="M954.491 1434.48 Q950.88 1434.48 949.051 1438.05 Q947.246 1441.59 947.246 1448.72 Q947.246 1455.83 949.051 1459.39 Q950.88 1462.93 954.491 1462.93 Q958.125 1462.93 959.931 1459.39 Q961.759 1455.83 961.759 1448.72 Q961.759 1441.59 959.931 1438.05 Q958.125 1434.48 954.491 1434.48 M954.491 1430.78 Q960.301 1430.78 963.357 1435.39 Q966.435 1439.97 966.435 1448.72 Q966.435 1457.45 963.357 1462.05 Q960.301 1466.64 954.491 1466.64 Q948.681 1466.64 945.602 1462.05 Q942.547 1457.45 942.547 1448.72 Q942.547 1439.97 945.602 1435.39 Q948.681 1430.78 954.491 1430.78 Z" fill="#000000" fill-rule="nonzero" fill-opacity="1" /><path clip-path="url(#clip130)" d="M987.5 1435.48 L975.695 1453.93 L987.5 1453.93 L987.5 1435.48 M986.273 1431.4 L992.153 1431.4 L992.153 1453.93 L997.083 1453.93 L997.083 1457.82 L992.153 1457.82 L992.153 1465.96 L987.5 1465.96 L987.5 1457.82 L971.898 1457.82 L971.898 1453.3 L986.273 1431.4 Z" fill="#000000" fill-rule="nonzero" fill-opacity="1" /><path clip-path="url(#clip130)" d="M1244.61 1434.48 Q1241 1434.48 1239.17 1438.05 Q1237.36 1441.59 1237.36 1448.72 Q1237.36 1455.83 1239.17 1459.39 Q1241 1462.93 1244.61 1462.93 Q1248.24 1462.93 1250.05 1459.39 Q1251.88 1455.83 1251.88 1448.72 Q1251.88 1441.59 1250.05 1438.05 Q1248.24 1434.48 1244.61 1434.48 M1244.61 1430.78 Q1250.42 1430.78 1253.47 1435.39 Q1256.55 1439.97 1256.55 1448.72 Q1256.55 1457.45 1253.47 1462.05 Q1250.42 1466.64 1244.61 1466.64 Q1238.8 1466.64 1235.72 1462.05 Q1232.66 1457.45 1232.66 1448.72 Q1232.66 1439.97 1235.72 1435.39 Q1238.8 1430.78 1244.61 1430.78 Z" fill="#000000" fill-rule="nonzero" fill-opacity="1" /><path clip-path="url(#clip130)" d="M1264.77 1460.08 L1269.65 1460.08 L1269.65 1465.96 L1264.77 1465.96 L1264.77 1460.08 Z" fill="#000000" fill-rule="nonzero" fill-opacity="1" /><path clip-path="url(#clip130)" d="M1289.84 1434.48 Q1286.23 1434.48 1284.4 1438.05 Q1282.59 1441.59 1282.59 1448.72 Q1282.59 1455.83 1284.4 1459.39 Q1286.23 1462.93 1289.84 1462.93 Q1293.47 1462.93 1295.28 1459.39 Q1297.11 1455.83 1297.11 1448.72 Q1297.11 1441.59 1295.28 1438.05 Q1293.47 1434.48 1289.84 1434.48 M1289.84 1430.78 Q1295.65 1430.78 1298.7 1435.39 Q1301.78 1439.97 1301.78 1448.72 Q1301.78 1457.45 1298.7 1462.05 Q1295.65 1466.64 1289.84 1466.64 Q1284.03 1466.64 1280.95 1462.05 Q1277.89 1457.45 1277.89 1448.72 Q1277.89 1439.97 1280.95 1435.39 Q1284.03 1430.78 1289.84 1430.78 Z" fill="#000000" fill-rule="nonzero" fill-opacity="1" /><path clip-path="url(#clip130)" d="M1320.58 1446.82 Q1317.43 1446.82 1315.58 1448.97 Q1313.75 1451.13 1313.75 1454.88 Q1313.75 1458.6 1315.58 1460.78 Q1317.43 1462.93 1320.58 1462.93 Q1323.73 1462.93 1325.56 1460.78 Q1327.41 1458.6 1327.41 1454.88 Q1327.41 1451.13 1325.56 1448.97 Q1323.73 1446.82 1320.58 1446.82 M1329.86 1432.17 L1329.86 1436.43 Q1328.1 1435.59 1326.3 1435.15 Q1324.51 1434.71 1322.76 1434.71 Q1318.13 1434.71 1315.67 1437.84 Q1313.24 1440.96 1312.89 1447.28 Q1314.26 1445.27 1316.32 1444.2 Q1318.38 1443.12 1320.86 1443.12 Q1326.07 1443.12 1329.07 1446.29 Q1332.11 1449.44 1332.11 1454.88 Q1332.11 1460.2 1328.96 1463.42 Q1325.81 1466.64 1320.58 1466.64 Q1314.58 1466.64 1311.41 1462.05 Q1308.24 1457.45 1308.24 1448.72 Q1308.24 1440.52 1312.13 1435.66 Q1316.02 1430.78 1322.57 1430.78 Q1324.33 1430.78 1326.11 1431.13 Q1327.92 1431.47 1329.86 1432.17 Z" fill="#000000" fill-rule="nonzero" fill-opacity="1" /><path clip-path="url(#clip130)" d="M1579.92 1434.48 Q1576.31 1434.48 1574.48 1438.05 Q1572.67 1441.59 1572.67 1448.72 Q1572.67 1455.83 1574.48 1459.39 Q1576.31 1462.93 1579.92 1462.93 Q1583.55 1462.93 1585.36 1459.39 Q1587.19 1455.83 1587.19 1448.72 Q1587.19 1441.59 1585.36 1438.05 Q1583.55 1434.48 1579.92 1434.48 M1579.92 1430.78 Q1585.73 1430.78 1588.79 1435.39 Q1591.86 1439.97 1591.86 1448.72 Q1591.86 1457.45 1588.79 1462.05 Q1585.73 1466.64 1579.92 1466.64 Q1574.11 1466.64 1571.03 1462.05 Q1567.98 1457.45 1567.98 1448.72 Q1567.98 1439.97 1571.03 1435.39 Q1574.11 1430.78 1579.92 1430.78 Z" fill="#000000" fill-rule="nonzero" fill-opacity="1" /><path clip-path="url(#clip130)" d="M1600.08 1460.08 L1604.97 1460.08 L1604.97 1465.96 L1600.08 1465.96 L1600.08 1460.08 Z" fill="#000000" fill-rule="nonzero" fill-opacity="1" /><path clip-path="url(#clip130)" d="M1625.15 1434.48 Q1621.54 1434.48 1619.71 1438.05 Q1617.91 1441.59 1617.91 1448.72 Q1617.91 1455.83 1619.71 1459.39 Q1621.54 1462.93 1625.15 1462.93 Q1628.79 1462.93 1630.59 1459.39 Q1632.42 1455.83 1632.42 1448.72 Q1632.42 1441.59 1630.59 1438.05 Q1628.79 1434.48 1625.15 1434.48 M1625.15 1430.78 Q1630.96 1430.78 1634.02 1435.39 Q1637.1 1439.97 1637.1 1448.72 Q1637.1 1457.45 1634.02 1462.05 Q1630.96 1466.64 1625.15 1466.64 Q1619.34 1466.64 1616.26 1462.05 Q1613.21 1457.45 1613.21 1448.72 Q1613.21 1439.97 1616.26 1435.39 Q1619.34 1430.78 1625.15 1430.78 Z" fill="#000000" fill-rule="nonzero" fill-opacity="1" /><path clip-path="url(#clip130)" d="M1655.31 1449.55 Q1651.98 1449.55 1650.06 1451.33 Q1648.16 1453.12 1648.16 1456.24 Q1648.16 1459.37 1650.06 1461.15 Q1651.98 1462.93 1655.31 1462.93 Q1658.65 1462.93 1660.57 1461.15 Q1662.49 1459.34 1662.49 1456.24 Q1662.49 1453.12 1660.57 1451.33 Q1658.67 1449.55 1655.31 1449.55 M1650.64 1447.56 Q1647.63 1446.82 1645.94 1444.76 Q1644.27 1442.7 1644.27 1439.74 Q1644.27 1435.59 1647.21 1433.19 Q1650.17 1430.78 1655.31 1430.78 Q1660.48 1430.78 1663.42 1433.19 Q1666.35 1435.59 1666.35 1439.74 Q1666.35 1442.7 1664.67 1444.76 Q1663 1446.82 1660.01 1447.56 Q1663.39 1448.35 1665.27 1450.64 Q1667.17 1452.93 1667.17 1456.24 Q1667.17 1461.26 1664.09 1463.95 Q1661.03 1466.64 1655.31 1466.64 Q1649.6 1466.64 1646.52 1463.95 Q1643.46 1461.26 1643.46 1456.24 Q1643.46 1452.93 1645.36 1450.64 Q1647.26 1448.35 1650.64 1447.56 M1648.92 1440.18 Q1648.92 1442.86 1650.59 1444.37 Q1652.28 1445.87 1655.31 1445.87 Q1658.32 1445.87 1660.01 1444.37 Q1661.73 1442.86 1661.73 1440.18 Q1661.73 1437.49 1660.01 1435.99 Q1658.32 1434.48 1655.31 1434.48 Q1652.28 1434.48 1650.59 1435.99 Q1648.92 1437.49 1648.92 1440.18 Z" fill="#000000" fill-rule="nonzero" fill-opacity="1" /><path clip-path="url(#clip130)" d="M1133.69 1498.8 Q1133.69 1498.83 1133.5 1499.99 L1126.15 1529.26 Q1125.77 1530.81 1124.67 1532.35 Q1123.61 1533.93 1121.9 1535.28 Q1120.23 1536.67 1117.65 1537.51 Q1115.11 1538.38 1112.18 1538.38 Q1107.51 1538.38 1105.45 1537.38 Q1103.42 1536.41 1103.42 1534.35 Q1103.42 1532.55 1104.54 1531.52 Q1105.67 1530.52 1106.96 1530.52 Q1108.18 1530.52 1108.83 1531.23 Q1109.47 1531.94 1109.47 1532.84 Q1109.47 1533.84 1108.79 1534.83 Q1108.12 1535.86 1106.77 1536.25 Q1108.92 1536.93 1112.05 1536.93 Q1118.65 1536.93 1121.48 1529.94 Q1121.55 1529.84 1121.55 1529.81 L1123.74 1521.08 L1123.64 1521.02 Q1123.09 1521.66 1122.22 1522.4 Q1121.39 1523.11 1119.58 1523.98 Q1117.78 1524.85 1116.01 1524.85 Q1112.3 1524.85 1109.76 1522.02 Q1107.25 1519.15 1107.25 1514.42 Q1107.25 1510.97 1108.63 1507.52 Q1110.05 1504.05 1112.24 1501.5 Q1114.46 1498.92 1117.3 1497.31 Q1120.16 1495.7 1122.93 1495.7 Q1124.87 1495.7 1126.51 1496.86 Q1128.15 1497.99 1129.05 1499.86 Q1129.21 1498.31 1130.08 1497.67 Q1130.98 1497.02 1131.76 1497.02 Q1132.63 1497.02 1133.14 1497.51 Q1133.69 1497.96 1133.69 1498.8 M1128.28 1502.82 Q1128.28 1502.63 1128.15 1502.11 Q1128.02 1501.57 1127.63 1500.7 Q1127.28 1499.83 1126.73 1499.05 Q1126.19 1498.28 1125.19 1497.73 Q1124.22 1497.15 1123 1497.15 Q1121 1497.15 1119 1498.83 Q1117.01 1500.47 1115.62 1503.01 Q1114.33 1505.46 1113.11 1510.2 Q1111.92 1514.93 1111.92 1517.35 Q1111.92 1519.73 1112.95 1521.57 Q1113.98 1523.4 1116.2 1523.4 Q1118.78 1523.4 1121.55 1521.02 Q1124.41 1518.54 1124.9 1516.41 L1128.09 1503.82 Q1128.28 1503.05 1128.28 1502.82 Z" fill="#000000" fill-rule="nonzero" fill-opacity="1" /><polyline clip-path="url(#clip130)" style="stroke:#000000; stroke-linecap:round; stroke-linejoin:round; stroke-width:4; stroke-opacity:1; fill:none" points="285.208,1406.76 285.208,47.2441 "/>
<polyline clip-path="url(#clip130)" style="stroke:#000000; stroke-linecap:round; stroke-linejoin:round; stroke-width:4; stroke-opacity:1; fill:none" points="1952.76,1406.76 1952.76,47.2441 "/>
<polyline clip-path="url(#clip130)" style="stroke:#000000; stroke-linecap:round; stroke-linejoin:round; stroke-width:4; stroke-opacity:1; fill:none" points="285.208,1369.56 304.106,1369.56 "/>
<polyline clip-path="url(#clip130)" style="stroke:#000000; stroke-linecap:round; stroke-linejoin:round; stroke-width:4; stroke-opacity:1; fill:none" points="285.208,980.268 304.106,980.268 "/>
<polyline clip-path="url(#clip130)" style="stroke:#000000; stroke-linecap:round; stroke-linejoin:round; stroke-width:4; stroke-opacity:1; fill:none" points="285.208,590.981 304.106,590.981 "/>
<polyline clip-path="url(#clip130)" style="stroke:#000000; stroke-linecap:round; stroke-linejoin:round; stroke-width:4; stroke-opacity:1; fill:none" points="285.208,201.693 304.106,201.693 "/>
<polyline clip-path="url(#clip130)" style="stroke:#000000; stroke-linecap:round; stroke-linejoin:round; stroke-width:4; stroke-opacity:1; fill:none" points="1952.76,1369.56 1933.86,1369.56 "/>
<polyline clip-path="url(#clip130)" style="stroke:#000000; stroke-linecap:round; stroke-linejoin:round; stroke-width:4; stroke-opacity:1; fill:none" points="1952.76,980.268 1933.86,980.268 "/>
<polyline clip-path="url(#clip130)" style="stroke:#000000; stroke-linecap:round; stroke-linejoin:round; stroke-width:4; stroke-opacity:1; fill:none" points="1952.76,590.981 1933.86,590.981 "/>
<polyline clip-path="url(#clip130)" style="stroke:#000000; stroke-linecap:round; stroke-linejoin:round; stroke-width:4; stroke-opacity:1; fill:none" points="1952.76,201.693 1933.86,201.693 "/>
<path clip-path="url(#clip130)" d="M137.709 1355.35 Q134.097 1355.35 132.269 1358.92 Q130.463 1362.46 130.463 1369.59 Q130.463 1376.7 132.269 1380.26 Q134.097 1383.8 137.709 1383.8 Q141.343 1383.8 143.148 1380.26 Q144.977 1376.7 144.977 1369.59 Q144.977 1362.46 143.148 1358.92 Q141.343 1355.35 137.709 1355.35 M137.709 1351.65 Q143.519 1351.65 146.574 1356.26 Q149.653 1360.84 149.653 1369.59 Q149.653 1378.32 146.574 1382.92 Q143.519 1387.51 137.709 1387.51 Q131.898 1387.51 128.82 1382.92 Q125.764 1378.32 125.764 1369.59 Q125.764 1360.84 128.82 1356.26 Q131.898 1351.65 137.709 1351.65 Z" fill="#000000" fill-rule="nonzero" fill-opacity="1" /><path clip-path="url(#clip130)" d="M157.87 1380.96 L162.755 1380.96 L162.755 1386.84 L157.87 1386.84 L157.87 1380.96 Z" fill="#000000" fill-rule="nonzero" fill-opacity="1" /><path clip-path="url(#clip130)" d="M182.94 1355.35 Q179.329 1355.35 177.5 1358.92 Q175.694 1362.46 175.694 1369.59 Q175.694 1376.7 177.5 1380.26 Q179.329 1383.8 182.94 1383.8 Q186.574 1383.8 188.38 1380.26 Q190.208 1376.7 190.208 1369.59 Q190.208 1362.46 188.38 1358.92 Q186.574 1355.35 182.94 1355.35 M182.94 1351.65 Q188.75 1351.65 191.805 1356.26 Q194.884 1360.84 194.884 1369.59 Q194.884 1378.32 191.805 1382.92 Q188.75 1387.51 182.94 1387.51 Q177.13 1387.51 174.051 1382.92 Q170.995 1378.32 170.995 1369.59 Q170.995 1360.84 174.051 1356.26 Q177.13 1351.65 182.94 1351.65 Z" fill="#000000" fill-rule="nonzero" fill-opacity="1" /><path clip-path="url(#clip130)" d="M213.102 1355.35 Q209.491 1355.35 207.662 1358.92 Q205.856 1362.46 205.856 1369.59 Q205.856 1376.7 207.662 1380.26 Q209.491 1383.8 213.102 1383.8 Q216.736 1383.8 218.541 1380.26 Q220.37 1376.7 220.37 1369.59 Q220.37 1362.46 218.541 1358.92 Q216.736 1355.35 213.102 1355.35 M213.102 1351.65 Q218.912 1351.65 221.967 1356.26 Q225.046 1360.84 225.046 1369.59 Q225.046 1378.32 221.967 1382.92 Q218.912 1387.51 213.102 1387.51 Q207.291 1387.51 204.213 1382.92 Q201.157 1378.32 201.157 1369.59 Q201.157 1360.84 204.213 1356.26 Q207.291 1351.65 213.102 1351.65 Z" fill="#000000" fill-rule="nonzero" fill-opacity="1" /><path clip-path="url(#clip130)" d="M243.264 1355.35 Q239.652 1355.35 237.824 1358.92 Q236.018 1362.46 236.018 1369.59 Q236.018 1376.7 237.824 1380.26 Q239.652 1383.8 243.264 1383.8 Q246.898 1383.8 248.703 1380.26 Q250.532 1376.7 250.532 1369.59 Q250.532 1362.46 248.703 1358.92 Q246.898 1355.35 243.264 1355.35 M243.264 1351.65 Q249.074 1351.65 252.129 1356.26 Q255.208 1360.84 255.208 1369.59 Q255.208 1378.32 252.129 1382.92 Q249.074 1387.51 243.264 1387.51 Q237.453 1387.51 234.375 1382.92 Q231.319 1378.32 231.319 1369.59 Q231.319 1360.84 234.375 1356.26 Q237.453 1351.65 243.264 1351.65 Z" fill="#000000" fill-rule="nonzero" fill-opacity="1" /><path clip-path="url(#clip130)" d="M138.704 966.067 Q135.093 966.067 133.264 969.632 Q131.459 973.173 131.459 980.303 Q131.459 987.409 133.264 990.974 Q135.093 994.516 138.704 994.516 Q142.338 994.516 144.144 990.974 Q145.972 987.409 145.972 980.303 Q145.972 973.173 144.144 969.632 Q142.338 966.067 138.704 966.067 M138.704 962.363 Q144.514 962.363 147.57 966.97 Q150.648 971.553 150.648 980.303 Q150.648 989.03 147.57 993.636 Q144.514 998.219 138.704 998.219 Q132.894 998.219 129.815 993.636 Q126.76 989.03 126.76 980.303 Q126.76 971.553 129.815 966.97 Q132.894 962.363 138.704 962.363 Z" fill="#000000" fill-rule="nonzero" fill-opacity="1" /><path clip-path="url(#clip130)" d="M158.866 991.669 L163.75 991.669 L163.75 997.548 L158.866 997.548 L158.866 991.669 Z" fill="#000000" fill-rule="nonzero" fill-opacity="1" /><path clip-path="url(#clip130)" d="M183.935 966.067 Q180.324 966.067 178.495 969.632 Q176.69 973.173 176.69 980.303 Q176.69 987.409 178.495 990.974 Q180.324 994.516 183.935 994.516 Q187.569 994.516 189.375 990.974 Q191.204 987.409 191.204 980.303 Q191.204 973.173 189.375 969.632 Q187.569 966.067 183.935 966.067 M183.935 962.363 Q189.745 962.363 192.801 966.97 Q195.88 971.553 195.88 980.303 Q195.88 989.03 192.801 993.636 Q189.745 998.219 183.935 998.219 Q178.125 998.219 175.046 993.636 Q171.991 989.03 171.991 980.303 Q171.991 971.553 175.046 966.97 Q178.125 962.363 183.935 962.363 Z" fill="#000000" fill-rule="nonzero" fill-opacity="1" /><path clip-path="url(#clip130)" d="M214.097 966.067 Q210.486 966.067 208.657 969.632 Q206.852 973.173 206.852 980.303 Q206.852 987.409 208.657 990.974 Q210.486 994.516 214.097 994.516 Q217.731 994.516 219.537 990.974 Q221.365 987.409 221.365 980.303 Q221.365 973.173 219.537 969.632 Q217.731 966.067 214.097 966.067 M214.097 962.363 Q219.907 962.363 222.963 966.97 Q226.041 971.553 226.041 980.303 Q226.041 989.03 222.963 993.636 Q219.907 998.219 214.097 998.219 Q208.287 998.219 205.208 993.636 Q202.153 989.03 202.153 980.303 Q202.153 971.553 205.208 966.97 Q208.287 962.363 214.097 962.363 Z" fill="#000000" fill-rule="nonzero" fill-opacity="1" /><path clip-path="url(#clip130)" d="M234.305 962.988 L252.662 962.988 L252.662 966.923 L238.588 966.923 L238.588 975.396 Q239.606 975.048 240.625 974.886 Q241.643 974.701 242.662 974.701 Q248.449 974.701 251.828 977.872 Q255.208 981.044 255.208 986.46 Q255.208 992.039 251.736 995.141 Q248.264 998.219 241.944 998.219 Q239.768 998.219 237.5 997.849 Q235.254 997.479 232.847 996.738 L232.847 992.039 Q234.93 993.173 237.152 993.729 Q239.375 994.284 241.851 994.284 Q245.856 994.284 248.194 992.178 Q250.532 990.071 250.532 986.46 Q250.532 982.849 248.194 980.743 Q245.856 978.636 241.851 978.636 Q239.977 978.636 238.102 979.053 Q236.25 979.47 234.305 980.349 L234.305 962.988 Z" fill="#000000" fill-rule="nonzero" fill-opacity="1" /><path clip-path="url(#clip130)" d="M137.709 576.779 Q134.097 576.779 132.269 580.344 Q130.463 583.886 130.463 591.016 Q130.463 598.122 132.269 601.687 Q134.097 605.228 137.709 605.228 Q141.343 605.228 143.148 601.687 Q144.977 598.122 144.977 591.016 Q144.977 583.886 143.148 580.344 Q141.343 576.779 137.709 576.779 M137.709 573.076 Q143.519 573.076 146.574 577.682 Q149.653 582.266 149.653 591.016 Q149.653 599.742 146.574 604.349 Q143.519 608.932 137.709 608.932 Q131.898 608.932 128.82 604.349 Q125.764 599.742 125.764 591.016 Q125.764 582.266 128.82 577.682 Q131.898 573.076 137.709 573.076 Z" fill="#000000" fill-rule="nonzero" fill-opacity="1" /><path clip-path="url(#clip130)" d="M157.87 602.381 L162.755 602.381 L162.755 608.261 L157.87 608.261 L157.87 602.381 Z" fill="#000000" fill-rule="nonzero" fill-opacity="1" /><path clip-path="url(#clip130)" d="M182.94 576.779 Q179.329 576.779 177.5 580.344 Q175.694 583.886 175.694 591.016 Q175.694 598.122 177.5 601.687 Q179.329 605.228 182.94 605.228 Q186.574 605.228 188.38 601.687 Q190.208 598.122 190.208 591.016 Q190.208 583.886 188.38 580.344 Q186.574 576.779 182.94 576.779 M182.94 573.076 Q188.75 573.076 191.805 577.682 Q194.884 582.266 194.884 591.016 Q194.884 599.742 191.805 604.349 Q188.75 608.932 182.94 608.932 Q177.13 608.932 174.051 604.349 Q170.995 599.742 170.995 591.016 Q170.995 582.266 174.051 577.682 Q177.13 573.076 182.94 573.076 Z" fill="#000000" fill-rule="nonzero" fill-opacity="1" /><path clip-path="url(#clip130)" d="M203.912 604.326 L211.551 604.326 L211.551 577.96 L203.241 579.627 L203.241 575.367 L211.504 573.701 L216.18 573.701 L216.18 604.326 L223.819 604.326 L223.819 608.261 L203.912 608.261 L203.912 604.326 Z" fill="#000000" fill-rule="nonzero" fill-opacity="1" /><path clip-path="url(#clip130)" d="M243.264 576.779 Q239.652 576.779 237.824 580.344 Q236.018 583.886 236.018 591.016 Q236.018 598.122 237.824 601.687 Q239.652 605.228 243.264 605.228 Q246.898 605.228 248.703 601.687 Q250.532 598.122 250.532 591.016 Q250.532 583.886 248.703 580.344 Q246.898 576.779 243.264 576.779 M243.264 573.076 Q249.074 573.076 252.129 577.682 Q255.208 582.266 255.208 591.016 Q255.208 599.742 252.129 604.349 Q249.074 608.932 243.264 608.932 Q237.453 608.932 234.375 604.349 Q231.319 599.742 231.319 591.016 Q231.319 582.266 234.375 577.682 Q237.453 573.076 243.264 573.076 Z" fill="#000000" fill-rule="nonzero" fill-opacity="1" /><path clip-path="url(#clip130)" d="M138.704 187.492 Q135.093 187.492 133.264 191.057 Q131.459 194.599 131.459 201.728 Q131.459 208.835 133.264 212.399 Q135.093 215.941 138.704 215.941 Q142.338 215.941 144.144 212.399 Q145.972 208.835 145.972 201.728 Q145.972 194.599 144.144 191.057 Q142.338 187.492 138.704 187.492 M138.704 183.788 Q144.514 183.788 147.57 188.395 Q150.648 192.978 150.648 201.728 Q150.648 210.455 147.57 215.061 Q144.514 219.645 138.704 219.645 Q132.894 219.645 129.815 215.061 Q126.76 210.455 126.76 201.728 Q126.76 192.978 129.815 188.395 Q132.894 183.788 138.704 183.788 Z" fill="#000000" fill-rule="nonzero" fill-opacity="1" /><path clip-path="url(#clip130)" d="M158.866 213.094 L163.75 213.094 L163.75 218.973 L158.866 218.973 L158.866 213.094 Z" fill="#000000" fill-rule="nonzero" fill-opacity="1" /><path clip-path="url(#clip130)" d="M183.935 187.492 Q180.324 187.492 178.495 191.057 Q176.69 194.599 176.69 201.728 Q176.69 208.835 178.495 212.399 Q180.324 215.941 183.935 215.941 Q187.569 215.941 189.375 212.399 Q191.204 208.835 191.204 201.728 Q191.204 194.599 189.375 191.057 Q187.569 187.492 183.935 187.492 M183.935 183.788 Q189.745 183.788 192.801 188.395 Q195.88 192.978 195.88 201.728 Q195.88 210.455 192.801 215.061 Q189.745 219.645 183.935 219.645 Q178.125 219.645 175.046 215.061 Q171.991 210.455 171.991 201.728 Q171.991 192.978 175.046 188.395 Q178.125 183.788 183.935 183.788 Z" fill="#000000" fill-rule="nonzero" fill-opacity="1" /><path clip-path="url(#clip130)" d="M204.907 215.038 L212.546 215.038 L212.546 188.673 L204.236 190.339 L204.236 186.08 L212.5 184.413 L217.176 184.413 L217.176 215.038 L224.815 215.038 L224.815 218.973 L204.907 218.973 L204.907 215.038 Z" fill="#000000" fill-rule="nonzero" fill-opacity="1" /><path clip-path="url(#clip130)" d="M234.305 184.413 L252.662 184.413 L252.662 188.349 L238.588 188.349 L238.588 196.821 Q239.606 196.474 240.625 196.311 Q241.643 196.126 242.662 196.126 Q248.449 196.126 251.828 199.298 Q255.208 202.469 255.208 207.885 Q255.208 213.464 251.736 216.566 Q248.264 219.645 241.944 219.645 Q239.768 219.645 237.5 219.274 Q235.254 218.904 232.847 218.163 L232.847 213.464 Q234.93 214.598 237.152 215.154 Q239.375 215.71 241.851 215.71 Q245.856 215.71 248.194 213.603 Q250.532 211.497 250.532 207.885 Q250.532 204.274 248.194 202.168 Q245.856 200.061 241.851 200.061 Q239.977 200.061 238.102 200.478 Q236.25 200.895 234.305 201.774 L234.305 184.413 Z" fill="#000000" fill-rule="nonzero" fill-opacity="1" /><path clip-path="url(#clip130)" d="M61.19 703.635 Q66.504 703.635 71.7213 705.921 Q76.9065 708.176 80.8356 711.847 Q84.7325 715.486 87.1479 720.414 Q89.5634 725.341 89.5634 730.366 L89.5634 752.201 Q89.5634 752.974 89.5311 753.296 Q89.4989 753.586 89.3379 753.811 Q89.1447 754.037 88.7582 754.037 Q88.1463 754.037 87.8887 753.779 Q87.5988 753.522 87.5666 753.232 Q87.5344 752.942 87.5344 752.201 Q87.5344 750.591 87.4378 749.625 Q87.3412 748.658 87.2123 748.047 Q87.0513 747.402 86.6004 747.08 Q86.1495 746.726 85.7631 746.565 Q85.3444 746.404 84.4104 746.179 L48.984 737.354 Q47.9212 737.097 47.7601 737.097 Q47.2126 737.097 47.0194 737.419 Q46.794 737.708 46.6974 738.546 Q46.5685 740.156 46.5685 741.38 Q46.5685 742.185 46.5363 742.507 Q46.5041 742.797 46.3431 743.055 Q46.1499 743.28 45.7634 743.28 Q45.1515 743.28 44.8938 743.022 Q44.604 742.733 44.5718 742.411 Q44.5074 742.088 44.5074 741.316 L44.5074 719.158 Q44.5074 714.359 46.7618 710.784 Q48.984 707.21 52.7521 705.438 Q56.4879 703.635 61.19 703.635 M58.7746 709.4 Q52.6232 709.4 49.5959 712.749 Q46.5685 716.066 46.5685 721.316 L46.5685 728.369 Q46.5685 730.462 46.955 730.977 Q47.3093 731.493 49.0806 731.944 L85.28 740.993 Q86.4716 741.316 86.7937 741.316 Q87.1479 741.316 87.2767 741.155 Q87.3734 740.961 87.4378 740.446 Q87.5344 739.866 87.5344 738.997 L87.5344 731.557 Q87.5344 728.691 86.7614 726.082 Q85.9563 723.441 84.7003 721.541 Q83.412 719.641 82.317 718.417 Q81.1898 717.193 80.0626 716.324 Q77.5184 714.359 74.2012 712.91 Q70.884 711.429 67.8566 710.752 Q64.797 710.044 62.5426 709.722 Q60.256 709.4 58.7746 709.4 Z" fill="#000000" fill-rule="nonzero" fill-opacity="1" /><polyline clip-path="url(#clip132)" style="stroke:#009af9; stroke-linecap:round; stroke-linejoin:round; stroke-width:8; stroke-opacity:1; fill:none" points="285.208,1367.09 319.24,1307.57 353.271,1178.38 387.303,1007.27 421.334,830.651 455.366,674.955 489.397,550.012 523.429,454.82 557.461,386.431 591.492,335.951 625.524,296.04 659.555,264.107 693.587,238.315 727.619,217.209 761.65,199.82 795.682,185.326 829.713,173.128 863.745,162.792 897.777,153.94 931.808,146.357 965.84,139.746 999.871,134.006 1033.9,128.961 1067.93,124.561 1101.97,120.664 1136,117.121 1170.03,114.011 1204.06,111.214 1238.09,108.69 1272.12,106.488 1306.16,104.407 1340.19,102.507 1374.22,100.86 1408.25,99.2604 1442.28,97.8843 1476.31,96.5211 1510.35,95.3593 1544.38,94.2893 1578.41,93.1947 1612.44,92.279 1646.47,91.4304 1680.5,90.532 1714.53,89.7973 1748.57,89.1128 1782.6,88.4741 1816.63,87.7626 1850.66,87.2024 1884.69,86.6773 1918.72,86.1843 1952.76,85.7211 "/>
<polyline clip-path="url(#clip132)" style="stroke:#e26f46; stroke-linecap:round; stroke-linejoin:round; stroke-width:8; stroke-opacity:1; fill:none" points="285.208,1367.39 319.24,1316.27 353.271,1211.45 387.303,1081.73 421.334,954.322 455.366,844.343 489.397,755.645 523.429,686.253 557.461,632.448 591.492,590.625 625.524,557.846 659.555,531.879 693.587,511.068 727.619,494.196 761.65,480.365 795.682,468.908 829.713,459.325 863.745,451.239 897.777,444.358 931.808,438.46 965.84,433.367 999.871,428.942 1033.9,425.075 1067.93,421.676 1101.97,418.674 1136,416.009 1170.03,413.634 1204.06,411.508 1238.09,409.598 1272.12,407.875 1306.16,406.317 1340.19,404.902 1374.22,403.615 1408.25,402.439 1442.28,401.364 1476.31,400.376 1510.35,399.469 1544.38,398.632 1578.41,397.859 1612.44,397.143 1646.47,396.48 1680.5,395.864 1714.53,395.29 1748.57,394.755 1782.6,394.256 1816.63,393.789 1850.66,393.352 1884.69,392.942 1918.72,392.557 1952.76,392.195 "/>
<polyline clip-path="url(#clip132)" style="stroke:#3da44d; stroke-linecap:round; stroke-linejoin:round; stroke-width:8; stroke-opacity:1; fill:none" points="285.208,1367.72 319.24,1325.23 353.271,1242.16 387.303,1144.57 421.334,1051.76 455.366,972.251 489.397,907.438 523.429,855.679 557.461,814.559 591.492,781.801 625.524,755.53 659.555,734.28 693.587,716.932 727.619,702.639 761.65,690.756 795.682,680.791 829.713,672.368 863.745,665.192 897.777,659.037 931.808,653.722 965.84,649.105 999.871,645.071 1033.9,641.527 1067.93,638.399 1101.97,635.624 1136,633.153 1170.03,630.944 1204.06,628.96 1238.09,627.174 1272.12,625.559 1306.16,624.094 1340.19,622.763 1374.22,621.548 1408.25,620.438 1442.28,619.42 1476.31,618.485 1510.35,617.624 1544.38,616.829 1578.41,616.094 1612.44,615.413 1646.47,614.781 1680.5,614.193 1714.53,613.646 1748.57,613.135 1782.6,612.658 1816.63,612.212 1850.66,611.793 1884.69,611.401 1918.72,611.032 1952.76,610.685 "/>
<polyline clip-path="url(#clip132)" style="stroke:#c271d2; stroke-linecap:round; stroke-linejoin:round; stroke-width:8; stroke-opacity:1; fill:none" points="285.208,1367.98 319.24,1332.13 353.271,1264.81 387.303,1189.04 421.334,1118.75 455.366,1058.8 489.397,1009.43 523.429,969.293 557.461,936.741 591.492,910.268 625.524,888.623 659.555,870.806 693.587,856.033 727.619,843.695 761.65,833.314 795.682,824.518 829.713,817.014 863.745,810.571 897.777,805.005 931.808,800.169 965.84,795.944 999.871,792.235 1033.9,788.963 1067.93,786.063 1101.97,783.483 1136,781.178 1170.03,779.111 1204.06,777.25 1238.09,775.57 1272.12,774.049 1306.16,772.667 1340.19,771.408 1374.22,770.258 1408.25,769.205 1442.28,768.238 1476.31,767.349 1510.35,766.529 1544.38,765.772 1578.41,765.071 1612.44,764.421 1646.47,763.817 1680.5,763.255 1714.53,762.731 1748.57,762.242 1782.6,761.785 1816.63,761.357 1850.66,760.955 1884.69,760.578 1918.72,760.224 1952.76,759.891 "/>
<polyline clip-path="url(#clip132)" style="stroke:#ac8d18; stroke-linecap:round; stroke-linejoin:round; stroke-width:8; stroke-opacity:1; fill:none" points="285.208,1368.17 319.24,1336.9 353.271,1280.1 387.303,1218.34 421.334,1162.19 455.366,1114.46 489.397,1074.82 523.429,1042.15 557.461,1015.23 591.492,992.979 625.524,974.518 659.555,959.117 693.587,946.196 727.619,935.291 761.65,926.03 795.682,918.121 829.713,911.325 863.745,905.455 897.777,900.355 931.808,895.904 965.84,891.998 999.871,888.556 1033.9,885.51 1067.93,882.802 1101.97,880.385 1136,878.221 1170.03,876.276 1204.06,874.522 1238.09,872.936 1272.12,871.496 1306.16,870.187 1340.19,868.992 1374.22,867.9 1408.25,866.899 1442.28,865.978 1476.31,865.131 1510.35,864.349 1544.38,863.626 1578.41,862.956 1612.44,862.335 1646.47,861.757 1680.5,861.219 1714.53,860.717 1748.57,860.248 1782.6,859.81 1816.63,859.399 1850.66,859.014 1884.69,858.652 1918.72,858.312 1952.76,857.991 "/>
<polyline clip-path="url(#clip132)" style="stroke:#00a9ad; stroke-linecap:round; stroke-linejoin:round; stroke-width:8; stroke-opacity:1; fill:none" points="285.208,1368.29 319.24,1340.01 353.271,1289.95 387.303,1236.97 421.334,1189.54 455.366,1149.32 489.397,1115.71 523.429,1087.73 557.461,1064.39 591.492,1044.88 625.524,1028.52 659.555,1014.74 693.587,1003.08 727.619,993.163 761.65,984.687 795.682,977.405 829.713,971.118 863.745,965.661 897.777,960.903 931.808,956.735 965.84,953.067 999.871,949.825 1033.9,946.949 1067.93,944.387 1101.97,942.096 1136,940.041 1170.03,938.19 1204.06,936.52 1238.09,935.006 1272.12,933.632 1306.16,932.38 1340.19,931.237 1374.22,930.19 1408.25,929.23 1442.28,928.347 1476.31,927.534 1510.35,926.782 1544.38,926.087 1578.41,925.443 1612.44,924.845 1646.47,924.288 1680.5,923.77 1714.53,923.286 1748.57,922.834 1782.6,922.411 1816.63,922.015 1850.66,921.643 1884.69,921.294 1918.72,920.965 1952.76,920.655 "/>
<path clip-path="url(#clip130)" d="M1542.94 1361.45 L1897.17 1361.45 L1897.17 1012.49 L1542.94 1012.49  Z" fill="#ffffff" fill-rule="evenodd" fill-opacity="1"/>
<polyline clip-path="url(#clip130)" style="stroke:#000000; stroke-linecap:round; stroke-linejoin:round; stroke-width:4; stroke-opacity:1; fill:none" points="1542.94,1361.45 1897.17,1361.45 1897.17,1012.49 1542.94,1012.49 1542.94,1361.45 "/>
<polyline clip-path="url(#clip130)" style="stroke:#009af9; stroke-linecap:round; stroke-linejoin:round; stroke-width:7; stroke-opacity:1; fill:none" points="1561.47,1062.34 1672.64,1062.34 "/>
<path clip-path="url(#clip130)" d="M1714.02 1042.67 Q1714.02 1043.2 1713.8 1044.22 Q1713.08 1047.11 1710.4 1049.1 Q1709.94 1049.47 1709.15 1049.94 Q1710.11 1050.58 1710.95 1051.75 Q1712.2 1053.67 1712.2 1056.28 Q1712.2 1057.48 1711.87 1058.96 Q1710.95 1062.38 1707.71 1064.84 Q1704.45 1067.24 1700.58 1067.24 Q1698.49 1067.24 1697.05 1066.13 Q1695.64 1065.01 1695.09 1063.12 L1692.24 1074.62 Q1692.18 1074.91 1691.81 1074.91 L1691.6 1074.91 Q1691.17 1074.91 1691.17 1074.41 L1697.65 1048.59 Q1698.08 1046.85 1698.77 1045.21 Q1699.47 1043.57 1700.43 1042.09 Q1701.42 1040.62 1702.55 1039.53 Q1703.67 1038.42 1705.07 1037.79 Q1706.46 1037.13 1707.94 1037.13 Q1711.03 1037.13 1712.79 1039.24 Q1714.02 1040.74 1714.02 1042.67 M1711.67 1041.93 Q1711.67 1040.66 1711.15 1039.78 Q1710.11 1038.1 1707.89 1038.1 Q1706.56 1038.1 1705.29 1038.71 Q1704.04 1039.31 1703.04 1040.33 Q1702.03 1041.36 1701.17 1042.75 Q1700.31 1044.14 1699.68 1045.66 Q1699.06 1047.16 1698.65 1048.79 L1696.13 1058.96 Q1695.89 1060.05 1695.89 1061.01 Q1695.89 1063.31 1697.16 1064.8 Q1698.43 1066.3 1700.62 1066.3 Q1703.53 1066.3 1706.03 1064.12 Q1708.2 1062.18 1709.1 1058.76 Q1709.62 1056.6 1709.62 1055.11 Q1709.62 1053.47 1709.02 1052.2 Q1708.59 1051.17 1707.75 1050.56 Q1706.19 1051.11 1704.62 1051.11 Q1703.86 1051.11 1703.45 1051.09 Q1703.06 1051.07 1702.48 1050.99 Q1701.93 1050.91 1701.66 1050.68 Q1701.42 1050.46 1701.42 1050.11 Q1701.42 1049.9 1701.46 1049.82 Q1701.54 1049.49 1701.81 1049.27 Q1702.07 1049.04 1702.38 1048.94 Q1702.69 1048.82 1703.2 1048.75 Q1703.73 1048.69 1704.08 1048.69 Q1704.43 1048.67 1705.03 1048.67 Q1706.42 1048.67 1707.83 1049.23 Q1708.37 1048.94 1708.94 1048.43 Q1710.76 1046.73 1711.38 1044.02 Q1711.67 1043.02 1711.67 1041.93 M1706.5 1049.86 Q1705.64 1049.64 1704.98 1049.64 Q1702.59 1049.64 1702.46 1050.02 Q1702.46 1050.07 1702.55 1050.11 Q1702.63 1050.13 1702.81 1050.15 Q1703.02 1050.15 1703.18 1050.17 Q1703.37 1050.19 1703.67 1050.19 Q1703.98 1050.19 1704.14 1050.19 Q1704.33 1050.19 1704.66 1050.19 Q1705.48 1050.19 1706.5 1049.86 Z" fill="#000000" fill-rule="nonzero" fill-opacity="1" /><path clip-path="url(#clip130)" d="M1732.69 1082.74 Q1732.69 1082.85 1732.56 1083.3 Q1732.43 1083.74 1732.11 1084.43 Q1731.81 1085.12 1731.4 1085.75 Q1730.98 1086.37 1730.29 1086.83 Q1729.62 1087.27 1728.84 1087.27 Q1727.81 1087.27 1727.12 1086.58 Q1726.43 1085.89 1726.43 1084.86 Q1726.43 1084.72 1726.45 1084.57 Q1726.46 1084.43 1726.47 1084.35 Q1726.49 1084.24 1726.53 1084.09 Q1726.59 1083.91 1726.6 1083.84 Q1726.63 1083.77 1726.7 1083.56 Q1726.79 1083.33 1726.82 1083.24 Q1728.64 1078.59 1728.64 1076.66 Q1728.64 1074.6 1727.05 1074.6 Q1725.63 1074.6 1724.22 1075.64 Q1723.58 1076.15 1722.96 1077.07 Q1722.34 1077.99 1722.23 1078.33 Q1722.1 1079.08 1721.91 1079.65 Q1721.83 1080.06 1721.41 1081.62 L1720.76 1084.27 L1720.21 1086.5 Q1720.09 1086.81 1719.77 1087.04 Q1719.46 1087.27 1719.11 1087.27 Q1718.83 1087.27 1718.54 1087.07 Q1718.27 1086.88 1718.27 1086.44 Q1718.27 1086.21 1718.38 1085.79 L1722.64 1068.87 L1722.73 1068.29 Q1722.73 1068.12 1722.66 1068.03 Q1722.6 1067.93 1722.26 1067.86 Q1721.93 1067.79 1721.27 1067.79 Q1720.99 1067.79 1720.87 1067.78 Q1720.75 1067.76 1720.65 1067.69 Q1720.55 1067.6 1720.55 1067.43 Q1720.55 1067.19 1720.65 1067.06 Q1720.76 1066.91 1720.85 1066.89 Q1720.94 1066.86 1721.11 1066.84 Q1721.35 1066.83 1722.17 1066.76 Q1722.99 1066.67 1723.69 1066.61 Q1724.39 1066.56 1724.7 1066.56 Q1724.87 1066.56 1724.95 1066.64 Q1725.05 1066.71 1725.07 1066.8 L1725.08 1066.87 L1722.79 1076.21 Q1724.61 1073.96 1727.13 1073.96 Q1728.77 1073.96 1729.65 1074.81 Q1730.52 1075.64 1730.52 1077.1 Q1730.52 1078.78 1728.73 1083.56 Q1728.2 1084.89 1728.2 1085.65 Q1728.2 1086.15 1728.35 1086.38 Q1728.53 1086.61 1728.9 1086.61 Q1729.47 1086.61 1729.97 1086.28 Q1730.49 1085.94 1730.85 1085.38 Q1731.21 1084.8 1731.45 1084.23 Q1731.71 1083.64 1731.9 1082.98 Q1732.01 1082.62 1732.07 1082.54 Q1732.14 1082.45 1732.34 1082.45 Q1732.69 1082.45 1732.69 1082.74 Z" fill="#000000" fill-rule="nonzero" fill-opacity="1" /><path clip-path="url(#clip130)" d="M1748.67 1060.39 Q1748.71 1059.88 1749.51 1059.88 L1775.23 1059.88 Q1776.44 1059.88 1776.46 1060.35 Q1776.46 1060.87 1775.31 1060.85 L1749.79 1060.85 Q1748.67 1060.87 1748.67 1060.39 M1748.67 1052.2 Q1748.67 1051.68 1749.55 1051.71 L1775.19 1051.71 Q1776.44 1051.71 1776.46 1052.2 Q1776.46 1052.67 1775.39 1052.67 L1749.51 1052.67 Q1748.67 1052.67 1748.67 1052.2 Z" fill="#000000" fill-rule="nonzero" fill-opacity="1" /><path clip-path="url(#clip130)" d="M1803.09 1039.22 Q1799.93 1039.22 1798.33 1042.34 Q1796.75 1045.44 1796.75 1051.68 Q1796.75 1057.9 1798.33 1061.02 Q1799.93 1064.12 1803.09 1064.12 Q1806.27 1064.12 1807.85 1061.02 Q1809.45 1057.9 1809.45 1051.68 Q1809.45 1045.44 1807.85 1042.34 Q1806.27 1039.22 1803.09 1039.22 M1803.09 1035.98 Q1808.18 1035.98 1810.85 1040.01 Q1813.54 1044.02 1813.54 1051.68 Q1813.54 1059.32 1810.85 1063.35 Q1808.18 1067.36 1803.09 1067.36 Q1798.01 1067.36 1795.32 1063.35 Q1792.64 1059.32 1792.64 1051.68 Q1792.64 1044.02 1795.32 1040.01 Q1798.01 1035.98 1803.09 1035.98 Z" fill="#000000" fill-rule="nonzero" fill-opacity="1" /><path clip-path="url(#clip130)" d="M1820.73 1061.62 L1825.01 1061.62 L1825.01 1066.77 L1820.73 1066.77 L1820.73 1061.62 Z" fill="#000000" fill-rule="nonzero" fill-opacity="1" /><path clip-path="url(#clip130)" d="M1833.96 1036.53 L1850.02 1036.53 L1850.02 1039.97 L1837.71 1039.97 L1837.71 1047.39 Q1838.6 1047.08 1839.49 1046.94 Q1840.38 1046.78 1841.27 1046.78 Q1846.34 1046.78 1849.29 1049.55 Q1852.25 1052.33 1852.25 1057.07 Q1852.25 1061.95 1849.21 1064.66 Q1846.17 1067.36 1840.65 1067.36 Q1838.74 1067.36 1836.76 1067.03 Q1834.79 1066.71 1832.69 1066.06 L1832.69 1061.95 Q1834.51 1062.94 1836.45 1063.43 Q1838.4 1063.91 1840.56 1063.91 Q1844.07 1063.91 1846.11 1062.07 Q1848.16 1060.23 1848.16 1057.07 Q1848.16 1053.91 1846.11 1052.06 Q1844.07 1050.22 1840.56 1050.22 Q1838.92 1050.22 1837.28 1050.59 Q1835.66 1050.95 1833.96 1051.72 L1833.96 1036.53 Z" fill="#000000" fill-rule="nonzero" fill-opacity="1" /><polyline clip-path="url(#clip130)" style="stroke:#e26f46; stroke-linecap:round; stroke-linejoin:round; stroke-width:7; stroke-opacity:1; fill:none" points="1561.47,1112.2 1672.64,1112.2 "/>
<path clip-path="url(#clip130)" d="M1714.02 1092.52 Q1714.02 1093.05 1713.8 1094.07 Q1713.08 1096.96 1710.4 1098.95 Q1709.94 1099.32 1709.15 1099.79 Q1710.11 1100.43 1710.95 1101.6 Q1712.2 1103.52 1712.2 1106.13 Q1712.2 1107.33 1711.87 1108.81 Q1710.95 1112.23 1707.71 1114.69 Q1704.45 1117.09 1700.58 1117.09 Q1698.49 1117.09 1697.05 1115.98 Q1695.64 1114.86 1695.09 1112.97 L1692.24 1124.47 Q1692.18 1124.76 1691.81 1124.76 L1691.6 1124.76 Q1691.17 1124.76 1691.17 1124.26 L1697.65 1098.44 Q1698.08 1096.7 1698.77 1095.06 Q1699.47 1093.42 1700.43 1091.94 Q1701.42 1090.47 1702.55 1089.38 Q1703.67 1088.27 1705.07 1087.64 Q1706.46 1086.98 1707.94 1086.98 Q1711.03 1086.98 1712.79 1089.09 Q1714.02 1090.59 1714.02 1092.52 M1711.67 1091.78 Q1711.67 1090.51 1711.15 1089.63 Q1710.11 1087.95 1707.89 1087.95 Q1706.56 1087.95 1705.29 1088.56 Q1704.04 1089.16 1703.04 1090.18 Q1702.03 1091.21 1701.17 1092.6 Q1700.31 1093.99 1699.68 1095.51 Q1699.06 1097.01 1698.65 1098.65 L1696.13 1108.81 Q1695.89 1109.9 1695.89 1110.86 Q1695.89 1113.16 1697.16 1114.65 Q1698.43 1116.15 1700.62 1116.15 Q1703.53 1116.15 1706.03 1113.98 Q1708.2 1112.03 1709.1 1108.61 Q1709.62 1106.45 1709.62 1104.96 Q1709.62 1103.32 1709.02 1102.05 Q1708.59 1101.02 1707.75 1100.41 Q1706.19 1100.96 1704.62 1100.96 Q1703.86 1100.96 1703.45 1100.94 Q1703.06 1100.92 1702.48 1100.84 Q1701.93 1100.76 1701.66 1100.53 Q1701.42 1100.31 1701.42 1099.96 Q1701.42 1099.75 1701.46 1099.67 Q1701.54 1099.34 1701.81 1099.12 Q1702.07 1098.89 1702.38 1098.79 Q1702.69 1098.67 1703.2 1098.6 Q1703.73 1098.54 1704.08 1098.54 Q1704.43 1098.52 1705.03 1098.52 Q1706.42 1098.52 1707.83 1099.08 Q1708.37 1098.79 1708.94 1098.28 Q1710.76 1096.58 1711.38 1093.87 Q1711.67 1092.87 1711.67 1091.78 M1706.5 1099.71 Q1705.64 1099.49 1704.98 1099.49 Q1702.59 1099.49 1702.46 1099.87 Q1702.46 1099.92 1702.55 1099.96 Q1702.63 1099.98 1702.81 1100 Q1703.02 1100 1703.18 1100.02 Q1703.37 1100.04 1703.67 1100.04 Q1703.98 1100.04 1704.14 1100.04 Q1704.33 1100.04 1704.66 1100.04 Q1705.48 1100.04 1706.5 1099.71 Z" fill="#000000" fill-rule="nonzero" fill-opacity="1" /><path clip-path="url(#clip130)" d="M1732.69 1132.59 Q1732.69 1132.7 1732.56 1133.15 Q1732.43 1133.59 1732.11 1134.28 Q1731.81 1134.97 1731.4 1135.6 Q1730.98 1136.22 1730.29 1136.68 Q1729.62 1137.12 1728.84 1137.12 Q1727.81 1137.12 1727.12 1136.43 Q1726.43 1135.74 1726.43 1134.71 Q1726.43 1134.57 1726.45 1134.43 Q1726.46 1134.28 1726.47 1134.2 Q1726.49 1134.1 1726.53 1133.94 Q1726.59 1133.77 1726.6 1133.69 Q1726.63 1133.62 1726.7 1133.41 Q1726.79 1133.18 1726.82 1133.09 Q1728.64 1128.44 1728.64 1126.51 Q1728.64 1124.45 1727.05 1124.45 Q1725.63 1124.45 1724.22 1125.49 Q1723.58 1126 1722.96 1126.92 Q1722.34 1127.84 1722.23 1128.18 Q1722.1 1128.93 1721.91 1129.5 Q1721.83 1129.91 1721.41 1131.47 L1720.76 1134.12 L1720.21 1136.35 Q1720.09 1136.66 1719.77 1136.89 Q1719.46 1137.12 1719.11 1137.12 Q1718.83 1137.12 1718.54 1136.92 Q1718.27 1136.73 1718.27 1136.29 Q1718.27 1136.06 1718.38 1135.64 L1722.64 1118.72 L1722.73 1118.14 Q1722.73 1117.97 1722.66 1117.88 Q1722.6 1117.78 1722.26 1117.71 Q1721.93 1117.64 1721.27 1117.64 Q1720.99 1117.64 1720.87 1117.63 Q1720.75 1117.61 1720.65 1117.54 Q1720.55 1117.45 1720.55 1117.28 Q1720.55 1117.04 1720.65 1116.91 Q1720.76 1116.76 1720.85 1116.74 Q1720.94 1116.71 1721.11 1116.69 Q1721.35 1116.68 1722.17 1116.61 Q1722.99 1116.52 1723.69 1116.46 Q1724.39 1116.41 1724.7 1116.41 Q1724.87 1116.41 1724.95 1116.49 Q1725.05 1116.56 1725.07 1116.65 L1725.08 1116.72 L1722.79 1126.06 Q1724.61 1123.81 1727.13 1123.81 Q1728.77 1123.81 1729.65 1124.66 Q1730.52 1125.49 1730.52 1126.95 Q1730.52 1128.63 1728.73 1133.41 Q1728.2 1134.74 1728.2 1135.5 Q1728.2 1136 1728.35 1136.23 Q1728.53 1136.46 1728.9 1136.46 Q1729.47 1136.46 1729.97 1136.13 Q1730.49 1135.79 1730.85 1135.23 Q1731.21 1134.65 1731.45 1134.08 Q1731.71 1133.49 1731.9 1132.83 Q1732.01 1132.47 1732.07 1132.39 Q1732.14 1132.3 1732.34 1132.3 Q1732.69 1132.3 1732.69 1132.59 Z" fill="#000000" fill-rule="nonzero" fill-opacity="1" /><path clip-path="url(#clip130)" d="M1748.67 1110.25 Q1748.71 1109.73 1749.51 1109.73 L1775.23 1109.73 Q1776.44 1109.73 1776.46 1110.2 Q1776.46 1110.72 1775.31 1110.7 L1749.79 1110.7 Q1748.67 1110.72 1748.67 1110.25 M1748.67 1102.05 Q1748.67 1101.53 1749.55 1101.56 L1775.19 1101.56 Q1776.44 1101.56 1776.46 1102.05 Q1776.46 1102.52 1775.39 1102.52 L1749.51 1102.52 Q1748.67 1102.52 1748.67 1102.05 Z" fill="#000000" fill-rule="nonzero" fill-opacity="1" /><path clip-path="url(#clip130)" d="M1803.09 1089.07 Q1799.93 1089.07 1798.33 1092.19 Q1796.75 1095.29 1796.75 1101.53 Q1796.75 1107.75 1798.33 1110.87 Q1799.93 1113.97 1803.09 1113.97 Q1806.27 1113.97 1807.85 1110.87 Q1809.45 1107.75 1809.45 1101.53 Q1809.45 1095.29 1807.85 1092.19 Q1806.27 1089.07 1803.09 1089.07 M1803.09 1085.83 Q1808.18 1085.83 1810.85 1089.86 Q1813.54 1093.87 1813.54 1101.53 Q1813.54 1109.17 1810.85 1113.2 Q1808.18 1117.21 1803.09 1117.21 Q1798.01 1117.21 1795.32 1113.2 Q1792.64 1109.17 1792.64 1101.53 Q1792.64 1093.87 1795.32 1089.86 Q1798.01 1085.83 1803.09 1085.83 Z" fill="#000000" fill-rule="nonzero" fill-opacity="1" /><path clip-path="url(#clip130)" d="M1820.73 1111.47 L1825.01 1111.47 L1825.01 1116.62 L1820.73 1116.62 L1820.73 1111.47 Z" fill="#000000" fill-rule="nonzero" fill-opacity="1" /><path clip-path="url(#clip130)" d="M1832.89 1086.38 L1852.33 1086.38 L1852.33 1088.12 L1841.35 1116.62 L1837.08 1116.62 L1847.41 1089.82 L1832.89 1089.82 L1832.89 1086.38 Z" fill="#000000" fill-rule="nonzero" fill-opacity="1" /><path clip-path="url(#clip130)" d="M1860.35 1086.38 L1876.41 1086.38 L1876.41 1089.82 L1864.1 1089.82 L1864.1 1097.24 Q1864.99 1096.93 1865.88 1096.79 Q1866.77 1096.63 1867.66 1096.63 Q1872.73 1096.63 1875.69 1099.4 Q1878.64 1102.18 1878.64 1106.92 Q1878.64 1111.8 1875.6 1114.51 Q1872.57 1117.21 1867.04 1117.21 Q1865.13 1117.21 1863.15 1116.88 Q1861.18 1116.56 1859.08 1115.91 L1859.08 1111.8 Q1860.9 1112.79 1862.84 1113.28 Q1864.79 1113.76 1866.96 1113.76 Q1870.46 1113.76 1872.51 1111.92 Q1874.55 1110.08 1874.55 1106.92 Q1874.55 1103.76 1872.51 1101.91 Q1870.46 1100.07 1866.96 1100.07 Q1865.32 1100.07 1863.67 1100.44 Q1862.05 1100.8 1860.35 1101.57 L1860.35 1086.38 Z" fill="#000000" fill-rule="nonzero" fill-opacity="1" /><polyline clip-path="url(#clip130)" style="stroke:#3da44d; stroke-linecap:round; stroke-linejoin:round; stroke-width:7; stroke-opacity:1; fill:none" points="1561.47,1162.05 1672.64,1162.05 "/>
<path clip-path="url(#clip130)" d="M1714.02 1142.37 Q1714.02 1142.9 1713.8 1143.93 Q1713.08 1146.81 1710.4 1148.8 Q1709.94 1149.17 1709.15 1149.64 Q1710.11 1150.28 1710.95 1151.45 Q1712.2 1153.37 1712.2 1155.98 Q1712.2 1157.19 1711.87 1158.66 Q1710.95 1162.08 1707.71 1164.54 Q1704.45 1166.94 1700.58 1166.94 Q1698.49 1166.94 1697.05 1165.83 Q1695.64 1164.71 1695.09 1162.82 L1692.24 1174.32 Q1692.18 1174.61 1691.81 1174.61 L1691.6 1174.61 Q1691.17 1174.61 1691.17 1174.11 L1697.65 1148.29 Q1698.08 1146.55 1698.77 1144.91 Q1699.47 1143.27 1700.43 1141.79 Q1701.42 1140.32 1702.55 1139.23 Q1703.67 1138.13 1705.07 1137.49 Q1706.46 1136.83 1707.94 1136.83 Q1711.03 1136.83 1712.79 1138.95 Q1714.02 1140.44 1714.02 1142.37 M1711.67 1141.63 Q1711.67 1140.36 1711.15 1139.48 Q1710.11 1137.8 1707.89 1137.8 Q1706.56 1137.8 1705.29 1138.41 Q1704.04 1139.01 1703.04 1140.03 Q1702.03 1141.06 1701.17 1142.45 Q1700.31 1143.84 1699.68 1145.36 Q1699.06 1146.86 1698.65 1148.5 L1696.13 1158.66 Q1695.89 1159.75 1695.89 1160.71 Q1695.89 1163.01 1697.16 1164.5 Q1698.43 1166 1700.62 1166 Q1703.53 1166 1706.03 1163.83 Q1708.2 1161.88 1709.1 1158.46 Q1709.62 1156.3 1709.62 1154.81 Q1709.62 1153.17 1709.02 1151.9 Q1708.59 1150.87 1707.75 1150.26 Q1706.19 1150.81 1704.62 1150.81 Q1703.86 1150.81 1703.45 1150.79 Q1703.06 1150.77 1702.48 1150.69 Q1701.93 1150.61 1701.66 1150.38 Q1701.42 1150.16 1701.42 1149.81 Q1701.42 1149.6 1701.46 1149.52 Q1701.54 1149.19 1701.81 1148.97 Q1702.07 1148.74 1702.38 1148.64 Q1702.69 1148.52 1703.2 1148.45 Q1703.73 1148.39 1704.08 1148.39 Q1704.43 1148.37 1705.03 1148.37 Q1706.42 1148.37 1707.83 1148.93 Q1708.37 1148.64 1708.94 1148.13 Q1710.76 1146.43 1711.38 1143.72 Q1711.67 1142.72 1711.67 1141.63 M1706.5 1149.56 Q1705.64 1149.34 1704.98 1149.34 Q1702.59 1149.34 1702.46 1149.73 Q1702.46 1149.77 1702.55 1149.81 Q1702.63 1149.83 1702.81 1149.85 Q1703.02 1149.85 1703.18 1149.87 Q1703.37 1149.89 1703.67 1149.89 Q1703.98 1149.89 1704.14 1149.89 Q1704.33 1149.89 1704.66 1149.89 Q1705.48 1149.89 1706.5 1149.56 Z" fill="#000000" fill-rule="nonzero" fill-opacity="1" /><path clip-path="url(#clip130)" d="M1732.69 1182.44 Q1732.69 1182.55 1732.56 1183 Q1732.43 1183.44 1732.11 1184.13 Q1731.81 1184.82 1731.4 1185.45 Q1730.98 1186.07 1730.29 1186.53 Q1729.62 1186.97 1728.84 1186.97 Q1727.81 1186.97 1727.12 1186.28 Q1726.43 1185.6 1726.43 1184.56 Q1726.43 1184.42 1726.45 1184.28 Q1726.46 1184.13 1726.47 1184.05 Q1726.49 1183.95 1726.53 1183.79 Q1726.59 1183.62 1726.6 1183.54 Q1726.63 1183.47 1726.7 1183.26 Q1726.79 1183.03 1726.82 1182.94 Q1728.64 1178.29 1728.64 1176.36 Q1728.64 1174.3 1727.05 1174.3 Q1725.63 1174.3 1724.22 1175.34 Q1723.58 1175.85 1722.96 1176.77 Q1722.34 1177.69 1722.23 1178.03 Q1722.1 1178.78 1721.91 1179.35 Q1721.83 1179.76 1721.41 1181.32 L1720.76 1183.97 L1720.21 1186.2 Q1720.09 1186.51 1719.77 1186.74 Q1719.46 1186.97 1719.11 1186.97 Q1718.83 1186.97 1718.54 1186.77 Q1718.27 1186.59 1718.27 1186.14 Q1718.27 1185.91 1718.38 1185.49 L1722.64 1168.57 L1722.73 1167.99 Q1722.73 1167.82 1722.66 1167.73 Q1722.6 1167.63 1722.26 1167.56 Q1721.93 1167.49 1721.27 1167.49 Q1720.99 1167.49 1720.87 1167.48 Q1720.75 1167.46 1720.65 1167.39 Q1720.55 1167.3 1720.55 1167.13 Q1720.55 1166.89 1720.65 1166.76 Q1720.76 1166.62 1720.85 1166.59 Q1720.94 1166.56 1721.11 1166.54 Q1721.35 1166.53 1722.17 1166.46 Q1722.99 1166.37 1723.69 1166.31 Q1724.39 1166.26 1724.7 1166.26 Q1724.87 1166.26 1724.95 1166.34 Q1725.05 1166.41 1725.07 1166.5 L1725.08 1166.57 L1722.79 1175.91 Q1724.61 1173.66 1727.13 1173.66 Q1728.77 1173.66 1729.65 1174.51 Q1730.52 1175.34 1730.52 1176.8 Q1730.52 1178.48 1728.73 1183.26 Q1728.2 1184.59 1728.2 1185.35 Q1728.2 1185.85 1728.35 1186.08 Q1728.53 1186.31 1728.9 1186.31 Q1729.47 1186.31 1729.97 1185.98 Q1730.49 1185.64 1730.85 1185.08 Q1731.21 1184.5 1731.45 1183.93 Q1731.71 1183.34 1731.9 1182.68 Q1732.01 1182.32 1732.07 1182.24 Q1732.14 1182.15 1732.34 1182.15 Q1732.69 1182.15 1732.69 1182.44 Z" fill="#000000" fill-rule="nonzero" fill-opacity="1" /><path clip-path="url(#clip130)" d="M1748.67 1160.1 Q1748.71 1159.58 1749.51 1159.58 L1775.23 1159.58 Q1776.44 1159.58 1776.46 1160.05 Q1776.46 1160.57 1775.31 1160.55 L1749.79 1160.55 Q1748.67 1160.57 1748.67 1160.1 M1748.67 1151.9 Q1748.67 1151.39 1749.55 1151.41 L1775.19 1151.41 Q1776.44 1151.41 1776.46 1151.9 Q1776.46 1152.37 1775.39 1152.37 L1749.51 1152.37 Q1748.67 1152.37 1748.67 1151.9 Z" fill="#000000" fill-rule="nonzero" fill-opacity="1" /><path clip-path="url(#clip130)" d="M1793.23 1163.03 L1799.91 1163.03 L1799.91 1139.96 L1792.64 1141.41 L1792.64 1137.69 L1799.87 1136.23 L1803.96 1136.23 L1803.96 1163.03 L1810.65 1163.03 L1810.65 1166.47 L1793.23 1166.47 L1793.23 1163.03 Z" fill="#000000" fill-rule="nonzero" fill-opacity="1" /><path clip-path="url(#clip130)" d="M1818.91 1161.32 L1823.19 1161.32 L1823.19 1166.47 L1818.91 1166.47 L1818.91 1161.32 Z" fill="#000000" fill-rule="nonzero" fill-opacity="1" /><path clip-path="url(#clip130)" d="M1840.85 1138.92 Q1837.69 1138.92 1836.09 1142.04 Q1834.51 1145.14 1834.51 1151.38 Q1834.51 1157.6 1836.09 1160.72 Q1837.69 1163.82 1840.85 1163.82 Q1844.03 1163.82 1845.61 1160.72 Q1847.21 1157.6 1847.21 1151.38 Q1847.21 1145.14 1845.61 1142.04 Q1844.03 1138.92 1840.85 1138.92 M1840.85 1135.68 Q1845.93 1135.68 1848.61 1139.71 Q1851.3 1143.72 1851.3 1151.38 Q1851.3 1159.02 1848.61 1163.05 Q1845.93 1167.06 1840.85 1167.06 Q1835.76 1167.06 1833.07 1163.05 Q1830.4 1159.02 1830.4 1151.38 Q1830.4 1143.72 1833.07 1139.71 Q1835.76 1135.68 1840.85 1135.68 Z" fill="#000000" fill-rule="nonzero" fill-opacity="1" /><polyline clip-path="url(#clip130)" style="stroke:#c271d2; stroke-linecap:round; stroke-linejoin:round; stroke-width:7; stroke-opacity:1; fill:none" points="1561.47,1211.9 1672.64,1211.9 "/>
<path clip-path="url(#clip130)" d="M1714.02 1192.22 Q1714.02 1192.75 1713.8 1193.78 Q1713.08 1196.67 1710.4 1198.65 Q1709.94 1199.02 1709.15 1199.49 Q1710.11 1200.13 1710.95 1201.3 Q1712.2 1203.22 1712.2 1205.83 Q1712.2 1207.04 1711.87 1208.51 Q1710.95 1211.93 1707.71 1214.39 Q1704.45 1216.79 1700.58 1216.79 Q1698.49 1216.79 1697.05 1215.68 Q1695.64 1214.56 1695.09 1212.67 L1692.24 1224.17 Q1692.18 1224.46 1691.81 1224.46 L1691.6 1224.46 Q1691.17 1224.46 1691.17 1223.96 L1697.65 1198.14 Q1698.08 1196.4 1698.77 1194.76 Q1699.47 1193.12 1700.43 1191.64 Q1701.42 1190.17 1702.55 1189.08 Q1703.67 1187.98 1705.07 1187.34 Q1706.46 1186.68 1707.94 1186.68 Q1711.03 1186.68 1712.79 1188.8 Q1714.02 1190.29 1714.02 1192.22 M1711.67 1191.48 Q1711.67 1190.21 1711.15 1189.33 Q1710.11 1187.65 1707.89 1187.65 Q1706.56 1187.65 1705.29 1188.26 Q1704.04 1188.86 1703.04 1189.88 Q1702.03 1190.91 1701.17 1192.3 Q1700.31 1193.69 1699.68 1195.21 Q1699.06 1196.71 1698.65 1198.35 L1696.13 1208.51 Q1695.89 1209.6 1695.89 1210.56 Q1695.89 1212.86 1697.16 1214.35 Q1698.43 1215.85 1700.62 1215.85 Q1703.53 1215.85 1706.03 1213.68 Q1708.2 1211.73 1709.1 1208.31 Q1709.62 1206.15 1709.62 1204.66 Q1709.62 1203.02 1709.02 1201.75 Q1708.59 1200.72 1707.75 1200.11 Q1706.19 1200.66 1704.62 1200.66 Q1703.86 1200.66 1703.45 1200.64 Q1703.06 1200.62 1702.48 1200.54 Q1701.93 1200.46 1701.66 1200.23 Q1701.42 1200.01 1701.42 1199.66 Q1701.42 1199.45 1701.46 1199.37 Q1701.54 1199.04 1701.81 1198.82 Q1702.07 1198.59 1702.38 1198.49 Q1702.69 1198.37 1703.2 1198.3 Q1703.73 1198.24 1704.08 1198.24 Q1704.43 1198.22 1705.03 1198.22 Q1706.42 1198.22 1707.83 1198.78 Q1708.37 1198.49 1708.94 1197.98 Q1710.76 1196.28 1711.38 1193.57 Q1711.67 1192.57 1711.67 1191.48 M1706.5 1199.41 Q1705.64 1199.19 1704.98 1199.19 Q1702.59 1199.19 1702.46 1199.58 Q1702.46 1199.62 1702.55 1199.66 Q1702.63 1199.68 1702.81 1199.7 Q1703.02 1199.7 1703.18 1199.72 Q1703.37 1199.74 1703.67 1199.74 Q1703.98 1199.74 1704.14 1199.74 Q1704.33 1199.74 1704.66 1199.74 Q1705.48 1199.74 1706.5 1199.41 Z" fill="#000000" fill-rule="nonzero" fill-opacity="1" /><path clip-path="url(#clip130)" d="M1732.69 1232.29 Q1732.69 1232.4 1732.56 1232.85 Q1732.43 1233.29 1732.11 1233.98 Q1731.81 1234.67 1731.4 1235.3 Q1730.98 1235.92 1730.29 1236.38 Q1729.62 1236.82 1728.84 1236.82 Q1727.81 1236.82 1727.12 1236.13 Q1726.43 1235.45 1726.43 1234.41 Q1726.43 1234.27 1726.45 1234.13 Q1726.46 1233.98 1726.47 1233.9 Q1726.49 1233.8 1726.53 1233.64 Q1726.59 1233.47 1726.6 1233.39 Q1726.63 1233.32 1726.7 1233.11 Q1726.79 1232.88 1726.82 1232.79 Q1728.64 1228.14 1728.64 1226.21 Q1728.64 1224.15 1727.05 1224.15 Q1725.63 1224.15 1724.22 1225.19 Q1723.58 1225.7 1722.96 1226.62 Q1722.34 1227.54 1722.23 1227.88 Q1722.1 1228.63 1721.91 1229.2 Q1721.83 1229.61 1721.41 1231.17 L1720.76 1233.82 L1720.21 1236.05 Q1720.09 1236.36 1719.77 1236.59 Q1719.46 1236.82 1719.11 1236.82 Q1718.83 1236.82 1718.54 1236.62 Q1718.27 1236.44 1718.27 1235.99 Q1718.27 1235.76 1718.38 1235.35 L1722.64 1218.42 L1722.73 1217.84 Q1722.73 1217.67 1722.66 1217.58 Q1722.6 1217.48 1722.26 1217.41 Q1721.93 1217.34 1721.27 1217.34 Q1720.99 1217.34 1720.87 1217.33 Q1720.75 1217.31 1720.65 1217.24 Q1720.55 1217.15 1720.55 1216.98 Q1720.55 1216.74 1720.65 1216.61 Q1720.76 1216.47 1720.85 1216.44 Q1720.94 1216.41 1721.11 1216.39 Q1721.35 1216.38 1722.17 1216.31 Q1722.99 1216.22 1723.69 1216.16 Q1724.39 1216.11 1724.7 1216.11 Q1724.87 1216.11 1724.95 1216.19 Q1725.05 1216.26 1725.07 1216.35 L1725.08 1216.42 L1722.79 1225.76 Q1724.61 1223.51 1727.13 1223.51 Q1728.77 1223.51 1729.65 1224.36 Q1730.52 1225.19 1730.52 1226.65 Q1730.52 1228.33 1728.73 1233.11 Q1728.2 1234.44 1728.2 1235.2 Q1728.2 1235.7 1728.35 1235.93 Q1728.53 1236.16 1728.9 1236.16 Q1729.47 1236.16 1729.97 1235.83 Q1730.49 1235.49 1730.85 1234.93 Q1731.21 1234.36 1731.45 1233.78 Q1731.71 1233.19 1731.9 1232.53 Q1732.01 1232.17 1732.07 1232.09 Q1732.14 1232 1732.34 1232 Q1732.69 1232 1732.69 1232.29 Z" fill="#000000" fill-rule="nonzero" fill-opacity="1" /><path clip-path="url(#clip130)" d="M1748.67 1209.95 Q1748.71 1209.43 1749.51 1209.43 L1775.23 1209.43 Q1776.44 1209.43 1776.46 1209.9 Q1776.46 1210.42 1775.31 1210.4 L1749.79 1210.4 Q1748.67 1210.42 1748.67 1209.95 M1748.67 1201.75 Q1748.67 1201.24 1749.55 1201.26 L1775.19 1201.26 Q1776.44 1201.26 1776.46 1201.75 Q1776.46 1202.22 1775.39 1202.22 L1749.51 1202.22 Q1748.67 1202.22 1748.67 1201.75 Z" fill="#000000" fill-rule="nonzero" fill-opacity="1" /><path clip-path="url(#clip130)" d="M1793.23 1212.88 L1799.91 1212.88 L1799.91 1189.81 L1792.64 1191.26 L1792.64 1187.54 L1799.87 1186.08 L1803.96 1186.08 L1803.96 1212.88 L1810.65 1212.88 L1810.65 1216.32 L1793.23 1216.32 L1793.23 1212.88 Z" fill="#000000" fill-rule="nonzero" fill-opacity="1" /><path clip-path="url(#clip130)" d="M1818.91 1211.17 L1823.19 1211.17 L1823.19 1216.32 L1818.91 1216.32 L1818.91 1211.17 Z" fill="#000000" fill-rule="nonzero" fill-opacity="1" /><path clip-path="url(#clip130)" d="M1835.62 1212.88 L1849.9 1212.88 L1849.9 1216.32 L1830.7 1216.32 L1830.7 1212.88 Q1833.03 1210.47 1837.04 1206.42 Q1841.07 1202.34 1842.1 1201.17 Q1844.07 1198.96 1844.84 1197.44 Q1845.63 1195.9 1845.63 1194.42 Q1845.63 1192.01 1843.93 1190.5 Q1842.25 1188.98 1839.53 1188.98 Q1837.61 1188.98 1835.46 1189.64 Q1833.33 1190.31 1830.9 1191.67 L1830.9 1187.54 Q1833.37 1186.55 1835.52 1186.04 Q1837.67 1185.53 1839.45 1185.53 Q1844.15 1185.53 1846.94 1187.88 Q1849.74 1190.23 1849.74 1194.16 Q1849.74 1196.02 1849.03 1197.71 Q1848.34 1199.37 1846.5 1201.64 Q1845.99 1202.22 1843.28 1205.04 Q1840.56 1207.83 1835.62 1212.88 Z" fill="#000000" fill-rule="nonzero" fill-opacity="1" /><path clip-path="url(#clip130)" d="M1858.53 1186.08 L1874.59 1186.08 L1874.59 1189.52 L1862.28 1189.52 L1862.28 1196.94 Q1863.17 1196.63 1864.06 1196.49 Q1864.95 1196.33 1865.84 1196.33 Q1870.91 1196.33 1873.86 1199.1 Q1876.82 1201.88 1876.82 1206.62 Q1876.82 1211.5 1873.78 1214.21 Q1870.74 1216.91 1865.21 1216.91 Q1863.31 1216.91 1861.33 1216.58 Q1859.36 1216.26 1857.25 1215.61 L1857.25 1211.5 Q1859.08 1212.49 1861.02 1212.98 Q1862.97 1213.46 1865.13 1213.46 Q1868.64 1213.46 1870.68 1211.62 Q1872.73 1209.78 1872.73 1206.62 Q1872.73 1203.46 1870.68 1201.61 Q1868.64 1199.77 1865.13 1199.77 Q1863.49 1199.77 1861.85 1200.14 Q1860.23 1200.5 1858.53 1201.27 L1858.53 1186.08 Z" fill="#000000" fill-rule="nonzero" fill-opacity="1" /><polyline clip-path="url(#clip130)" style="stroke:#ac8d18; stroke-linecap:round; stroke-linejoin:round; stroke-width:7; stroke-opacity:1; fill:none" points="1561.47,1261.75 1672.64,1261.75 "/>
<path clip-path="url(#clip130)" d="M1714.02 1242.07 Q1714.02 1242.6 1713.8 1243.63 Q1713.08 1246.52 1710.4 1248.5 Q1709.94 1248.87 1709.15 1249.34 Q1710.11 1249.98 1710.95 1251.15 Q1712.2 1253.07 1712.2 1255.68 Q1712.2 1256.89 1711.87 1258.36 Q1710.95 1261.78 1707.71 1264.24 Q1704.45 1266.64 1700.58 1266.64 Q1698.49 1266.64 1697.05 1265.53 Q1695.64 1264.41 1695.09 1262.52 L1692.24 1274.02 Q1692.18 1274.31 1691.81 1274.31 L1691.6 1274.31 Q1691.17 1274.31 1691.17 1273.81 L1697.65 1247.99 Q1698.08 1246.25 1698.77 1244.61 Q1699.47 1242.97 1700.43 1241.49 Q1701.42 1240.02 1702.55 1238.93 Q1703.67 1237.83 1705.07 1237.19 Q1706.46 1236.53 1707.94 1236.53 Q1711.03 1236.53 1712.79 1238.65 Q1714.02 1240.14 1714.02 1242.07 M1711.67 1241.33 Q1711.67 1240.06 1711.15 1239.18 Q1710.11 1237.5 1707.89 1237.5 Q1706.56 1237.5 1705.29 1238.11 Q1704.04 1238.71 1703.04 1239.73 Q1702.03 1240.76 1701.17 1242.15 Q1700.31 1243.54 1699.68 1245.06 Q1699.06 1246.56 1698.65 1248.2 L1696.13 1258.36 Q1695.89 1259.45 1695.89 1260.41 Q1695.89 1262.71 1697.16 1264.2 Q1698.43 1265.7 1700.62 1265.7 Q1703.53 1265.7 1706.03 1263.53 Q1708.2 1261.58 1709.1 1258.16 Q1709.62 1256 1709.62 1254.51 Q1709.62 1252.87 1709.02 1251.6 Q1708.59 1250.57 1707.75 1249.96 Q1706.19 1250.51 1704.62 1250.51 Q1703.86 1250.51 1703.45 1250.49 Q1703.06 1250.47 1702.48 1250.39 Q1701.93 1250.31 1701.66 1250.08 Q1701.42 1249.86 1701.42 1249.51 Q1701.42 1249.3 1701.46 1249.22 Q1701.54 1248.89 1701.81 1248.67 Q1702.07 1248.44 1702.38 1248.34 Q1702.69 1248.22 1703.2 1248.16 Q1703.73 1248.09 1704.08 1248.09 Q1704.43 1248.07 1705.03 1248.07 Q1706.42 1248.07 1707.83 1248.63 Q1708.37 1248.34 1708.94 1247.83 Q1710.76 1246.13 1711.38 1243.42 Q1711.67 1242.42 1711.67 1241.33 M1706.5 1249.26 Q1705.64 1249.04 1704.98 1249.04 Q1702.59 1249.04 1702.46 1249.43 Q1702.46 1249.47 1702.55 1249.51 Q1702.63 1249.53 1702.81 1249.55 Q1703.02 1249.55 1703.18 1249.57 Q1703.37 1249.59 1703.67 1249.59 Q1703.98 1249.59 1704.14 1249.59 Q1704.33 1249.59 1704.66 1249.59 Q1705.48 1249.59 1706.5 1249.26 Z" fill="#000000" fill-rule="nonzero" fill-opacity="1" /><path clip-path="url(#clip130)" d="M1732.69 1282.14 Q1732.69 1282.25 1732.56 1282.7 Q1732.43 1283.14 1732.11 1283.83 Q1731.81 1284.52 1731.4 1285.15 Q1730.98 1285.77 1730.29 1286.23 Q1729.62 1286.67 1728.84 1286.67 Q1727.81 1286.67 1727.12 1285.98 Q1726.43 1285.3 1726.43 1284.26 Q1726.43 1284.12 1726.45 1283.98 Q1726.46 1283.83 1726.47 1283.75 Q1726.49 1283.65 1726.53 1283.49 Q1726.59 1283.32 1726.6 1283.24 Q1726.63 1283.17 1726.7 1282.96 Q1726.79 1282.73 1726.82 1282.64 Q1728.64 1277.99 1728.64 1276.06 Q1728.64 1274.01 1727.05 1274.01 Q1725.63 1274.01 1724.22 1275.04 Q1723.58 1275.55 1722.96 1276.47 Q1722.34 1277.39 1722.23 1277.74 Q1722.1 1278.48 1721.91 1279.06 Q1721.83 1279.46 1721.41 1281.02 L1720.76 1283.67 L1720.21 1285.9 Q1720.09 1286.21 1719.77 1286.44 Q1719.46 1286.67 1719.11 1286.67 Q1718.83 1286.67 1718.54 1286.47 Q1718.27 1286.29 1718.27 1285.84 Q1718.27 1285.61 1718.38 1285.2 L1722.64 1268.27 L1722.73 1267.69 Q1722.73 1267.52 1722.66 1267.43 Q1722.6 1267.33 1722.26 1267.26 Q1721.93 1267.19 1721.27 1267.19 Q1720.99 1267.19 1720.87 1267.18 Q1720.75 1267.16 1720.65 1267.09 Q1720.55 1267 1720.55 1266.83 Q1720.55 1266.59 1720.65 1266.46 Q1720.76 1266.32 1720.85 1266.29 Q1720.94 1266.26 1721.11 1266.24 Q1721.35 1266.23 1722.17 1266.16 Q1722.99 1266.07 1723.69 1266.01 Q1724.39 1265.96 1724.7 1265.96 Q1724.87 1265.96 1724.95 1266.04 Q1725.05 1266.11 1725.07 1266.2 L1725.08 1266.27 L1722.79 1275.61 Q1724.61 1273.36 1727.13 1273.36 Q1728.77 1273.36 1729.65 1274.21 Q1730.52 1275.04 1730.52 1276.5 Q1730.52 1278.18 1728.73 1282.96 Q1728.2 1284.29 1728.2 1285.05 Q1728.2 1285.55 1728.35 1285.78 Q1728.53 1286.01 1728.9 1286.01 Q1729.47 1286.01 1729.97 1285.68 Q1730.49 1285.34 1730.85 1284.78 Q1731.21 1284.21 1731.45 1283.63 Q1731.71 1283.04 1731.9 1282.38 Q1732.01 1282.02 1732.07 1281.94 Q1732.14 1281.85 1732.34 1281.85 Q1732.69 1281.85 1732.69 1282.14 Z" fill="#000000" fill-rule="nonzero" fill-opacity="1" /><path clip-path="url(#clip130)" d="M1748.67 1259.8 Q1748.71 1259.28 1749.51 1259.28 L1775.23 1259.28 Q1776.44 1259.28 1776.46 1259.76 Q1776.46 1260.27 1775.31 1260.25 L1749.79 1260.25 Q1748.67 1260.27 1748.67 1259.8 M1748.67 1251.6 Q1748.67 1251.09 1749.55 1251.11 L1775.19 1251.11 Q1776.44 1251.11 1776.46 1251.6 Q1776.46 1252.07 1775.39 1252.07 L1749.51 1252.07 Q1748.67 1252.07 1748.67 1251.6 Z" fill="#000000" fill-rule="nonzero" fill-opacity="1" /><path clip-path="url(#clip130)" d="M1793.23 1262.73 L1799.91 1262.73 L1799.91 1239.66 L1792.64 1241.11 L1792.64 1237.39 L1799.87 1235.93 L1803.96 1235.93 L1803.96 1262.73 L1810.65 1262.73 L1810.65 1266.17 L1793.23 1266.17 L1793.23 1262.73 Z" fill="#000000" fill-rule="nonzero" fill-opacity="1" /><path clip-path="url(#clip130)" d="M1818.91 1261.03 L1823.19 1261.03 L1823.19 1266.17 L1818.91 1266.17 L1818.91 1261.03 Z" fill="#000000" fill-rule="nonzero" fill-opacity="1" /><path clip-path="url(#clip130)" d="M1832.14 1235.93 L1848.2 1235.93 L1848.2 1239.37 L1835.89 1239.37 L1835.89 1246.79 Q1836.78 1246.48 1837.67 1246.34 Q1838.56 1246.18 1839.45 1246.18 Q1844.51 1246.18 1847.47 1248.95 Q1850.43 1251.73 1850.43 1256.47 Q1850.43 1261.35 1847.39 1264.06 Q1844.35 1266.76 1838.82 1266.76 Q1836.92 1266.76 1834.93 1266.43 Q1832.97 1266.11 1830.86 1265.46 L1830.86 1261.35 Q1832.69 1262.34 1834.63 1262.83 Q1836.57 1263.31 1838.74 1263.31 Q1842.25 1263.31 1844.29 1261.47 Q1846.34 1259.63 1846.34 1256.47 Q1846.34 1253.31 1844.29 1251.47 Q1842.25 1249.62 1838.74 1249.62 Q1837.1 1249.62 1835.46 1249.99 Q1833.84 1250.35 1832.14 1251.12 L1832.14 1235.93 Z" fill="#000000" fill-rule="nonzero" fill-opacity="1" /><polyline clip-path="url(#clip130)" style="stroke:#00a9ad; stroke-linecap:round; stroke-linejoin:round; stroke-width:7; stroke-opacity:1; fill:none" points="1561.47,1311.6 1672.64,1311.6 "/>
<path clip-path="url(#clip130)" d="M1714.02 1291.92 Q1714.02 1292.45 1713.8 1293.48 Q1713.08 1296.37 1710.4 1298.35 Q1709.94 1298.72 1709.15 1299.19 Q1710.11 1299.83 1710.95 1301 Q1712.2 1302.92 1712.2 1305.53 Q1712.2 1306.74 1711.87 1308.21 Q1710.95 1311.63 1707.71 1314.09 Q1704.45 1316.49 1700.58 1316.49 Q1698.49 1316.49 1697.05 1315.38 Q1695.64 1314.26 1695.09 1312.37 L1692.24 1323.87 Q1692.18 1324.16 1691.81 1324.16 L1691.6 1324.16 Q1691.17 1324.16 1691.17 1323.66 L1697.65 1297.84 Q1698.08 1296.1 1698.77 1294.46 Q1699.47 1292.82 1700.43 1291.34 Q1701.42 1289.87 1702.55 1288.78 Q1703.67 1287.68 1705.07 1287.04 Q1706.46 1286.38 1707.94 1286.38 Q1711.03 1286.38 1712.79 1288.5 Q1714.02 1289.99 1714.02 1291.92 M1711.67 1291.18 Q1711.67 1289.91 1711.15 1289.03 Q1710.11 1287.35 1707.89 1287.35 Q1706.56 1287.35 1705.29 1287.96 Q1704.04 1288.56 1703.04 1289.58 Q1702.03 1290.61 1701.17 1292 Q1700.31 1293.39 1699.68 1294.91 Q1699.06 1296.41 1698.65 1298.05 L1696.13 1308.21 Q1695.89 1309.3 1695.89 1310.26 Q1695.89 1312.56 1697.16 1314.05 Q1698.43 1315.55 1700.62 1315.55 Q1703.53 1315.55 1706.03 1313.38 Q1708.2 1311.43 1709.1 1308.01 Q1709.62 1305.85 1709.62 1304.36 Q1709.62 1302.72 1709.02 1301.45 Q1708.59 1300.42 1707.75 1299.81 Q1706.19 1300.36 1704.62 1300.36 Q1703.86 1300.36 1703.45 1300.34 Q1703.06 1300.32 1702.48 1300.24 Q1701.93 1300.16 1701.66 1299.93 Q1701.42 1299.71 1701.42 1299.36 Q1701.42 1299.15 1701.46 1299.07 Q1701.54 1298.74 1701.81 1298.52 Q1702.07 1298.29 1702.38 1298.19 Q1702.69 1298.07 1703.2 1298.01 Q1703.73 1297.94 1704.08 1297.94 Q1704.43 1297.92 1705.03 1297.92 Q1706.42 1297.92 1707.83 1298.48 Q1708.37 1298.19 1708.94 1297.68 Q1710.76 1295.98 1711.38 1293.27 Q1711.67 1292.27 1711.67 1291.18 M1706.5 1299.11 Q1705.64 1298.89 1704.98 1298.89 Q1702.59 1298.89 1702.46 1299.28 Q1702.46 1299.32 1702.55 1299.36 Q1702.63 1299.38 1702.81 1299.4 Q1703.02 1299.4 1703.18 1299.42 Q1703.37 1299.44 1703.67 1299.44 Q1703.98 1299.44 1704.14 1299.44 Q1704.33 1299.44 1704.66 1299.44 Q1705.48 1299.44 1706.5 1299.11 Z" fill="#000000" fill-rule="nonzero" fill-opacity="1" /><path clip-path="url(#clip130)" d="M1732.69 1331.99 Q1732.69 1332.1 1732.56 1332.55 Q1732.43 1332.99 1732.11 1333.68 Q1731.81 1334.37 1731.4 1335 Q1730.98 1335.62 1730.29 1336.08 Q1729.62 1336.52 1728.84 1336.52 Q1727.81 1336.52 1727.12 1335.83 Q1726.43 1335.15 1726.43 1334.11 Q1726.43 1333.97 1726.45 1333.83 Q1726.46 1333.68 1726.47 1333.6 Q1726.49 1333.5 1726.53 1333.34 Q1726.59 1333.17 1726.6 1333.09 Q1726.63 1333.02 1726.7 1332.81 Q1726.79 1332.58 1726.82 1332.49 Q1728.64 1327.84 1728.64 1325.91 Q1728.64 1323.86 1727.05 1323.86 Q1725.63 1323.86 1724.22 1324.89 Q1723.58 1325.4 1722.96 1326.32 Q1722.34 1327.24 1722.23 1327.59 Q1722.1 1328.33 1721.91 1328.91 Q1721.83 1329.31 1721.41 1330.87 L1720.76 1333.52 L1720.21 1335.75 Q1720.09 1336.06 1719.77 1336.29 Q1719.46 1336.52 1719.11 1336.52 Q1718.83 1336.52 1718.54 1336.32 Q1718.27 1336.14 1718.27 1335.69 Q1718.27 1335.46 1718.38 1335.05 L1722.64 1318.12 L1722.73 1317.54 Q1722.73 1317.37 1722.66 1317.28 Q1722.6 1317.18 1722.26 1317.11 Q1721.93 1317.04 1721.27 1317.04 Q1720.99 1317.04 1720.87 1317.03 Q1720.75 1317.01 1720.65 1316.94 Q1720.55 1316.85 1720.55 1316.68 Q1720.55 1316.44 1720.65 1316.31 Q1720.76 1316.17 1720.85 1316.14 Q1720.94 1316.11 1721.11 1316.09 Q1721.35 1316.08 1722.17 1316.01 Q1722.99 1315.92 1723.69 1315.86 Q1724.39 1315.81 1724.7 1315.81 Q1724.87 1315.81 1724.95 1315.89 Q1725.05 1315.97 1725.07 1316.05 L1725.08 1316.12 L1722.79 1325.46 Q1724.61 1323.21 1727.13 1323.21 Q1728.77 1323.21 1729.65 1324.06 Q1730.52 1324.89 1730.52 1326.35 Q1730.52 1328.03 1728.73 1332.81 Q1728.2 1334.14 1728.2 1334.9 Q1728.2 1335.4 1728.35 1335.63 Q1728.53 1335.86 1728.9 1335.86 Q1729.47 1335.86 1729.97 1335.53 Q1730.49 1335.19 1730.85 1334.63 Q1731.21 1334.06 1731.45 1333.48 Q1731.71 1332.89 1731.9 1332.23 Q1732.01 1331.88 1732.07 1331.79 Q1732.14 1331.7 1732.34 1331.7 Q1732.69 1331.7 1732.69 1331.99 Z" fill="#000000" fill-rule="nonzero" fill-opacity="1" /><path clip-path="url(#clip130)" d="M1748.67 1309.65 Q1748.71 1309.13 1749.51 1309.13 L1775.23 1309.13 Q1776.44 1309.13 1776.46 1309.61 Q1776.46 1310.12 1775.31 1310.1 L1749.79 1310.1 Q1748.67 1310.12 1748.67 1309.65 M1748.67 1301.45 Q1748.67 1300.94 1749.55 1300.96 L1775.19 1300.96 Q1776.44 1300.96 1776.46 1301.45 Q1776.46 1301.92 1775.39 1301.92 L1749.51 1301.92 Q1748.67 1301.92 1748.67 1301.45 Z" fill="#000000" fill-rule="nonzero" fill-opacity="1" /><path clip-path="url(#clip130)" d="M1793.23 1312.58 L1799.91 1312.58 L1799.91 1289.51 L1792.64 1290.97 L1792.64 1287.24 L1799.87 1285.78 L1803.96 1285.78 L1803.96 1312.58 L1810.65 1312.58 L1810.65 1316.02 L1793.23 1316.02 L1793.23 1312.58 Z" fill="#000000" fill-rule="nonzero" fill-opacity="1" /><path clip-path="url(#clip130)" d="M1818.91 1310.88 L1823.19 1310.88 L1823.19 1316.02 L1818.91 1316.02 L1818.91 1310.88 Z" fill="#000000" fill-rule="nonzero" fill-opacity="1" /><path clip-path="url(#clip130)" d="M1831.06 1285.78 L1850.51 1285.78 L1850.51 1287.52 L1839.53 1316.02 L1835.26 1316.02 L1845.59 1289.22 L1831.06 1289.22 L1831.06 1285.78 Z" fill="#000000" fill-rule="nonzero" fill-opacity="1" /><path clip-path="url(#clip130)" d="M1858.53 1285.78 L1874.59 1285.78 L1874.59 1289.22 L1862.28 1289.22 L1862.28 1296.64 Q1863.17 1296.33 1864.06 1296.19 Q1864.95 1296.03 1865.84 1296.03 Q1870.91 1296.03 1873.86 1298.8 Q1876.82 1301.58 1876.82 1306.32 Q1876.82 1311.2 1873.78 1313.91 Q1870.74 1316.61 1865.21 1316.61 Q1863.31 1316.61 1861.33 1316.28 Q1859.36 1315.96 1857.25 1315.31 L1857.25 1311.2 Q1859.08 1312.19 1861.02 1312.68 Q1862.97 1313.16 1865.13 1313.16 Q1868.64 1313.16 1870.68 1311.32 Q1872.73 1309.48 1872.73 1306.32 Q1872.73 1303.16 1870.68 1301.32 Q1868.64 1299.47 1865.13 1299.47 Q1863.49 1299.47 1861.85 1299.84 Q1860.23 1300.2 1858.53 1300.97 L1858.53 1285.78 Z" fill="#000000" fill-rule="nonzero" fill-opacity="1" /></svg>
