<?xml version="1.0" encoding="utf-8"?>
<svg xmlns="http://www.w3.org/2000/svg" xmlns:xlink="http://www.w3.org/1999/xlink" width="400" height="400" viewBox="0 0 1600 1600">
<defs>
  <clipPath id="clip110">
    <rect x="0" y="0" width="1600" height="1600"/>
  </clipPath>
</defs>
<path clip-path="url(#clip110)" d="M0 1600 L1600 1600 L1600 0 L0 0  Z" fill="#ffffff" fill-rule="evenodd" fill-opacity="1"/>
<defs>
  <clipPath id="clip111">
    <rect x="320" y="160" width="1121" height="1121"/>
  </clipPath>
</defs>
<path clip-path="url(#clip110)" d="M235.626 1382.14 L1521.26 1382.14 L1521.26 47.2441 L235.626 47.2441  Z" fill="#ffffff" fill-rule="evenodd" fill-opacity="1"/>
<defs>
  <clipPath id="clip112">
    <rect x="235" y="47" width="1287" height="1336"/>
  </clipPath>
</defs>
<polyline clip-path="url(#clip112)" style="stroke:#000000; stroke-linecap:round; stroke-linejoin:round; stroke-width:2; stroke-opacity:0.1; fill:none" points="235.626,1382.14 235.626,47.2441 "/>
<polyline clip-path="url(#clip112)" style="stroke:#000000; stroke-linecap:round; stroke-linejoin:round; stroke-width:2; stroke-opacity:0.1; fill:none" points="664.171,1382.14 664.171,47.2441 "/>
<polyline clip-path="url(#clip112)" style="stroke:#000000; stroke-linecap:round; stroke-linejoin:round; stroke-width:2; stroke-opacity:0.1; fill:none" points="1092.72,1382.14 1092.72,47.2441 "/>
<polyline clip-path="url(#clip112)" style="stroke:#000000; stroke-linecap:round; stroke-linejoin:round; stroke-width:2; stroke-opacity:0.1; fill:none" points="1521.26,1382.14 1521.26,47.2441 "/>
<polyline clip-path="url(#clip112)" style="stroke:#000000; stroke-linecap:round; stroke-linejoin:round; stroke-width:2; stroke-opacity:0.1; fill:none" points="235.626,1382.14 1521.26,1382.14 "/>
<polyline clip-path="url(#clip112)" style="stroke:#000000; stroke-linecap:round; stroke-linejoin:round; stroke-width:2; stroke-opacity:0.1; fill:none" points="235.626,1115.16 1521.26,1115.16 "/>
<polyline clip-path="url(#clip112)" style="stroke:#000000; stroke-linecap:round; stroke-linejoin:round; stroke-width:2; stroke-opacity:0.1; fill:none" points="235.626,848.182 1521.26,848.182 "/>
<polyline clip-path="url(#clip112)" style="stroke:#000000; stroke-linecap:round; stroke-linejoin:round; stroke-width:2; stroke-opacity:0.1; fill:none" points="235.626,581.202 1521.26,581.202 "/>
<polyline clip-path="url(#clip112)" style="stroke:#000000; stroke-linecap:round; stroke-linejoin:round; stroke-width:2; stroke-opacity:0.1; fill:none" points="235.626,314.223 1521.26,314.223 "/>
<polyline clip-path="url(#clip112)" style="stroke:#000000; stroke-linecap:round; stroke-linejoin:round; stroke-width:2; stroke-opacity:0.1; fill:none" points="235.626,47.2441 1521.26,47.2441 "/>
<polyline clip-path="url(#clip110)" style="stroke:#000000; stroke-linecap:round; stroke-linejoin:round; stroke-width:4; stroke-opacity:1; fill:none" points="235.626,1382.14 1521.26,1382.14 "/>
<polyline clip-path="url(#clip110)" style="stroke:#000000; stroke-linecap:round; stroke-linejoin:round; stroke-width:4; stroke-opacity:1; fill:none" points="235.626,1382.14 235.626,1363.24 "/>
<polyline clip-path="url(#clip110)" style="stroke:#000000; stroke-linecap:round; stroke-linejoin:round; stroke-width:4; stroke-opacity:1; fill:none" points="664.171,1382.14 664.171,1363.24 "/>
<polyline clip-path="url(#clip110)" style="stroke:#000000; stroke-linecap:round; stroke-linejoin:round; stroke-width:4; stroke-opacity:1; fill:none" points="1092.72,1382.14 1092.72,1363.24 "/>
<polyline clip-path="url(#clip110)" style="stroke:#000000; stroke-linecap:round; stroke-linejoin:round; stroke-width:4; stroke-opacity:1; fill:none" points="1521.26,1382.14 1521.26,1363.24 "/>
<path clip-path="url(#clip110)" d="M235.626 1406.66 Q232.015 1406.66 230.186 1410.22 Q228.381 1413.76 228.381 1420.89 Q228.381 1428 230.186 1431.57 Q232.015 1435.11 235.626 1435.11 Q239.261 1435.11 241.066 1431.57 Q242.895 1428 242.895 1420.89 Q242.895 1413.76 241.066 1410.22 Q239.261 1406.66 235.626 1406.66 M235.626 1402.95 Q241.436 1402.95 244.492 1407.56 Q247.571 1412.14 247.571 1420.89 Q247.571 1429.62 244.492 1434.23 Q241.436 1438.81 235.626 1438.81 Q229.816 1438.81 226.737 1434.23 Q223.682 1429.62 223.682 1420.89 Q223.682 1412.14 226.737 1407.56 Q229.816 1402.95 235.626 1402.95 Z" fill="#000000" fill-rule="nonzero" fill-opacity="1" /><path clip-path="url(#clip110)" d="M623.789 1403.58 L642.145 1403.58 L642.145 1407.52 L628.071 1407.52 L628.071 1415.99 Q629.09 1415.64 630.108 1415.48 Q631.127 1415.29 632.146 1415.29 Q637.933 1415.29 641.312 1418.46 Q644.692 1421.64 644.692 1427.05 Q644.692 1432.63 641.22 1435.73 Q637.747 1438.81 631.428 1438.81 Q629.252 1438.81 626.983 1438.44 Q624.738 1438.07 622.331 1437.33 L622.331 1432.63 Q624.414 1433.76 626.636 1434.32 Q628.858 1434.88 631.335 1434.88 Q635.34 1434.88 637.678 1432.77 Q640.016 1430.66 640.016 1427.05 Q640.016 1423.44 637.678 1421.33 Q635.34 1419.23 631.335 1419.23 Q629.46 1419.23 627.585 1419.64 Q625.733 1420.06 623.789 1420.94 L623.789 1403.58 Z" fill="#000000" fill-rule="nonzero" fill-opacity="1" /><path clip-path="url(#clip110)" d="M663.905 1406.66 Q660.293 1406.66 658.465 1410.22 Q656.659 1413.76 656.659 1420.89 Q656.659 1428 658.465 1431.57 Q660.293 1435.11 663.905 1435.11 Q667.539 1435.11 669.344 1431.57 Q671.173 1428 671.173 1420.89 Q671.173 1413.76 669.344 1410.22 Q667.539 1406.66 663.905 1406.66 M663.905 1402.95 Q669.715 1402.95 672.77 1407.56 Q675.849 1412.14 675.849 1420.89 Q675.849 1429.62 672.77 1434.23 Q669.715 1438.81 663.905 1438.81 Q658.094 1438.81 655.016 1434.23 Q651.96 1429.62 651.96 1420.89 Q651.96 1412.14 655.016 1407.56 Q658.094 1402.95 663.905 1402.95 Z" fill="#000000" fill-rule="nonzero" fill-opacity="1" /><path clip-path="url(#clip110)" d="M694.066 1406.66 Q690.455 1406.66 688.627 1410.22 Q686.821 1413.76 686.821 1420.89 Q686.821 1428 688.627 1431.57 Q690.455 1435.11 694.066 1435.11 Q697.701 1435.11 699.506 1431.57 Q701.335 1428 701.335 1420.89 Q701.335 1413.76 699.506 1410.22 Q697.701 1406.66 694.066 1406.66 M694.066 1402.95 Q699.877 1402.95 702.932 1407.56 Q706.011 1412.14 706.011 1420.89 Q706.011 1429.62 702.932 1434.23 Q699.877 1438.81 694.066 1438.81 Q688.256 1438.81 685.178 1434.23 Q682.122 1429.62 682.122 1420.89 Q682.122 1412.14 685.178 1407.56 Q688.256 1402.95 694.066 1402.95 Z" fill="#000000" fill-rule="nonzero" fill-opacity="1" /><path clip-path="url(#clip110)" d="M1037.24 1434.2 L1044.88 1434.2 L1044.88 1407.84 L1036.57 1409.51 L1036.57 1405.25 L1044.83 1403.58 L1049.51 1403.58 L1049.51 1434.2 L1057.15 1434.2 L1057.15 1438.14 L1037.24 1438.14 L1037.24 1434.2 Z" fill="#000000" fill-rule="nonzero" fill-opacity="1" /><path clip-path="url(#clip110)" d="M1076.59 1406.66 Q1072.98 1406.66 1071.15 1410.22 Q1069.35 1413.76 1069.35 1420.89 Q1069.35 1428 1071.15 1431.57 Q1072.98 1435.11 1076.59 1435.11 Q1080.23 1435.11 1082.03 1431.57 Q1083.86 1428 1083.86 1420.89 Q1083.86 1413.76 1082.03 1410.22 Q1080.23 1406.66 1076.59 1406.66 M1076.59 1402.95 Q1082.4 1402.95 1085.46 1407.56 Q1088.54 1412.14 1088.54 1420.89 Q1088.54 1429.62 1085.46 1434.23 Q1082.4 1438.81 1076.59 1438.81 Q1070.78 1438.81 1067.7 1434.23 Q1064.65 1429.62 1064.65 1420.89 Q1064.65 1412.14 1067.7 1407.56 Q1070.78 1402.95 1076.59 1402.95 Z" fill="#000000" fill-rule="nonzero" fill-opacity="1" /><path clip-path="url(#clip110)" d="M1106.75 1406.66 Q1103.14 1406.66 1101.31 1410.22 Q1099.51 1413.76 1099.51 1420.89 Q1099.51 1428 1101.31 1431.57 Q1103.14 1435.11 1106.75 1435.11 Q1110.39 1435.11 1112.19 1431.57 Q1114.02 1428 1114.02 1420.89 Q1114.02 1413.76 1112.19 1410.22 Q1110.39 1406.66 1106.75 1406.66 M1106.75 1402.95 Q1112.56 1402.95 1115.62 1407.56 Q1118.7 1412.14 1118.7 1420.89 Q1118.7 1429.62 1115.62 1434.23 Q1112.56 1438.81 1106.75 1438.81 Q1100.94 1438.81 1097.87 1434.23 Q1094.81 1429.62 1094.81 1420.89 Q1094.81 1412.14 1097.87 1407.56 Q1100.94 1402.95 1106.75 1402.95 Z" fill="#000000" fill-rule="nonzero" fill-opacity="1" /><path clip-path="url(#clip110)" d="M1136.92 1406.66 Q1133.31 1406.66 1131.48 1410.22 Q1129.67 1413.76 1129.67 1420.89 Q1129.67 1428 1131.48 1431.57 Q1133.31 1435.11 1136.92 1435.11 Q1140.55 1435.11 1142.36 1431.57 Q1144.18 1428 1144.18 1420.89 Q1144.18 1413.76 1142.36 1410.22 Q1140.55 1406.66 1136.92 1406.66 M1136.92 1402.95 Q1142.73 1402.95 1145.78 1407.56 Q1148.86 1412.14 1148.86 1420.89 Q1148.86 1429.62 1145.78 1434.23 Q1142.73 1438.81 1136.92 1438.81 Q1131.11 1438.81 1128.03 1434.23 Q1124.97 1429.62 1124.97 1420.89 Q1124.97 1412.14 1128.03 1407.56 Q1131.11 1402.95 1136.92 1402.95 Z" fill="#000000" fill-rule="nonzero" fill-opacity="1" /><path clip-path="url(#clip110)" d="M1465.79 1434.2 L1473.42 1434.2 L1473.42 1407.84 L1465.11 1409.51 L1465.11 1405.25 L1473.38 1403.58 L1478.05 1403.58 L1478.05 1434.2 L1485.69 1434.2 L1485.69 1438.14 L1465.79 1438.14 L1465.79 1434.2 Z" fill="#000000" fill-rule="nonzero" fill-opacity="1" /><path clip-path="url(#clip110)" d="M1495.18 1403.58 L1513.54 1403.58 L1513.54 1407.52 L1499.47 1407.52 L1499.47 1415.99 Q1500.48 1415.64 1501.5 1415.48 Q1502.52 1415.29 1503.54 1415.29 Q1509.33 1415.29 1512.71 1418.46 Q1516.09 1421.64 1516.09 1427.05 Q1516.09 1432.63 1512.61 1435.73 Q1509.14 1438.81 1502.82 1438.81 Q1500.65 1438.81 1498.38 1438.44 Q1496.13 1438.07 1493.73 1437.33 L1493.73 1432.63 Q1495.81 1433.76 1498.03 1434.32 Q1500.25 1434.88 1502.73 1434.88 Q1506.73 1434.88 1509.07 1432.77 Q1511.41 1430.66 1511.41 1427.05 Q1511.41 1423.44 1509.07 1421.33 Q1506.73 1419.23 1502.73 1419.23 Q1500.85 1419.23 1498.98 1419.64 Q1497.13 1420.06 1495.18 1420.94 L1495.18 1403.58 Z" fill="#000000" fill-rule="nonzero" fill-opacity="1" /><path clip-path="url(#clip110)" d="M1535.3 1406.66 Q1531.69 1406.66 1529.86 1410.22 Q1528.05 1413.76 1528.05 1420.89 Q1528.05 1428 1529.86 1431.57 Q1531.69 1435.11 1535.3 1435.11 Q1538.93 1435.11 1540.74 1431.57 Q1542.57 1428 1542.57 1420.89 Q1542.57 1413.76 1540.74 1410.22 Q1538.93 1406.66 1535.3 1406.66 M1535.3 1402.95 Q1541.11 1402.95 1544.16 1407.56 Q1547.24 1412.14 1547.24 1420.89 Q1547.24 1429.62 1544.16 1434.23 Q1541.11 1438.81 1535.3 1438.81 Q1529.49 1438.81 1526.41 1434.23 Q1523.35 1429.62 1523.35 1420.89 Q1523.35 1412.14 1526.41 1407.56 Q1529.49 1402.95 1535.3 1402.95 Z" fill="#000000" fill-rule="nonzero" fill-opacity="1" /><path clip-path="url(#clip110)" d="M1565.46 1406.66 Q1561.85 1406.66 1560.02 1410.22 Q1558.22 1413.76 1558.22 1420.89 Q1558.22 1428 1560.02 1431.57 Q1561.85 1435.11 1565.46 1435.11 Q1569.1 1435.11 1570.9 1431.57 Q1572.73 1428 1572.73 1420.89 Q1572.73 1413.76 1570.9 1410.22 Q1569.1 1406.66 1565.46 1406.66 M1565.46 1402.95 Q1571.27 1402.95 1574.33 1407.56 Q1577.41 1412.14 1577.41 1420.89 Q1577.41 1429.62 1574.33 1434.23 Q1571.27 1438.81 1565.46 1438.81 Q1559.65 1438.81 1556.57 1434.23 Q1553.52 1429.62 1553.52 1420.89 Q1553.52 1412.14 1556.57 1407.56 Q1559.65 1402.95 1565.46 1402.95 Z" fill="#000000" fill-rule="nonzero" fill-opacity="1" /><path clip-path="url(#clip110)" d="M886.915 1478.87 Q886.915 1479.77 886.496 1480 Q886.078 1480.19 884.918 1480.19 L878.735 1480.19 L873.839 1499.65 Q873.453 1501.35 873.453 1502.8 Q873.453 1504.41 873.936 1505.12 Q874.451 1505.83 875.514 1505.83 Q877.607 1505.83 879.862 1503.93 Q882.149 1502.03 884.081 1497.39 Q884.339 1496.78 884.467 1496.65 Q884.628 1496.49 885.047 1496.49 Q885.852 1496.49 885.852 1497.13 Q885.852 1497.36 885.401 1498.39 Q884.983 1499.42 884.049 1500.93 Q883.147 1502.45 881.955 1503.86 Q880.796 1505.28 879.025 1506.31 Q877.253 1507.31 875.353 1507.31 Q872.68 1507.31 870.973 1505.6 Q869.298 1503.9 869.298 1501.22 Q869.298 1500.35 869.975 1497.58 Q870.651 1494.78 874.322 1480.19 L868.493 1480.19 Q867.688 1480.19 867.366 1480.16 Q867.076 1480.13 866.851 1479.97 Q866.658 1479.77 866.658 1479.39 Q866.658 1478.78 866.915 1478.52 Q867.173 1478.23 867.495 1478.2 Q867.849 1478.13 868.654 1478.13 L874.838 1478.13 L877.414 1467.67 Q877.672 1466.63 878.316 1466.05 Q878.992 1465.44 879.379 1465.38 Q879.765 1465.28 880.055 1465.28 Q880.925 1465.28 881.44 1465.77 Q881.955 1466.22 881.955 1467.05 Q881.955 1467.5 879.25 1478.13 L885.047 1478.13 Q885.788 1478.13 886.078 1478.16 Q886.4 1478.2 886.657 1478.36 Q886.915 1478.52 886.915 1478.87 Z" fill="#000000" fill-rule="nonzero" fill-opacity="1" /><polyline clip-path="url(#clip110)" style="stroke:#000000; stroke-linecap:round; stroke-linejoin:round; stroke-width:4; stroke-opacity:1; fill:none" points="235.626,1382.14 235.626,47.2441 "/>
<polyline clip-path="url(#clip110)" style="stroke:#000000; stroke-linecap:round; stroke-linejoin:round; stroke-width:4; stroke-opacity:1; fill:none" points="235.626,1382.14 254.524,1382.14 "/>
<polyline clip-path="url(#clip110)" style="stroke:#000000; stroke-linecap:round; stroke-linejoin:round; stroke-width:4; stroke-opacity:1; fill:none" points="235.626,1115.16 254.524,1115.16 "/>
<polyline clip-path="url(#clip110)" style="stroke:#000000; stroke-linecap:round; stroke-linejoin:round; stroke-width:4; stroke-opacity:1; fill:none" points="235.626,848.182 254.524,848.182 "/>
<polyline clip-path="url(#clip110)" style="stroke:#000000; stroke-linecap:round; stroke-linejoin:round; stroke-width:4; stroke-opacity:1; fill:none" points="235.626,581.202 254.524,581.202 "/>
<polyline clip-path="url(#clip110)" style="stroke:#000000; stroke-linecap:round; stroke-linejoin:round; stroke-width:4; stroke-opacity:1; fill:none" points="235.626,314.223 254.524,314.223 "/>
<polyline clip-path="url(#clip110)" style="stroke:#000000; stroke-linecap:round; stroke-linejoin:round; stroke-width:4; stroke-opacity:1; fill:none" points="235.626,47.2441 254.524,47.2441 "/>
<path clip-path="url(#clip110)" d="M154.451 1367.94 Q150.84 1367.94 149.011 1371.5 Q147.205 1375.04 147.205 1382.17 Q147.205 1389.28 149.011 1392.85 Q150.84 1396.39 154.451 1396.39 Q158.085 1396.39 159.89 1392.85 Q161.719 1389.28 161.719 1382.17 Q161.719 1375.04 159.89 1371.5 Q158.085 1367.94 154.451 1367.94 M154.451 1364.23 Q160.261 1364.23 163.316 1368.84 Q166.395 1373.42 166.395 1382.17 Q166.395 1390.9 163.316 1395.51 Q160.261 1400.09 154.451 1400.09 Q148.64 1400.09 145.562 1395.51 Q142.506 1390.9 142.506 1382.17 Q142.506 1373.42 145.562 1368.84 Q148.64 1364.23 154.451 1364.23 Z" fill="#000000" fill-rule="nonzero" fill-opacity="1" /><path clip-path="url(#clip110)" d="M174.613 1393.54 L179.497 1393.54 L179.497 1399.42 L174.613 1399.42 L174.613 1393.54 Z" fill="#000000" fill-rule="nonzero" fill-opacity="1" /><path clip-path="url(#clip110)" d="M199.682 1367.94 Q196.071 1367.94 194.242 1371.5 Q192.437 1375.04 192.437 1382.17 Q192.437 1389.28 194.242 1392.85 Q196.071 1396.39 199.682 1396.39 Q203.316 1396.39 205.122 1392.85 Q206.95 1389.28 206.95 1382.17 Q206.95 1375.04 205.122 1371.5 Q203.316 1367.94 199.682 1367.94 M199.682 1364.23 Q205.492 1364.23 208.548 1368.84 Q211.626 1373.42 211.626 1382.17 Q211.626 1390.9 208.548 1395.51 Q205.492 1400.09 199.682 1400.09 Q193.872 1400.09 190.793 1395.51 Q187.738 1390.9 187.738 1382.17 Q187.738 1373.42 190.793 1368.84 Q193.872 1364.23 199.682 1364.23 Z" fill="#000000" fill-rule="nonzero" fill-opacity="1" /><path clip-path="url(#clip110)" d="M156.048 1100.96 Q152.437 1100.96 150.608 1104.52 Q148.803 1108.07 148.803 1115.2 Q148.803 1122.3 150.608 1125.87 Q152.437 1129.41 156.048 1129.41 Q159.682 1129.41 161.488 1125.87 Q163.316 1122.3 163.316 1115.2 Q163.316 1108.07 161.488 1104.52 Q159.682 1100.96 156.048 1100.96 M156.048 1097.26 Q161.858 1097.26 164.914 1101.86 Q167.992 1106.45 167.992 1115.2 Q167.992 1123.92 164.914 1128.53 Q161.858 1133.11 156.048 1133.11 Q150.238 1133.11 147.159 1128.53 Q144.103 1123.92 144.103 1115.2 Q144.103 1106.45 147.159 1101.86 Q150.238 1097.26 156.048 1097.26 Z" fill="#000000" fill-rule="nonzero" fill-opacity="1" /><path clip-path="url(#clip110)" d="M176.21 1126.56 L181.094 1126.56 L181.094 1132.44 L176.21 1132.44 L176.21 1126.56 Z" fill="#000000" fill-rule="nonzero" fill-opacity="1" /><path clip-path="url(#clip110)" d="M195.307 1128.51 L211.626 1128.51 L211.626 1132.44 L189.682 1132.44 L189.682 1128.51 Q192.344 1125.75 196.927 1121.12 Q201.534 1116.47 202.714 1115.13 Q204.96 1112.6 205.839 1110.87 Q206.742 1109.11 206.742 1107.42 Q206.742 1104.66 204.798 1102.93 Q202.876 1101.19 199.774 1101.19 Q197.575 1101.19 195.122 1101.95 Q192.691 1102.72 189.913 1104.27 L189.913 1099.55 Q192.737 1098.41 195.191 1097.83 Q197.645 1097.26 199.682 1097.26 Q205.052 1097.26 208.247 1099.94 Q211.441 1102.63 211.441 1107.12 Q211.441 1109.25 210.631 1111.17 Q209.844 1113.07 207.737 1115.66 Q207.159 1116.33 204.057 1119.55 Q200.955 1122.74 195.307 1128.51 Z" fill="#000000" fill-rule="nonzero" fill-opacity="1" /><path clip-path="url(#clip110)" d="M153.965 833.98 Q150.353 833.98 148.525 837.545 Q146.719 841.087 146.719 848.216 Q146.719 855.323 148.525 858.888 Q150.353 862.429 153.965 862.429 Q157.599 862.429 159.404 858.888 Q161.233 855.323 161.233 848.216 Q161.233 841.087 159.404 837.545 Q157.599 833.98 153.965 833.98 M153.965 830.277 Q159.775 830.277 162.83 834.883 Q165.909 839.466 165.909 848.216 Q165.909 856.943 162.83 861.55 Q159.775 866.133 153.965 866.133 Q148.154 866.133 145.076 861.55 Q142.02 856.943 142.02 848.216 Q142.02 839.466 145.076 834.883 Q148.154 830.277 153.965 830.277 Z" fill="#000000" fill-rule="nonzero" fill-opacity="1" /><path clip-path="url(#clip110)" d="M174.126 859.582 L179.011 859.582 L179.011 865.462 L174.126 865.462 L174.126 859.582 Z" fill="#000000" fill-rule="nonzero" fill-opacity="1" /><path clip-path="url(#clip110)" d="M202.043 834.976 L190.237 853.425 L202.043 853.425 L202.043 834.976 M200.816 830.902 L206.696 830.902 L206.696 853.425 L211.626 853.425 L211.626 857.313 L206.696 857.313 L206.696 865.462 L202.043 865.462 L202.043 857.313 L186.441 857.313 L186.441 852.8 L200.816 830.902 Z" fill="#000000" fill-rule="nonzero" fill-opacity="1" /><path clip-path="url(#clip110)" d="M154.289 567.001 Q150.678 567.001 148.849 570.566 Q147.043 574.108 147.043 581.237 Q147.043 588.344 148.849 591.908 Q150.678 595.45 154.289 595.45 Q157.923 595.45 159.728 591.908 Q161.557 588.344 161.557 581.237 Q161.557 574.108 159.728 570.566 Q157.923 567.001 154.289 567.001 M154.289 563.297 Q160.099 563.297 163.154 567.904 Q166.233 572.487 166.233 581.237 Q166.233 589.964 163.154 594.57 Q160.099 599.154 154.289 599.154 Q148.478 599.154 145.4 594.57 Q142.344 589.964 142.344 581.237 Q142.344 572.487 145.4 567.904 Q148.478 563.297 154.289 563.297 Z" fill="#000000" fill-rule="nonzero" fill-opacity="1" /><path clip-path="url(#clip110)" d="M174.451 592.603 L179.335 592.603 L179.335 598.482 L174.451 598.482 L174.451 592.603 Z" fill="#000000" fill-rule="nonzero" fill-opacity="1" /><path clip-path="url(#clip110)" d="M200.099 579.339 Q196.95 579.339 195.099 581.492 Q193.27 583.645 193.27 587.394 Q193.27 591.121 195.099 593.297 Q196.95 595.45 200.099 595.45 Q203.247 595.45 205.075 593.297 Q206.927 591.121 206.927 587.394 Q206.927 583.645 205.075 581.492 Q203.247 579.339 200.099 579.339 M209.381 564.686 L209.381 568.946 Q207.622 568.112 205.816 567.672 Q204.034 567.233 202.274 567.233 Q197.645 567.233 195.191 570.358 Q192.761 573.483 192.413 579.802 Q193.779 577.788 195.839 576.723 Q197.899 575.635 200.376 575.635 Q205.585 575.635 208.594 578.807 Q211.626 581.955 211.626 587.394 Q211.626 592.719 208.478 595.936 Q205.33 599.154 200.099 599.154 Q194.103 599.154 190.932 594.57 Q187.761 589.964 187.761 581.237 Q187.761 573.043 191.65 568.182 Q195.538 563.297 202.089 563.297 Q203.849 563.297 205.631 563.645 Q207.436 563.992 209.381 564.686 Z" fill="#000000" fill-rule="nonzero" fill-opacity="1" /><path clip-path="url(#clip110)" d="M154.543 300.022 Q150.932 300.022 149.103 303.587 Q147.298 307.128 147.298 314.258 Q147.298 321.364 149.103 324.929 Q150.932 328.471 154.543 328.471 Q158.177 328.471 159.983 324.929 Q161.812 321.364 161.812 314.258 Q161.812 307.128 159.983 303.587 Q158.177 300.022 154.543 300.022 M154.543 296.318 Q160.353 296.318 163.409 300.925 Q166.488 305.508 166.488 314.258 Q166.488 322.985 163.409 327.591 Q160.353 332.175 154.543 332.175 Q148.733 332.175 145.654 327.591 Q142.599 322.985 142.599 314.258 Q142.599 305.508 145.654 300.925 Q148.733 296.318 154.543 296.318 Z" fill="#000000" fill-rule="nonzero" fill-opacity="1" /><path clip-path="url(#clip110)" d="M174.705 325.624 L179.589 325.624 L179.589 331.503 L174.705 331.503 L174.705 325.624 Z" fill="#000000" fill-rule="nonzero" fill-opacity="1" /><path clip-path="url(#clip110)" d="M199.774 315.091 Q196.441 315.091 194.52 316.874 Q192.622 318.656 192.622 321.781 Q192.622 324.906 194.52 326.688 Q196.441 328.471 199.774 328.471 Q203.108 328.471 205.029 326.688 Q206.95 324.883 206.95 321.781 Q206.95 318.656 205.029 316.874 Q203.131 315.091 199.774 315.091 M195.099 313.101 Q192.089 312.36 190.4 310.3 Q188.733 308.239 188.733 305.277 Q188.733 301.133 191.673 298.726 Q194.636 296.318 199.774 296.318 Q204.936 296.318 207.876 298.726 Q210.816 301.133 210.816 305.277 Q210.816 308.239 209.126 310.3 Q207.46 312.36 204.474 313.101 Q207.853 313.888 209.728 316.179 Q211.626 318.471 211.626 321.781 Q211.626 326.804 208.548 329.489 Q205.492 332.175 199.774 332.175 Q194.057 332.175 190.978 329.489 Q187.923 326.804 187.923 321.781 Q187.923 318.471 189.821 316.179 Q191.719 313.888 195.099 313.101 M193.386 305.716 Q193.386 308.402 195.052 309.906 Q196.742 311.411 199.774 311.411 Q202.784 311.411 204.474 309.906 Q206.186 308.402 206.186 305.716 Q206.186 303.031 204.474 301.527 Q202.784 300.022 199.774 300.022 Q196.742 300.022 195.052 301.527 Q193.386 303.031 193.386 305.716 Z" fill="#000000" fill-rule="nonzero" fill-opacity="1" /><path clip-path="url(#clip110)" d="M145.261 60.5889 L152.9 60.5889 L152.9 34.2233 L144.59 35.89 L144.59 31.6308 L152.853 29.9641 L157.529 29.9641 L157.529 60.5889 L165.168 60.5889 L165.168 64.5241 L145.261 64.5241 L145.261 60.5889 Z" fill="#000000" fill-rule="nonzero" fill-opacity="1" /><path clip-path="url(#clip110)" d="M174.613 58.6445 L179.497 58.6445 L179.497 64.5241 L174.613 64.5241 L174.613 58.6445 Z" fill="#000000" fill-rule="nonzero" fill-opacity="1" /><path clip-path="url(#clip110)" d="M199.682 33.0428 Q196.071 33.0428 194.242 36.6076 Q192.437 40.1492 192.437 47.2788 Q192.437 54.3853 194.242 57.9501 Q196.071 61.4917 199.682 61.4917 Q203.316 61.4917 205.122 57.9501 Q206.95 54.3853 206.95 47.2788 Q206.95 40.1492 205.122 36.6076 Q203.316 33.0428 199.682 33.0428 M199.682 29.3391 Q205.492 29.3391 208.548 33.9456 Q211.626 38.5289 211.626 47.2788 Q211.626 56.0056 208.548 60.6121 Q205.492 65.1954 199.682 65.1954 Q193.872 65.1954 190.793 60.6121 Q187.738 56.0056 187.738 47.2788 Q187.738 38.5289 190.793 33.9456 Q193.872 29.3391 199.682 29.3391 Z" fill="#000000" fill-rule="nonzero" fill-opacity="1" /><path clip-path="url(#clip110)" d="M87.2213 744.868 Q91.9234 744.868 96.4644 747.251 Q101.005 749.602 103.807 753.306 Q106.577 757.009 106.577 760.777 Q106.577 763.032 105.353 764.545 Q104.097 766.027 102.326 766.832 Q104.516 767.444 109.765 768.764 Q115.015 770.085 115.53 770.085 Q115.82 770.085 115.949 770.02 Q116.078 769.956 116.239 769.666 Q116.432 769.376 116.496 768.668 Q116.593 767.959 116.593 766.768 Q116.593 766.156 116.593 765.93 Q116.625 765.673 116.786 765.447 Q116.947 765.19 117.302 765.19 Q118.622 765.19 118.622 766.381 Q118.622 767.444 118.525 769.634 Q118.429 771.824 118.429 772.919 Q118.429 773.853 118.525 775.721 Q118.622 777.589 118.622 778.458 Q118.622 779.328 117.849 779.328 Q117.398 779.328 117.108 779.199 Q116.851 779.102 116.722 778.845 Q116.625 778.587 116.593 778.362 Q116.593 778.168 116.593 777.782 Q116.593 776.301 116.335 775.656 Q116.11 775.012 115.627 774.787 Q115.176 774.529 113.888 774.239 L84.516 766.832 Q82.5514 766.381 81.1666 766.381 Q79.4275 766.381 78.7834 766.929 Q78.1392 767.476 78.1392 768.442 Q78.1392 770.117 80.136 771.212 Q82.1328 772.307 85.9975 773.241 Q87.0603 773.531 87.2857 773.724 Q87.5111 773.885 87.5111 774.368 Q87.4789 775.173 86.8348 775.173 Q86.6738 775.173 85.6432 774.916 Q84.5804 774.658 83.0345 774.175 Q81.4564 773.66 80.4581 773.112 Q79.7817 772.79 79.3309 772.5 Q78.88 772.21 78.1714 771.631 Q77.4629 771.019 77.0764 770.149 Q76.69 769.28 76.69 768.217 Q76.69 766.156 77.9138 764.449 Q79.1376 762.742 81.6175 762.291 Q79.4597 760.455 78.0748 758.201 Q76.69 755.946 76.69 753.66 Q76.69 749.86 79.6529 747.38 Q82.5837 744.868 87.2213 744.868 M84.3228 749.634 Q81.392 749.634 79.7817 750.761 Q78.1392 751.856 78.1392 753.853 Q78.1392 756.333 80.6513 759.199 Q83.0345 762.033 85.2567 762.613 L98.1713 765.866 L99.2341 766.059 Q99.4273 766.059 100.007 765.962 Q100.555 765.834 101.456 765.479 Q102.358 765.093 103.163 764.578 Q103.936 764.03 104.516 763.064 Q105.096 762.066 105.096 760.842 Q105.096 758.877 103.356 756.752 Q101.617 754.594 98.3323 752.983 Q96.2067 751.985 91.6335 750.826 Q87.0281 749.634 84.3228 749.634 Z" fill="#000000" fill-rule="nonzero" fill-opacity="1" /><path clip-path="url(#clip110)" d="M89.3469 737.499 Q78.2037 737.499 69.2182 733.344 Q65.4501 731.573 62.294 729.093 Q59.1378 726.613 57.7529 724.971 Q56.3681 723.328 56.3681 722.878 Q56.3681 722.233 57.0122 722.201 Q57.3343 722.201 58.1394 723.071 Q68.9606 733.699 89.3469 733.667 Q109.798 733.667 120.2 723.328 Q121.327 722.201 121.682 722.201 Q122.326 722.201 122.326 722.878 Q122.326 723.328 121.005 724.907 Q119.685 726.485 116.657 728.932 Q113.63 731.38 109.926 733.151 Q100.941 737.499 89.3469 737.499 Z" fill="#000000" fill-rule="nonzero" fill-opacity="1" /><path clip-path="url(#clip110)" d="M96.4 681.705 Q96.6576 681.705 97.656 681.995 Q98.6544 682.285 100.2 682.993 Q101.746 683.67 103.163 684.604 Q104.548 685.538 105.579 687.084 Q106.577 688.597 106.577 690.336 Q106.577 692.655 105.031 694.201 Q103.485 695.747 101.166 695.747 Q99.8782 695.747 98.1069 695.071 Q86.6738 690.787 82.7447 690.787 Q78.1392 690.787 78.1392 694.362 Q78.1392 696.133 78.8156 697.808 Q79.4597 699.451 80.3614 700.578 Q81.2632 701.705 82.5192 702.736 Q83.7431 703.734 84.5804 704.249 Q85.3856 704.732 86.1907 705.119 L89.4757 705.956 Q90.3775 706.149 93.8879 707.083 L99.846 708.533 Q104.29 709.563 104.709 709.789 Q105.611 710.111 106.094 710.819 Q106.577 711.528 106.577 712.236 Q106.577 713.041 106.094 713.589 Q105.611 714.136 104.773 714.136 Q104.645 714.136 104.162 714.04 Q103.678 713.943 103.002 713.782 Q102.326 713.621 101.939 713.557 L86.706 709.724 Q83.9363 709.016 83.0667 708.855 Q82.165 708.661 81.1666 708.661 Q78.1392 708.661 78.1392 710.723 Q78.1392 712.397 80.136 713.492 Q82.1328 714.587 85.9975 715.521 Q87.0603 715.811 87.2857 716.004 Q87.5111 716.165 87.5111 716.649 Q87.4789 717.454 86.8348 717.454 Q86.6738 717.454 85.611 717.196 Q84.5482 716.938 83.0345 716.455 Q81.4887 715.94 80.4581 715.457 Q79.6851 715.038 79.3309 714.813 Q78.9444 714.555 78.2037 713.943 Q77.4307 713.299 77.0764 712.462 Q76.69 711.592 76.69 710.529 Q76.69 708.146 78.2359 706.407 Q79.7495 704.668 82.4226 704.443 Q76.69 700.159 76.69 694.169 Q76.69 690.626 78.5579 688.597 Q80.4259 686.568 83.7431 686.568 Q84.516 686.568 85.5144 686.729 Q86.4806 686.858 87.7044 687.18 Q88.9282 687.47 89.8622 687.728 Q90.7961 687.985 92.3098 688.501 Q93.7913 689.016 94.4354 689.241 Q95.0795 689.467 96.5932 690.014 Q98.0747 690.53 98.2357 690.594 Q101.231 691.786 102.938 691.786 Q104.065 691.786 104.58 691.431 Q105.096 691.045 105.096 690.208 Q105.096 687.953 102.873 686.278 Q100.619 684.571 96.9475 683.476 Q96.1423 683.219 95.9491 683.09 Q95.7558 682.929 95.7558 682.478 Q95.7558 681.705 96.4 681.705 Z" fill="#000000" fill-rule="nonzero" fill-opacity="1" /><path clip-path="url(#clip110)" d="M121.682 675.381 Q121.36 675.381 120.554 674.544 Q109.733 663.916 89.3469 663.916 Q68.8962 663.916 58.5581 674.125 Q57.3665 675.381 57.0122 675.381 Q56.3681 675.381 56.3681 674.737 Q56.3681 674.286 57.6885 672.708 Q59.009 671.098 62.0363 668.683 Q65.0637 666.235 68.7673 664.431 Q77.7528 660.084 89.3469 660.084 Q100.49 660.084 109.476 664.238 Q113.244 666.01 116.4 668.489 Q119.556 670.969 120.941 672.612 Q122.326 674.254 122.326 674.737 Q122.326 675.381 121.682 675.381 Z" fill="#000000" fill-rule="nonzero" fill-opacity="1" /><polyline clip-path="url(#clip112)" style="stroke:#009af9; stroke-linecap:round; stroke-linejoin:round; stroke-width:4; stroke-opacity:1; fill:none" points="235.626,47.2441 238.203,465.771 240.779,639.811 243.356,700.884 245.932,712.323 248.508,723.284 251.085,726.057 253.661,725.208 256.238,726.573 258.814,726.59 261.39,726.307 263.967,726.586 266.543,726.539 269.12,726.491 271.696,726.557 274.273,726.543 276.849,726.542 279.425,726.56 282.002,726.56 284.578,726.566 287.155,726.574 289.731,726.579 292.308,726.585 294.884,726.592 297.46,726.597 300.037,726.603 302.613,726.609 305.19,726.615 307.766,726.621 310.342,726.626 312.919,726.633 315.495,726.638 318.072,726.644 320.648,726.65 323.225,726.655 325.801,726.661 328.377,726.667 330.954,726.672 333.53,726.678 336.107,726.683 338.683,726.689 341.259,726.695 343.836,726.7 346.412,726.706 348.989,726.711 351.565,726.717 354.142,726.722 356.718,726.728 359.294,726.733 361.871,726.738 364.447,726.744 367.024,726.749 369.6,726.755 372.177,726.76 374.753,726.765 377.329,726.771 379.906,726.776 382.482,726.781 385.059,726.786 387.635,726.791 390.211,726.797 392.788,726.802 395.364,726.807 397.941,726.812 400.517,726.817 403.094,726.822 405.67,726.827 408.246,726.832 410.823,726.837 413.399,726.843 415.976,726.848 418.552,726.853 421.129,726.857 423.705,726.862 426.281,726.867 428.858,726.872 431.434,726.877 434.011,726.882 436.587,726.887 439.163,726.892 441.74,726.897 444.316,726.901 446.893,726.906 449.469,726.911 452.046,726.916 454.622,726.921 457.198,726.925 459.775,726.93 462.351,726.935 464.928,726.939 467.504,726.944 470.08,726.949 472.657,726.953 475.233,726.958 477.81,726.963 480.386,726.967 482.963,726.972 485.539,726.976 488.115,726.981 490.692,726.985 493.268,726.99 495.845,726.994 498.421,726.999 500.998,727.003 503.574,727.008 506.15,727.012 508.727,727.016 511.303,727.021 513.88,727.025 516.456,727.029 519.032,727.034 521.609,727.038 524.185,727.042 526.762,727.047 529.338,727.051 531.915,727.055 534.491,727.059 537.067,727.063 539.644,727.068 542.22,727.072 544.797,727.076 547.373,727.08 549.95,727.084 552.526,727.088 555.102,727.092 557.679,727.096 560.255,727.1 562.832,727.103 565.408,727.107 567.984,727.111 570.561,727.115 573.137,727.118 575.714,727.122 578.29,727.125 580.867,727.129 583.443,727.132 586.019,727.135 588.596,727.139 591.172,727.142 593.749,727.145 596.325,727.148 598.901,727.15 601.478,727.153 604.054,727.156 606.631,727.158 609.207,727.16 611.784,727.162 614.36,727.164 616.936,727.166 619.513,727.168 622.089,727.169 624.666,727.17 627.242,727.171 629.819,727.172 632.395,727.173 634.971,727.173 637.548,727.173 640.124,727.173 642.701,727.172 645.277,727.171 647.853,727.17 650.43,727.168 653.006,727.167 655.583,727.164 658.159,727.161 660.736,727.158 663.312,727.155 665.888,727.151 668.465,727.146 671.041,727.141 673.618,727.135 676.194,727.129 678.771,727.122 681.347,727.115 683.923,727.107 686.5,727.098 689.076,727.089 691.653,727.079 694.229,727.068 696.805,727.056 699.382,727.044 701.958,727.031 704.535,727.017 707.111,727.002 709.688,726.986 712.264,726.969 714.84,726.951 717.417,726.932 719.993,726.912 722.57,726.891 725.146,726.869 727.722,726.845 730.299,726.821 732.875,726.795 735.452,726.768 738.028,726.739 740.605,726.709 743.181,726.678 745.757,726.646 748.334,726.612 750.91,726.576 753.487,726.539 756.063,726.5 758.64,726.46 761.216,726.418 763.792,726.374 766.369,726.329 768.945,726.282 771.522,726.233 774.098,726.182 776.674,726.129 779.251,726.075 781.827,726.018 784.404,725.96 786.98,725.899 789.557,725.836 792.133,725.772 794.709,725.705 797.286,725.636 799.862,725.564 802.439,725.491 805.015,725.415 807.592,725.336 810.168,725.256 812.744,725.173 815.321,725.087 817.897,725 820.474,724.909 823.05,724.816 825.626,724.721 828.203,724.623 830.779,724.522 833.356,724.419 835.932,724.313 838.509,724.204 841.085,724.093 843.661,723.979 846.238,723.862 848.814,723.742 851.391,723.619 853.967,723.494 856.543,723.366 859.12,723.235 861.696,723.101 864.273,722.964 866.849,722.824 869.426,722.681 872.002,722.535 874.578,722.386 877.155,722.234 879.731,722.08 882.308,721.922 884.884,721.761 887.461,721.597 890.037,721.43 892.613,721.26 895.19,721.087 897.766,720.911 900.343,720.731 902.919,720.549 905.495,720.364 908.072,720.175 910.648,719.984 913.225,719.789 915.801,719.592 918.378,719.391 920.954,719.187 923.53,718.981 926.107,718.771 928.683,718.558 931.26,718.342 933.836,718.123 936.413,717.902 938.989,717.677 941.565,717.449 944.142,717.218 946.718,716.984 949.295,716.748 951.871,716.508 954.447,716.266 957.024,716.021 959.6,715.773 962.177,715.522 964.753,715.268 967.33,715.012 969.906,714.753 972.482,714.491 975.059,714.226 977.635,713.959 980.212,713.689 982.788,713.417 985.364,713.142 987.941,712.864 990.517,712.584 993.094,712.301 995.67,712.016 998.247,711.729 1000.82,711.439 1003.4,711.147 1005.98,710.852 1008.55,710.556 1011.13,710.257 1013.71,709.956 1016.28,709.652 1018.86,709.347 1021.43,709.039 1024.01,708.73 1026.59,708.418 1029.16,708.105 1031.74,707.789 1034.32,707.472 1036.89,707.153 1039.47,706.832 1042.05,706.51 1044.62,706.185 1047.2,705.859 1049.77,705.532 1052.35,705.202 1054.93,704.872 1057.5,704.54 1060.08,704.206 1062.66,703.871 1065.23,703.535 1067.81,703.197 1070.39,702.858 1072.96,702.518 1075.54,702.177 1078.12,701.834 1080.69,701.491 1083.27,701.146 1085.84,700.801 1088.42,700.454 1091,700.107 1093.57,699.759 1096.15,699.41 1098.73,699.06 1101.3,698.71 1103.88,698.359 1106.46,698.007 1109.03,697.655 1111.61,697.302 1114.19,696.949 1116.76,696.595 1119.34,696.241 1121.91,695.886 1124.49,695.532 1127.07,695.176 1129.64,694.821 1132.22,694.466 1134.8,694.11 1137.37,693.754 1139.95,693.399 1142.53,693.043 1145.1,692.687 1147.68,692.332 1150.26,691.976 1152.83,691.621 1155.41,691.266 1157.98,690.911 1160.56,690.556 1163.14,690.202 1165.71,689.848 1168.29,689.494 1170.87,689.141 1173.44,688.788 1176.02,688.436 1178.6,688.084 1181.17,687.733 1183.75,687.383 1186.33,687.033 1188.9,686.684 1191.48,686.335 1194.05,685.988 1196.63,685.641 1199.21,685.295 1201.78,684.949 1204.36,684.605 1206.94,684.261 1209.51,683.919 1212.09,683.577 1214.67,683.237 1217.24,682.897 1219.82,682.558 1222.4,682.221 1224.97,681.885 1227.55,681.549 1230.12,681.215 1232.7,680.883 1235.28,680.551 1237.85,680.22 1240.43,679.891 1243.01,679.563 1245.58,679.237 1248.16,678.912 1250.74,678.588 1253.31,678.265 1255.89,677.944 1258.47,677.625 1261.04,677.306 1263.62,676.989 1266.19,676.674 1268.77,676.36 1271.35,676.048 1273.92,675.737 1276.5,675.428 1279.08,675.12 1281.65,674.814 1284.23,674.51 1286.81,674.207 1289.38,673.906 1291.96,673.606 1294.53,673.308 1297.11,673.012 1299.69,672.717 1302.26,672.424 1304.84,672.133 1307.42,671.843 1309.99,671.555 1312.57,671.269 1315.15,670.985 1317.72,670.702 1320.3,670.421 1322.88,670.142 1325.45,669.865 1328.03,669.59 1330.6,669.316 1333.18,669.044 1335.76,668.774 1338.33,668.506 1340.91,668.239 1343.49,667.974 1346.06,667.712 1348.64,667.451 1351.22,667.191 1353.79,666.934 1356.37,666.679 1358.95,666.425 1361.52,666.173 1364.1,665.923 1366.67,665.675 1369.25,665.429 1371.83,665.185 1374.4,664.942 1376.98,664.701 1379.56,664.463 1382.13,664.226 1384.71,663.99 1387.29,663.757 1389.86,663.526 1392.44,663.296 1395.02,663.069 1397.59,662.843 1400.17,662.619 1402.74,662.397 1405.32,662.176 1407.9,661.958 1410.47,661.741 1413.05,661.526 1415.63,661.313 1418.2,661.102 1420.78,660.893 1423.36,660.685 1425.93,660.48 1428.51,660.276 1431.09,660.074 1433.66,659.873 1436.24,659.675 1438.81,659.478 1441.39,659.283 1443.97,659.09 1446.54,658.898 1449.12,658.709 1451.7,658.521 1454.27,658.335 1456.85,658.15 1459.43,657.967 1462,657.786 1464.58,657.607 1467.16,657.43 1469.73,657.254 1472.31,657.08 1474.88,656.907 1477.46,656.736 1480.04,656.567 1482.61,656.4 1485.19,656.234 1487.77,656.069 1490.34,655.907 1492.92,655.746 1495.5,655.587 1498.07,655.429 1500.65,655.273 1503.22,655.118 1505.8,654.965 1508.38,654.814 1510.95,654.664 1513.53,654.516 1516.11,654.369 1518.68,654.224 1521.26,654.08 "/>
<polyline clip-path="url(#clip112)" style="stroke:#e26f46; stroke-linecap:round; stroke-linejoin:round; stroke-width:4; stroke-opacity:1; fill:none" points="235.626,1382.14 238.203,1230.22 240.779,1041.85 243.356,1072.1 245.932,1066.16 248.508,1039.73 251.085,1053.38 253.661,1051.35 256.238,1046.83 258.814,1050.36 261.39,1049.46 263.967,1048.7 266.543,1049.51 269.12,1049.2 271.696,1049.08 274.273,1049.24 276.849,1049.14 279.425,1049.11 282.002,1049.13 284.578,1049.09 287.155,1049.08 289.731,1049.07 292.308,1049.04 294.884,1049.03 297.46,1049.01 300.037,1049 302.613,1048.98 305.19,1048.96 307.766,1048.95 310.342,1048.93 312.919,1048.91 315.495,1048.9 318.072,1048.88 320.648,1048.87 323.225,1048.85 325.801,1048.84 328.377,1048.82 330.954,1048.8 333.53,1048.79 336.107,1048.77 338.683,1048.76 341.259,1048.74 343.836,1048.73 346.412,1048.71 348.989,1048.7 351.565,1048.68 354.142,1048.67 356.718,1048.65 359.294,1048.64 361.871,1048.62 364.447,1048.61 367.024,1048.59 369.6,1048.58 372.177,1048.56 374.753,1048.55 377.329,1048.53 379.906,1048.52 382.482,1048.5 385.059,1048.49 387.635,1048.48 390.211,1048.46 392.788,1048.45 395.364,1048.43 397.941,1048.42 400.517,1048.4 403.094,1048.39 405.67,1048.38 408.246,1048.36 410.823,1048.35 413.399,1048.33 415.976,1048.32 418.552,1048.31 421.129,1048.29 423.705,1048.28 426.281,1048.26 428.858,1048.25 431.434,1048.24 434.011,1048.22 436.587,1048.21 439.163,1048.2 441.74,1048.18 444.316,1048.17 446.893,1048.16 449.469,1048.14 452.046,1048.13 454.622,1048.12 457.198,1048.1 459.775,1048.09 462.351,1048.08 464.928,1048.06 467.504,1048.05 470.08,1048.04 472.657,1048.03 475.233,1048.01 477.81,1048 480.386,1047.99 482.963,1047.97 485.539,1047.96 488.115,1047.95 490.692,1047.94 493.268,1047.92 495.845,1047.91 498.421,1047.9 500.998,1047.89 503.574,1047.88 506.15,1047.86 508.727,1047.85 511.303,1047.84 513.88,1047.83 516.456,1047.81 519.032,1047.8 521.609,1047.79 524.185,1047.78 526.762,1047.77 529.338,1047.76 531.915,1047.74 534.491,1047.73 537.067,1047.72 539.644,1047.71 542.22,1047.7 544.797,1047.69 547.373,1047.67 549.95,1047.66 552.526,1047.65 555.102,1047.64 557.679,1047.63 560.255,1047.62 562.832,1047.61 565.408,1047.6 567.984,1047.59 570.561,1047.58 573.137,1047.57 575.714,1047.56 578.29,1047.55 580.867,1047.54 583.443,1047.53 586.019,1047.52 588.596,1047.51 591.172,1047.51 593.749,1047.5 596.325,1047.49 598.901,1047.48 601.478,1047.47 604.054,1047.47 606.631,1047.46 609.207,1047.46 611.784,1047.45 614.36,1047.44 616.936,1047.44 619.513,1047.44 622.089,1047.43 624.666,1047.43 627.242,1047.43 629.819,1047.43 632.395,1047.42 634.971,1047.42 637.548,1047.42 640.124,1047.43 642.701,1047.43 645.277,1047.43 647.853,1047.44 650.43,1047.44 653.006,1047.45 655.583,1047.45 658.159,1047.46 660.736,1047.47 663.312,1047.48 665.888,1047.5 668.465,1047.51 671.041,1047.53 673.618,1047.54 676.194,1047.56 678.771,1047.58 681.347,1047.6 683.923,1047.63 686.5,1047.65 689.076,1047.68 691.653,1047.71 694.229,1047.74 696.805,1047.78 699.382,1047.81 701.958,1047.85 704.535,1047.89 707.111,1047.94 709.688,1047.98 712.264,1048.03 714.84,1048.08 717.417,1048.14 719.993,1048.2 722.57,1048.26 725.146,1048.32 727.722,1048.39 730.299,1048.46 732.875,1048.54 735.452,1048.61 738.028,1048.7 740.605,1048.78 743.181,1048.87 745.757,1048.97 748.334,1049.06 750.91,1049.17 753.487,1049.27 756.063,1049.38 758.64,1049.5 761.216,1049.62 763.792,1049.75 766.369,1049.88 768.945,1050.01 771.522,1050.15 774.098,1050.3 776.674,1050.45 779.251,1050.6 781.827,1050.77 784.404,1050.93 786.98,1051.11 789.557,1051.29 792.133,1051.47 794.709,1051.66 797.286,1051.86 799.862,1052.06 802.439,1052.27 805.015,1052.49 807.592,1052.71 810.168,1052.94 812.744,1053.18 815.321,1053.42 817.897,1053.67 820.474,1053.93 823.05,1054.19 825.626,1054.46 828.203,1054.74 830.779,1055.03 833.356,1055.32 835.932,1055.62 838.509,1055.93 841.085,1056.25 843.661,1056.57 846.238,1056.9 848.814,1057.24 851.391,1057.59 853.967,1057.94 856.543,1058.31 859.12,1058.68 861.696,1059.06 864.273,1059.45 866.849,1059.84 869.426,1060.25 872.002,1060.66 874.578,1061.08 877.155,1061.51 879.731,1061.95 882.308,1062.39 884.884,1062.85 887.461,1063.31 890.037,1063.78 892.613,1064.26 895.19,1064.75 897.766,1065.25 900.343,1065.75 902.919,1066.27 905.495,1066.79 908.072,1067.32 910.648,1067.86 913.225,1068.41 915.801,1068.96 918.378,1069.53 920.954,1070.1 923.53,1070.69 926.107,1071.28 928.683,1071.88 931.26,1072.48 933.836,1073.1 936.413,1073.72 938.989,1074.35 941.565,1075 944.142,1075.64 946.718,1076.3 949.295,1076.97 951.871,1077.64 954.447,1078.32 957.024,1079.01 959.6,1079.7 962.177,1080.41 964.753,1081.12 967.33,1081.84 969.906,1082.57 972.482,1083.3 975.059,1084.05 977.635,1084.79 980.212,1085.55 982.788,1086.32 985.364,1087.09 987.941,1087.87 990.517,1088.65 993.094,1089.44 995.67,1090.24 998.247,1091.05 1000.82,1091.86 1003.4,1092.68 1005.98,1093.5 1008.55,1094.33 1011.13,1095.17 1013.71,1096.01 1016.28,1096.86 1018.86,1097.71 1021.43,1098.58 1024.01,1099.44 1026.59,1100.31 1029.16,1101.19 1031.74,1102.07 1034.32,1102.96 1036.89,1103.85 1039.47,1104.75 1042.05,1105.65 1044.62,1106.56 1047.2,1107.47 1049.77,1108.38 1052.35,1109.3 1054.93,1110.22 1057.5,1111.15 1060.08,1112.08 1062.66,1113.02 1065.23,1113.96 1067.81,1114.9 1070.39,1115.85 1072.96,1116.8 1075.54,1117.75 1078.12,1118.7 1080.69,1119.66 1083.27,1120.62 1085.84,1121.59 1088.42,1122.55 1091,1123.52 1093.57,1124.49 1096.15,1125.46 1098.73,1126.44 1101.3,1127.42 1103.88,1128.39 1106.46,1129.37 1109.03,1130.36 1111.61,1131.34 1114.19,1132.32 1116.76,1133.31 1119.34,1134.3 1121.91,1135.28 1124.49,1136.27 1127.07,1137.26 1129.64,1138.25 1132.22,1139.24 1134.8,1140.23 1137.37,1141.22 1139.95,1142.21 1142.53,1143.2 1145.1,1144.19 1147.68,1145.18 1150.26,1146.17 1152.83,1147.15 1155.41,1148.14 1157.98,1149.13 1160.56,1150.12 1163.14,1151.1 1165.71,1152.09 1168.29,1153.07 1170.87,1154.05 1173.44,1155.03 1176.02,1156.01 1178.6,1156.99 1181.17,1157.96 1183.75,1158.94 1186.33,1159.91 1188.9,1160.88 1191.48,1161.85 1194.05,1162.81 1196.63,1163.78 1199.21,1164.74 1201.78,1165.7 1204.36,1166.66 1206.94,1167.61 1209.51,1168.56 1212.09,1169.51 1214.67,1170.46 1217.24,1171.4 1219.82,1172.34 1222.4,1173.27 1224.97,1174.21 1227.55,1175.14 1230.12,1176.07 1232.7,1176.99 1235.28,1177.91 1237.85,1178.83 1240.43,1179.74 1243.01,1180.65 1245.58,1181.55 1248.16,1182.46 1250.74,1183.36 1253.31,1184.25 1255.89,1185.14 1258.47,1186.03 1261.04,1186.91 1263.62,1187.79 1266.19,1188.66 1268.77,1189.53 1271.35,1190.4 1273.92,1191.26 1276.5,1192.12 1279.08,1192.97 1281.65,1193.82 1284.23,1194.66 1286.81,1195.5 1289.38,1196.34 1291.96,1197.17 1294.53,1197.99 1297.11,1198.81 1299.69,1199.63 1302.26,1200.44 1304.84,1201.25 1307.42,1202.05 1309.99,1202.85 1312.57,1203.64 1315.15,1204.43 1317.72,1205.21 1320.3,1205.99 1322.88,1206.76 1325.45,1207.53 1328.03,1208.29 1330.6,1209.05 1333.18,1209.8 1335.76,1210.55 1338.33,1211.29 1340.91,1212.03 1343.49,1212.76 1346.06,1213.49 1348.64,1214.21 1351.22,1214.93 1353.79,1215.64 1356.37,1216.35 1358.95,1217.05 1361.52,1217.75 1364.1,1218.44 1366.67,1219.12 1369.25,1219.8 1371.83,1220.48 1374.4,1221.15 1376.98,1221.82 1379.56,1222.48 1382.13,1223.13 1384.71,1223.78 1387.29,1224.43 1389.86,1225.07 1392.44,1225.7 1395.02,1226.33 1397.59,1226.96 1400.17,1227.58 1402.74,1228.19 1405.32,1228.8 1407.9,1229.4 1410.47,1230 1413.05,1230.6 1415.63,1231.18 1418.2,1231.77 1420.78,1232.35 1423.36,1232.92 1425.93,1233.49 1428.51,1234.05 1431.09,1234.61 1433.66,1235.16 1436.24,1235.71 1438.81,1236.26 1441.39,1236.8 1443.97,1237.33 1446.54,1237.86 1449.12,1238.38 1451.7,1238.9 1454.27,1239.42 1456.85,1239.92 1459.43,1240.43 1462,1240.93 1464.58,1241.42 1467.16,1241.91 1469.73,1242.4 1472.31,1242.88 1474.88,1243.36 1477.46,1243.83 1480.04,1244.3 1482.61,1244.76 1485.19,1245.22 1487.77,1245.67 1490.34,1246.12 1492.92,1246.56 1495.5,1247 1498.07,1247.44 1500.65,1247.87 1503.22,1248.3 1505.8,1248.72 1508.38,1249.14 1510.95,1249.55 1513.53,1249.96 1516.11,1250.36 1518.68,1250.77 1521.26,1251.16 "/>
<polyline clip-path="url(#clip112)" style="stroke:#3da44d; stroke-linecap:round; stroke-linejoin:round; stroke-width:4; stroke-opacity:1; fill:none" points="235.626,1382.14 238.203,1115.53 240.779,1129.86 243.356,1038.54 245.932,1033.04 248.508,1048.51 251.085,1032.09 253.661,1034.97 256.238,1038.12 258.814,1034.57 261.39,1035.75 263.967,1036.23 266.543,1035.48 269.12,1035.84 271.696,1035.89 274.273,1035.74 276.849,1035.85 279.425,1035.85 282.002,1035.83 284.578,1035.87 287.155,1035.87 289.731,1035.88 292.308,1035.89 294.884,1035.9 297.46,1035.91 300.037,1035.92 302.613,1035.93 305.19,1035.95 307.766,1035.95 310.342,1035.96 312.919,1035.98 315.495,1035.98 318.072,1036 320.648,1036 323.225,1036.02 325.801,1036.03 328.377,1036.03 330.954,1036.05 333.53,1036.06 336.107,1036.07 338.683,1036.08 341.259,1036.08 343.836,1036.1 346.412,1036.1 348.989,1036.12 351.565,1036.12 354.142,1036.13 356.718,1036.14 359.294,1036.15 361.871,1036.16 364.447,1036.17 367.024,1036.18 369.6,1036.19 372.177,1036.2 374.753,1036.21 377.329,1036.22 379.906,1036.23 382.482,1036.24 385.059,1036.25 387.635,1036.26 390.211,1036.27 392.788,1036.28 395.364,1036.28 397.941,1036.29 400.517,1036.3 403.094,1036.31 405.67,1036.32 408.246,1036.33 410.823,1036.34 413.399,1036.35 415.976,1036.36 418.552,1036.37 421.129,1036.37 423.705,1036.38 426.281,1036.39 428.858,1036.4 431.434,1036.41 434.011,1036.42 436.587,1036.43 439.163,1036.44 441.74,1036.44 444.316,1036.45 446.893,1036.46 449.469,1036.47 452.046,1036.48 454.622,1036.49 457.198,1036.49 459.775,1036.5 462.351,1036.51 464.928,1036.52 467.504,1036.53 470.08,1036.54 472.657,1036.54 475.233,1036.55 477.81,1036.56 480.386,1036.57 482.963,1036.58 485.539,1036.59 488.115,1036.59 490.692,1036.6 493.268,1036.61 495.845,1036.62 498.421,1036.63 500.998,1036.63 503.574,1036.64 506.15,1036.65 508.727,1036.66 511.303,1036.66 513.88,1036.67 516.456,1036.68 519.032,1036.69 521.609,1036.7 524.185,1036.7 526.762,1036.71 529.338,1036.72 531.915,1036.73 534.491,1036.73 537.067,1036.74 539.644,1036.75 542.22,1036.75 544.797,1036.76 547.373,1036.77 549.95,1036.78 552.526,1036.78 555.102,1036.79 557.679,1036.8 560.255,1036.8 562.832,1036.81 565.408,1036.82 567.984,1036.82 570.561,1036.83 573.137,1036.84 575.714,1036.84 578.29,1036.85 580.867,1036.85 583.443,1036.86 586.019,1036.87 588.596,1036.87 591.172,1036.88 593.749,1036.88 596.325,1036.89 598.901,1036.89 601.478,1036.9 604.054,1036.9 606.631,1036.9 609.207,1036.91 611.784,1036.91 614.36,1036.91 616.936,1036.92 619.513,1036.92 622.089,1036.92 624.666,1036.92 627.242,1036.93 629.819,1036.93 632.395,1036.93 634.971,1036.93 637.548,1036.93 640.124,1036.92 642.701,1036.92 645.277,1036.92 647.853,1036.92 650.43,1036.91 653.006,1036.91 655.583,1036.9 658.159,1036.9 660.736,1036.89 663.312,1036.89 665.888,1036.88 668.465,1036.87 671.041,1036.86 673.618,1036.85 676.194,1036.83 678.771,1036.82 681.347,1036.81 683.923,1036.79 686.5,1036.77 689.076,1036.75 691.653,1036.74 694.229,1036.71 696.805,1036.69 699.382,1036.67 701.958,1036.64 704.535,1036.62 707.111,1036.59 709.688,1036.56 712.264,1036.52 714.84,1036.49 717.417,1036.45 719.993,1036.42 722.57,1036.38 725.146,1036.33 727.722,1036.29 730.299,1036.24 732.875,1036.19 735.452,1036.14 738.028,1036.09 740.605,1036.03 743.181,1035.97 745.757,1035.91 748.334,1035.85 750.91,1035.78 753.487,1035.71 756.063,1035.64 758.64,1035.56 761.216,1035.49 763.792,1035.4 766.369,1035.32 768.945,1035.23 771.522,1035.14 774.098,1035.04 776.674,1034.95 779.251,1034.84 781.827,1034.74 784.404,1034.63 786.98,1034.52 789.557,1034.4 792.133,1034.28 794.709,1034.16 797.286,1034.03 799.862,1033.9 802.439,1033.76 805.015,1033.62 807.592,1033.48 810.168,1033.33 812.744,1033.17 815.321,1033.02 817.897,1032.85 820.474,1032.69 823.05,1032.52 825.626,1032.34 828.203,1032.16 830.779,1031.97 833.356,1031.78 835.932,1031.59 838.509,1031.39 841.085,1031.18 843.661,1030.97 846.238,1030.76 848.814,1030.54 851.391,1030.32 853.967,1030.09 856.543,1029.85 859.12,1029.61 861.696,1029.36 864.273,1029.11 866.849,1028.86 869.426,1028.6 872.002,1028.33 874.578,1028.06 877.155,1027.78 879.731,1027.5 882.308,1027.21 884.884,1026.92 887.461,1026.62 890.037,1026.31 892.613,1026 895.19,1025.69 897.766,1025.37 900.343,1025.04 902.919,1024.71 905.495,1024.37 908.072,1024.03 910.648,1023.68 913.225,1023.33 915.801,1022.97 918.378,1022.6 920.954,1022.23 923.53,1021.86 926.107,1021.48 928.683,1021.09 931.26,1020.7 933.836,1020.3 936.413,1019.9 938.989,1019.49 941.565,1019.08 944.142,1018.66 946.718,1018.24 949.295,1017.81 951.871,1017.38 954.447,1016.94 957.024,1016.49 959.6,1016.05 962.177,1015.59 964.753,1015.13 967.33,1014.67 969.906,1014.2 972.482,1013.73 975.059,1013.25 977.635,1012.77 980.212,1012.28 982.788,1011.79 985.364,1011.3 987.941,1010.79 990.517,1010.29 993.094,1009.78 995.67,1009.27 998.247,1008.75 1000.82,1008.23 1003.4,1007.7 1005.98,1007.17 1008.55,1006.64 1011.13,1006.1 1013.71,1005.56 1016.28,1005.01 1018.86,1004.46 1021.43,1003.91 1024.01,1003.35 1026.59,1002.79 1029.16,1002.23 1031.74,1001.66 1034.32,1001.09 1036.89,1000.52 1039.47,999.945 1042.05,999.366 1044.62,998.783 1047.2,998.199 1049.77,997.611 1052.35,997.021 1054.93,996.428 1057.5,995.832 1060.08,995.234 1062.66,994.634 1065.23,994.031 1067.81,993.426 1070.39,992.819 1072.96,992.21 1075.54,991.599 1078.12,990.986 1080.69,990.371 1083.27,989.755 1085.84,989.137 1088.42,988.517 1091,987.896 1093.57,987.273 1096.15,986.649 1098.73,986.024 1101.3,985.398 1103.88,984.771 1106.46,984.142 1109.03,983.513 1111.61,982.883 1114.19,982.252 1116.76,981.62 1119.34,980.988 1121.91,980.355 1124.49,979.722 1127.07,979.088 1129.64,978.454 1132.22,977.82 1134.8,977.186 1137.37,976.551 1139.95,975.917 1142.53,975.283 1145.1,974.649 1147.68,974.015 1150.26,973.381 1152.83,972.748 1155.41,972.115 1157.98,971.483 1160.56,970.851 1163.14,970.22 1165.71,969.589 1168.29,968.96 1170.87,968.331 1173.44,967.704 1176.02,967.077 1178.6,966.451 1181.17,965.826 1183.75,965.203 1186.33,964.58 1188.9,963.959 1191.48,963.34 1194.05,962.721 1196.63,962.104 1199.21,961.489 1201.78,960.875 1204.36,960.263 1206.94,959.653 1209.51,959.044 1212.09,958.437 1214.67,957.832 1217.24,957.229 1219.82,956.628 1222.4,956.028 1224.97,955.431 1227.55,954.836 1230.12,954.243 1232.7,953.652 1235.28,953.064 1237.85,952.477 1240.43,951.893 1243.01,951.312 1245.58,950.732 1248.16,950.155 1250.74,949.58 1253.31,949.009 1255.89,948.439 1258.47,947.873 1261.04,947.308 1263.62,946.747 1266.19,946.187 1268.77,945.631 1271.35,945.078 1273.92,944.527 1276.5,943.979 1279.08,943.434 1281.65,942.892 1284.23,942.353 1286.81,941.816 1289.38,941.282 1291.96,940.752 1294.53,940.224 1297.11,939.699 1299.69,939.178 1302.26,938.659 1304.84,938.144 1307.42,937.631 1309.99,937.122 1312.57,936.615 1315.15,936.112 1317.72,935.612 1320.3,935.116 1322.88,934.622 1325.45,934.131 1328.03,933.644 1330.6,933.16 1333.18,932.679 1335.76,932.202 1338.33,931.727 1340.91,931.256 1343.49,930.788 1346.06,930.324 1348.64,929.862 1351.22,929.404 1353.79,928.95 1356.37,928.498 1358.95,928.05 1361.52,927.605 1364.1,927.164 1366.67,926.725 1369.25,926.29 1371.83,925.859 1374.4,925.431 1376.98,925.005 1379.56,924.584 1382.13,924.165 1384.71,923.75 1387.29,923.338 1389.86,922.93 1392.44,922.525 1395.02,922.123 1397.59,921.724 1400.17,921.329 1402.74,920.937 1405.32,920.548 1407.9,920.162 1410.47,919.781 1413.05,919.401 1415.63,919.026 1418.2,918.653 1420.78,918.284 1423.36,917.918 1425.93,917.555 1428.51,917.196 1431.09,916.839 1433.66,916.486 1436.24,916.136 1438.81,915.789 1441.39,915.445 1443.97,915.105 1446.54,914.767 1449.12,914.433 1451.7,914.102 1454.27,913.774 1456.85,913.449 1459.43,913.127 1462,912.808 1464.58,912.492 1467.16,912.179 1469.73,911.869 1472.31,911.563 1474.88,911.258 1477.46,910.958 1480.04,910.66 1482.61,910.365 1485.19,910.073 1487.77,909.784 1490.34,909.497 1492.92,909.214 1495.5,908.933 1498.07,908.656 1500.65,908.381 1503.22,908.109 1505.8,907.84 1508.38,907.573 1510.95,907.309 1513.53,907.048 1516.11,906.79 1518.68,906.534 1521.26,906.282 "/>
<polyline clip-path="url(#clip112)" style="stroke:#c271d2; stroke-linecap:round; stroke-linejoin:round; stroke-width:4; stroke-opacity:1; fill:none" stroke-dasharray="16, 10" points="-1050.01,642.854 2806.89,642.854 "/>
<polyline clip-path="url(#clip112)" style="stroke:#c271d2; stroke-linecap:round; stroke-linejoin:round; stroke-width:4; stroke-opacity:1; fill:none" stroke-dasharray="16, 10" points="-1050.01,886.582 2806.89,886.582 "/>
<polyline clip-path="url(#clip112)" style="stroke:#c271d2; stroke-linecap:round; stroke-linejoin:round; stroke-width:4; stroke-opacity:1; fill:none" stroke-dasharray="16, 10" points="-1050.01,1282.09 2806.89,1282.09 "/>
<path clip-path="url(#clip110)" d="M855.886 350.941 L1478.41 350.941 L1478.41 91.7406 L855.886 91.7406  Z" fill="#ffffff" fill-rule="evenodd" fill-opacity="1"/>
<polyline clip-path="url(#clip110)" style="stroke:#000000; stroke-linecap:round; stroke-linejoin:round; stroke-width:4; stroke-opacity:1; fill:none" points="855.886,350.941 1478.41,350.941 1478.41,91.7406 855.886,91.7406 855.886,350.941 "/>
<polyline clip-path="url(#clip110)" style="stroke:#009af9; stroke-linecap:round; stroke-linejoin:round; stroke-width:4; stroke-opacity:1; fill:none" points="870.171,143.581 955.88,143.581 "/>
<path clip-path="url(#clip110)" d="M991.878 145.213 L991.878 160.861 L987.618 160.861 L987.618 145.351 Q987.618 141.671 986.183 139.842 Q984.748 138.014 981.878 138.014 Q978.429 138.014 976.438 140.213 Q974.447 142.412 974.447 146.208 L974.447 160.861 L970.165 160.861 L970.165 134.935 L974.447 134.935 L974.447 138.963 Q975.975 136.625 978.035 135.467 Q980.119 134.31 982.827 134.31 Q987.294 134.31 989.586 137.088 Q991.878 139.842 991.878 145.213 Z" fill="#000000" fill-rule="nonzero" fill-opacity="1" /><path clip-path="url(#clip110)" d="M1000.93 139.333 L1030.6 139.333 L1030.6 143.222 L1000.93 143.222 L1000.93 139.333 M1000.93 148.777 L1030.6 148.777 L1030.6 152.713 L1000.93 152.713 L1000.93 148.777 Z" fill="#000000" fill-rule="nonzero" fill-opacity="1" /><path clip-path="url(#clip110)" d="M1041.51 156.925 L1049.15 156.925 L1049.15 130.56 L1040.84 132.227 L1040.84 127.967 L1049.1 126.301 L1053.78 126.301 L1053.78 156.925 L1061.41 156.925 L1061.41 160.861 L1041.51 160.861 L1041.51 156.925 Z" fill="#000000" fill-rule="nonzero" fill-opacity="1" /><polyline clip-path="url(#clip110)" style="stroke:#e26f46; stroke-linecap:round; stroke-linejoin:round; stroke-width:4; stroke-opacity:1; fill:none" points="870.171,195.421 955.88,195.421 "/>
<path clip-path="url(#clip110)" d="M991.878 197.053 L991.878 212.701 L987.618 212.701 L987.618 197.191 Q987.618 193.511 986.183 191.682 Q984.748 189.854 981.878 189.854 Q978.429 189.854 976.438 192.053 Q974.447 194.252 974.447 198.048 L974.447 212.701 L970.165 212.701 L970.165 186.775 L974.447 186.775 L974.447 190.803 Q975.975 188.465 978.035 187.307 Q980.119 186.15 982.827 186.15 Q987.294 186.15 989.586 188.928 Q991.878 191.682 991.878 197.053 Z" fill="#000000" fill-rule="nonzero" fill-opacity="1" /><path clip-path="url(#clip110)" d="M1000.93 191.173 L1030.6 191.173 L1030.6 195.062 L1000.93 195.062 L1000.93 191.173 M1000.93 200.617 L1030.6 200.617 L1030.6 204.553 L1000.93 204.553 L1000.93 200.617 Z" fill="#000000" fill-rule="nonzero" fill-opacity="1" /><path clip-path="url(#clip110)" d="M1044.72 208.765 L1061.04 208.765 L1061.04 212.701 L1039.1 212.701 L1039.1 208.765 Q1041.76 206.011 1046.35 201.381 Q1050.95 196.728 1052.13 195.386 Q1054.38 192.863 1055.26 191.127 Q1056.16 189.367 1056.16 187.678 Q1056.16 184.923 1054.22 183.187 Q1052.29 181.451 1049.19 181.451 Q1046.99 181.451 1044.54 182.215 Q1042.11 182.979 1039.33 184.529 L1039.33 179.807 Q1042.16 178.673 1044.61 178.094 Q1047.06 177.516 1049.1 177.516 Q1054.47 177.516 1057.66 180.201 Q1060.86 182.886 1060.86 187.377 Q1060.86 189.506 1060.05 191.428 Q1059.26 193.326 1057.16 195.918 Q1056.58 196.59 1053.47 199.807 Q1050.37 203.002 1044.72 208.765 Z" fill="#000000" fill-rule="nonzero" fill-opacity="1" /><polyline clip-path="url(#clip110)" style="stroke:#3da44d; stroke-linecap:round; stroke-linejoin:round; stroke-width:4; stroke-opacity:1; fill:none" points="870.171,247.261 955.88,247.261 "/>
<path clip-path="url(#clip110)" d="M991.878 248.893 L991.878 264.541 L987.618 264.541 L987.618 249.031 Q987.618 245.351 986.183 243.522 Q984.748 241.694 981.878 241.694 Q978.429 241.694 976.438 243.893 Q974.447 246.092 974.447 249.888 L974.447 264.541 L970.165 264.541 L970.165 238.615 L974.447 238.615 L974.447 242.643 Q975.975 240.305 978.035 239.147 Q980.119 237.99 982.827 237.99 Q987.294 237.99 989.586 240.768 Q991.878 243.522 991.878 248.893 Z" fill="#000000" fill-rule="nonzero" fill-opacity="1" /><path clip-path="url(#clip110)" d="M1000.93 243.013 L1030.6 243.013 L1030.6 246.902 L1000.93 246.902 L1000.93 243.013 M1000.93 252.457 L1030.6 252.457 L1030.6 256.393 L1000.93 256.393 L1000.93 252.457 Z" fill="#000000" fill-rule="nonzero" fill-opacity="1" /><path clip-path="url(#clip110)" d="M1054.86 245.906 Q1058.22 246.624 1060.09 248.893 Q1061.99 251.161 1061.99 254.494 Q1061.99 259.61 1058.47 262.411 Q1054.96 265.212 1048.47 265.212 Q1046.3 265.212 1043.98 264.772 Q1041.69 264.355 1039.24 263.499 L1039.24 258.985 Q1041.18 260.119 1043.5 260.698 Q1045.81 261.277 1048.34 261.277 Q1052.73 261.277 1055.03 259.541 Q1057.34 257.805 1057.34 254.494 Q1057.34 251.439 1055.19 249.726 Q1053.06 247.99 1049.24 247.99 L1045.21 247.99 L1045.21 244.147 L1049.42 244.147 Q1052.87 244.147 1054.7 242.781 Q1056.53 241.393 1056.53 238.8 Q1056.53 236.138 1054.63 234.726 Q1052.76 233.291 1049.24 233.291 Q1047.32 233.291 1045.12 233.707 Q1042.92 234.124 1040.28 235.004 L1040.28 230.837 Q1042.94 230.096 1045.26 229.726 Q1047.6 229.356 1049.66 229.356 Q1054.98 229.356 1058.08 231.786 Q1061.18 234.194 1061.18 238.314 Q1061.18 241.184 1059.54 243.175 Q1057.9 245.143 1054.86 245.906 Z" fill="#000000" fill-rule="nonzero" fill-opacity="1" /><polyline clip-path="url(#clip110)" style="stroke:#c271d2; stroke-linecap:round; stroke-linejoin:round; stroke-width:4; stroke-opacity:1; fill:none" stroke-dasharray="16, 10" points="870.171,299.101 955.88,299.101 "/>
<path clip-path="url(#clip110)" d="M970.165 281.821 L999.401 281.821 L999.401 285.756 L987.132 285.756 L987.132 316.381 L982.433 316.381 L982.433 285.756 L970.165 285.756 L970.165 281.821 Z" fill="#000000" fill-rule="nonzero" fill-opacity="1" /><path clip-path="url(#clip110)" d="M1025.28 300.733 L1025.28 316.381 L1021.02 316.381 L1021.02 300.871 Q1021.02 297.191 1019.59 295.362 Q1018.15 293.534 1015.28 293.534 Q1011.83 293.534 1009.84 295.733 Q1007.85 297.932 1007.85 301.728 L1007.85 316.381 L1003.57 316.381 L1003.57 280.362 L1007.85 280.362 L1007.85 294.483 Q1009.38 292.145 1011.44 290.987 Q1013.52 289.83 1016.23 289.83 Q1020.7 289.83 1022.99 292.608 Q1025.28 295.362 1025.28 300.733 Z" fill="#000000" fill-rule="nonzero" fill-opacity="1" /><path clip-path="url(#clip110)" d="M1055.95 302.353 L1055.95 304.436 L1036.37 304.436 Q1036.65 308.834 1039.01 311.149 Q1041.39 313.441 1045.63 313.441 Q1048.08 313.441 1050.37 312.839 Q1052.69 312.237 1054.96 311.033 L1054.96 315.061 Q1052.66 316.033 1050.26 316.543 Q1047.85 317.052 1045.37 317.052 Q1039.17 317.052 1035.53 313.441 Q1031.92 309.83 1031.92 303.672 Q1031.92 297.307 1035.35 293.58 Q1038.8 289.83 1044.63 289.83 Q1049.86 289.83 1052.9 293.209 Q1055.95 296.566 1055.95 302.353 M1051.69 301.103 Q1051.65 297.608 1049.72 295.524 Q1047.83 293.441 1044.68 293.441 Q1041.11 293.441 1038.96 295.455 Q1036.83 297.469 1036.51 301.126 L1051.69 301.103 Z" fill="#000000" fill-rule="nonzero" fill-opacity="1" /><path clip-path="url(#clip110)" d="M1077.97 294.436 Q1077.25 294.02 1076.39 293.834 Q1075.56 293.626 1074.54 293.626 Q1070.93 293.626 1068.98 295.987 Q1067.06 298.325 1067.06 302.723 L1067.06 316.381 L1062.78 316.381 L1062.78 290.455 L1067.06 290.455 L1067.06 294.483 Q1068.41 292.121 1070.56 290.987 Q1072.71 289.83 1075.79 289.83 Q1076.23 289.83 1076.76 289.899 Q1077.29 289.946 1077.94 290.061 L1077.97 294.436 Z" fill="#000000" fill-rule="nonzero" fill-opacity="1" /><path clip-path="url(#clip110)" d="M1101.78 295.432 Q1103.38 292.561 1105.6 291.196 Q1107.83 289.83 1110.84 289.83 Q1114.89 289.83 1117.09 292.677 Q1119.28 295.501 1119.28 300.733 L1119.28 316.381 L1115 316.381 L1115 300.871 Q1115 297.145 1113.68 295.339 Q1112.36 293.534 1109.65 293.534 Q1106.34 293.534 1104.42 295.733 Q1102.5 297.932 1102.5 301.728 L1102.5 316.381 L1098.22 316.381 L1098.22 300.871 Q1098.22 297.121 1096.9 295.339 Q1095.58 293.534 1092.83 293.534 Q1089.56 293.534 1087.64 295.756 Q1085.72 297.955 1085.72 301.728 L1085.72 316.381 L1081.44 316.381 L1081.44 290.455 L1085.72 290.455 L1085.72 294.483 Q1087.18 292.098 1089.22 290.964 Q1091.25 289.83 1094.05 289.83 Q1096.88 289.83 1098.84 291.265 Q1100.84 292.7 1101.78 295.432 Z" fill="#000000" fill-rule="nonzero" fill-opacity="1" /><path clip-path="url(#clip110)" d="M1139.56 303.348 Q1134.4 303.348 1132.41 304.529 Q1130.42 305.709 1130.42 308.557 Q1130.42 310.825 1131.9 312.168 Q1133.4 313.487 1135.97 313.487 Q1139.52 313.487 1141.65 310.987 Q1143.8 308.464 1143.8 304.297 L1143.8 303.348 L1139.56 303.348 M1148.06 301.589 L1148.06 316.381 L1143.8 316.381 L1143.8 312.445 Q1142.34 314.807 1140.16 315.941 Q1137.99 317.052 1134.84 317.052 Q1130.86 317.052 1128.5 314.83 Q1126.16 312.584 1126.16 308.834 Q1126.16 304.459 1129.08 302.237 Q1132.02 300.015 1137.83 300.015 L1143.8 300.015 L1143.8 299.598 Q1143.8 296.659 1141.85 295.061 Q1139.93 293.441 1136.44 293.441 Q1134.21 293.441 1132.11 293.973 Q1130 294.506 1128.06 295.571 L1128.06 291.635 Q1130.4 290.733 1132.59 290.293 Q1134.79 289.83 1136.88 289.83 Q1142.5 289.83 1145.28 292.746 Q1148.06 295.663 1148.06 301.589 Z" fill="#000000" fill-rule="nonzero" fill-opacity="1" /><path clip-path="url(#clip110)" d="M1156.83 280.362 L1161.09 280.362 L1161.09 316.381 L1156.83 316.381 L1156.83 280.362 Z" fill="#000000" fill-rule="nonzero" fill-opacity="1" /><path clip-path="url(#clip110)" d="M1195.12 293.441 Q1191.69 293.441 1189.7 296.126 Q1187.71 298.788 1187.71 303.441 Q1187.71 308.094 1189.68 310.779 Q1191.67 313.441 1195.12 313.441 Q1198.52 313.441 1200.51 310.756 Q1202.5 308.07 1202.5 303.441 Q1202.5 298.834 1200.51 296.149 Q1198.52 293.441 1195.12 293.441 M1195.12 289.83 Q1200.67 289.83 1203.84 293.441 Q1207.02 297.052 1207.02 303.441 Q1207.02 309.807 1203.84 313.441 Q1200.67 317.052 1195.12 317.052 Q1189.54 317.052 1186.37 313.441 Q1183.22 309.807 1183.22 303.441 Q1183.22 297.052 1186.37 293.441 Q1189.54 289.83 1195.12 289.83 Z" fill="#000000" fill-rule="nonzero" fill-opacity="1" /><path clip-path="url(#clip110)" d="M1232.73 291.45 L1232.73 295.432 Q1230.93 294.436 1229.1 293.95 Q1227.29 293.441 1225.44 293.441 Q1221.3 293.441 1219.01 296.08 Q1216.71 298.696 1216.71 303.441 Q1216.71 308.186 1219.01 310.825 Q1221.3 313.441 1225.44 313.441 Q1227.29 313.441 1229.1 312.955 Q1230.93 312.445 1232.73 311.45 L1232.73 315.385 Q1230.95 316.219 1229.03 316.635 Q1227.13 317.052 1224.98 317.052 Q1219.12 317.052 1215.67 313.371 Q1212.22 309.691 1212.22 303.441 Q1212.22 297.098 1215.7 293.464 Q1219.19 289.83 1225.26 289.83 Q1227.22 289.83 1229.1 290.247 Q1230.97 290.64 1232.73 291.45 Z" fill="#000000" fill-rule="nonzero" fill-opacity="1" /><path clip-path="url(#clip110)" d="M1258.8 291.45 L1258.8 295.432 Q1256.99 294.436 1255.16 293.95 Q1253.36 293.441 1251.51 293.441 Q1247.36 293.441 1245.07 296.08 Q1242.78 298.696 1242.78 303.441 Q1242.78 308.186 1245.07 310.825 Q1247.36 313.441 1251.51 313.441 Q1253.36 313.441 1255.16 312.955 Q1256.99 312.445 1258.8 311.45 L1258.8 315.385 Q1257.02 316.219 1255.09 316.635 Q1253.2 317.052 1251.04 317.052 Q1245.19 317.052 1241.74 313.371 Q1238.29 309.691 1238.29 303.441 Q1238.29 297.098 1241.76 293.464 Q1245.26 289.83 1251.32 289.83 Q1253.29 289.83 1255.16 290.247 Q1257.04 290.64 1258.8 291.45 Z" fill="#000000" fill-rule="nonzero" fill-opacity="1" /><path clip-path="url(#clip110)" d="M1265.77 306.149 L1265.77 290.455 L1270.02 290.455 L1270.02 305.987 Q1270.02 309.668 1271.46 311.52 Q1272.89 313.348 1275.77 313.348 Q1279.21 313.348 1281.2 311.149 Q1283.22 308.95 1283.22 305.154 L1283.22 290.455 L1287.48 290.455 L1287.48 316.381 L1283.22 316.381 L1283.22 312.399 Q1281.67 314.76 1279.61 315.918 Q1277.57 317.052 1274.86 317.052 Q1270.39 317.052 1268.08 314.274 Q1265.77 311.496 1265.77 306.149 M1276.48 289.83 L1276.48 289.83 Z" fill="#000000" fill-rule="nonzero" fill-opacity="1" /><path clip-path="url(#clip110)" d="M1300.37 312.492 L1300.37 326.242 L1296.09 326.242 L1296.09 290.455 L1300.37 290.455 L1300.37 294.39 Q1301.71 292.075 1303.75 290.964 Q1305.81 289.83 1308.66 289.83 Q1313.38 289.83 1316.32 293.58 Q1319.28 297.33 1319.28 303.441 Q1319.28 309.552 1316.32 313.302 Q1313.38 317.052 1308.66 317.052 Q1305.81 317.052 1303.75 315.941 Q1301.71 314.807 1300.37 312.492 M1314.86 303.441 Q1314.86 298.742 1312.92 296.08 Q1311 293.395 1307.62 293.395 Q1304.24 293.395 1302.29 296.08 Q1300.37 298.742 1300.37 303.441 Q1300.37 308.14 1302.29 310.825 Q1304.24 313.487 1307.62 313.487 Q1311 313.487 1312.92 310.825 Q1314.86 308.14 1314.86 303.441 Z" fill="#000000" fill-rule="nonzero" fill-opacity="1" /><path clip-path="url(#clip110)" d="M1338.13 303.348 Q1332.96 303.348 1330.97 304.529 Q1328.98 305.709 1328.98 308.557 Q1328.98 310.825 1330.46 312.168 Q1331.97 313.487 1334.54 313.487 Q1338.08 313.487 1340.21 310.987 Q1342.36 308.464 1342.36 304.297 L1342.36 303.348 L1338.13 303.348 M1346.62 301.589 L1346.62 316.381 L1342.36 316.381 L1342.36 312.445 Q1340.9 314.807 1338.73 315.941 Q1336.55 317.052 1333.4 317.052 Q1329.42 317.052 1327.06 314.83 Q1324.72 312.584 1324.72 308.834 Q1324.72 304.459 1327.64 302.237 Q1330.58 300.015 1336.39 300.015 L1342.36 300.015 L1342.36 299.598 Q1342.36 296.659 1340.42 295.061 Q1338.5 293.441 1335 293.441 Q1332.78 293.441 1330.67 293.973 Q1328.57 294.506 1326.62 295.571 L1326.62 291.635 Q1328.96 290.733 1331.16 290.293 Q1333.36 289.83 1335.44 289.83 Q1341.07 289.83 1343.84 292.746 Q1346.62 295.663 1346.62 301.589 Z" fill="#000000" fill-rule="nonzero" fill-opacity="1" /><path clip-path="url(#clip110)" d="M1359.61 283.094 L1359.61 290.455 L1368.38 290.455 L1368.38 293.765 L1359.61 293.765 L1359.61 307.839 Q1359.61 311.01 1360.46 311.913 Q1361.34 312.816 1364.01 312.816 L1368.38 312.816 L1368.38 316.381 L1364.01 316.381 Q1359.07 316.381 1357.2 314.552 Q1355.32 312.7 1355.32 307.839 L1355.32 293.765 L1352.2 293.765 L1352.2 290.455 L1355.32 290.455 L1355.32 283.094 L1359.61 283.094 Z" fill="#000000" fill-rule="nonzero" fill-opacity="1" /><path clip-path="url(#clip110)" d="M1373.98 290.455 L1378.24 290.455 L1378.24 316.381 L1373.98 316.381 L1373.98 290.455 M1373.98 280.362 L1378.24 280.362 L1378.24 285.756 L1373.98 285.756 L1373.98 280.362 Z" fill="#000000" fill-rule="nonzero" fill-opacity="1" /><path clip-path="url(#clip110)" d="M1397.2 293.441 Q1393.77 293.441 1391.78 296.126 Q1389.79 298.788 1389.79 303.441 Q1389.79 308.094 1391.76 310.779 Q1393.75 313.441 1397.2 313.441 Q1400.6 313.441 1402.59 310.756 Q1404.58 308.07 1404.58 303.441 Q1404.58 298.834 1402.59 296.149 Q1400.6 293.441 1397.2 293.441 M1397.2 289.83 Q1402.76 289.83 1405.93 293.441 Q1409.1 297.052 1409.1 303.441 Q1409.1 309.807 1405.93 313.441 Q1402.76 317.052 1397.2 317.052 Q1391.62 317.052 1388.45 313.441 Q1385.3 309.807 1385.3 303.441 Q1385.3 297.052 1388.45 293.441 Q1391.62 289.83 1397.2 289.83 Z" fill="#000000" fill-rule="nonzero" fill-opacity="1" /><path clip-path="url(#clip110)" d="M1437.71 300.733 L1437.71 316.381 L1433.45 316.381 L1433.45 300.871 Q1433.45 297.191 1432.01 295.362 Q1430.58 293.534 1427.71 293.534 Q1424.26 293.534 1422.27 295.733 Q1420.28 297.932 1420.28 301.728 L1420.28 316.381 L1416 316.381 L1416 290.455 L1420.28 290.455 L1420.28 294.483 Q1421.81 292.145 1423.87 290.987 Q1425.95 289.83 1428.66 289.83 Q1433.13 289.83 1435.42 292.608 Q1437.71 295.362 1437.71 300.733 Z" fill="#000000" fill-rule="nonzero" fill-opacity="1" /><path clip-path="url(#clip110)" d="M1462.73 291.219 L1462.73 295.246 Q1460.93 294.321 1458.98 293.858 Q1457.04 293.395 1454.95 293.395 Q1451.78 293.395 1450.19 294.367 Q1448.61 295.339 1448.61 297.283 Q1448.61 298.765 1449.75 299.621 Q1450.88 300.455 1454.31 301.219 L1455.76 301.543 Q1460.3 302.515 1462.2 304.297 Q1464.12 306.057 1464.12 309.228 Q1464.12 312.839 1461.25 314.945 Q1458.4 317.052 1453.4 317.052 Q1451.32 317.052 1449.05 316.635 Q1446.81 316.242 1444.31 315.432 L1444.31 311.033 Q1446.67 312.26 1448.96 312.885 Q1451.25 313.487 1453.5 313.487 Q1456.5 313.487 1458.13 312.469 Q1459.75 311.427 1459.75 309.552 Q1459.75 307.816 1458.57 306.89 Q1457.41 305.964 1453.45 305.108 L1451.97 304.76 Q1448.01 303.927 1446.25 302.214 Q1444.49 300.478 1444.49 297.469 Q1444.49 293.811 1447.08 291.821 Q1449.68 289.83 1454.44 289.83 Q1456.81 289.83 1458.89 290.177 Q1460.97 290.524 1462.73 291.219 Z" fill="#000000" fill-rule="nonzero" fill-opacity="1" /></svg>
