<?xml version="1.0" encoding="utf-8"?>
<svg xmlns="http://www.w3.org/2000/svg" xmlns:xlink="http://www.w3.org/1999/xlink" width="480" height="400" viewBox="0 0 1920 1600">
<defs>
  <clipPath id="clip200">
    <rect x="0" y="0" width="1920" height="1600"/>
  </clipPath>
</defs>
<path clip-path="url(#clip200)" d="M0 1600 L1920 1600 L1920 0 L0 0  Z" fill="#ffffff" fill-rule="evenodd" fill-opacity="1"/>
<defs>
  <clipPath id="clip201">
    <rect x="384" y="0" width="1345" height="1345"/>
  </clipPath>
</defs>
<path clip-path="url(#clip200)" d="M454.316 1290.16 L1841.26 1290.16 L1841.26 47.2441 L454.316 47.2441  Z" fill="#ffffff" fill-rule="evenodd" fill-opacity="1"/>
<defs>
  <clipPath id="clip202">
    <rect x="454" y="47" width="1388" height="1244"/>
  </clipPath>
</defs>
<polyline clip-path="url(#clip202)" style="stroke:#000000; stroke-linecap:round; stroke-linejoin:round; stroke-width:2; stroke-opacity:0.1; fill:none" points="783.117,1290.16 783.117,47.2441 "/>
<polyline clip-path="url(#clip202)" style="stroke:#000000; stroke-linecap:round; stroke-linejoin:round; stroke-width:2; stroke-opacity:0.1; fill:none" points="1135.83,1290.16 1135.83,47.2441 "/>
<polyline clip-path="url(#clip202)" style="stroke:#000000; stroke-linecap:round; stroke-linejoin:round; stroke-width:2; stroke-opacity:0.1; fill:none" points="1488.55,1290.16 1488.55,47.2441 "/>
<polyline clip-path="url(#clip202)" style="stroke:#000000; stroke-linecap:round; stroke-linejoin:round; stroke-width:2; stroke-opacity:0.1; fill:none" points="1841.26,1290.16 1841.26,47.2441 "/>
<polyline clip-path="url(#clip202)" style="stroke:#000000; stroke-linecap:round; stroke-linejoin:round; stroke-width:2; stroke-opacity:0.1; fill:none" points="454.316,1000.27 1841.26,1000.27 "/>
<polyline clip-path="url(#clip202)" style="stroke:#000000; stroke-linecap:round; stroke-linejoin:round; stroke-width:2; stroke-opacity:0.1; fill:none" points="454.316,682.596 1841.26,682.596 "/>
<polyline clip-path="url(#clip202)" style="stroke:#000000; stroke-linecap:round; stroke-linejoin:round; stroke-width:2; stroke-opacity:0.1; fill:none" points="454.316,364.92 1841.26,364.92 "/>
<polyline clip-path="url(#clip202)" style="stroke:#000000; stroke-linecap:round; stroke-linejoin:round; stroke-width:2; stroke-opacity:0.1; fill:none" points="454.316,47.2441 1841.26,47.2441 "/>
<polyline clip-path="url(#clip200)" style="stroke:#000000; stroke-linecap:round; stroke-linejoin:round; stroke-width:4; stroke-opacity:1; fill:none" points="454.316,1290.16 1841.26,1290.16 "/>
<polyline clip-path="url(#clip200)" style="stroke:#000000; stroke-linecap:round; stroke-linejoin:round; stroke-width:4; stroke-opacity:1; fill:none" points="783.117,1290.16 783.117,1271.27 "/>
<polyline clip-path="url(#clip200)" style="stroke:#000000; stroke-linecap:round; stroke-linejoin:round; stroke-width:4; stroke-opacity:1; fill:none" points="1135.83,1290.16 1135.83,1271.27 "/>
<polyline clip-path="url(#clip200)" style="stroke:#000000; stroke-linecap:round; stroke-linejoin:round; stroke-width:4; stroke-opacity:1; fill:none" points="1488.55,1290.16 1488.55,1271.27 "/>
<polyline clip-path="url(#clip200)" style="stroke:#000000; stroke-linecap:round; stroke-linejoin:round; stroke-width:4; stroke-opacity:1; fill:none" points="1841.26,1290.16 1841.26,1271.27 "/>
<path clip-path="url(#clip200)" d="M739.113 1328.96 Q731.89 1328.96 728.233 1336.09 Q724.622 1343.17 724.622 1357.43 Q724.622 1371.65 728.233 1378.78 Q731.89 1385.86 739.113 1385.86 Q746.381 1385.86 749.992 1378.78 Q753.65 1371.65 753.65 1357.43 Q753.65 1343.17 749.992 1336.09 Q746.381 1328.96 739.113 1328.96 M739.113 1321.55 Q750.733 1321.55 756.844 1330.77 Q763.001 1339.93 763.001 1357.43 Q763.001 1374.89 756.844 1384.1 Q750.733 1393.27 739.113 1393.27 Q727.492 1393.27 721.335 1384.1 Q715.224 1374.89 715.224 1357.43 Q715.224 1339.93 721.335 1330.77 Q727.492 1321.55 739.113 1321.55 Z" fill="#000000" fill-rule="nonzero" fill-opacity="1" /><path clip-path="url(#clip200)" d="M779.436 1380.16 L789.205 1380.16 L789.205 1391.92 L779.436 1391.92 L779.436 1380.16 Z" fill="#000000" fill-rule="nonzero" fill-opacity="1" /><path clip-path="url(#clip200)" d="M811.196 1384.05 L826.473 1384.05 L826.473 1331.32 L809.853 1334.66 L809.853 1326.14 L826.381 1322.8 L835.732 1322.8 L835.732 1384.05 L851.01 1384.05 L851.01 1391.92 L811.196 1391.92 L811.196 1384.05 Z" fill="#000000" fill-rule="nonzero" fill-opacity="1" /><path clip-path="url(#clip200)" d="M1092.2 1328.96 Q1084.98 1328.96 1081.32 1336.09 Q1077.71 1343.17 1077.71 1357.43 Q1077.71 1371.65 1081.32 1378.78 Q1084.98 1385.86 1092.2 1385.86 Q1099.47 1385.86 1103.08 1378.78 Q1106.73 1371.65 1106.73 1357.43 Q1106.73 1343.17 1103.08 1336.09 Q1099.47 1328.96 1092.2 1328.96 M1092.2 1321.55 Q1103.82 1321.55 1109.93 1330.77 Q1116.09 1339.93 1116.09 1357.43 Q1116.09 1374.89 1109.93 1384.1 Q1103.82 1393.27 1092.2 1393.27 Q1080.58 1393.27 1074.42 1384.1 Q1068.31 1374.89 1068.31 1357.43 Q1068.31 1339.93 1074.42 1330.77 Q1080.58 1321.55 1092.2 1321.55 Z" fill="#000000" fill-rule="nonzero" fill-opacity="1" /><path clip-path="url(#clip200)" d="M1132.52 1380.16 L1142.29 1380.16 L1142.29 1391.92 L1132.52 1391.92 L1132.52 1380.16 Z" fill="#000000" fill-rule="nonzero" fill-opacity="1" /><path clip-path="url(#clip200)" d="M1170.72 1384.05 L1203.35 1384.05 L1203.35 1391.92 L1159.47 1391.92 L1159.47 1384.05 Q1164.79 1378.54 1173.96 1369.29 Q1183.17 1359.98 1185.53 1357.29 Q1190.02 1352.25 1191.78 1348.78 Q1193.59 1345.26 1193.59 1341.88 Q1193.59 1336.37 1189.7 1332.9 Q1185.85 1329.42 1179.65 1329.42 Q1175.25 1329.42 1170.34 1330.95 Q1165.48 1332.48 1159.93 1335.58 L1159.93 1326.14 Q1165.58 1323.87 1170.48 1322.71 Q1175.39 1321.55 1179.47 1321.55 Q1190.21 1321.55 1196.59 1326.92 Q1202.98 1332.29 1202.98 1341.28 Q1202.98 1345.54 1201.36 1349.38 Q1199.79 1353.17 1195.58 1358.36 Q1194.42 1359.7 1188.22 1366.14 Q1182.01 1372.53 1170.72 1384.05 Z" fill="#000000" fill-rule="nonzero" fill-opacity="1" /><path clip-path="url(#clip200)" d="M1443.96 1328.96 Q1436.74 1328.96 1433.08 1336.09 Q1429.47 1343.17 1429.47 1357.43 Q1429.47 1371.65 1433.08 1378.78 Q1436.74 1385.86 1443.96 1385.86 Q1451.23 1385.86 1454.84 1378.78 Q1458.5 1371.65 1458.5 1357.43 Q1458.5 1343.17 1454.84 1336.09 Q1451.23 1328.96 1443.96 1328.96 M1443.96 1321.55 Q1455.58 1321.55 1461.69 1330.77 Q1467.85 1339.93 1467.85 1357.43 Q1467.85 1374.89 1461.69 1384.1 Q1455.58 1393.27 1443.96 1393.27 Q1432.34 1393.27 1426.18 1384.1 Q1420.07 1374.89 1420.07 1357.43 Q1420.07 1339.93 1426.18 1330.77 Q1432.34 1321.55 1443.96 1321.55 Z" fill="#000000" fill-rule="nonzero" fill-opacity="1" /><path clip-path="url(#clip200)" d="M1484.29 1380.16 L1494.05 1380.16 L1494.05 1391.92 L1484.29 1391.92 L1484.29 1380.16 Z" fill="#000000" fill-rule="nonzero" fill-opacity="1" /><path clip-path="url(#clip200)" d="M1542.76 1354.66 Q1549.47 1356.09 1553.22 1360.63 Q1557.02 1365.16 1557.02 1371.83 Q1557.02 1382.06 1549.98 1387.66 Q1542.94 1393.27 1529.98 1393.27 Q1525.63 1393.27 1521 1392.39 Q1516.42 1391.55 1511.51 1389.84 L1511.51 1380.81 Q1515.4 1383.08 1520.03 1384.24 Q1524.66 1385.4 1529.7 1385.4 Q1538.5 1385.4 1543.08 1381.92 Q1547.71 1378.45 1547.71 1371.83 Q1547.71 1365.72 1543.41 1362.29 Q1539.15 1358.82 1531.51 1358.82 L1523.45 1358.82 L1523.45 1351.14 L1531.88 1351.14 Q1538.78 1351.14 1542.43 1348.41 Q1546.09 1345.63 1546.09 1340.44 Q1546.09 1335.12 1542.3 1332.29 Q1538.55 1329.42 1531.51 1329.42 Q1527.67 1329.42 1523.27 1330.26 Q1518.87 1331.09 1513.59 1332.85 L1513.59 1324.52 Q1518.92 1323.04 1523.55 1322.29 Q1528.22 1321.55 1532.34 1321.55 Q1542.99 1321.55 1549.19 1326.41 Q1555.4 1331.23 1555.4 1339.47 Q1555.4 1345.21 1552.11 1349.19 Q1548.82 1353.13 1542.76 1354.66 Z" fill="#000000" fill-rule="nonzero" fill-opacity="1" /><path clip-path="url(#clip200)" d="M1795.54 1328.96 Q1788.32 1328.96 1784.66 1336.09 Q1781.05 1343.17 1781.05 1357.43 Q1781.05 1371.65 1784.66 1378.78 Q1788.32 1385.86 1795.54 1385.86 Q1802.81 1385.86 1806.42 1378.78 Q1810.08 1371.65 1810.08 1357.43 Q1810.08 1343.17 1806.42 1336.09 Q1802.81 1328.96 1795.54 1328.96 M1795.54 1321.55 Q1807.16 1321.55 1813.27 1330.77 Q1819.43 1339.93 1819.43 1357.43 Q1819.43 1374.89 1813.27 1384.1 Q1807.16 1393.27 1795.54 1393.27 Q1783.92 1393.27 1777.76 1384.1 Q1771.65 1374.89 1771.65 1357.43 Q1771.65 1339.93 1777.76 1330.77 Q1783.92 1321.55 1795.54 1321.55 Z" fill="#000000" fill-rule="nonzero" fill-opacity="1" /><path clip-path="url(#clip200)" d="M1835.87 1380.16 L1845.63 1380.16 L1845.63 1391.92 L1835.87 1391.92 L1835.87 1380.16 Z" fill="#000000" fill-rule="nonzero" fill-opacity="1" /><path clip-path="url(#clip200)" d="M1891.7 1330.95 L1868.09 1367.85 L1891.7 1367.85 L1891.7 1330.95 M1889.25 1322.8 L1901 1322.8 L1901 1367.85 L1910.87 1367.85 L1910.87 1375.63 L1901 1375.63 L1901 1391.92 L1891.7 1391.92 L1891.7 1375.63 L1860.5 1375.63 L1860.5 1366.6 L1889.25 1322.8 Z" fill="#000000" fill-rule="nonzero" fill-opacity="1" /><path clip-path="url(#clip200)" d="M1056.7 1453.39 Q1056.7 1453.44 1056.39 1455.34 L1044.37 1503.24 Q1043.74 1505.77 1041.95 1508.3 Q1040.21 1510.89 1037.42 1513.1 Q1034.67 1515.37 1030.46 1516.74 Q1026.3 1518.16 1021.5 1518.16 Q1013.86 1518.16 1010.49 1516.53 Q1007.17 1514.94 1007.17 1511.57 Q1007.17 1508.62 1009.01 1506.93 Q1010.85 1505.3 1012.96 1505.3 Q1014.96 1505.3 1016.02 1506.46 Q1017.07 1507.62 1017.07 1509.09 Q1017.07 1510.73 1015.97 1512.36 Q1014.86 1514.05 1012.65 1514.68 Q1016.18 1515.79 1021.29 1515.79 Q1032.09 1515.79 1036.73 1504.35 Q1036.84 1504.19 1036.84 1504.14 L1040.42 1489.86 L1040.26 1489.75 Q1039.37 1490.81 1037.94 1492.02 Q1036.57 1493.18 1033.62 1494.6 Q1030.67 1496.02 1027.77 1496.02 Q1021.71 1496.02 1017.55 1491.39 Q1013.44 1486.7 1013.44 1478.95 Q1013.44 1473.31 1015.7 1467.67 Q1018.02 1461.98 1021.61 1457.82 Q1025.24 1453.6 1029.88 1450.97 Q1034.57 1448.33 1039.1 1448.33 Q1042.26 1448.33 1044.95 1450.23 Q1047.64 1452.07 1049.11 1455.13 Q1049.38 1452.6 1050.8 1451.55 Q1052.28 1450.49 1053.54 1450.49 Q1054.96 1450.49 1055.81 1451.28 Q1056.7 1452.02 1056.7 1453.39 M1047.85 1459.98 Q1047.85 1459.66 1047.64 1458.82 Q1047.43 1457.92 1046.8 1456.5 Q1046.22 1455.08 1045.32 1453.81 Q1044.42 1452.55 1042.79 1451.65 Q1041.21 1450.7 1039.21 1450.7 Q1035.94 1450.7 1032.67 1453.44 Q1029.4 1456.13 1027.14 1460.29 Q1025.03 1464.3 1023.03 1472.05 Q1021.08 1479.79 1021.08 1483.75 Q1021.08 1487.65 1022.76 1490.65 Q1024.45 1493.65 1028.09 1493.65 Q1032.3 1493.65 1036.84 1489.75 Q1041.53 1485.7 1042.32 1482.22 L1047.53 1461.61 Q1047.85 1460.35 1047.85 1459.98 Z" fill="#000000" fill-rule="nonzero" fill-opacity="1" /><path clip-path="url(#clip200)" d="M1058.11 1521.48 Q1058.11 1520.95 1058.53 1519.79 L1096.63 1417.98 Q1096.63 1417.87 1096.9 1417.29 Q1097.16 1416.71 1097.32 1416.34 Q1097.48 1415.92 1097.79 1415.6 Q1098.16 1415.29 1098.58 1415.29 Q1099.64 1415.29 1099.64 1416.61 Q1099.64 1416.71 1099.32 1417.98 L1061.11 1519.9 Q1060.48 1521.74 1060.06 1522.27 Q1059.69 1522.8 1059.06 1522.8 Q1058.11 1522.8 1058.11 1521.48 Z" fill="#000000" fill-rule="nonzero" fill-opacity="1" /><path clip-path="url(#clip200)" d="M1164.52 1480.58 Q1164.52 1481.01 1164.05 1482.64 Q1163.58 1484.27 1162.42 1486.8 Q1161.31 1489.33 1159.78 1491.65 Q1158.25 1493.92 1155.72 1495.6 Q1153.25 1497.24 1150.4 1497.24 Q1146.61 1497.24 1144.08 1494.71 Q1141.55 1492.18 1141.55 1488.38 Q1141.55 1487.86 1141.6 1487.33 Q1141.65 1486.8 1141.7 1486.49 Q1141.76 1486.12 1141.92 1485.54 Q1142.13 1484.9 1142.18 1484.64 Q1142.28 1484.38 1142.55 1483.59 Q1142.86 1482.74 1142.97 1482.43 Q1149.66 1465.35 1149.66 1458.24 Q1149.66 1450.7 1143.81 1450.7 Q1138.6 1450.7 1133.43 1454.5 Q1131.06 1456.39 1128.79 1459.77 Q1126.53 1463.14 1126.1 1464.4 Q1125.63 1467.14 1124.95 1469.25 Q1124.63 1470.73 1123.1 1476.47 L1120.73 1486.22 L1118.67 1494.39 Q1118.25 1495.55 1117.09 1496.39 Q1115.93 1497.24 1114.67 1497.24 Q1113.61 1497.24 1112.56 1496.5 Q1111.56 1495.81 1111.56 1494.18 Q1111.56 1493.34 1111.98 1491.81 L1123.1 1447.65 L1114.67 1452.86 Q1114.25 1453.07 1113.93 1453.07 Q1113.46 1453.07 1113.04 1452.7 Q1112.61 1452.28 1112.61 1451.76 Q1112.61 1451.12 1113.25 1450.7 L1123.94 1444.11 L1127.63 1429.62 L1127.95 1427.51 Q1127.95 1426.88 1127.69 1426.57 Q1127.48 1426.2 1126.21 1425.93 Q1125 1425.67 1122.57 1425.67 Q1121.57 1425.67 1121.1 1425.62 Q1120.68 1425.56 1120.31 1425.3 Q1119.94 1424.98 1119.94 1424.35 Q1119.94 1423.46 1120.31 1422.98 Q1120.73 1422.45 1121.05 1422.35 Q1121.36 1422.24 1121.99 1422.19 Q1122.89 1422.14 1125.89 1421.88 Q1128.9 1421.56 1131.48 1421.35 Q1134.06 1421.14 1135.17 1421.14 Q1135.8 1421.14 1136.12 1421.45 Q1136.49 1421.72 1136.54 1422.03 L1136.59 1422.3 L1132.48 1438.95 L1148.66 1429.1 Q1148.87 1428.88 1149.29 1428.88 Q1149.77 1428.88 1150.19 1429.31 Q1150.61 1429.67 1150.61 1430.2 Q1150.61 1430.94 1149.98 1431.26 L1131.64 1442.48 L1128.16 1456.6 Q1134.85 1448.33 1144.13 1448.33 Q1150.14 1448.33 1153.35 1451.44 Q1156.57 1454.5 1156.57 1459.87 Q1156.57 1466.04 1149.98 1483.59 Q1148.03 1488.49 1148.03 1491.28 Q1148.03 1493.13 1148.61 1493.97 Q1149.24 1494.81 1150.61 1494.81 Q1152.72 1494.81 1154.56 1493.6 Q1156.46 1492.34 1157.78 1490.28 Q1159.1 1488.17 1159.99 1486.06 Q1160.94 1483.9 1161.63 1481.48 Q1162.05 1480.16 1162.26 1479.85 Q1162.52 1479.53 1163.26 1479.53 Q1164.52 1479.53 1164.52 1480.58 Z" fill="#000000" fill-rule="nonzero" fill-opacity="1" /><path clip-path="url(#clip200)" d="M1236.87 1455.87 Q1236.87 1460.77 1234.39 1470.25 Q1233.39 1474.36 1232.02 1478.11 Q1230.7 1481.8 1228.75 1485.38 Q1226.8 1488.96 1224.54 1491.55 Q1222.27 1494.07 1219.32 1495.66 Q1216.37 1497.24 1213.1 1497.24 Q1207.94 1497.24 1204.88 1494.18 Q1201.87 1491.07 1200.93 1485.75 Q1193.86 1497.24 1184.43 1497.24 Q1178.58 1497.24 1175.84 1493.07 Q1173.1 1488.86 1173.1 1481.8 Q1173.1 1475.84 1174.68 1469.67 Q1177.69 1457.98 1183.53 1449.81 Q1184.33 1448.86 1185.48 1448.86 Q1186.17 1448.86 1186.49 1449.07 Q1187.43 1449.65 1187.43 1450.6 Q1187.43 1451.28 1186.91 1451.97 Q1183.22 1457.08 1180.79 1461.45 Q1178.37 1465.83 1177.26 1470.25 Q1176.42 1474.05 1176.42 1477.26 Q1176.42 1482.69 1178.74 1486.06 Q1181.11 1489.44 1185.8 1489.44 Q1190.12 1489.44 1193.92 1486.75 Q1197.71 1484.01 1200.5 1479.42 Q1200.66 1474.42 1201.87 1469.67 Q1202.98 1464.62 1205.56 1464.62 Q1207.62 1464.62 1207.62 1467.41 Q1207.62 1468.36 1207.2 1470.25 Q1206.04 1475.26 1203.93 1479.74 Q1204.67 1484.11 1207.41 1486.8 Q1210.15 1489.44 1214.52 1489.44 Q1218.58 1489.44 1222.16 1486.49 Q1225.8 1483.53 1228.12 1479.21 Q1230.49 1474.84 1231.81 1469.67 Q1232.23 1467.94 1232.23 1465.72 Q1232.23 1459.82 1228.12 1456.18 Q1226.96 1455.02 1226.96 1453.5 Q1226.96 1451.7 1228.44 1450.07 Q1230.17 1448.33 1232.23 1448.33 Q1233.76 1448.33 1234.71 1449.28 Q1236.87 1451.18 1236.87 1455.87 Z" fill="#000000" fill-rule="nonzero" fill-opacity="1" /><path clip-path="url(#clip200)" d="M1276.88 1508.32 Q1277.17 1508.65 1277.17 1508.99 Q1277.17 1509.32 1276.43 1510.28 Q1275.73 1511.24 1274.22 1512.53 Q1272.71 1513.82 1270.75 1515.04 Q1268.8 1516.25 1265.92 1517.06 Q1263.04 1517.91 1260.02 1517.91 Q1254.37 1517.91 1251.05 1514.19 Q1247.77 1510.46 1247.77 1505.11 Q1247.77 1499.91 1250.68 1494.93 Q1253.6 1489.91 1258.32 1486.81 Q1263.04 1483.68 1268.02 1483.68 Q1271.97 1483.68 1274.44 1485.52 Q1276.91 1487.37 1276.91 1490.17 Q1276.91 1492.35 1275.66 1493.68 Q1274.41 1495 1272.71 1495 Q1271.53 1495 1270.72 1494.34 Q1269.9 1493.64 1269.9 1492.35 Q1269.9 1490.69 1271.27 1489.4 Q1271.79 1488.88 1272.38 1488.66 Q1273 1488.4 1273.37 1488.4 Q1273.74 1488.36 1274.59 1488.36 Q1273.81 1486.93 1271.97 1486.15 Q1270.16 1485.34 1268.1 1485.34 Q1265.03 1485.34 1262.12 1487.48 Q1259.21 1489.58 1257.44 1492.9 Q1255.66 1496.15 1254.52 1500.76 Q1253.38 1505.33 1253.38 1507.99 Q1253.38 1511.64 1255.07 1513.93 Q1256.77 1516.22 1260.17 1516.22 Q1260.83 1516.22 1261.53 1516.18 Q1262.27 1516.14 1264.11 1515.74 Q1265.99 1515.33 1267.65 1514.63 Q1269.31 1513.93 1271.42 1512.42 Q1273.56 1510.87 1275.25 1508.76 Q1275.84 1507.99 1276.25 1507.99 Q1276.58 1507.99 1276.88 1508.32 Z" fill="#000000" fill-rule="nonzero" fill-opacity="1" /><polyline clip-path="url(#clip200)" style="stroke:#000000; stroke-linecap:round; stroke-linejoin:round; stroke-width:4; stroke-opacity:1; fill:none" points="454.316,1290.16 454.316,47.2441 "/>
<polyline clip-path="url(#clip200)" style="stroke:#000000; stroke-linecap:round; stroke-linejoin:round; stroke-width:4; stroke-opacity:1; fill:none" points="454.316,1000.27 473.213,1000.27 "/>
<polyline clip-path="url(#clip200)" style="stroke:#000000; stroke-linecap:round; stroke-linejoin:round; stroke-width:4; stroke-opacity:1; fill:none" points="454.316,682.596 473.213,682.596 "/>
<polyline clip-path="url(#clip200)" style="stroke:#000000; stroke-linecap:round; stroke-linejoin:round; stroke-width:4; stroke-opacity:1; fill:none" points="454.316,364.92 473.213,364.92 "/>
<polyline clip-path="url(#clip200)" style="stroke:#000000; stroke-linecap:round; stroke-linejoin:round; stroke-width:4; stroke-opacity:1; fill:none" points="454.316,47.2441 473.213,47.2441 "/>
<path clip-path="url(#clip200)" d="M252.831 971.869 Q245.609 971.869 241.952 978.998 Q238.341 986.081 238.341 1000.34 Q238.341 1014.55 241.952 1021.68 Q245.609 1028.77 252.831 1028.77 Q260.1 1028.77 263.711 1021.68 Q267.368 1014.55 267.368 1000.34 Q267.368 986.081 263.711 978.998 Q260.1 971.869 252.831 971.869 M252.831 964.461 Q264.452 964.461 270.563 973.674 Q276.72 982.841 276.72 1000.34 Q276.72 1017.79 270.563 1027.01 Q264.452 1036.17 252.831 1036.17 Q241.211 1036.17 235.054 1027.01 Q228.942 1017.79 228.942 1000.34 Q228.942 982.841 235.054 973.674 Q241.211 964.461 252.831 964.461 Z" fill="#000000" fill-rule="nonzero" fill-opacity="1" /><path clip-path="url(#clip200)" d="M293.155 1023.07 L302.924 1023.07 L302.924 1034.83 L293.155 1034.83 L293.155 1023.07 Z" fill="#000000" fill-rule="nonzero" fill-opacity="1" /><path clip-path="url(#clip200)" d="M331.349 1026.96 L363.988 1026.96 L363.988 1034.83 L320.099 1034.83 L320.099 1026.96 Q325.423 1021.45 334.59 1012.19 Q343.803 1002.89 346.164 1000.2 Q350.655 995.156 352.414 991.683 Q354.22 988.165 354.22 984.785 Q354.22 979.276 350.331 975.804 Q346.488 972.332 340.284 972.332 Q335.886 972.332 330.979 973.859 Q326.118 975.387 320.562 978.489 L320.562 969.045 Q326.21 966.776 331.118 965.619 Q336.025 964.461 340.099 964.461 Q350.84 964.461 357.229 969.832 Q363.618 975.202 363.618 984.183 Q363.618 988.443 361.997 992.285 Q360.423 996.081 356.21 1001.27 Q355.053 1002.61 348.849 1009.04 Q342.646 1015.43 331.349 1026.96 Z" fill="#000000" fill-rule="nonzero" fill-opacity="1" /><path clip-path="url(#clip200)" d="M383.71 965.711 L420.423 965.711 L420.423 973.582 L392.275 973.582 L392.275 990.526 Q394.312 989.831 396.349 989.507 Q398.386 989.137 400.423 989.137 Q411.997 989.137 418.756 995.48 Q425.516 1001.82 425.516 1012.66 Q425.516 1023.81 418.571 1030.02 Q411.627 1036.17 398.988 1036.17 Q394.636 1036.17 390.099 1035.43 Q385.608 1034.69 380.794 1033.21 L380.794 1023.81 Q384.96 1026.08 389.405 1027.19 Q393.849 1028.3 398.803 1028.3 Q406.812 1028.3 411.488 1024.09 Q416.164 1019.88 416.164 1012.66 Q416.164 1005.43 411.488 1001.22 Q406.812 997.007 398.803 997.007 Q395.053 997.007 391.303 997.841 Q387.599 998.674 383.71 1000.43 L383.71 965.711 Z" fill="#000000" fill-rule="nonzero" fill-opacity="1" /><path clip-path="url(#clip200)" d="M250.841 654.193 Q243.618 654.193 239.961 661.322 Q236.35 668.406 236.35 682.665 Q236.35 696.878 239.961 704.007 Q243.618 711.091 250.841 711.091 Q258.109 711.091 261.72 704.007 Q265.377 696.878 265.377 682.665 Q265.377 668.406 261.72 661.322 Q258.109 654.193 250.841 654.193 M250.841 646.786 Q262.461 646.786 268.572 655.998 Q274.729 665.165 274.729 682.665 Q274.729 700.119 268.572 709.331 Q262.461 718.498 250.841 718.498 Q239.22 718.498 233.063 709.331 Q226.952 700.119 226.952 682.665 Q226.952 665.165 233.063 655.998 Q239.22 646.786 250.841 646.786 Z" fill="#000000" fill-rule="nonzero" fill-opacity="1" /><path clip-path="url(#clip200)" d="M291.164 705.396 L300.933 705.396 L300.933 717.156 L291.164 717.156 L291.164 705.396 Z" fill="#000000" fill-rule="nonzero" fill-opacity="1" /><path clip-path="url(#clip200)" d="M321.396 648.036 L358.108 648.036 L358.108 655.906 L329.96 655.906 L329.96 672.85 Q331.997 672.156 334.035 671.832 Q336.072 671.461 338.109 671.461 Q349.683 671.461 356.442 677.804 Q363.201 684.146 363.201 694.98 Q363.201 706.137 356.257 712.341 Q349.312 718.498 336.673 718.498 Q332.322 718.498 327.785 717.757 Q323.294 717.017 318.479 715.535 L318.479 706.137 Q322.646 708.406 327.09 709.517 Q331.535 710.628 336.488 710.628 Q344.497 710.628 349.173 706.415 Q353.849 702.202 353.849 694.98 Q353.849 687.758 349.173 683.545 Q344.497 679.332 336.488 679.332 Q332.738 679.332 328.988 680.165 Q325.285 680.998 321.396 682.758 L321.396 648.036 Z" fill="#000000" fill-rule="nonzero" fill-opacity="1" /><path clip-path="url(#clip200)" d="M401.627 654.193 Q394.405 654.193 390.747 661.322 Q387.136 668.406 387.136 682.665 Q387.136 696.878 390.747 704.007 Q394.405 711.091 401.627 711.091 Q408.895 711.091 412.506 704.007 Q416.164 696.878 416.164 682.665 Q416.164 668.406 412.506 661.322 Q408.895 654.193 401.627 654.193 M401.627 646.786 Q413.247 646.786 419.358 655.998 Q425.516 665.165 425.516 682.665 Q425.516 700.119 419.358 709.331 Q413.247 718.498 401.627 718.498 Q390.006 718.498 383.849 709.331 Q377.738 700.119 377.738 682.665 Q377.738 665.165 383.849 655.998 Q390.006 646.786 401.627 646.786 Z" fill="#000000" fill-rule="nonzero" fill-opacity="1" /><path clip-path="url(#clip200)" d="M252.831 336.517 Q245.609 336.517 241.952 343.647 Q238.341 350.73 238.341 364.989 Q238.341 379.202 241.952 386.332 Q245.609 393.415 252.831 393.415 Q260.1 393.415 263.711 386.332 Q267.368 379.202 267.368 364.989 Q267.368 350.73 263.711 343.647 Q260.1 336.517 252.831 336.517 M252.831 329.11 Q264.452 329.11 270.563 338.323 Q276.72 347.489 276.72 364.989 Q276.72 382.443 270.563 391.656 Q264.452 400.822 252.831 400.822 Q241.211 400.822 235.054 391.656 Q228.942 382.443 228.942 364.989 Q228.942 347.489 235.054 338.323 Q241.211 329.11 252.831 329.11 Z" fill="#000000" fill-rule="nonzero" fill-opacity="1" /><path clip-path="url(#clip200)" d="M293.155 387.721 L302.924 387.721 L302.924 399.48 L293.155 399.48 L293.155 387.721 Z" fill="#000000" fill-rule="nonzero" fill-opacity="1" /><path clip-path="url(#clip200)" d="M320.933 330.36 L365.377 330.36 L365.377 334.341 L340.284 399.48 L330.516 399.48 L354.127 338.23 L320.933 338.23 L320.933 330.36 Z" fill="#000000" fill-rule="nonzero" fill-opacity="1" /><path clip-path="url(#clip200)" d="M383.71 330.36 L420.423 330.36 L420.423 338.23 L392.275 338.23 L392.275 355.174 Q394.312 354.48 396.349 354.156 Q398.386 353.786 400.423 353.786 Q411.997 353.786 418.756 360.128 Q425.516 366.471 425.516 377.304 Q425.516 388.461 418.571 394.665 Q411.627 400.822 398.988 400.822 Q394.636 400.822 390.099 400.082 Q385.608 399.341 380.794 397.859 L380.794 388.461 Q384.96 390.73 389.405 391.841 Q393.849 392.952 398.803 392.952 Q406.812 392.952 411.488 388.739 Q416.164 384.526 416.164 377.304 Q416.164 370.082 411.488 365.869 Q406.812 361.656 398.803 361.656 Q395.053 361.656 391.303 362.489 Q387.599 363.323 383.71 365.082 L383.71 330.36 Z" fill="#000000" fill-rule="nonzero" fill-opacity="1" /><path clip-path="url(#clip200)" d="M232.461 73.9338 L247.739 73.9338 L247.739 21.2026 L231.118 24.5359 L231.118 16.0174 L247.646 12.6841 L256.998 12.6841 L256.998 73.9338 L272.276 73.9338 L272.276 81.8041 L232.461 81.8041 L232.461 73.9338 Z" fill="#000000" fill-rule="nonzero" fill-opacity="1" /><path clip-path="url(#clip200)" d="M291.164 70.0449 L300.933 70.0449 L300.933 81.8041 L291.164 81.8041 L291.164 70.0449 Z" fill="#000000" fill-rule="nonzero" fill-opacity="1" /><path clip-path="url(#clip200)" d="M341.303 18.8415 Q334.081 18.8415 330.423 25.9711 Q326.812 33.0544 326.812 47.3135 Q326.812 61.5264 330.423 68.656 Q334.081 75.7393 341.303 75.7393 Q348.571 75.7393 352.183 68.656 Q355.84 61.5264 355.84 47.3135 Q355.84 33.0544 352.183 25.9711 Q348.571 18.8415 341.303 18.8415 M341.303 11.4341 Q352.923 11.4341 359.034 20.647 Q365.192 29.8136 365.192 47.3135 Q365.192 64.7671 359.034 73.9801 Q352.923 83.1467 341.303 83.1467 Q329.683 83.1467 323.525 73.9801 Q317.414 64.7671 317.414 47.3135 Q317.414 29.8136 323.525 20.647 Q329.683 11.4341 341.303 11.4341 Z" fill="#000000" fill-rule="nonzero" fill-opacity="1" /><path clip-path="url(#clip200)" d="M401.627 18.8415 Q394.405 18.8415 390.747 25.9711 Q387.136 33.0544 387.136 47.3135 Q387.136 61.5264 390.747 68.656 Q394.405 75.7393 401.627 75.7393 Q408.895 75.7393 412.506 68.656 Q416.164 61.5264 416.164 47.3135 Q416.164 33.0544 412.506 25.9711 Q408.895 18.8415 401.627 18.8415 M401.627 11.4341 Q413.247 11.4341 419.358 20.647 Q425.516 29.8136 425.516 47.3135 Q425.516 64.7671 419.358 73.9801 Q413.247 83.1467 401.627 83.1467 Q390.006 83.1467 383.849 73.9801 Q377.738 64.7671 377.738 47.3135 Q377.738 29.8136 383.849 20.647 Q390.006 11.4341 401.627 11.4341 Z" fill="#000000" fill-rule="nonzero" fill-opacity="1" /><path clip-path="url(#clip200)" d="M96.7256 750.825 Q98.0958 750.825 100.731 751.405 Q108.162 753.25 113.274 760.153 Q114.222 761.313 115.434 763.368 Q117.068 760.891 120.072 758.73 Q125.026 755.516 131.719 755.516 Q134.828 755.516 138.622 756.359 Q147.423 758.73 153.748 767.057 Q159.913 775.437 159.913 785.397 Q159.913 790.772 157.068 794.461 Q154.169 798.098 149.321 799.521 L178.886 806.846 Q179.623 807.004 179.623 807.953 L179.623 808.48 Q179.623 809.586 178.359 809.586 L111.956 792.933 Q107.476 791.826 103.26 790.035 Q99.0444 788.243 95.2499 785.766 Q91.4555 783.236 88.6624 780.338 Q85.8166 777.439 84.1828 773.855 Q82.4964 770.272 82.4964 766.477 Q82.4964 758.52 87.9246 753.987 Q91.7717 750.825 96.7256 750.825 M94.8283 756.886 Q91.5609 756.886 89.2948 758.203 Q84.9734 760.891 84.9734 766.583 Q84.9734 770.008 86.5544 773.276 Q88.0827 776.491 90.7177 779.073 Q93.3527 781.655 96.9364 783.869 Q100.52 786.082 104.42 787.716 Q108.267 789.297 112.483 790.351 L138.622 796.833 Q141.416 797.465 143.893 797.465 Q149.795 797.465 153.642 794.198 Q157.489 790.93 157.489 785.292 Q157.489 777.808 151.903 771.379 Q146.896 765.792 138.095 763.473 Q132.562 762.156 128.715 762.156 Q124.499 762.156 121.231 763.684 Q118.596 764.791 117.015 766.952 Q118.438 770.957 118.438 775.015 Q118.438 776.965 118.385 778.019 Q118.333 779.02 118.122 780.496 Q117.911 781.919 117.331 782.604 Q116.752 783.236 115.856 783.236 Q115.329 783.236 115.118 783.131 Q114.275 782.92 113.695 782.235 Q113.115 781.55 112.852 780.759 Q112.536 779.969 112.378 778.651 Q112.22 777.281 112.22 776.385 Q112.167 775.489 112.167 773.961 Q112.167 770.377 113.59 766.741 Q112.852 765.371 111.534 763.895 Q107.16 759.205 100.204 757.624 Q97.6215 756.886 94.8283 756.886 M115.223 770.166 Q114.644 772.38 114.644 774.066 Q114.644 780.232 115.645 780.548 Q115.75 780.548 115.856 780.338 Q115.909 780.127 115.961 779.653 Q115.961 779.126 116.014 778.704 Q116.067 778.23 116.067 777.439 Q116.067 776.649 116.067 776.227 Q116.067 775.753 116.067 774.91 Q116.067 772.801 115.223 770.166 Z" fill="#000000" fill-rule="nonzero" fill-opacity="1" /><path clip-path="url(#clip200)" d="M199.771 702.792 Q200.066 702.792 201.21 703.124 Q202.353 703.456 204.124 704.267 Q205.895 705.042 207.518 706.112 Q209.104 707.182 210.285 708.952 Q211.428 710.686 211.428 712.678 Q211.428 715.334 209.658 717.105 Q207.887 718.876 205.231 718.876 Q204.862 718.876 204.493 718.839 Q204.124 718.802 203.903 718.765 Q203.644 718.728 203.239 718.618 Q202.796 718.47 202.612 718.433 Q202.427 718.359 201.874 718.175 Q201.283 717.954 201.062 717.88 Q189.11 713.195 184.129 713.195 Q178.854 713.195 178.854 717.29 Q178.854 720.942 181.51 724.557 Q182.838 726.217 185.199 727.803 Q187.56 729.39 188.446 729.685 Q190.364 730.017 191.84 730.496 Q192.872 730.718 196.894 731.787 L203.718 733.448 L209.436 734.886 Q210.248 735.181 210.838 735.993 Q211.428 736.805 211.428 737.69 Q211.428 738.428 210.912 739.166 Q210.432 739.866 209.289 739.866 Q208.698 739.866 207.629 739.571 L164.098 728.615 L162.622 728.394 Q162.18 728.394 161.958 728.578 Q161.7 728.726 161.516 729.611 Q161.331 730.459 161.331 732.156 Q161.331 732.857 161.294 733.189 Q161.257 733.484 161.073 733.743 Q160.852 734.001 160.409 734.001 Q159.782 734.001 159.45 733.743 Q159.081 733.448 159.007 733.226 Q158.933 733.005 158.896 732.562 Q158.86 731.935 158.675 729.832 Q158.454 727.73 158.306 725.922 Q158.159 724.114 158.159 723.34 Q158.159 722.897 158.38 722.676 Q158.564 722.417 158.786 722.38 L158.97 722.344 L182.986 728.246 Q177.194 723.561 177.194 717.068 Q177.194 712.863 179.371 710.612 Q181.51 708.362 185.273 708.362 Q189.589 708.362 201.874 712.973 Q205.305 714.338 207.26 714.338 Q208.551 714.338 209.141 713.933 Q209.731 713.49 209.731 712.531 Q209.731 711.055 208.883 709.764 Q207.998 708.436 206.559 707.514 Q205.083 706.591 203.608 705.964 Q202.095 705.3 200.398 704.821 Q199.476 704.525 199.255 704.378 Q199.033 704.193 199.033 703.677 Q199.033 702.792 199.771 702.792 Z" fill="#000000" fill-rule="nonzero" fill-opacity="1" /><path clip-path="url(#clip200)" d="M184.156 691.631 Q183.629 691.631 182.469 691.21 L80.6519 653.107 Q80.5465 653.107 79.9668 652.844 Q79.3871 652.58 79.0182 652.422 Q78.5966 652.264 78.2804 651.948 Q77.9642 651.579 77.9642 651.157 Q77.9642 650.103 79.2817 650.103 Q79.3871 650.103 80.6519 650.42 L182.575 688.628 Q184.419 689.26 184.946 689.682 Q185.473 690.05 185.473 690.683 Q185.473 691.631 184.156 691.631 Z" fill="#000000" fill-rule="nonzero" fill-opacity="1" /><path clip-path="url(#clip200)" d="M96.7256 579.42 Q98.0958 579.42 100.731 580 Q108.162 581.845 113.274 588.748 Q114.222 589.908 115.434 591.963 Q117.068 589.486 120.072 587.325 Q125.026 584.111 131.719 584.111 Q134.828 584.111 138.622 584.954 Q147.423 587.325 153.748 595.652 Q159.913 604.032 159.913 613.992 Q159.913 619.367 157.068 623.056 Q154.169 626.693 149.321 628.116 L178.886 635.441 Q179.623 635.599 179.623 636.548 L179.623 637.075 Q179.623 638.181 178.359 638.181 L111.956 621.528 Q107.476 620.421 103.26 618.63 Q99.0444 616.838 95.2499 614.361 Q91.4555 611.831 88.6624 608.933 Q85.8166 606.034 84.1828 602.45 Q82.4964 598.867 82.4964 595.072 Q82.4964 587.115 87.9246 582.582 Q91.7717 579.42 96.7256 579.42 M94.8283 585.481 Q91.5609 585.481 89.2948 586.798 Q84.9734 589.486 84.9734 595.178 Q84.9734 598.603 86.5544 601.871 Q88.0827 605.086 90.7177 607.668 Q93.3527 610.25 96.9364 612.464 Q100.52 614.677 104.42 616.311 Q108.267 617.892 112.483 618.946 L138.622 625.428 Q141.416 626.06 143.893 626.06 Q149.795 626.06 153.642 622.793 Q157.489 619.525 157.489 613.887 Q157.489 606.403 151.903 599.974 Q146.896 594.387 138.095 592.068 Q132.562 590.751 128.715 590.751 Q124.499 590.751 121.231 592.279 Q118.596 593.386 117.015 595.547 Q118.438 599.552 118.438 603.61 Q118.438 605.56 118.385 606.614 Q118.333 607.615 118.122 609.091 Q117.911 610.514 117.331 611.199 Q116.752 611.831 115.856 611.831 Q115.329 611.831 115.118 611.726 Q114.275 611.515 113.695 610.83 Q113.115 610.145 112.852 609.354 Q112.536 608.564 112.378 607.246 Q112.22 605.876 112.22 604.98 Q112.167 604.084 112.167 602.556 Q112.167 598.972 113.59 595.336 Q112.852 593.966 111.534 592.49 Q107.16 587.8 100.204 586.219 Q97.6215 585.481 94.8283 585.481 M115.223 598.761 Q114.644 600.975 114.644 602.661 Q114.644 608.827 115.645 609.143 Q115.75 609.143 115.856 608.933 Q115.909 608.722 115.961 608.248 Q115.961 607.721 116.014 607.299 Q116.067 606.825 116.067 606.034 Q116.067 605.244 116.067 604.822 Q116.067 604.348 116.067 603.505 Q116.067 601.396 115.223 598.761 Z" fill="#000000" fill-rule="nonzero" fill-opacity="1" /><path clip-path="url(#clip200)" d="M190.523 539.355 Q190.855 539.06 191.187 539.06 Q191.519 539.06 192.478 539.798 Q193.437 540.499 194.729 542.011 Q196.02 543.524 197.237 545.479 Q198.455 547.434 199.266 550.311 Q200.115 553.189 200.115 556.214 Q200.115 561.858 196.389 565.178 Q192.663 568.461 187.314 568.461 Q182.112 568.461 177.132 565.547 Q172.115 562.633 169.016 557.911 Q165.88 553.189 165.88 548.209 Q165.88 544.261 167.725 541.79 Q169.569 539.318 172.373 539.318 Q174.55 539.318 175.878 540.572 Q177.206 541.827 177.206 543.524 Q177.206 544.704 176.542 545.516 Q175.841 546.327 174.55 546.327 Q172.89 546.327 171.598 544.962 Q171.082 544.446 170.861 543.856 Q170.602 543.228 170.602 542.86 Q170.565 542.491 170.565 541.642 Q169.127 542.417 168.352 544.261 Q167.54 546.069 167.54 548.135 Q167.54 551.197 169.68 554.111 Q171.783 557.025 175.103 558.796 Q178.349 560.567 182.961 561.711 Q187.535 562.854 190.191 562.854 Q193.843 562.854 196.13 561.157 Q198.418 559.46 198.418 556.066 Q198.418 555.402 198.381 554.701 Q198.344 553.964 197.938 552.119 Q197.532 550.238 196.831 548.578 Q196.13 546.917 194.618 544.815 Q193.069 542.675 190.966 540.978 Q190.191 540.388 190.191 539.982 Q190.191 539.65 190.523 539.355 Z" fill="#000000" fill-rule="nonzero" fill-opacity="1" /><path clip-path="url(#clip202)" d="M-932.629 1290.16 L3228.2 1290.16 L3228.2 47.2441 L-932.629 47.2441 L-932.629 1290.16  Z" fill="#8c5b89" fill-rule="evenodd" fill-opacity="1"/>
<polyline clip-path="url(#clip202)" style="stroke:#000000; stroke-linecap:round; stroke-linejoin:round; stroke-width:0; stroke-opacity:1; fill:none" points="-932.629,1290.16 3228.2,1290.16 3228.2,47.2441 -932.629,47.2441 -932.629,1290.16 "/>
<polyline clip-path="url(#clip202)" style="stroke:#000000; stroke-linecap:round; stroke-linejoin:round; stroke-width:8; stroke-opacity:1; fill:none" points="1646.15,47.2441 1645.74,68.6737 1645.31,90.1034 1644.82,111.533 1644.3,132.963 1643.7,154.392 1643.05,175.822 1642.31,197.252 1641.5,218.681 1640.59,240.111 1639.6,261.541 1638.47,282.97 1637.21,304.4 1635.81,325.83 1634.24,347.259 1632.48,368.689 1630.5,390.118 1628.28,411.548 1626.04,430.738 1625.77,432.978 1622.86,454.407 1619.58,475.837 1615.87,497.267 1611.7,518.696 1607,540.126 1602.13,559.707 1601.65,561.556 1595.4,582.985 1588.33,604.415 1580.34,625.845 1578.22,630.849 1570.81,647.274 1559.99,668.704 1554.31,678.734 1547.26,690.134 1532.24,711.563 1530.39,713.884 1514.74,732.993 1506.48,741.886 1494.5,754.423 1482.57,765.439 1470.96,775.852 1458.65,785.606 1443.5,797.282 1434.74,803.247 1411.41,818.711 1410.83,819.051 1386.92,832.663 1373.43,840.141 1363,845.261 1339.09,856.689 1328.58,861.571 1315.18,867.1 1291.26,876.696 1275.12,883 1267.35,885.699 1243.44,893.761 1219.53,901.619 1210.7,904.43 1195.61,908.717 1171.7,915.315 1147.79,921.734 1131.93,925.86 1123.87,927.737 1099.96,933.12 1076.05,938.344 1052.14,943.406 1033.15,947.289 1028.22,948.196 1004.31,952.422 980.398,956.502 956.485,960.433 932.572,964.214 908.659,967.841 902.583,968.719 884.747,971.047 860.834,974.023 836.921,976.857 813.008,979.547 789.095,982.089 765.182,984.482 741.27,986.722 717.357,988.808 700.702,990.149 693.444,990.679 669.531,992.279 645.618,993.733 621.705,995.041 597.793,996.199 573.88,997.206 549.967,998.061 526.054,998.763 502.141,999.309 478.228,999.701 454.316,999.935 "/>
<path clip-path="url(#clip202)" d="M1646.15 47.2441 L1645.74 68.6737 L1645.31 90.1034 L1644.82 111.533 L1644.3 132.963 L1643.7 154.392 L1643.05 175.822 L1642.31 197.252 L1641.5 218.681 L1640.59 240.111 L1639.6 261.541 L1638.47 282.97 L1637.21 304.4 L1635.81 325.83 L1634.24 347.259 L1632.48 368.689 L1630.5 390.118 L1628.28 411.548 L1626.04 430.738 L1625.77 432.978 L1622.86 454.407 L1619.58 475.837 L1615.87 497.267 L1611.7 518.696 L1607 540.126 L1602.13 559.707 L1601.65 561.556 L1595.4 582.985 L1588.33 604.415 L1580.34 625.845 L1578.22 630.849 L1570.81 647.274 L1559.99 668.704 L1554.31 678.734 L1547.26 690.134 L1532.24 711.563 L1530.39 713.884 L1514.74 732.993 L1506.48 741.886 L1494.5 754.423 L1482.57 765.439 L1470.96 775.852 L1458.65 785.606 L1443.5 797.282 L1434.74 803.247 L1411.41 818.711 L1410.83 819.051 L1386.92 832.663 L1373.43 840.141 L1363 845.261 L1339.09 856.689 L1328.58 861.571 L1315.18 867.1 L1291.26 876.696 L1275.12 883 L1267.35 885.699 L1243.44 893.761 L1219.53 901.619 L1210.7 904.43 L1195.61 908.717 L1171.7 915.315 L1147.79 921.734 L1131.93 925.86 L1123.87 927.737 L1099.96 933.12 L1076.05 938.344 L1052.14 943.406 L1033.15 947.289 L1028.22 948.196 L1004.31 952.422 L980.398 956.502 L956.485 960.433 L932.572 964.214 L908.659 967.841 L902.583 968.719 L884.747 971.047 L860.834 974.023 L836.921 976.857 L813.008 979.547 L789.095 982.089 L765.182 984.482 L741.27 986.722 L717.357 988.808 L700.702 990.149 L693.444 990.679 L669.531 992.279 L645.618 993.733 L621.705 995.041 L597.793 996.199 L573.88 997.206 L549.967 998.061 L526.054 998.763 L502.141 999.309 L478.228 999.701 L454.316 999.935 L454.316 47.2441 L478.228 47.2441 L502.141 47.2441 L526.054 47.2441 L549.967 47.2441 L573.88 47.2441 L597.793 47.2441 L621.705 47.2441 L645.618 47.2441 L669.531 47.2441 L693.444 47.2441 L700.702 47.2441 L717.357 47.2441 L741.27 47.2441 L765.182 47.2441 L789.095 47.2441 L813.008 47.2441 L836.921 47.2441 L860.834 47.2441 L884.747 47.2441 L902.583 47.2441 L908.659 47.2441 L932.572 47.2441 L956.485 47.2441 L980.398 47.2441 L1004.31 47.2441 L1028.22 47.2441 L1033.15 47.2441 L1052.14 47.2441 L1076.05 47.2441 L1099.96 47.2441 L1123.87 47.2441 L1131.93 47.2441 L1147.79 47.2441 L1171.7 47.2441 L1195.61 47.2441 L1210.7 47.2441 L1219.53 47.2441 L1243.44 47.2441 L1267.35 47.2441 L1275.12 47.2441 L1291.26 47.2441 L1315.18 47.2441 L1328.58 47.2441 L1339.09 47.2441 L1363 47.2441 L1373.43 47.2441 L1386.92 47.2441 L1410.83 47.2441 L1411.41 47.2441 L1434.74 47.2441 L1443.5 47.2441 L1458.65 47.2441 L1470.96 47.2441 L1482.57 47.2441 L1494.5 47.2441 L1506.48 47.2441 L1514.74 47.2441 L1530.39 47.2441 L1532.24 47.2441 L1547.26 47.2441 L1554.31 47.2441 L1559.99 47.2441 L1570.81 47.2441 L1578.22 47.2441 L1580.34 47.2441 L1588.33 47.2441 L1595.4 47.2441 L1601.65 47.2441 L1602.13 47.2441 L1607 47.2441 L1611.7 47.2441 L1615.87 47.2441 L1619.58 47.2441 L1622.86 47.2441 L1625.77 47.2441 L1626.04 47.2441 L1628.28 47.2441 L1630.5 47.2441 L1632.48 47.2441 L1634.24 47.2441 L1635.81 47.2441 L1637.21 47.2441 L1638.47 47.2441 L1639.6 47.2441 L1640.59 47.2441 L1641.5 47.2441 L1642.31 47.2441 L1643.05 47.2441 L1643.7 47.2441 L1644.3 47.2441 L1644.82 47.2441 L1645.31 47.2441 L1645.74 47.2441 L1646.15 47.2441  Z" fill="#50b3d1" fill-rule="evenodd" fill-opacity="1"/>
<polyline clip-path="url(#clip202)" style="stroke:#50b3d1; stroke-linecap:round; stroke-linejoin:round; stroke-width:0; stroke-opacity:1; fill:none" points="1646.15,47.2441 1645.74,68.6737 1645.31,90.1034 1644.82,111.533 1644.3,132.963 1643.7,154.392 1643.05,175.822 1642.31,197.252 1641.5,218.681 1640.59,240.111 1639.6,261.541 1638.47,282.97 1637.21,304.4 1635.81,325.83 1634.24,347.259 1632.48,368.689 1630.5,390.118 1628.28,411.548 1626.04,430.738 1625.77,432.978 1622.86,454.407 1619.58,475.837 1615.87,497.267 1611.7,518.696 1607,540.126 1602.13,559.707 1601.65,561.556 1595.4,582.985 1588.33,604.415 1580.34,625.845 1578.22,630.849 1570.81,647.274 1559.99,668.704 1554.31,678.734 1547.26,690.134 1532.24,711.563 1530.39,713.884 1514.74,732.993 1506.48,741.886 1494.5,754.423 1482.57,765.439 1470.96,775.852 1458.65,785.606 1443.5,797.282 1434.74,803.247 1411.41,818.711 1410.83,819.051 1386.92,832.663 1373.43,840.141 1363,845.261 1339.09,856.689 1328.58,861.571 1315.18,867.1 1291.26,876.696 1275.12,883 1267.35,885.699 1243.44,893.761 1219.53,901.619 1210.7,904.43 1195.61,908.717 1171.7,915.315 1147.79,921.734 1131.93,925.86 1123.87,927.737 1099.96,933.12 1076.05,938.344 1052.14,943.406 1033.15,947.289 1028.22,948.196 1004.31,952.422 980.398,956.502 956.485,960.433 932.572,964.214 908.659,967.841 902.583,968.719 884.747,971.047 860.834,974.023 836.921,976.857 813.008,979.547 789.095,982.089 765.182,984.482 741.27,986.722 717.357,988.808 700.702,990.149 693.444,990.679 669.531,992.279 645.618,993.733 621.705,995.041 597.793,996.199 573.88,997.206 549.967,998.061 526.054,998.763 502.141,999.309 478.228,999.701 454.316,999.935 "/>
<polyline clip-path="url(#clip202)" style="stroke:#000000; stroke-linecap:round; stroke-linejoin:round; stroke-width:8; stroke-opacity:1; fill:none" points="454.316,1000.07 478.228,1000.27 502.141,1000.61 526.054,1001.07 549.967,1001.67 573.88,1002.41 597.793,1003.28 621.705,1004.28 645.618,1005.41 669.531,1006.67 693.444,1008.06 717.357,1009.59 741.27,1011.24 745.84,1011.58 765.182,1012.89 789.095,1014.62 813.008,1016.46 836.921,1018.42 860.834,1020.49 884.747,1022.67 908.659,1024.96 932.572,1027.36 956.485,1029.87 980.398,1032.48 985.069,1033.01 1004.31,1034.99 1028.22,1037.55 1052.14,1040.19 1076.05,1042.93 1099.96,1045.74 1123.87,1048.65 1147.79,1051.63 1169.71,1054.44 1171.7,1054.67 1195.61,1057.52 1219.53,1060.44 1243.44,1063.42 1267.35,1066.47 1291.26,1069.57 1315.18,1072.73 1338.48,1075.87 1339.09,1075.94 1363,1078.91 1386.92,1081.92 1410.83,1084.97 1434.74,1088.06 1458.65,1091.18 1482.57,1094.34 1504.35,1097.3 1506.48,1097.56 1530.39,1100.58 1554.31,1103.64 1578.22,1106.73 1602.13,1109.86 1626.04,1113.02 1649.96,1116.21 1668.57,1118.73 1673.87,1119.37 1697.78,1122.3 1721.7,1125.25 1745.61,1128.22 1769.52,1131.21 1793.43,1134.22 1817.35,1137.26 1840.08,1140.16 1841.26,1140.29 "/>
<path clip-path="url(#clip202)" d="M454.316 1000.07 L478.228 1000.27 L502.141 1000.61 L526.054 1001.07 L549.967 1001.67 L573.88 1002.41 L597.793 1003.28 L621.705 1004.28 L645.618 1005.41 L669.531 1006.67 L693.444 1008.06 L717.357 1009.59 L741.27 1011.24 L745.84 1011.58 L765.182 1012.89 L789.095 1014.62 L813.008 1016.46 L836.921 1018.42 L860.834 1020.49 L884.747 1022.67 L908.659 1024.96 L932.572 1027.36 L956.485 1029.87 L980.398 1032.48 L985.069 1033.01 L1004.31 1034.99 L1028.22 1037.55 L1052.14 1040.19 L1076.05 1042.93 L1099.96 1045.74 L1123.87 1048.65 L1147.79 1051.63 L1169.71 1054.44 L1171.7 1054.67 L1195.61 1057.52 L1219.53 1060.44 L1243.44 1063.42 L1267.35 1066.47 L1291.26 1069.57 L1315.18 1072.73 L1338.48 1075.87 L1339.09 1075.94 L1363 1078.91 L1386.92 1081.92 L1410.83 1084.97 L1434.74 1088.06 L1458.65 1091.18 L1482.57 1094.34 L1504.35 1097.3 L1506.48 1097.56 L1530.39 1100.58 L1554.31 1103.64 L1578.22 1106.73 L1602.13 1109.86 L1626.04 1113.02 L1649.96 1116.21 L1668.57 1118.73 L1673.87 1119.37 L1697.78 1122.3 L1721.7 1125.25 L1745.61 1128.22 L1769.52 1131.21 L1793.43 1134.22 L1817.35 1137.26 L1840.08 1140.16 L1841.26 1140.29 L1841.26 1290.16 L1840.08 1290.16 L1817.35 1290.16 L1793.43 1290.16 L1769.52 1290.16 L1745.61 1290.16 L1721.7 1290.16 L1697.78 1290.16 L1673.87 1290.16 L1668.57 1290.16 L1649.96 1290.16 L1626.04 1290.16 L1602.13 1290.16 L1578.22 1290.16 L1554.31 1290.16 L1530.39 1290.16 L1506.48 1290.16 L1504.35 1290.16 L1482.57 1290.16 L1458.65 1290.16 L1434.74 1290.16 L1410.83 1290.16 L1386.92 1290.16 L1363 1290.16 L1339.09 1290.16 L1338.48 1290.16 L1315.18 1290.16 L1291.26 1290.16 L1267.35 1290.16 L1243.44 1290.16 L1219.53 1290.16 L1195.61 1290.16 L1171.7 1290.16 L1169.71 1290.16 L1147.79 1290.16 L1123.87 1290.16 L1099.96 1290.16 L1076.05 1290.16 L1052.14 1290.16 L1028.22 1290.16 L1004.31 1290.16 L985.069 1290.16 L980.398 1290.16 L956.485 1290.16 L932.572 1290.16 L908.659 1290.16 L884.747 1290.16 L860.834 1290.16 L836.921 1290.16 L813.008 1290.16 L789.095 1290.16 L765.182 1290.16 L745.84 1290.16 L741.27 1290.16 L717.357 1290.16 L693.444 1290.16 L669.531 1290.16 L645.618 1290.16 L621.705 1290.16 L597.793 1290.16 L573.88 1290.16 L549.967 1290.16 L526.054 1290.16 L502.141 1290.16 L478.228 1290.16 L454.316 1290.16  Z" fill="#e5b12e" fill-rule="evenodd" fill-opacity="1"/>
<polyline clip-path="url(#clip202)" style="stroke:#e5b12e; stroke-linecap:round; stroke-linejoin:round; stroke-width:0; stroke-opacity:1; fill:none" points="454.316,1000.07 478.228,1000.27 502.141,1000.61 526.054,1001.07 549.967,1001.67 573.88,1002.41 597.793,1003.28 621.705,1004.28 645.618,1005.41 669.531,1006.67 693.444,1008.06 717.357,1009.59 741.27,1011.24 745.84,1011.58 765.182,1012.89 789.095,1014.62 813.008,1016.46 836.921,1018.42 860.834,1020.49 884.747,1022.67 908.659,1024.96 932.572,1027.36 956.485,1029.87 980.398,1032.48 985.069,1033.01 1004.31,1034.99 1028.22,1037.55 1052.14,1040.19 1076.05,1042.93 1099.96,1045.74 1123.87,1048.65 1147.79,1051.63 1169.71,1054.44 1171.7,1054.67 1195.61,1057.52 1219.53,1060.44 1243.44,1063.42 1267.35,1066.47 1291.26,1069.57 1315.18,1072.73 1338.48,1075.87 1339.09,1075.94 1363,1078.91 1386.92,1081.92 1410.83,1084.97 1434.74,1088.06 1458.65,1091.18 1482.57,1094.34 1504.35,1097.3 1506.48,1097.56 1530.39,1100.58 1554.31,1103.64 1578.22,1106.73 1602.13,1109.86 1626.04,1113.02 1649.96,1116.21 1668.57,1118.73 1673.87,1119.37 1697.78,1122.3 1721.7,1125.25 1745.61,1128.22 1769.52,1131.21 1793.43,1134.22 1817.35,1137.26 1840.08,1140.16 1841.26,1140.29 "/>
<polyline clip-path="url(#clip202)" style="stroke:#000000; stroke-linecap:round; stroke-linejoin:round; stroke-width:8; stroke-opacity:1; fill:none" points="454.316,1000 478.228,1000.35 502.141,1000.92 526.054,1001.73 549.967,1002.77 573.88,1004.05 597.793,1005.56 621.705,1007.3 645.618,1009.29 669.531,1011.52 670.135,1011.58 693.444,1013.77 717.357,1016.24 741.27,1018.93 765.182,1021.86 789.095,1025.01 813.008,1028.4 836.921,1032.03 842.949,1033.01 860.834,1035.65 884.747,1039.41 908.659,1043.39 932.572,1047.6 956.485,1052.04 968.738,1054.44 980.398,1056.53 1004.31,1061.03 1028.22,1065.75 1052.14,1070.7 1075.97,1075.87 1076.05,1075.88 1099.96,1080.84 1123.87,1086.01 1147.79,1091.4 1171.7,1097.01 1172.88,1097.3 1195.61,1102.38 1219.53,1107.94 1243.44,1113.69 1263.67,1118.73 1267.35,1119.57 1291.26,1125.24 1315.18,1131.08 1339.09,1137.11 1350.85,1140.16 1363,1143.04 1386.92,1148.87 1410.83,1154.86 1434.74,1161.03 1436.86,1161.59 1458.65,1166.77 1482.57,1172.59 1506.48,1178.55 1524.02,1183.02 1530.39,1184.45 1554.31,1189.93 1578.22,1195.48 1602.13,1201.11 1616.12,1204.45 1626.04,1206.47 1649.96,1211.36 1673.87,1216.24 1697.78,1221.11 1721.38,1225.87 1721.7,1225.93 1745.61,1229.76 1769.52,1233.5 1793.43,1237.12 1817.35,1240.63 1841.26,1244.01 "/>
<path clip-path="url(#clip202)" d="M454.316 1000 L478.228 1000.35 L502.141 1000.92 L526.054 1001.73 L549.967 1002.77 L573.88 1004.05 L597.793 1005.56 L621.705 1007.3 L645.618 1009.29 L669.531 1011.52 L670.135 1011.58 L693.444 1013.77 L717.357 1016.24 L741.27 1018.93 L765.182 1021.86 L789.095 1025.01 L813.008 1028.4 L836.921 1032.03 L842.949 1033.01 L860.834 1035.65 L884.747 1039.41 L908.659 1043.39 L932.572 1047.6 L956.485 1052.04 L968.738 1054.44 L980.398 1056.53 L1004.31 1061.03 L1028.22 1065.75 L1052.14 1070.7 L1075.97 1075.87 L1076.05 1075.88 L1099.96 1080.84 L1123.87 1086.01 L1147.79 1091.4 L1171.7 1097.01 L1172.88 1097.3 L1195.61 1102.38 L1219.53 1107.94 L1243.44 1113.69 L1263.67 1118.73 L1267.35 1119.57 L1291.26 1125.24 L1315.18 1131.08 L1339.09 1137.11 L1350.85 1140.16 L1363 1143.04 L1386.92 1148.87 L1410.83 1154.86 L1434.74 1161.03 L1436.86 1161.59 L1458.65 1166.77 L1482.57 1172.59 L1506.48 1178.55 L1524.02 1183.02 L1530.39 1184.45 L1554.31 1189.93 L1578.22 1195.48 L1602.13 1201.11 L1616.12 1204.45 L1626.04 1206.47 L1649.96 1211.36 L1673.87 1216.24 L1697.78 1221.11 L1721.38 1225.87 L1721.7 1225.93 L1745.61 1229.76 L1769.52 1233.5 L1793.43 1237.12 L1817.35 1240.63 L1841.26 1244.01 L1841.26 1290.16 L1817.35 1290.16 L1793.43 1290.16 L1769.52 1290.16 L1745.61 1290.16 L1721.7 1290.16 L1721.38 1290.16 L1697.78 1290.16 L1673.87 1290.16 L1649.96 1290.16 L1626.04 1290.16 L1616.12 1290.16 L1602.13 1290.16 L1578.22 1290.16 L1554.31 1290.16 L1530.39 1290.16 L1524.02 1290.16 L1506.48 1290.16 L1482.57 1290.16 L1458.65 1290.16 L1436.86 1290.16 L1434.74 1290.16 L1410.83 1290.16 L1386.92 1290.16 L1363 1290.16 L1350.85 1290.16 L1339.09 1290.16 L1315.18 1290.16 L1291.26 1290.16 L1267.35 1290.16 L1263.67 1290.16 L1243.44 1290.16 L1219.53 1290.16 L1195.61 1290.16 L1172.88 1290.16 L1171.7 1290.16 L1147.79 1290.16 L1123.87 1290.16 L1099.96 1290.16 L1076.05 1290.16 L1075.97 1290.16 L1052.14 1290.16 L1028.22 1290.16 L1004.31 1290.16 L980.398 1290.16 L968.738 1290.16 L956.485 1290.16 L932.572 1290.16 L908.659 1290.16 L884.747 1290.16 L860.834 1290.16 L842.949 1290.16 L836.921 1290.16 L813.008 1290.16 L789.095 1290.16 L765.182 1290.16 L741.27 1290.16 L717.357 1290.16 L693.444 1290.16 L670.135 1290.16 L669.531 1290.16 L645.618 1290.16 L621.705 1290.16 L597.793 1290.16 L573.88 1290.16 L549.967 1290.16 L526.054 1290.16 L502.141 1290.16 L478.228 1290.16 L454.316 1290.16  Z" fill="#3a873c" fill-rule="evenodd" fill-opacity="1"/>
<polyline clip-path="url(#clip202)" style="stroke:#3a873c; stroke-linecap:round; stroke-linejoin:round; stroke-width:0; stroke-opacity:1; fill:none" points="454.316,1000 478.228,1000.35 502.141,1000.92 526.054,1001.73 549.967,1002.77 573.88,1004.05 597.793,1005.56 621.705,1007.3 645.618,1009.29 669.531,1011.52 670.135,1011.58 693.444,1013.77 717.357,1016.24 741.27,1018.93 765.182,1021.86 789.095,1025.01 813.008,1028.4 836.921,1032.03 842.949,1033.01 860.834,1035.65 884.747,1039.41 908.659,1043.39 932.572,1047.6 956.485,1052.04 968.738,1054.44 980.398,1056.53 1004.31,1061.03 1028.22,1065.75 1052.14,1070.7 1075.97,1075.87 1076.05,1075.88 1099.96,1080.84 1123.87,1086.01 1147.79,1091.4 1171.7,1097.01 1172.88,1097.3 1195.61,1102.38 1219.53,1107.94 1243.44,1113.69 1263.67,1118.73 1267.35,1119.57 1291.26,1125.24 1315.18,1131.08 1339.09,1137.11 1350.85,1140.16 1363,1143.04 1386.92,1148.87 1410.83,1154.86 1434.74,1161.03 1436.86,1161.59 1458.65,1166.77 1482.57,1172.59 1506.48,1178.55 1524.02,1183.02 1530.39,1184.45 1554.31,1189.93 1578.22,1195.48 1602.13,1201.11 1616.12,1204.45 1626.04,1206.47 1649.96,1211.36 1673.87,1216.24 1697.78,1221.11 1721.38,1225.87 1721.7,1225.93 1745.61,1229.76 1769.52,1233.5 1793.43,1237.12 1817.35,1240.63 1841.26,1244.01 "/>
<path clip-path="url(#clip200)" d="M412.707 1299.05 Q405.485 1299.05 401.828 1306.18 Q398.217 1313.26 398.217 1327.52 Q398.217 1341.73 401.828 1348.86 Q405.485 1355.95 412.707 1355.95 Q419.976 1355.95 423.587 1348.86 Q427.244 1341.73 427.244 1327.52 Q427.244 1313.26 423.587 1306.18 Q419.976 1299.05 412.707 1299.05 M412.707 1291.64 Q424.327 1291.64 430.439 1300.85 Q436.596 1310.02 436.596 1327.52 Q436.596 1344.97 430.439 1354.19 Q424.327 1363.35 412.707 1363.35 Q401.087 1363.35 394.929 1354.19 Q388.818 1344.97 388.818 1327.52 Q388.818 1310.02 394.929 1300.85 Q401.087 1291.64 412.707 1291.64 Z" fill="#000000" fill-rule="nonzero" fill-opacity="1" /></svg>
