<?xml version="1.0" encoding="utf-8"?>
<svg xmlns="http://www.w3.org/2000/svg" xmlns:xlink="http://www.w3.org/1999/xlink" width="500" height="400" viewBox="0 0 2000 1600">
<defs>
  <clipPath id="clip970">
    <rect x="0" y="0" width="2000" height="1600"/>
  </clipPath>
</defs>
<path clip-path="url(#clip970)" d="M0 1600 L2000 1600 L2000 0 L0 0  Z" fill="#ffffff" fill-rule="evenodd" fill-opacity="1"/>
<defs>
  <clipPath id="clip971">
    <rect x="400" y="0" width="1401" height="1401"/>
  </clipPath>
</defs>
<path clip-path="url(#clip970)" d="M299.209 1288.27 L1921.26 1288.27 L1921.26 78.7402 L299.209 78.7402  Z" fill="#ffffff" fill-rule="evenodd" fill-opacity="1"/>
<defs>
  <clipPath id="clip972">
    <rect x="299" y="78" width="1623" height="1211"/>
  </clipPath>
</defs>
<polyline clip-path="url(#clip972)" style="stroke:#000000; stroke-linecap:round; stroke-linejoin:round; stroke-width:2; stroke-opacity:0.1; fill:none" points="677.529,1288.27 677.529,78.7402 "/>
<polyline clip-path="url(#clip972)" style="stroke:#000000; stroke-linecap:round; stroke-linejoin:round; stroke-width:2; stroke-opacity:0.1; fill:none" points="1092.11,1288.27 1092.11,78.7402 "/>
<polyline clip-path="url(#clip972)" style="stroke:#000000; stroke-linecap:round; stroke-linejoin:round; stroke-width:2; stroke-opacity:0.1; fill:none" points="1506.68,1288.27 1506.68,78.7402 "/>
<polyline clip-path="url(#clip972)" style="stroke:#000000; stroke-linecap:round; stroke-linejoin:round; stroke-width:2; stroke-opacity:0.1; fill:none" points="1921.26,1288.27 1921.26,78.7402 "/>
<polyline clip-path="url(#clip972)" style="stroke:#000000; stroke-linecap:round; stroke-linejoin:round; stroke-width:2; stroke-opacity:0.1; fill:none" points="299.209,1122.24 1921.26,1122.24 "/>
<polyline clip-path="url(#clip972)" style="stroke:#000000; stroke-linecap:round; stroke-linejoin:round; stroke-width:2; stroke-opacity:0.1; fill:none" points="299.209,902.873 1921.26,902.873 "/>
<polyline clip-path="url(#clip972)" style="stroke:#000000; stroke-linecap:round; stroke-linejoin:round; stroke-width:2; stroke-opacity:0.1; fill:none" points="299.209,683.505 1921.26,683.505 "/>
<polyline clip-path="url(#clip972)" style="stroke:#000000; stroke-linecap:round; stroke-linejoin:round; stroke-width:2; stroke-opacity:0.1; fill:none" points="299.209,464.137 1921.26,464.137 "/>
<polyline clip-path="url(#clip972)" style="stroke:#000000; stroke-linecap:round; stroke-linejoin:round; stroke-width:2; stroke-opacity:0.1; fill:none" points="299.209,244.77 1921.26,244.77 "/>
<polyline clip-path="url(#clip970)" style="stroke:#000000; stroke-linecap:round; stroke-linejoin:round; stroke-width:4; stroke-opacity:1; fill:none" points="299.209,1288.27 1921.26,1288.27 "/>
<polyline clip-path="url(#clip970)" style="stroke:#000000; stroke-linecap:round; stroke-linejoin:round; stroke-width:4; stroke-opacity:1; fill:none" points="677.529,1288.27 677.529,1269.37 "/>
<polyline clip-path="url(#clip970)" style="stroke:#000000; stroke-linecap:round; stroke-linejoin:round; stroke-width:4; stroke-opacity:1; fill:none" points="1092.11,1288.27 1092.11,1269.37 "/>
<polyline clip-path="url(#clip970)" style="stroke:#000000; stroke-linecap:round; stroke-linejoin:round; stroke-width:4; stroke-opacity:1; fill:none" points="1506.68,1288.27 1506.68,1269.37 "/>
<polyline clip-path="url(#clip970)" style="stroke:#000000; stroke-linecap:round; stroke-linejoin:round; stroke-width:4; stroke-opacity:1; fill:none" points="1921.26,1288.27 1921.26,1269.37 "/>
<path clip-path="url(#clip970)" d="M633.293 1327.71 Q626.071 1327.71 622.413 1334.84 Q618.802 1341.92 618.802 1356.18 Q618.802 1370.39 622.413 1377.52 Q626.071 1384.61 633.293 1384.61 Q640.561 1384.61 644.172 1377.52 Q647.83 1370.39 647.83 1356.18 Q647.83 1341.92 644.172 1334.84 Q640.561 1327.71 633.293 1327.71 M633.293 1320.3 Q644.913 1320.3 651.024 1329.51 Q657.181 1338.68 657.181 1356.18 Q657.181 1373.63 651.024 1382.85 Q644.913 1392.01 633.293 1392.01 Q621.672 1392.01 615.515 1382.85 Q609.404 1373.63 609.404 1356.18 Q609.404 1338.68 615.515 1329.51 Q621.672 1320.3 633.293 1320.3 Z" fill="#000000" fill-rule="nonzero" fill-opacity="1" /><path clip-path="url(#clip970)" d="M673.617 1378.91 L683.385 1378.91 L683.385 1390.67 L673.617 1390.67 L673.617 1378.91 Z" fill="#000000" fill-rule="nonzero" fill-opacity="1" /><path clip-path="url(#clip970)" d="M703.848 1321.55 L740.561 1321.55 L740.561 1329.42 L712.413 1329.42 L712.413 1346.37 Q714.45 1345.67 716.487 1345.35 Q718.524 1344.98 720.561 1344.98 Q732.135 1344.98 738.894 1351.32 Q745.653 1357.66 745.653 1368.49 Q745.653 1379.65 738.709 1385.86 Q731.764 1392.01 719.126 1392.01 Q714.774 1392.01 710.237 1391.27 Q705.746 1390.53 700.931 1389.05 L700.931 1379.65 Q705.098 1381.92 709.542 1383.03 Q713.987 1384.14 718.94 1384.14 Q726.95 1384.14 731.626 1379.93 Q736.301 1375.72 736.301 1368.49 Q736.301 1361.27 731.626 1357.06 Q726.95 1352.85 718.94 1352.85 Q715.19 1352.85 711.44 1353.68 Q707.737 1354.51 703.848 1356.27 L703.848 1321.55 Z" fill="#000000" fill-rule="nonzero" fill-opacity="1" /><path clip-path="url(#clip970)" d="M1026.41 1382.8 L1041.69 1382.8 L1041.69 1330.07 L1025.07 1333.4 L1025.07 1324.88 L1041.6 1321.55 L1050.95 1321.55 L1050.95 1382.8 L1066.23 1382.8 L1066.23 1390.67 L1026.41 1390.67 L1026.41 1382.8 Z" fill="#000000" fill-rule="nonzero" fill-opacity="1" /><path clip-path="url(#clip970)" d="M1085.11 1378.91 L1094.88 1378.91 L1094.88 1390.67 L1085.11 1390.67 L1085.11 1378.91 Z" fill="#000000" fill-rule="nonzero" fill-opacity="1" /><path clip-path="url(#clip970)" d="M1135.25 1327.71 Q1128.03 1327.71 1124.37 1334.84 Q1120.76 1341.92 1120.76 1356.18 Q1120.76 1370.39 1124.37 1377.52 Q1128.03 1384.61 1135.25 1384.61 Q1142.52 1384.61 1146.13 1377.52 Q1149.79 1370.39 1149.79 1356.18 Q1149.79 1341.92 1146.13 1334.84 Q1142.52 1327.71 1135.25 1327.71 M1135.25 1320.3 Q1146.87 1320.3 1152.98 1329.51 Q1159.14 1338.68 1159.14 1356.18 Q1159.14 1373.63 1152.98 1382.85 Q1146.87 1392.01 1135.25 1392.01 Q1123.63 1392.01 1117.48 1382.85 Q1111.36 1373.63 1111.36 1356.18 Q1111.36 1338.68 1117.48 1329.51 Q1123.63 1320.3 1135.25 1320.3 Z" fill="#000000" fill-rule="nonzero" fill-opacity="1" /><path clip-path="url(#clip970)" d="M1441.98 1382.8 L1457.26 1382.8 L1457.26 1330.07 L1440.64 1333.4 L1440.64 1324.88 L1457.17 1321.55 L1466.52 1321.55 L1466.52 1382.8 L1481.8 1382.8 L1481.8 1390.67 L1441.98 1390.67 L1441.98 1382.8 Z" fill="#000000" fill-rule="nonzero" fill-opacity="1" /><path clip-path="url(#clip970)" d="M1500.69 1378.91 L1510.46 1378.91 L1510.46 1390.67 L1500.69 1390.67 L1500.69 1378.91 Z" fill="#000000" fill-rule="nonzero" fill-opacity="1" /><path clip-path="url(#clip970)" d="M1530.92 1321.55 L1567.63 1321.55 L1567.63 1329.42 L1539.48 1329.42 L1539.48 1346.37 Q1541.52 1345.67 1543.56 1345.35 Q1545.59 1344.98 1547.63 1344.98 Q1559.21 1344.98 1565.96 1351.32 Q1572.72 1357.66 1572.72 1368.49 Q1572.72 1379.65 1565.78 1385.86 Q1558.84 1392.01 1546.2 1392.01 Q1541.84 1392.01 1537.31 1391.27 Q1532.82 1390.53 1528 1389.05 L1528 1379.65 Q1532.17 1381.92 1536.61 1383.03 Q1541.06 1384.14 1546.01 1384.14 Q1554.02 1384.14 1558.7 1379.93 Q1563.37 1375.72 1563.37 1368.49 Q1563.37 1361.27 1558.7 1357.06 Q1554.02 1352.85 1546.01 1352.85 Q1542.26 1352.85 1538.51 1353.68 Q1534.81 1354.51 1530.92 1356.27 L1530.92 1321.55 Z" fill="#000000" fill-rule="nonzero" fill-opacity="1" /><path clip-path="url(#clip970)" d="M1863.74 1382.8 L1896.38 1382.8 L1896.38 1390.67 L1852.49 1390.67 L1852.49 1382.8 Q1857.81 1377.29 1866.98 1368.03 Q1876.19 1358.73 1878.55 1356.04 Q1883.04 1350.99 1884.8 1347.52 Q1886.61 1344 1886.61 1340.62 Q1886.61 1335.12 1882.72 1331.64 Q1878.88 1328.17 1872.67 1328.17 Q1868.27 1328.17 1863.37 1329.7 Q1858.51 1331.23 1852.95 1334.33 L1852.95 1324.88 Q1858.6 1322.62 1863.51 1321.46 Q1868.41 1320.3 1872.49 1320.3 Q1883.23 1320.3 1889.62 1325.67 Q1896.01 1331.04 1896.01 1340.02 Q1896.01 1344.28 1894.38 1348.12 Q1892.81 1351.92 1888.6 1357.11 Q1887.44 1358.45 1881.24 1364.88 Q1875.03 1371.27 1863.74 1382.8 Z" fill="#000000" fill-rule="nonzero" fill-opacity="1" /><path clip-path="url(#clip970)" d="M1916.01 1378.91 L1925.77 1378.91 L1925.77 1390.67 L1916.01 1390.67 L1916.01 1378.91 Z" fill="#000000" fill-rule="nonzero" fill-opacity="1" /><path clip-path="url(#clip970)" d="M1966.14 1327.71 Q1958.92 1327.71 1955.26 1334.84 Q1951.65 1341.92 1951.65 1356.18 Q1951.65 1370.39 1955.26 1377.52 Q1958.92 1384.61 1966.14 1384.61 Q1973.41 1384.61 1977.02 1377.52 Q1980.68 1370.39 1980.68 1356.18 Q1980.68 1341.92 1977.02 1334.84 Q1973.41 1327.71 1966.14 1327.71 M1966.14 1320.3 Q1977.76 1320.3 1983.88 1329.51 Q1990.03 1338.68 1990.03 1356.18 Q1990.03 1373.63 1983.88 1382.85 Q1977.76 1392.01 1966.14 1392.01 Q1954.52 1392.01 1948.37 1382.85 Q1942.26 1373.63 1942.26 1356.18 Q1942.26 1338.68 1948.37 1329.51 Q1954.52 1320.3 1966.14 1320.3 Z" fill="#000000" fill-rule="nonzero" fill-opacity="1" /><path clip-path="url(#clip970)" d="M1110.02 1422.64 Q1110.02 1424.01 1109.44 1426.64 Q1107.6 1434.07 1100.7 1439.19 Q1099.54 1440.13 1097.48 1441.35 Q1099.96 1442.98 1102.12 1445.98 Q1105.33 1450.94 1105.33 1457.63 Q1105.33 1460.74 1104.49 1464.53 Q1102.12 1473.34 1093.79 1479.66 Q1085.41 1485.83 1075.45 1485.83 Q1070.08 1485.83 1066.39 1482.98 Q1062.75 1480.08 1061.33 1475.23 L1054 1504.8 Q1053.85 1505.54 1052.9 1505.54 L1052.37 1505.54 Q1051.26 1505.54 1051.26 1504.27 L1067.92 1437.87 Q1069.02 1433.39 1070.81 1429.17 Q1072.61 1424.96 1075.08 1421.16 Q1077.61 1417.37 1080.51 1414.57 Q1083.41 1411.73 1086.99 1410.1 Q1090.58 1408.41 1094.37 1408.41 Q1102.33 1408.41 1106.86 1413.84 Q1110.02 1417.68 1110.02 1422.64 M1103.96 1420.74 Q1103.96 1417.47 1102.65 1415.21 Q1099.96 1410.89 1094.27 1410.89 Q1090.84 1410.89 1087.57 1412.47 Q1084.36 1414 1081.78 1416.63 Q1079.19 1419.27 1076.98 1422.85 Q1074.77 1426.43 1073.13 1430.33 Q1071.55 1434.18 1070.5 1438.4 L1064.02 1464.53 Q1063.38 1467.33 1063.38 1469.8 Q1063.38 1475.71 1066.65 1479.55 Q1069.92 1483.4 1075.56 1483.4 Q1083.04 1483.4 1089.47 1477.82 Q1095.06 1472.81 1097.38 1464.01 Q1098.69 1458.47 1098.69 1454.63 Q1098.69 1450.41 1097.16 1447.14 Q1096.06 1444.51 1093.9 1442.93 Q1089.89 1444.35 1085.83 1444.35 Q1083.88 1444.35 1082.83 1444.3 Q1081.83 1444.25 1080.35 1444.03 Q1078.93 1443.82 1078.25 1443.24 Q1077.61 1442.66 1077.61 1441.77 Q1077.61 1441.24 1077.72 1441.03 Q1077.93 1440.19 1078.61 1439.61 Q1079.3 1439.03 1080.09 1438.76 Q1080.88 1438.45 1082.2 1438.29 Q1083.57 1438.13 1084.46 1438.13 Q1085.36 1438.08 1086.89 1438.08 Q1090.47 1438.08 1094.11 1439.5 Q1095.48 1438.76 1096.95 1437.45 Q1101.64 1433.07 1103.23 1426.12 Q1103.96 1423.53 1103.96 1420.74 M1090.68 1441.14 Q1088.47 1440.56 1086.78 1440.56 Q1080.62 1440.56 1080.3 1441.56 Q1080.3 1441.66 1080.51 1441.77 Q1080.72 1441.82 1081.2 1441.87 Q1081.72 1441.87 1082.15 1441.93 Q1082.62 1441.98 1083.41 1441.98 Q1084.2 1441.98 1084.62 1441.98 Q1085.1 1441.98 1085.94 1441.98 Q1088.05 1441.98 1090.68 1441.14 Z" fill="#000000" fill-rule="nonzero" fill-opacity="1" /><path clip-path="url(#clip970)" d="M1158.05 1525.67 Q1158.05 1525.97 1157.72 1527.11 Q1157.38 1528.25 1156.57 1530.02 Q1155.8 1531.79 1154.73 1533.42 Q1153.66 1535 1151.89 1536.18 Q1150.15 1537.33 1148.16 1537.33 Q1145.5 1537.33 1143.73 1535.56 Q1141.96 1533.79 1141.96 1531.13 Q1141.96 1530.76 1142 1530.39 Q1142.04 1530.02 1142.07 1529.8 Q1142.11 1529.54 1142.22 1529.14 Q1142.37 1528.7 1142.41 1528.51 Q1142.48 1528.33 1142.66 1527.77 Q1142.89 1527.18 1142.96 1526.96 Q1147.64 1515.01 1147.64 1510.03 Q1147.64 1504.75 1143.55 1504.75 Q1139.9 1504.75 1136.28 1507.41 Q1134.62 1508.74 1133.04 1511.1 Q1131.45 1513.46 1131.15 1514.35 Q1130.82 1516.26 1130.34 1517.74 Q1130.12 1518.77 1129.05 1522.79 L1127.39 1529.62 L1125.95 1535.34 Q1125.66 1536.15 1124.85 1536.74 Q1124.03 1537.33 1123.15 1537.33 Q1122.41 1537.33 1121.67 1536.81 Q1120.97 1536.33 1120.97 1535.19 Q1120.97 1534.6 1121.27 1533.53 L1132.22 1490 L1132.45 1488.52 Q1132.45 1488.08 1132.26 1487.86 Q1132.11 1487.6 1131.23 1487.42 Q1130.38 1487.23 1128.68 1487.23 Q1127.98 1487.23 1127.65 1487.19 Q1127.35 1487.16 1127.1 1486.97 Q1126.84 1486.75 1126.84 1486.31 Q1126.84 1485.68 1127.1 1485.35 Q1127.39 1484.98 1127.61 1484.91 Q1127.83 1484.83 1128.28 1484.8 Q1128.9 1484.76 1131.01 1484.58 Q1133.11 1484.35 1134.92 1484.21 Q1136.73 1484.06 1137.5 1484.06 Q1137.94 1484.06 1138.16 1484.28 Q1138.42 1484.46 1138.46 1484.69 L1138.5 1484.87 L1132.59 1508.89 Q1137.28 1503.09 1143.77 1503.09 Q1147.98 1503.09 1150.23 1505.27 Q1152.48 1507.41 1152.48 1511.17 Q1152.48 1515.49 1147.87 1527.77 Q1146.5 1531.2 1146.5 1533.16 Q1146.5 1534.45 1146.91 1535.04 Q1147.35 1535.63 1148.31 1535.63 Q1149.78 1535.63 1151.08 1534.78 Q1152.4 1533.9 1153.33 1532.46 Q1154.25 1530.98 1154.88 1529.51 Q1155.54 1528 1156.02 1526.3 Q1156.31 1525.38 1156.46 1525.15 Q1156.65 1524.93 1157.16 1524.93 Q1158.05 1524.93 1158.05 1525.67 Z" fill="#000000" fill-rule="nonzero" fill-opacity="1" /><polyline clip-path="url(#clip970)" style="stroke:#000000; stroke-linecap:round; stroke-linejoin:round; stroke-width:4; stroke-opacity:1; fill:none" points="299.209,1288.27 299.209,78.7402 "/>
<polyline clip-path="url(#clip970)" style="stroke:#000000; stroke-linecap:round; stroke-linejoin:round; stroke-width:4; stroke-opacity:1; fill:none" points="299.209,1122.24 318.107,1122.24 "/>
<polyline clip-path="url(#clip970)" style="stroke:#000000; stroke-linecap:round; stroke-linejoin:round; stroke-width:4; stroke-opacity:1; fill:none" points="299.209,902.873 318.107,902.873 "/>
<polyline clip-path="url(#clip970)" style="stroke:#000000; stroke-linecap:round; stroke-linejoin:round; stroke-width:4; stroke-opacity:1; fill:none" points="299.209,683.505 318.107,683.505 "/>
<polyline clip-path="url(#clip970)" style="stroke:#000000; stroke-linecap:round; stroke-linejoin:round; stroke-width:4; stroke-opacity:1; fill:none" points="299.209,464.137 318.107,464.137 "/>
<polyline clip-path="url(#clip970)" style="stroke:#000000; stroke-linecap:round; stroke-linejoin:round; stroke-width:4; stroke-opacity:1; fill:none" points="299.209,244.77 318.107,244.77 "/>
<path clip-path="url(#clip970)" d="M85.6456 1123.14 L144.997 1123.14 L144.997 1131.01 L85.6456 1131.01 L85.6456 1123.14 Z" fill="#000000" fill-rule="nonzero" fill-opacity="1" /><path clip-path="url(#clip970)" d="M173.238 1148.93 L205.876 1148.93 L205.876 1156.8 L161.988 1156.8 L161.988 1148.93 Q167.312 1143.42 176.478 1134.16 Q185.691 1124.86 188.052 1122.17 Q192.543 1117.13 194.302 1113.65 Q196.108 1110.13 196.108 1106.76 Q196.108 1101.25 192.219 1097.77 Q188.377 1094.3 182.173 1094.3 Q177.775 1094.3 172.867 1095.83 Q168.006 1097.36 162.451 1100.46 L162.451 1091.01 Q168.099 1088.75 173.006 1087.59 Q177.914 1086.43 181.988 1086.43 Q192.728 1086.43 199.117 1091.8 Q205.506 1097.17 205.506 1106.15 Q205.506 1110.41 203.886 1114.26 Q202.312 1118.05 198.099 1123.24 Q196.941 1124.58 190.738 1131.01 Q184.534 1137.4 173.238 1148.93 Z" fill="#000000" fill-rule="nonzero" fill-opacity="1" /><path clip-path="url(#clip970)" d="M245.506 1123.98 Q238.839 1123.98 234.997 1127.54 Q231.2 1131.11 231.2 1137.36 Q231.2 1143.61 234.997 1147.17 Q238.839 1150.74 245.506 1150.74 Q252.172 1150.74 256.015 1147.17 Q259.858 1143.56 259.858 1137.36 Q259.858 1131.11 256.015 1127.54 Q252.219 1123.98 245.506 1123.98 M236.154 1120 Q230.136 1118.51 226.756 1114.39 Q223.423 1110.27 223.423 1104.35 Q223.423 1096.06 229.302 1091.25 Q235.228 1086.43 245.506 1086.43 Q255.83 1086.43 261.709 1091.25 Q267.589 1096.06 267.589 1104.35 Q267.589 1110.27 264.209 1114.39 Q260.876 1118.51 254.904 1120 Q261.663 1121.57 265.413 1126.15 Q269.209 1130.74 269.209 1137.36 Q269.209 1147.4 263.052 1152.77 Q256.941 1158.14 245.506 1158.14 Q234.071 1158.14 227.913 1152.77 Q221.802 1147.4 221.802 1137.36 Q221.802 1130.74 225.599 1126.15 Q229.395 1121.57 236.154 1120 M232.728 1105.23 Q232.728 1110.6 236.061 1113.61 Q239.441 1116.62 245.506 1116.62 Q251.524 1116.62 254.904 1113.61 Q258.33 1110.6 258.33 1105.23 Q258.33 1099.86 254.904 1096.85 Q251.524 1093.84 245.506 1093.84 Q239.441 1093.84 236.061 1096.85 Q232.728 1099.86 232.728 1105.23 Z" fill="#000000" fill-rule="nonzero" fill-opacity="1" /><path clip-path="url(#clip970)" d="M84.4882 903.776 L143.84 903.776 L143.84 911.646 L84.4882 911.646 L84.4882 903.776 Z" fill="#000000" fill-rule="nonzero" fill-opacity="1" /><path clip-path="url(#clip970)" d="M165.645 929.563 L180.923 929.563 L180.923 876.832 L164.303 880.165 L164.303 871.647 L180.83 868.313 L190.182 868.313 L190.182 929.563 L205.46 929.563 L205.46 937.433 L165.645 937.433 L165.645 929.563 Z" fill="#000000" fill-rule="nonzero" fill-opacity="1" /><path clip-path="url(#clip970)" d="M250.043 876.461 L226.432 913.359 L250.043 913.359 L250.043 876.461 M247.589 868.313 L259.348 868.313 L259.348 913.359 L269.209 913.359 L269.209 921.137 L259.348 921.137 L259.348 937.433 L250.043 937.433 L250.043 921.137 L218.839 921.137 L218.839 912.109 L247.589 868.313 Z" fill="#000000" fill-rule="nonzero" fill-opacity="1" /><path clip-path="url(#clip970)" d="M245.321 655.103 Q238.098 655.103 234.441 662.232 Q230.83 669.316 230.83 683.575 Q230.83 697.788 234.441 704.917 Q238.098 712.001 245.321 712.001 Q252.589 712.001 256.2 704.917 Q259.858 697.788 259.858 683.575 Q259.858 669.316 256.2 662.232 Q252.589 655.103 245.321 655.103 M245.321 647.695 Q256.941 647.695 263.052 656.908 Q269.209 666.075 269.209 683.575 Q269.209 701.028 263.052 710.241 Q256.941 719.408 245.321 719.408 Q233.7 719.408 227.543 710.241 Q221.432 701.028 221.432 683.575 Q221.432 666.075 227.543 656.908 Q233.7 647.695 245.321 647.695 Z" fill="#000000" fill-rule="nonzero" fill-opacity="1" /><path clip-path="url(#clip970)" d="M165.645 490.827 L180.923 490.827 L180.923 438.096 L164.303 441.429 L164.303 432.911 L180.83 429.577 L190.182 429.577 L190.182 490.827 L205.46 490.827 L205.46 498.697 L165.645 498.697 L165.645 490.827 Z" fill="#000000" fill-rule="nonzero" fill-opacity="1" /><path clip-path="url(#clip970)" d="M250.043 437.726 L226.432 474.624 L250.043 474.624 L250.043 437.726 M247.589 429.577 L259.348 429.577 L259.348 474.624 L269.209 474.624 L269.209 482.401 L259.348 482.401 L259.348 498.697 L250.043 498.697 L250.043 482.401 L218.839 482.401 L218.839 473.374 L247.589 429.577 Z" fill="#000000" fill-rule="nonzero" fill-opacity="1" /><path clip-path="url(#clip970)" d="M173.238 271.459 L205.876 271.459 L205.876 279.33 L161.988 279.33 L161.988 271.459 Q167.312 265.95 176.478 256.691 Q185.691 247.385 188.052 244.7 Q192.543 239.654 194.302 236.182 Q196.108 232.663 196.108 229.284 Q196.108 223.774 192.219 220.302 Q188.377 216.83 182.173 216.83 Q177.775 216.83 172.867 218.358 Q168.006 219.885 162.451 222.987 L162.451 213.543 Q168.099 211.274 173.006 210.117 Q177.914 208.96 181.988 208.96 Q192.728 208.96 199.117 214.33 Q205.506 219.7 205.506 228.682 Q205.506 232.941 203.886 236.784 Q202.312 240.58 198.099 245.765 Q196.941 247.108 190.738 253.543 Q184.534 259.932 173.238 271.459 Z" fill="#000000" fill-rule="nonzero" fill-opacity="1" /><path clip-path="url(#clip970)" d="M245.506 246.506 Q238.839 246.506 234.997 250.07 Q231.2 253.635 231.2 259.885 Q231.2 266.135 234.997 269.7 Q238.839 273.265 245.506 273.265 Q252.172 273.265 256.015 269.7 Q259.858 266.089 259.858 259.885 Q259.858 253.635 256.015 250.07 Q252.219 246.506 245.506 246.506 M236.154 242.524 Q230.136 241.043 226.756 236.922 Q223.423 232.802 223.423 226.876 Q223.423 218.589 229.302 213.774 Q235.228 208.96 245.506 208.96 Q255.83 208.96 261.709 213.774 Q267.589 218.589 267.589 226.876 Q267.589 232.802 264.209 236.922 Q260.876 241.043 254.904 242.524 Q261.663 244.098 265.413 248.682 Q269.209 253.265 269.209 259.885 Q269.209 269.932 263.052 275.302 Q256.941 280.672 245.506 280.672 Q234.071 280.672 227.913 275.302 Q221.802 269.932 221.802 259.885 Q221.802 253.265 225.599 248.682 Q229.395 244.098 236.154 242.524 M232.728 227.756 Q232.728 233.126 236.061 236.135 Q239.441 239.145 245.506 239.145 Q251.524 239.145 254.904 236.135 Q258.33 233.126 258.33 227.756 Q258.33 222.385 254.904 219.376 Q251.524 216.367 245.506 216.367 Q239.441 216.367 236.061 219.376 Q232.728 222.385 232.728 227.756 Z" fill="#000000" fill-rule="nonzero" fill-opacity="1" /><path clip-path="url(#clip972)" d="M299.209 2497.8 L299.209 -1130.79 L550.907 -1130.79 L550.907 2497.8 L299.209 2497.8  Z" fill="#3a873c" fill-rule="evenodd" fill-opacity="0.5"/>
<polyline clip-path="url(#clip972)" style="stroke:#000000; stroke-linecap:round; stroke-linejoin:round; stroke-width:0; stroke-opacity:0.5; fill:none" points="299.209,2497.8 299.209,-1130.79 550.907,-1130.79 550.907,2497.8 299.209,2497.8 "/>
<path clip-path="url(#clip972)" d="M550.907 2497.8 L550.907 -1130.79 L606.84 -1130.79 L606.84 2497.8 L550.907 2497.8  Z" fill="#e5b12e" fill-rule="evenodd" fill-opacity="0.5"/>
<polyline clip-path="url(#clip972)" style="stroke:#000000; stroke-linecap:round; stroke-linejoin:round; stroke-width:0; stroke-opacity:0.5; fill:none" points="550.907,2497.8 550.907,-1130.79 606.84,-1130.79 606.84,2497.8 550.907,2497.8 "/>
<path clip-path="url(#clip972)" d="M606.84 2497.8 L606.84 -1130.79 L774.638 -1130.79 L774.638 2497.8 L606.84 2497.8  Z" fill="#8c5b89" fill-rule="evenodd" fill-opacity="0.5"/>
<polyline clip-path="url(#clip972)" style="stroke:#000000; stroke-linecap:round; stroke-linejoin:round; stroke-width:0; stroke-opacity:0.5; fill:none" points="606.84,2497.8 606.84,-1130.79 774.638,-1130.79 774.638,2497.8 606.84,2497.8 "/>
<path clip-path="url(#clip972)" d="M774.638 2497.8 L774.638 -1130.79 L1921.26 -1130.79 L1921.26 2497.8 L774.638 2497.8  Z" fill="#50b3d1" fill-rule="evenodd" fill-opacity="0.5"/>
<polyline clip-path="url(#clip972)" style="stroke:#000000; stroke-linecap:round; stroke-linejoin:round; stroke-width:0; stroke-opacity:0.5; fill:none" points="774.638,2497.8 774.638,-1130.79 1921.26,-1130.79 1921.26,2497.8 774.638,2497.8 "/>
<polyline clip-path="url(#clip972)" style="stroke:#148109; stroke-linecap:round; stroke-linejoin:round; stroke-width:10; stroke-opacity:1; fill:none" points="299.209,300.712 327.176,368.485 355.142,420.446 383.109,466.391 411.075,508.557 439.041,547.647 467.008,583.913 494.974,617.158 522.941,647.922 550.907,676.326 578.873,702.428 606.84,726.305 634.806,748.048 662.772,767.766 690.739,785.578 718.705,801.609 746.672,815.99 774.638,828.852 802.604,840.324 830.571,850.529 858.537,859.589 886.504,867.615 914.47,874.712 942.436,880.978 970.403,886.502 998.369,891.365 1026.34,895.641 1054.3,899.398 1082.27,902.694 1110.23,905.585 1138.2,908.117 1166.17,910.333 1194.13,912.272 1222.1,913.967 1250.07,915.448 1278.03,916.74 1306,917.867 1333.97,918.85 1361.93,919.706 1389.9,920.452 1417.86,921.1 1445.83,921.663 1473.8,922.152 1501.76,922.576 1529.73,922.944 1557.7,923.261 1585.66,923.536 1613.63,923.773 1641.6,923.978 1669.56,924.153 1697.53,924.304 1725.5,924.433 1753.46,924.543 1781.43,924.636 1809.39,924.716 1837.36,924.783 1865.33,924.839 1893.29,924.886 1921.26,924.925 "/>
<polyline clip-path="url(#clip972)" style="stroke:#d62020; stroke-linecap:round; stroke-linejoin:round; stroke-width:10; stroke-opacity:1; fill:none" points="299.209,78.7402 327.176,167.079 355.142,238.931 383.109,303.931 411.075,364.22 439.041,420.43 467.008,472.762 494.974,521.083 522.941,565.791 550.907,607.011 578.873,644.837 606.84,679.388 634.806,710.809 662.772,739.266 690.739,764.939 718.705,788.019 746.672,808.698 774.638,827.174 802.604,843.636 830.571,858.268 858.537,871.246 886.504,882.735 914.47,892.887 942.436,901.845 970.403,909.739 998.369,916.686 1026.34,922.793 1054.3,928.158 1082.27,932.865 1110.23,936.992 1138.2,940.609 1166.17,943.776 1194.13,946.548 1222.1,948.973 1250.07,951.093 1278.03,952.946 1306,954.565 1333.97,955.978 1361.93,957.211 1389.9,958.287 1417.86,959.225 1445.83,960.042 1473.8,960.754 1501.76,961.374 1529.73,961.913 1557.7,962.382 1585.66,962.79 1613.63,963.143 1641.6,963.45 1669.56,963.716 1697.53,963.946 1725.5,964.145 1753.46,964.316 1781.43,964.464 1809.39,964.592 1837.36,964.701 1865.33,964.795 1893.29,964.875 1921.26,964.943 "/>
<polyline clip-path="url(#clip972)" style="stroke:#1e6cd0; stroke-linecap:round; stroke-linejoin:round; stroke-width:10; stroke-opacity:1; fill:none" points="299.209,906.852 327.176,886.556 355.142,866.757 383.109,847.659 411.075,829.401 439.041,812.081 467.008,795.764 494.974,780.355 522.941,766.109 550.907,753.038 578.873,741.102 606.84,730.251 634.806,720.43 662.772,711.574 690.739,703.618 718.705,696.495 746.672,690.136 774.638,684.474 802.604,679.445 830.571,674.987 858.537,671.045 886.504,667.563 914.47,664.492 942.436,661.788 970.403,659.408 998.369,657.317 1026.34,655.48 1054.3,653.868 1082.27,652.454 1110.23,651.214 1138.2,650.127 1166.17,649.174 1194.13,648.339 1222.1,647.608 1250.07,646.967 1278.03,646.406 1306,645.914 1333.97,645.483 1361.93,645.105 1389.9,644.774 1417.86,644.484 1445.83,644.229 1473.8,644.006 1501.76,643.81 1529.73,643.638 1557.7,643.487 1585.66,643.354 1613.63,643.237 1641.6,643.135 1669.56,643.045 1697.53,642.965 1725.5,642.895 1753.46,642.834 1781.43,642.779 1809.39,642.732 1837.36,642.689 1865.33,642.652 1893.29,642.619 1921.26,642.59 "/>
<polyline clip-path="url(#clip972)" style="stroke:#000000; stroke-linecap:round; stroke-linejoin:round; stroke-width:10; stroke-opacity:1; fill:none" stroke-dasharray="40, 20, 5, 20" points="-1322.84,683.505 3543.31,683.505 "/>
<path clip-path="url(#clip970)" d="M1539.63 545.966 L1867.19 545.966 L1867.19 119.058 L1539.63 119.058  Z" fill="#ffffff" fill-rule="evenodd" fill-opacity="1"/>
<polyline clip-path="url(#clip970)" style="stroke:#000000; stroke-linecap:round; stroke-linejoin:round; stroke-width:4; stroke-opacity:1; fill:none" points="1539.63,545.966 1867.19,545.966 1867.19,119.058 1539.63,119.058 1539.63,545.966 "/>
<polyline clip-path="url(#clip970)" style="stroke:#148109; stroke-linecap:round; stroke-linejoin:round; stroke-width:18.75; stroke-opacity:1; fill:none" points="1557.65,225.785 1665.79,225.785 "/>
<path clip-path="url(#clip970)" d="M1704.14 266.544 Q1704.14 267.29 1703.62 267.817 Q1703.09 268.344 1702.34 268.344 Q1701.07 268.344 1700.63 267.159 L1683.9 223.988 Q1683.81 223.813 1683.81 223.373 Q1683.81 222.934 1683.9 222.758 L1700.63 179.588 Q1701.07 178.402 1702.34 178.402 Q1703.09 178.402 1703.62 178.929 Q1704.14 179.456 1704.14 180.203 Q1704.14 180.642 1704.06 180.818 L1687.5 223.373 L1704.06 265.929 Q1704.14 266.105 1704.14 266.544 Z" fill="#000000" fill-rule="nonzero" fill-opacity="1" /><path clip-path="url(#clip970)" d="M1782.64 197.989 Q1782.64 202.908 1778.99 207.431 Q1775.39 211.955 1769.51 214.722 Q1763.67 217.445 1757.39 217.445 L1742.1 217.445 L1736.53 239.93 Q1736.48 240.062 1736.35 240.633 Q1736.22 241.16 1736.22 241.467 Q1736.22 242.565 1737.58 242.829 Q1738.99 243.092 1742.1 243.092 Q1744.12 243.092 1744.43 243.443 Q1744.61 243.663 1744.61 244.058 Q1744.61 244.673 1744.43 245.112 Q1744.26 245.508 1743.9 245.639 Q1743.6 245.771 1743.38 245.815 Q1743.16 245.859 1742.81 245.859 Q1741.88 245.859 1739.91 245.771 Q1737.98 245.683 1736.97 245.683 L1731.21 245.595 L1719.79 245.859 Q1718.43 245.859 1718.43 244.761 Q1718.43 243.927 1718.78 243.575 Q1719.13 243.18 1719.53 243.136 Q1719.93 243.092 1720.94 243.092 Q1723.13 243.092 1724.45 242.96 Q1725.77 242.829 1726.6 242.653 Q1727.48 242.433 1727.92 241.819 Q1728.4 241.204 1728.62 240.677 Q1728.84 240.106 1729.15 238.832 L1741.18 190.523 Q1741.53 189.074 1741.53 188.855 Q1741.53 188.108 1741.09 187.844 Q1740.7 187.537 1739.56 187.405 Q1737.36 187.23 1735.69 187.23 Q1734.59 187.23 1734.15 187.186 Q1733.76 187.142 1733.41 186.922 Q1733.1 186.659 1733.1 186.132 Q1733.1 185.297 1733.45 184.946 Q1733.85 184.551 1734.29 184.507 Q1734.73 184.419 1735.78 184.419 L1764.94 184.419 Q1773.33 184.419 1777.98 188.415 Q1782.64 192.412 1782.64 197.989 M1774.29 195.837 Q1774.29 187.23 1762.04 187.23 L1753.43 187.23 Q1750.58 187.23 1749.88 187.757 Q1749.17 188.24 1748.56 190.655 L1742.45 215.117 L1755.15 215.117 Q1763.67 215.117 1768.98 210.33 Q1771.4 208.134 1772.85 203.567 Q1774.29 198.999 1774.29 195.837 Z" fill="#000000" fill-rule="nonzero" fill-opacity="1" /><path clip-path="url(#clip970)" d="M1805.08 228.811 L1796.01 265.21 Q1795.64 266.654 1795.64 268.222 Q1795.64 271.112 1797.55 271.112 Q1798.44 271.112 1799.18 270.528 Q1799.91 269.913 1800.47 268.714 Q1801.05 267.484 1801.42 266.316 Q1801.82 265.148 1802.31 263.334 Q1802.46 262.627 1802.62 262.412 Q1802.77 262.197 1803.2 262.197 Q1803.97 262.197 1803.97 262.812 Q1803.2 266.593 1802.07 268.991 Q1800.41 272.526 1797.33 272.526 Q1795.03 272.526 1793.3 270.928 Q1791.61 269.298 1791.61 266.716 Q1791.61 265.732 1791.92 264.564 L1799.85 233.084 L1800.07 231.854 Q1800.07 231.516 1799.94 231.332 Q1799.82 231.147 1799.08 230.963 Q1798.38 230.779 1796.96 230.779 Q1796.38 230.779 1796.1 230.748 Q1795.86 230.717 1795.61 230.563 Q1795.39 230.41 1795.39 230.071 Q1795.39 229.518 1795.61 229.211 Q1795.86 228.903 1796.04 228.842 Q1796.22 228.78 1796.59 228.75 Q1797.12 228.719 1798.87 228.565 Q1800.62 228.381 1802.13 228.258 Q1803.63 228.135 1804.28 228.135 Q1804.65 228.135 1804.83 228.319 Q1805.05 228.473 1805.08 228.657 L1805.08 228.811 Z" fill="#000000" fill-rule="nonzero" fill-opacity="1" /><path clip-path="url(#clip970)" d="M1834.75 222.758 Q1834.84 222.934 1834.84 223.373 Q1834.84 223.813 1834.75 223.988 L1818.02 267.159 Q1817.58 268.344 1816.35 268.344 Q1815.6 268.344 1815.07 267.817 Q1814.55 267.29 1814.55 266.544 Q1814.55 266.105 1814.64 265.929 L1831.15 223.373 L1814.64 180.818 Q1814.55 180.642 1814.55 180.203 Q1814.55 179.456 1815.07 178.929 Q1815.6 178.402 1816.35 178.402 Q1817.58 178.402 1818.02 179.588 L1834.75 222.758 Z" fill="#000000" fill-rule="nonzero" fill-opacity="1" /><polyline clip-path="url(#clip970)" style="stroke:#d62020; stroke-linecap:round; stroke-linejoin:round; stroke-width:18.75; stroke-opacity:1; fill:none" points="1557.65,332.512 1665.79,332.512 "/>
<path clip-path="url(#clip970)" d="M1746 302.73 Q1746 309.054 1743.71 315.334 Q1741.43 321.57 1737.61 326.621 Q1733.83 331.671 1728.91 335.58 Q1724.04 339.445 1718.81 341.421 Q1719.47 346.691 1720.79 348.667 Q1722.15 350.687 1725.18 350.687 Q1726.94 350.687 1728.83 349.897 Q1730.76 349.106 1732.73 347.042 Q1734.71 345.022 1735.72 342.036 Q1736.03 341.07 1736.82 341.07 Q1737.13 341.07 1737.43 341.333 Q1737.79 341.553 1737.79 341.948 Q1737.79 342.299 1737.39 343.573 Q1737.04 344.89 1736.29 346.911 Q1735.55 348.931 1734.27 351.039 Q1733 353.191 1731.42 355.079 Q1729.88 356.968 1727.6 358.153 Q1725.31 359.383 1722.77 359.383 Q1720.66 359.383 1719.12 358.593 Q1717.63 357.802 1716.88 356.792 Q1716.18 355.782 1715.78 354.157 Q1715.39 352.576 1715.34 351.698 Q1715.3 350.819 1715.3 349.502 Q1715.3 348.14 1715.65 342.563 Q1710.91 343.924 1706.87 343.924 Q1696.9 343.924 1690.35 337.381 Q1683.81 330.837 1683.81 319.902 Q1683.81 312.26 1687.24 304.662 Q1690.66 297.021 1696.11 291.355 Q1701.55 285.646 1708.71 282.089 Q1715.91 278.532 1723.03 278.532 Q1733.13 278.532 1739.54 285.251 Q1746 291.926 1746 302.73 M1738.05 299.875 Q1738.05 291.004 1733.7 285.91 Q1729.4 280.771 1722.5 280.771 Q1717.23 280.771 1711.39 284.153 Q1705.59 287.535 1700.89 294.078 Q1696.28 300.622 1694 308.834 Q1691.76 317.047 1691.76 322.8 Q1691.76 329.168 1694.26 333.955 Q1696.77 338.698 1701.82 340.674 Q1701.29 339.62 1701.29 337.82 Q1701.29 334.306 1704.1 331.496 Q1706.91 328.641 1710.47 328.641 Q1712.05 328.641 1713.28 329.124 Q1714.55 329.563 1715.34 330.486 Q1716.18 331.408 1716.7 332.286 Q1717.28 333.121 1717.58 334.482 Q1717.93 335.8 1718.07 336.502 Q1718.2 337.161 1718.37 338.347 Q1722.68 335.931 1726.19 331.979 Q1729.7 327.982 1731.86 323.766 Q1734.01 319.506 1735.46 314.895 Q1736.91 310.24 1737.48 306.551 Q1738.05 302.818 1738.05 299.875 M1715.91 338.259 Q1715.91 334.175 1714.6 332.418 Q1713.32 330.617 1710.47 330.617 Q1707.66 330.617 1705.46 332.857 Q1703.27 335.097 1703.27 337.82 Q1703.27 339.181 1703.66 340.06 Q1704.1 340.894 1704.89 341.245 Q1705.68 341.553 1706.16 341.641 Q1706.65 341.684 1707.39 341.684 Q1711.22 341.684 1714.95 340.06 Q1715.61 339.796 1715.74 339.533 Q1715.91 339.269 1715.91 338.259 Z" fill="#000000" fill-rule="nonzero" fill-opacity="1" /><path clip-path="url(#clip970)" d="M1785.9 376.166 Q1785.9 376.412 1785.62 377.365 Q1785.34 378.318 1784.67 379.794 Q1784.02 381.269 1783.13 382.622 Q1782.24 383.944 1780.76 384.928 Q1779.32 385.881 1777.66 385.881 Q1775.44 385.881 1773.97 384.405 Q1772.49 382.93 1772.49 380.716 Q1772.49 380.409 1772.52 380.101 Q1772.55 379.794 1772.58 379.609 Q1772.61 379.394 1772.71 379.056 Q1772.83 378.687 1772.86 378.533 Q1772.92 378.38 1773.08 377.919 Q1773.26 377.427 1773.32 377.242 Q1777.23 367.282 1777.23 363.132 Q1777.23 358.736 1773.81 358.736 Q1770.77 358.736 1767.76 360.949 Q1766.37 362.056 1765.05 364.023 Q1763.73 365.991 1763.48 366.729 Q1763.21 368.327 1762.81 369.557 Q1762.62 370.418 1761.73 373.768 L1760.35 379.456 L1759.15 384.221 Q1758.9 384.897 1758.23 385.389 Q1757.55 385.881 1756.81 385.881 Q1756.2 385.881 1755.58 385.45 Q1755 385.051 1755 384.098 Q1755 383.606 1755.25 382.714 L1764.38 346.439 L1764.56 345.209 Q1764.56 344.84 1764.41 344.656 Q1764.28 344.441 1763.55 344.287 Q1762.84 344.133 1761.42 344.133 Q1760.84 344.133 1760.56 344.102 Q1760.32 344.072 1760.1 343.918 Q1759.89 343.734 1759.89 343.365 Q1759.89 342.842 1760.1 342.565 Q1760.35 342.258 1760.53 342.196 Q1760.72 342.135 1761.09 342.104 Q1761.61 342.073 1763.36 341.92 Q1765.11 341.735 1766.62 341.612 Q1768.13 341.489 1768.77 341.489 Q1769.14 341.489 1769.33 341.674 Q1769.54 341.828 1769.57 342.012 L1769.6 342.166 L1764.68 362.179 Q1768.59 357.352 1774 357.352 Q1777.5 357.352 1779.38 359.166 Q1781.25 360.949 1781.25 364.085 Q1781.25 367.682 1777.41 377.919 Q1776.27 380.778 1776.27 382.407 Q1776.27 383.483 1776.61 383.975 Q1776.98 384.467 1777.78 384.467 Q1779.01 384.467 1780.09 383.76 Q1781.19 383.022 1781.96 381.823 Q1782.73 380.593 1783.25 379.363 Q1783.8 378.103 1784.2 376.689 Q1784.45 375.92 1784.57 375.736 Q1784.73 375.551 1785.16 375.551 Q1785.9 375.551 1785.9 376.166 Z" fill="#000000" fill-rule="nonzero" fill-opacity="1" /><polyline clip-path="url(#clip970)" style="stroke:#1e6cd0; stroke-linecap:round; stroke-linejoin:round; stroke-width:18.75; stroke-opacity:1; fill:none" points="1557.65,439.239 1665.79,439.239 "/>
<path clip-path="url(#clip970)" d="M1746 414.171 Q1746 420.495 1743.71 426.775 Q1741.43 433.012 1737.61 438.062 Q1733.83 443.112 1728.91 447.021 Q1724.04 450.886 1718.81 452.862 Q1719.47 458.132 1720.79 460.108 Q1722.15 462.129 1725.18 462.129 Q1726.94 462.129 1728.83 461.338 Q1730.76 460.548 1732.73 458.483 Q1734.71 456.463 1735.72 453.477 Q1736.03 452.511 1736.82 452.511 Q1737.13 452.511 1737.43 452.774 Q1737.79 452.994 1737.79 453.389 Q1737.79 453.74 1737.39 455.014 Q1737.04 456.332 1736.29 458.352 Q1735.55 460.372 1734.27 462.48 Q1733 464.632 1731.42 466.52 Q1729.88 468.409 1727.6 469.594 Q1725.31 470.824 1722.77 470.824 Q1720.66 470.824 1719.12 470.034 Q1717.63 469.243 1716.88 468.233 Q1716.18 467.223 1715.78 465.598 Q1715.39 464.017 1715.34 463.139 Q1715.3 462.26 1715.3 460.943 Q1715.3 459.581 1715.65 454.004 Q1710.91 455.365 1706.87 455.365 Q1696.9 455.365 1690.35 448.822 Q1683.81 442.278 1683.81 431.343 Q1683.81 423.701 1687.24 416.103 Q1690.66 408.462 1696.11 402.797 Q1701.55 397.087 1708.71 393.53 Q1715.91 389.973 1723.03 389.973 Q1733.13 389.973 1739.54 396.692 Q1746 403.368 1746 414.171 M1738.05 411.317 Q1738.05 402.445 1733.7 397.351 Q1729.4 392.213 1722.5 392.213 Q1717.23 392.213 1711.39 395.594 Q1705.59 398.976 1700.89 405.519 Q1696.28 412.063 1694 420.276 Q1691.76 428.488 1691.76 434.241 Q1691.76 440.609 1694.26 445.396 Q1696.77 450.139 1701.82 452.115 Q1701.29 451.061 1701.29 449.261 Q1701.29 445.748 1704.1 442.937 Q1706.91 440.082 1710.47 440.082 Q1712.05 440.082 1713.28 440.565 Q1714.55 441.004 1715.34 441.927 Q1716.18 442.849 1716.7 443.727 Q1717.28 444.562 1717.58 445.923 Q1717.93 447.241 1718.07 447.943 Q1718.2 448.602 1718.37 449.788 Q1722.68 447.372 1726.19 443.42 Q1729.7 439.423 1731.86 435.207 Q1734.01 430.947 1735.46 426.336 Q1736.91 421.681 1737.48 417.992 Q1738.05 414.259 1738.05 411.317 M1715.91 449.7 Q1715.91 445.616 1714.6 443.859 Q1713.32 442.058 1710.47 442.058 Q1707.66 442.058 1705.46 444.298 Q1703.27 446.538 1703.27 449.261 Q1703.27 450.622 1703.66 451.501 Q1704.1 452.335 1704.89 452.686 Q1705.68 452.994 1706.16 453.082 Q1706.65 453.126 1707.39 453.126 Q1711.22 453.126 1714.95 451.501 Q1715.61 451.237 1715.74 450.974 Q1715.91 450.71 1715.91 449.7 Z" fill="#000000" fill-rule="nonzero" fill-opacity="1" /><path clip-path="url(#clip970)" d="M1779.25 479.901 Q1779.5 480.178 1779.5 480.454 Q1779.5 480.731 1778.89 481.53 Q1778.3 482.33 1777.04 483.405 Q1775.78 484.481 1774.15 485.496 Q1772.52 486.51 1770.12 487.187 Q1767.73 487.894 1765.21 487.894 Q1760.5 487.894 1757.74 484.789 Q1755 481.684 1755 477.226 Q1755 472.892 1757.43 468.742 Q1759.86 464.561 1763.79 461.978 Q1767.73 459.365 1771.88 459.365 Q1775.17 459.365 1777.23 460.902 Q1779.29 462.439 1779.29 464.776 Q1779.29 466.59 1778.24 467.696 Q1777.2 468.803 1775.78 468.803 Q1774.8 468.803 1774.12 468.25 Q1773.44 467.666 1773.44 466.59 Q1773.44 465.206 1774.58 464.13 Q1775.01 463.7 1775.5 463.515 Q1776.03 463.3 1776.33 463.3 Q1776.64 463.27 1777.35 463.27 Q1776.7 462.071 1775.17 461.425 Q1773.66 460.749 1771.94 460.749 Q1769.39 460.749 1766.96 462.532 Q1764.53 464.284 1763.05 467.051 Q1761.58 469.756 1760.63 473.599 Q1759.67 477.411 1759.67 479.624 Q1759.67 482.668 1761.09 484.574 Q1762.5 486.48 1765.33 486.48 Q1765.88 486.48 1766.47 486.449 Q1767.08 486.418 1768.62 486.08 Q1770.19 485.742 1771.57 485.158 Q1772.95 484.574 1774.71 483.313 Q1776.49 482.022 1777.9 480.27 Q1778.39 479.624 1778.73 479.624 Q1779.01 479.624 1779.25 479.901 Z" fill="#000000" fill-rule="nonzero" fill-opacity="1" /></svg>
