<?xml version="1.0" encoding="utf-8"?>
<svg xmlns="http://www.w3.org/2000/svg" xmlns:xlink="http://www.w3.org/1999/xlink" width="500" height="400" viewBox="0 0 2000 1600">
<defs>
  <clipPath id="clip940">
    <rect x="0" y="0" width="2000" height="1600"/>
  </clipPath>
</defs>
<path clip-path="url(#clip940)" d="M0 1600 L2000 1600 L2000 0 L0 0  Z" fill="#ffffff" fill-rule="evenodd" fill-opacity="1"/>
<defs>
  <clipPath id="clip941">
    <rect x="400" y="0" width="1401" height="1401"/>
  </clipPath>
</defs>
<path clip-path="url(#clip940)" d="M298.561 1297.51 L1921.26 1297.51 L1921.26 78.7402 L298.561 78.7402  Z" fill="#ffffff" fill-rule="evenodd" fill-opacity="1"/>
<defs>
  <clipPath id="clip942">
    <rect x="298" y="78" width="1624" height="1220"/>
  </clipPath>
</defs>
<polyline clip-path="url(#clip942)" style="stroke:#000000; stroke-linecap:round; stroke-linejoin:round; stroke-width:2; stroke-opacity:0.1; fill:none" points="683.253,1297.51 683.253,78.7402 "/>
<polyline clip-path="url(#clip942)" style="stroke:#000000; stroke-linecap:round; stroke-linejoin:round; stroke-width:2; stroke-opacity:0.1; fill:none" points="1095.92,1297.51 1095.92,78.7402 "/>
<polyline clip-path="url(#clip942)" style="stroke:#000000; stroke-linecap:round; stroke-linejoin:round; stroke-width:2; stroke-opacity:0.1; fill:none" points="1508.59,1297.51 1508.59,78.7402 "/>
<polyline clip-path="url(#clip942)" style="stroke:#000000; stroke-linecap:round; stroke-linejoin:round; stroke-width:2; stroke-opacity:0.1; fill:none" points="1921.26,1297.51 1921.26,78.7402 "/>
<polyline clip-path="url(#clip942)" style="stroke:#000000; stroke-linecap:round; stroke-linejoin:round; stroke-width:2; stroke-opacity:0.1; fill:none" points="298.561,1188.06 1921.26,1188.06 "/>
<polyline clip-path="url(#clip942)" style="stroke:#000000; stroke-linecap:round; stroke-linejoin:round; stroke-width:2; stroke-opacity:0.1; fill:none" points="298.561,938.091 1921.26,938.091 "/>
<polyline clip-path="url(#clip942)" style="stroke:#000000; stroke-linecap:round; stroke-linejoin:round; stroke-width:2; stroke-opacity:0.1; fill:none" points="298.561,688.124 1921.26,688.124 "/>
<polyline clip-path="url(#clip942)" style="stroke:#000000; stroke-linecap:round; stroke-linejoin:round; stroke-width:2; stroke-opacity:0.1; fill:none" points="298.561,438.157 1921.26,438.157 "/>
<polyline clip-path="url(#clip942)" style="stroke:#000000; stroke-linecap:round; stroke-linejoin:round; stroke-width:2; stroke-opacity:0.1; fill:none" points="298.561,188.191 1921.26,188.191 "/>
<polyline clip-path="url(#clip940)" style="stroke:#000000; stroke-linecap:round; stroke-linejoin:round; stroke-width:4; stroke-opacity:1; fill:none" points="298.561,1297.51 1921.26,1297.51 "/>
<polyline clip-path="url(#clip940)" style="stroke:#000000; stroke-linecap:round; stroke-linejoin:round; stroke-width:4; stroke-opacity:1; fill:none" points="683.253,1297.51 683.253,1278.61 "/>
<polyline clip-path="url(#clip940)" style="stroke:#000000; stroke-linecap:round; stroke-linejoin:round; stroke-width:4; stroke-opacity:1; fill:none" points="1095.92,1297.51 1095.92,1278.61 "/>
<polyline clip-path="url(#clip940)" style="stroke:#000000; stroke-linecap:round; stroke-linejoin:round; stroke-width:4; stroke-opacity:1; fill:none" points="1508.59,1297.51 1508.59,1278.61 "/>
<polyline clip-path="url(#clip940)" style="stroke:#000000; stroke-linecap:round; stroke-linejoin:round; stroke-width:4; stroke-opacity:1; fill:none" points="1921.26,1297.51 1921.26,1278.61 "/>
<path clip-path="url(#clip940)" d="M639.248 1336.95 Q632.026 1336.95 628.369 1344.07 Q624.758 1351.16 624.758 1365.42 Q624.758 1379.63 628.369 1386.76 Q632.026 1393.84 639.248 1393.84 Q646.517 1393.84 650.128 1386.76 Q653.785 1379.63 653.785 1365.42 Q653.785 1351.16 650.128 1344.07 Q646.517 1336.95 639.248 1336.95 M639.248 1329.54 Q650.869 1329.54 656.98 1338.75 Q663.137 1347.92 663.137 1365.42 Q663.137 1382.87 656.98 1392.08 Q650.869 1401.25 639.248 1401.25 Q627.628 1401.25 621.471 1392.08 Q615.36 1382.87 615.36 1365.42 Q615.36 1347.92 621.471 1338.75 Q627.628 1329.54 639.248 1329.54 Z" fill="#000000" fill-rule="nonzero" fill-opacity="1" /><path clip-path="url(#clip940)" d="M679.572 1388.15 L689.341 1388.15 L689.341 1399.91 L679.572 1399.91 L679.572 1388.15 Z" fill="#000000" fill-rule="nonzero" fill-opacity="1" /><path clip-path="url(#clip940)" d="M711.331 1392.04 L726.609 1392.04 L726.609 1339.31 L709.989 1342.64 L709.989 1334.12 L726.516 1330.79 L735.868 1330.79 L735.868 1392.04 L751.146 1392.04 L751.146 1399.91 L711.331 1399.91 L711.331 1392.04 Z" fill="#000000" fill-rule="nonzero" fill-opacity="1" /><path clip-path="url(#clip940)" d="M1052.29 1336.95 Q1045.07 1336.95 1041.41 1344.07 Q1037.8 1351.16 1037.8 1365.42 Q1037.8 1379.63 1041.41 1386.76 Q1045.07 1393.84 1052.29 1393.84 Q1059.56 1393.84 1063.17 1386.76 Q1066.82 1379.63 1066.82 1365.42 Q1066.82 1351.16 1063.17 1344.07 Q1059.56 1336.95 1052.29 1336.95 M1052.29 1329.54 Q1063.91 1329.54 1070.02 1338.75 Q1076.18 1347.92 1076.18 1365.42 Q1076.18 1382.87 1070.02 1392.08 Q1063.91 1401.25 1052.29 1401.25 Q1040.67 1401.25 1034.51 1392.08 Q1028.4 1382.87 1028.4 1365.42 Q1028.4 1347.92 1034.51 1338.75 Q1040.67 1329.54 1052.29 1329.54 Z" fill="#000000" fill-rule="nonzero" fill-opacity="1" /><path clip-path="url(#clip940)" d="M1092.61 1388.15 L1102.38 1388.15 L1102.38 1399.91 L1092.61 1399.91 L1092.61 1388.15 Z" fill="#000000" fill-rule="nonzero" fill-opacity="1" /><path clip-path="url(#clip940)" d="M1130.81 1392.04 L1163.44 1392.04 L1163.44 1399.91 L1119.56 1399.91 L1119.56 1392.04 Q1124.88 1386.53 1134.05 1377.27 Q1143.26 1367.96 1145.62 1365.28 Q1150.11 1360.23 1151.87 1356.76 Q1153.68 1353.24 1153.68 1349.86 Q1153.68 1344.35 1149.79 1340.88 Q1145.94 1337.41 1139.74 1337.41 Q1135.34 1337.41 1130.44 1338.94 Q1125.57 1340.46 1120.02 1343.57 L1120.02 1334.12 Q1125.67 1331.85 1130.57 1330.7 Q1135.48 1329.54 1139.56 1329.54 Q1150.3 1329.54 1156.69 1334.91 Q1163.07 1340.28 1163.07 1349.26 Q1163.07 1353.52 1161.45 1357.36 Q1159.88 1361.16 1155.67 1366.34 Q1154.51 1367.69 1148.31 1374.12 Q1142.1 1380.51 1130.81 1392.04 Z" fill="#000000" fill-rule="nonzero" fill-opacity="1" /><path clip-path="url(#clip940)" d="M1464.01 1336.95 Q1456.79 1336.95 1453.13 1344.07 Q1449.52 1351.16 1449.52 1365.42 Q1449.52 1379.63 1453.13 1386.76 Q1456.79 1393.84 1464.01 1393.84 Q1471.28 1393.84 1474.89 1386.76 Q1478.54 1379.63 1478.54 1365.42 Q1478.54 1351.16 1474.89 1344.07 Q1471.28 1336.95 1464.01 1336.95 M1464.01 1329.54 Q1475.63 1329.54 1481.74 1338.75 Q1487.9 1347.92 1487.9 1365.42 Q1487.9 1382.87 1481.74 1392.08 Q1475.63 1401.25 1464.01 1401.25 Q1452.39 1401.25 1446.23 1392.08 Q1440.12 1382.87 1440.12 1365.42 Q1440.12 1347.92 1446.23 1338.75 Q1452.39 1329.54 1464.01 1329.54 Z" fill="#000000" fill-rule="nonzero" fill-opacity="1" /><path clip-path="url(#clip940)" d="M1504.33 1388.15 L1514.1 1388.15 L1514.1 1399.91 L1504.33 1399.91 L1504.33 1388.15 Z" fill="#000000" fill-rule="nonzero" fill-opacity="1" /><path clip-path="url(#clip940)" d="M1562.8 1362.64 Q1569.52 1364.07 1573.27 1368.61 Q1577.06 1373.15 1577.06 1379.82 Q1577.06 1390.05 1570.03 1395.65 Q1562.99 1401.25 1550.03 1401.25 Q1545.67 1401.25 1541.04 1400.37 Q1536.46 1399.54 1531.55 1397.82 L1531.55 1388.8 Q1535.44 1391.07 1540.07 1392.22 Q1544.7 1393.38 1549.75 1393.38 Q1558.54 1393.38 1563.13 1389.91 Q1567.76 1386.44 1567.76 1379.82 Q1567.76 1373.7 1563.45 1370.28 Q1559.19 1366.81 1551.55 1366.81 L1543.5 1366.81 L1543.5 1359.12 L1551.92 1359.12 Q1558.82 1359.12 1562.48 1356.39 Q1566.14 1353.61 1566.14 1348.43 Q1566.14 1343.1 1562.34 1340.28 Q1558.59 1337.41 1551.55 1337.41 Q1547.71 1337.41 1543.31 1338.24 Q1538.91 1339.07 1533.64 1340.83 L1533.64 1332.5 Q1538.96 1331.02 1543.59 1330.28 Q1548.27 1329.54 1552.39 1329.54 Q1563.03 1329.54 1569.24 1334.4 Q1575.44 1339.21 1575.44 1347.45 Q1575.44 1353.2 1572.16 1357.18 Q1568.87 1361.11 1562.8 1362.64 Z" fill="#000000" fill-rule="nonzero" fill-opacity="1" /><path clip-path="url(#clip940)" d="M1875.54 1336.95 Q1868.32 1336.95 1864.66 1344.07 Q1861.05 1351.16 1861.05 1365.42 Q1861.05 1379.63 1864.66 1386.76 Q1868.32 1393.84 1875.54 1393.84 Q1882.81 1393.84 1886.42 1386.76 Q1890.08 1379.63 1890.08 1365.42 Q1890.08 1351.16 1886.42 1344.07 Q1882.81 1336.95 1875.54 1336.95 M1875.54 1329.54 Q1887.16 1329.54 1893.27 1338.75 Q1899.43 1347.92 1899.43 1365.42 Q1899.43 1382.87 1893.27 1392.08 Q1887.16 1401.25 1875.54 1401.25 Q1863.92 1401.25 1857.76 1392.08 Q1851.65 1382.87 1851.65 1365.42 Q1851.65 1347.92 1857.76 1338.75 Q1863.92 1329.54 1875.54 1329.54 Z" fill="#000000" fill-rule="nonzero" fill-opacity="1" /><path clip-path="url(#clip940)" d="M1915.87 1388.15 L1925.63 1388.15 L1925.63 1399.91 L1915.87 1399.91 L1915.87 1388.15 Z" fill="#000000" fill-rule="nonzero" fill-opacity="1" /><path clip-path="url(#clip940)" d="M1971.7 1338.94 L1948.09 1375.83 L1971.7 1375.83 L1971.7 1338.94 M1969.25 1330.79 L1981 1330.79 L1981 1375.83 L1990.87 1375.83 L1990.87 1383.61 L1981 1383.61 L1981 1399.91 L1971.7 1399.91 L1971.7 1383.61 L1940.5 1383.61 L1940.5 1374.58 L1969.25 1330.79 Z" fill="#000000" fill-rule="nonzero" fill-opacity="1" /><path clip-path="url(#clip940)" d="M1133.98 1447.87 Q1133.98 1447.92 1133.66 1449.82 L1121.64 1497.72 Q1121.01 1500.25 1119.22 1502.78 Q1117.48 1505.36 1114.69 1507.57 Q1111.95 1509.84 1107.73 1511.21 Q1103.57 1512.63 1098.77 1512.63 Q1091.13 1512.63 1087.76 1511 Q1084.44 1509.42 1084.44 1506.05 Q1084.44 1503.1 1086.28 1501.41 Q1088.13 1499.78 1090.24 1499.78 Q1092.24 1499.78 1093.29 1500.93 Q1094.35 1502.09 1094.35 1503.57 Q1094.35 1505.2 1093.24 1506.84 Q1092.13 1508.52 1089.92 1509.16 Q1093.45 1510.26 1098.56 1510.26 Q1109.37 1510.26 1114 1498.83 Q1114.11 1498.67 1114.11 1498.62 L1117.69 1484.33 L1117.53 1484.23 Q1116.64 1485.28 1115.22 1486.49 Q1113.84 1487.65 1110.89 1489.08 Q1107.94 1490.5 1105.04 1490.5 Q1098.98 1490.5 1094.82 1485.86 Q1090.71 1481.17 1090.71 1473.43 Q1090.71 1467.79 1092.98 1462.15 Q1095.29 1456.46 1098.88 1452.29 Q1102.51 1448.08 1107.15 1445.44 Q1111.84 1442.81 1116.37 1442.81 Q1119.54 1442.81 1122.22 1444.7 Q1124.91 1446.55 1126.39 1449.6 Q1126.65 1447.07 1128.07 1446.02 Q1129.55 1444.97 1130.81 1444.97 Q1132.24 1444.97 1133.08 1445.76 Q1133.98 1446.5 1133.98 1447.87 M1125.12 1454.45 Q1125.12 1454.14 1124.91 1453.29 Q1124.7 1452.4 1124.07 1450.97 Q1123.49 1449.55 1122.59 1448.29 Q1121.7 1447.02 1120.06 1446.13 Q1118.48 1445.18 1116.48 1445.18 Q1113.21 1445.18 1109.95 1447.92 Q1106.68 1450.61 1104.41 1454.77 Q1102.3 1458.77 1100.3 1466.52 Q1098.35 1474.27 1098.35 1478.22 Q1098.35 1482.12 1100.04 1485.12 Q1101.72 1488.13 1105.36 1488.13 Q1109.58 1488.13 1114.11 1484.23 Q1118.8 1480.17 1119.59 1476.69 L1124.81 1456.09 Q1125.12 1454.82 1125.12 1454.45 Z" fill="#000000" fill-rule="nonzero" fill-opacity="1" /><polyline clip-path="url(#clip940)" style="stroke:#000000; stroke-linecap:round; stroke-linejoin:round; stroke-width:4; stroke-opacity:1; fill:none" points="298.561,1297.51 298.561,78.7402 "/>
<polyline clip-path="url(#clip940)" style="stroke:#000000; stroke-linecap:round; stroke-linejoin:round; stroke-width:4; stroke-opacity:1; fill:none" points="298.561,1188.06 317.459,1188.06 "/>
<polyline clip-path="url(#clip940)" style="stroke:#000000; stroke-linecap:round; stroke-linejoin:round; stroke-width:4; stroke-opacity:1; fill:none" points="298.561,938.091 317.459,938.091 "/>
<polyline clip-path="url(#clip940)" style="stroke:#000000; stroke-linecap:round; stroke-linejoin:round; stroke-width:4; stroke-opacity:1; fill:none" points="298.561,688.124 317.459,688.124 "/>
<polyline clip-path="url(#clip940)" style="stroke:#000000; stroke-linecap:round; stroke-linejoin:round; stroke-width:4; stroke-opacity:1; fill:none" points="298.561,438.157 317.459,438.157 "/>
<polyline clip-path="url(#clip940)" style="stroke:#000000; stroke-linecap:round; stroke-linejoin:round; stroke-width:4; stroke-opacity:1; fill:none" points="298.561,188.191 317.459,188.191 "/>
<path clip-path="url(#clip940)" d="M84.4882 1188.96 L143.84 1188.96 L143.84 1196.83 L84.4882 1196.83 L84.4882 1188.96 Z" fill="#000000" fill-rule="nonzero" fill-opacity="1" /><path clip-path="url(#clip940)" d="M165.645 1214.75 L180.923 1214.75 L180.923 1162.02 L164.303 1165.35 L164.303 1156.83 L180.83 1153.5 L190.182 1153.5 L190.182 1214.75 L205.46 1214.75 L205.46 1222.62 L165.645 1222.62 L165.645 1214.75 Z" fill="#000000" fill-rule="nonzero" fill-opacity="1" /><path clip-path="url(#clip940)" d="M245.506 1184.33 Q239.21 1184.33 235.506 1188.64 Q231.849 1192.94 231.849 1200.44 Q231.849 1207.9 235.506 1212.25 Q239.21 1216.55 245.506 1216.55 Q251.802 1216.55 255.459 1212.25 Q259.163 1207.9 259.163 1200.44 Q259.163 1192.94 255.459 1188.64 Q251.802 1184.33 245.506 1184.33 M264.071 1155.02 L264.071 1163.54 Q260.552 1161.88 256.941 1161 Q253.376 1160.12 249.858 1160.12 Q240.598 1160.12 235.691 1166.37 Q230.83 1172.62 230.136 1185.26 Q232.867 1181.23 236.987 1179.1 Q241.108 1176.92 246.061 1176.92 Q256.478 1176.92 262.496 1183.27 Q268.561 1189.56 268.561 1200.44 Q268.561 1211.09 262.265 1217.52 Q255.969 1223.96 245.506 1223.96 Q233.515 1223.96 227.173 1214.79 Q220.83 1205.58 220.83 1188.13 Q220.83 1171.74 228.608 1162.02 Q236.386 1152.25 249.487 1152.25 Q253.006 1152.25 256.571 1152.94 Q260.182 1153.64 264.071 1155.02 Z" fill="#000000" fill-rule="nonzero" fill-opacity="1" /><path clip-path="url(#clip940)" d="M145.321 938.993 L204.673 938.993 L204.673 946.864 L145.321 946.864 L145.321 938.993 Z" fill="#000000" fill-rule="nonzero" fill-opacity="1" /><path clip-path="url(#clip940)" d="M244.858 939.827 Q238.191 939.827 234.348 943.391 Q230.552 946.956 230.552 953.206 Q230.552 959.456 234.348 963.021 Q238.191 966.586 244.858 966.586 Q251.524 966.586 255.367 963.021 Q259.209 959.41 259.209 953.206 Q259.209 946.956 255.367 943.391 Q251.571 939.827 244.858 939.827 M235.506 935.845 Q229.487 934.364 226.108 930.243 Q222.774 926.123 222.774 920.197 Q222.774 911.91 228.654 907.095 Q234.58 902.281 244.858 902.281 Q255.182 902.281 261.061 907.095 Q266.941 911.91 266.941 920.197 Q266.941 926.123 263.561 930.243 Q260.228 934.364 254.256 935.845 Q261.015 937.419 264.765 942.003 Q268.561 946.586 268.561 953.206 Q268.561 963.253 262.404 968.623 Q256.293 973.993 244.858 973.993 Q233.423 973.993 227.265 968.623 Q221.154 963.253 221.154 953.206 Q221.154 946.586 224.95 942.003 Q228.747 937.419 235.506 935.845 M232.08 921.077 Q232.08 926.447 235.413 929.456 Q238.793 932.466 244.858 932.466 Q250.876 932.466 254.256 929.456 Q257.682 926.447 257.682 921.077 Q257.682 915.706 254.256 912.697 Q250.876 909.688 244.858 909.688 Q238.793 909.688 235.413 912.697 Q232.08 915.706 232.08 921.077 Z" fill="#000000" fill-rule="nonzero" fill-opacity="1" /><path clip-path="url(#clip940)" d="M244.673 659.721 Q237.45 659.721 233.793 666.851 Q230.182 673.934 230.182 688.193 Q230.182 702.406 233.793 709.536 Q237.45 716.619 244.673 716.619 Q251.941 716.619 255.552 709.536 Q259.209 702.406 259.209 688.193 Q259.209 673.934 255.552 666.851 Q251.941 659.721 244.673 659.721 M244.673 652.314 Q256.293 652.314 262.404 661.527 Q268.561 670.694 268.561 688.193 Q268.561 705.647 262.404 714.86 Q256.293 724.027 244.673 724.027 Q233.052 724.027 226.895 714.86 Q220.784 705.647 220.784 688.193 Q220.784 670.694 226.895 661.527 Q233.052 652.314 244.673 652.314 Z" fill="#000000" fill-rule="nonzero" fill-opacity="1" /><path clip-path="url(#clip940)" d="M244.858 439.893 Q238.191 439.893 234.348 443.458 Q230.552 447.023 230.552 453.273 Q230.552 459.523 234.348 463.088 Q238.191 466.653 244.858 466.653 Q251.524 466.653 255.367 463.088 Q259.209 459.477 259.209 453.273 Q259.209 447.023 255.367 443.458 Q251.571 439.893 244.858 439.893 M235.506 435.912 Q229.487 434.431 226.108 430.31 Q222.774 426.19 222.774 420.264 Q222.774 411.977 228.654 407.162 Q234.58 402.347 244.858 402.347 Q255.182 402.347 261.061 407.162 Q266.941 411.977 266.941 420.264 Q266.941 426.19 263.561 430.31 Q260.228 434.431 254.256 435.912 Q261.015 437.486 264.765 442.069 Q268.561 446.653 268.561 453.273 Q268.561 463.319 262.404 468.69 Q256.293 474.06 244.858 474.06 Q233.423 474.06 227.265 468.69 Q221.154 463.319 221.154 453.273 Q221.154 446.653 224.95 442.069 Q228.747 437.486 235.506 435.912 M232.08 421.144 Q232.08 426.514 235.413 429.523 Q238.793 432.532 244.858 432.532 Q250.876 432.532 254.256 429.523 Q257.682 426.514 257.682 421.144 Q257.682 415.773 254.256 412.764 Q250.876 409.755 244.858 409.755 Q238.793 409.755 235.413 412.764 Q232.08 415.773 232.08 421.144 Z" fill="#000000" fill-rule="nonzero" fill-opacity="1" /><path clip-path="url(#clip940)" d="M165.645 214.88 L180.923 214.88 L180.923 162.149 L164.303 165.482 L164.303 156.964 L180.83 153.631 L190.182 153.631 L190.182 214.88 L205.46 214.88 L205.46 222.751 L165.645 222.751 L165.645 214.88 Z" fill="#000000" fill-rule="nonzero" fill-opacity="1" /><path clip-path="url(#clip940)" d="M245.506 184.464 Q239.21 184.464 235.506 188.769 Q231.849 193.075 231.849 200.575 Q231.849 208.029 235.506 212.38 Q239.21 216.686 245.506 216.686 Q251.802 216.686 255.459 212.38 Q259.163 208.029 259.163 200.575 Q259.163 193.075 255.459 188.769 Q251.802 184.464 245.506 184.464 M264.071 155.158 L264.071 163.677 Q260.552 162.01 256.941 161.131 Q253.376 160.251 249.858 160.251 Q240.598 160.251 235.691 166.501 Q230.83 172.751 230.136 185.39 Q232.867 181.362 236.987 179.232 Q241.108 177.057 246.061 177.057 Q256.478 177.057 262.496 183.399 Q268.561 189.695 268.561 200.575 Q268.561 211.223 262.265 217.658 Q255.969 224.093 245.506 224.093 Q233.515 224.093 227.173 214.927 Q220.83 205.714 220.83 188.26 Q220.83 171.871 228.608 162.149 Q236.386 152.381 249.487 152.381 Q253.006 152.381 256.571 153.075 Q260.182 153.77 264.071 155.158 Z" fill="#000000" fill-rule="nonzero" fill-opacity="1" /><path clip-path="url(#clip942)" d="M298.561 2516.28 L298.561 -1140.03 L914.068 -1140.03 L914.068 2516.28 L298.561 2516.28  Z" fill="#3a873c" fill-rule="evenodd" fill-opacity="0.5"/>
<polyline clip-path="url(#clip942)" style="stroke:#000000; stroke-linecap:round; stroke-linejoin:round; stroke-width:0; stroke-opacity:0.5; fill:none" points="298.561,2516.28 298.561,-1140.03 914.068,-1140.03 914.068,2516.28 298.561,2516.28 "/>
<path clip-path="url(#clip942)" d="M914.068 2516.28 L914.068 -1140.03 L1137.89 -1140.03 L1137.89 2516.28 L914.068 2516.28  Z" fill="#e5b12e" fill-rule="evenodd" fill-opacity="0.5"/>
<polyline clip-path="url(#clip942)" style="stroke:#000000; stroke-linecap:round; stroke-linejoin:round; stroke-width:0; stroke-opacity:0.5; fill:none" points="914.068,2516.28 914.068,-1140.03 1137.89,-1140.03 1137.89,2516.28 914.068,2516.28 "/>
<path clip-path="url(#clip942)" d="M1137.89 2516.28 L1137.89 -1140.03 L1921.26 -1140.03 L1921.26 2516.28 L1137.89 2516.28  Z" fill="#8c5b89" fill-rule="evenodd" fill-opacity="0.5"/>
<polyline clip-path="url(#clip942)" style="stroke:#000000; stroke-linecap:round; stroke-linejoin:round; stroke-width:0; stroke-opacity:0.5; fill:none" points="1137.89,2516.28 1137.89,-1140.03 1921.26,-1140.03 1921.26,2516.28 1137.89,2516.28 "/>
<polyline clip-path="url(#clip942)" style="stroke:#148109; stroke-linecap:round; stroke-linejoin:round; stroke-width:10; stroke-opacity:1; fill:none" points="298.561,575.12 326.539,575.8 354.516,576.934 382.494,578.521 410.472,580.56 438.449,583.05 466.427,585.991 494.404,589.382 522.382,593.221 550.359,597.506 578.337,602.237 606.314,607.412 634.292,613.028 662.27,619.084 690.247,625.577 718.225,632.505 746.202,639.866 774.18,647.656 802.157,655.873 830.135,664.514 858.113,673.576 886.09,683.055 914.068,692.948 942.045,703.251 970.023,713.961 998,725.074 1025.98,736.585 1053.96,748.491 1081.93,760.788 1109.91,773.47 1137.89,786.534 1165.87,799.974 1193.84,813.786 1221.82,827.966 1249.8,842.508 1277.78,857.407 1305.75,872.657 1333.73,888.254 1361.71,904.193 1389.69,920.467 1417.66,937.071 1445.64,954 1473.62,971.248 1501.6,988.809 1529.57,1006.71 1557.55,1025.31 1585.53,1044.27 1613.51,1063.57 1641.48,1083.22 1669.46,1103.21 1697.44,1123.54 1725.42,1144.19 1753.39,1165.17 1781.37,1186.47 1809.35,1208.08 1837.33,1229.99 1865.3,1252.2 1893.28,1274.71 1921.26,1297.51 "/>
<polyline clip-path="url(#clip942)" style="stroke:#d62020; stroke-linecap:round; stroke-linejoin:round; stroke-width:10; stroke-opacity:1; fill:none" points="298.561,537.498 326.539,538.008 354.516,538.856 382.494,540.043 410.472,541.567 438.449,543.427 466.427,545.621 494.404,548.147 522.382,551.002 550.359,554.184 578.337,557.69 606.314,561.517 634.292,565.661 662.27,570.118 690.247,574.885 718.225,579.956 746.202,585.327 774.18,590.993 802.157,596.95 830.135,603.191 858.113,609.711 886.09,616.504 914.068,623.564 942.045,630.885 970.023,638.46 998,646.283 1025.98,654.347 1053.96,662.645 1081.93,671.169 1109.91,679.913 1137.89,688.869 1165.87,698.029 1193.84,707.387 1221.82,716.933 1249.8,726.661 1277.78,736.563 1305.75,746.63 1333.73,756.854 1361.71,767.229 1389.69,777.745 1417.66,788.395 1445.64,799.171 1473.62,810.064 1501.6,821.067 1529.57,832.208 1557.55,843.905 1585.53,855.754 1613.51,867.752 1641.48,879.89 1669.46,892.163 1697.44,904.565 1725.42,917.09 1753.39,929.723 1781.37,942.467 1809.35,955.308 1837.33,968.237 1865.3,981.244 1893.28,994.333 1921.26,1007.48 "/>
<polyline clip-path="url(#clip942)" style="stroke:#1e6cd0; stroke-linecap:round; stroke-linejoin:round; stroke-width:10; stroke-opacity:1; fill:none" points="298.561,725.879 326.539,726.055 354.516,726.347 382.494,726.757 410.472,727.285 438.449,727.93 466.427,728.695 494.404,729.578 522.382,730.582 550.359,731.706 578.337,732.952 606.314,734.321 634.292,735.813 662.27,737.429 690.247,739.172 718.225,741.042 746.202,743.04 774.18,745.168 802.157,747.426 830.135,749.818 858.113,752.343 886.09,755.003 914.068,757.801 942.045,760.736 970.023,763.812 998,767.029 1025.98,770.389 1053.96,773.893 1081.93,777.543 1109.91,781.34 1137.89,785.286 1165.87,789.382 1193.84,793.629 1221.82,798.029 1249.8,802.582 1277.78,807.291 1305.75,812.155 1333.73,817.176 1361.71,822.355 1389.69,827.692 1417.66,833.188 1445.64,838.843 1473.62,844.658 1501.6,850.634 1529.57,856.791 1557.55,863.374 1585.53,870.169 1613.51,877.183 1641.48,884.42 1669.46,891.882 1697.44,899.577 1725.42,907.51 1753.39,915.681 1781.37,924.101 1809.35,932.77 1837.33,941.692 1865.3,950.87 1893.28,960.318 1921.26,970.03 "/>
<polyline clip-path="url(#clip942)" style="stroke:#000000; stroke-linecap:round; stroke-linejoin:round; stroke-width:10; stroke-opacity:1; fill:none" stroke-dasharray="40, 20, 5, 20" points="-1324.14,688.124 3543.96,688.124 "/>
<path clip-path="url(#clip940)" d="M1539.54 546.274 L1867.17 546.274 L1867.17 119.366 L1539.54 119.366  Z" fill="#ffffff" fill-rule="evenodd" fill-opacity="1"/>
<polyline clip-path="url(#clip940)" style="stroke:#000000; stroke-linecap:round; stroke-linejoin:round; stroke-width:4; stroke-opacity:1; fill:none" points="1539.54,546.274 1867.17,546.274 1867.17,119.366 1539.54,119.366 1539.54,546.274 "/>
<polyline clip-path="url(#clip940)" style="stroke:#148109; stroke-linecap:round; stroke-linejoin:round; stroke-width:18.75; stroke-opacity:1; fill:none" points="1557.57,226.093 1665.75,226.093 "/>
<path clip-path="url(#clip940)" d="M1704.12 266.852 Q1704.12 267.598 1703.59 268.125 Q1703.06 268.652 1702.32 268.652 Q1701.04 268.652 1700.6 267.467 L1683.87 224.296 Q1683.78 224.12 1683.78 223.681 Q1683.78 223.242 1683.87 223.066 L1700.6 179.896 Q1701.04 178.71 1702.32 178.71 Q1703.06 178.71 1703.59 179.237 Q1704.12 179.764 1704.12 180.511 Q1704.12 180.95 1704.03 181.126 L1687.47 223.681 L1704.03 266.237 Q1704.12 266.413 1704.12 266.852 Z" fill="#000000" fill-rule="nonzero" fill-opacity="1" /><path clip-path="url(#clip940)" d="M1782.61 198.297 Q1782.61 203.216 1778.97 207.739 Q1775.36 212.263 1769.48 215.03 Q1763.64 217.752 1757.36 217.752 L1742.07 217.752 L1736.5 240.238 Q1736.45 240.37 1736.32 240.941 Q1736.19 241.468 1736.19 241.775 Q1736.19 242.873 1737.55 243.137 Q1738.96 243.4 1742.07 243.4 Q1744.09 243.4 1744.4 243.751 Q1744.58 243.971 1744.58 244.366 Q1744.58 244.981 1744.4 245.42 Q1744.23 245.815 1743.88 245.947 Q1743.57 246.079 1743.35 246.123 Q1743.13 246.167 1742.78 246.167 Q1741.86 246.167 1739.88 246.079 Q1737.95 245.991 1736.94 245.991 L1731.18 245.903 L1719.76 246.167 Q1718.4 246.167 1718.4 245.069 Q1718.4 244.234 1718.75 243.883 Q1719.11 243.488 1719.5 243.444 Q1719.9 243.4 1720.91 243.4 Q1723.1 243.4 1724.42 243.268 Q1725.74 243.137 1726.57 242.961 Q1727.45 242.741 1727.89 242.126 Q1728.37 241.512 1728.59 240.985 Q1728.81 240.414 1729.12 239.14 L1741.15 190.831 Q1741.5 189.382 1741.5 189.162 Q1741.5 188.416 1741.06 188.152 Q1740.67 187.845 1739.53 187.713 Q1737.33 187.537 1735.66 187.537 Q1734.56 187.537 1734.13 187.494 Q1733.73 187.45 1733.38 187.23 Q1733.07 186.967 1733.07 186.44 Q1733.07 185.605 1733.42 185.254 Q1733.82 184.859 1734.26 184.815 Q1734.7 184.727 1735.75 184.727 L1764.91 184.727 Q1773.3 184.727 1777.95 188.723 Q1782.61 192.72 1782.61 198.297 M1774.27 196.145 Q1774.27 187.537 1762.01 187.537 L1753.41 187.537 Q1750.55 187.537 1749.85 188.064 Q1749.15 188.548 1748.53 190.963 L1742.43 215.425 L1755.12 215.425 Q1763.64 215.425 1768.95 210.638 Q1771.37 208.442 1772.82 203.875 Q1774.27 199.307 1774.27 196.145 Z" fill="#000000" fill-rule="nonzero" fill-opacity="1" /><path clip-path="url(#clip940)" d="M1805.05 229.119 L1795.98 265.517 Q1795.61 266.962 1795.61 268.53 Q1795.61 271.42 1797.52 271.42 Q1798.41 271.42 1799.15 270.836 Q1799.88 270.221 1800.44 269.022 Q1801.02 267.792 1801.39 266.624 Q1801.79 265.456 1802.28 263.642 Q1802.44 262.935 1802.59 262.72 Q1802.74 262.505 1803.17 262.505 Q1803.94 262.505 1803.94 263.12 Q1803.17 266.901 1802.04 269.299 Q1800.38 272.834 1797.3 272.834 Q1795 272.834 1793.27 271.235 Q1791.58 269.606 1791.58 267.024 Q1791.58 266.04 1791.89 264.872 L1799.82 233.392 L1800.04 232.162 Q1800.04 231.824 1799.92 231.64 Q1799.79 231.455 1799.05 231.271 Q1798.35 231.086 1796.93 231.086 Q1796.35 231.086 1796.07 231.056 Q1795.83 231.025 1795.58 230.871 Q1795.37 230.718 1795.37 230.379 Q1795.37 229.826 1795.58 229.519 Q1795.83 229.211 1796.01 229.15 Q1796.2 229.088 1796.56 229.057 Q1797.09 229.027 1798.84 228.873 Q1800.59 228.689 1802.1 228.566 Q1803.6 228.443 1804.25 228.443 Q1804.62 228.443 1804.8 228.627 Q1805.02 228.781 1805.05 228.965 L1805.05 229.119 Z" fill="#000000" fill-rule="nonzero" fill-opacity="1" /><path clip-path="url(#clip940)" d="M1834.72 223.066 Q1834.81 223.242 1834.81 223.681 Q1834.81 224.12 1834.72 224.296 L1817.99 267.467 Q1817.55 268.652 1816.32 268.652 Q1815.57 268.652 1815.05 268.125 Q1814.52 267.598 1814.52 266.852 Q1814.52 266.413 1814.61 266.237 L1831.12 223.681 L1814.61 181.126 Q1814.52 180.95 1814.52 180.511 Q1814.52 179.764 1815.05 179.237 Q1815.57 178.71 1816.32 178.71 Q1817.55 178.71 1817.99 179.896 L1834.72 223.066 Z" fill="#000000" fill-rule="nonzero" fill-opacity="1" /><polyline clip-path="url(#clip940)" style="stroke:#d62020; stroke-linecap:round; stroke-linejoin:round; stroke-width:18.75; stroke-opacity:1; fill:none" points="1557.57,332.82 1665.75,332.82 "/>
<path clip-path="url(#clip940)" d="M1745.97 303.038 Q1745.97 309.362 1743.69 315.642 Q1741.4 321.878 1737.58 326.929 Q1733.8 331.979 1728.89 335.888 Q1724.01 339.753 1718.78 341.729 Q1719.44 346.999 1720.76 348.975 Q1722.12 350.995 1725.15 350.995 Q1726.91 350.995 1728.8 350.205 Q1730.73 349.414 1732.71 347.35 Q1734.68 345.33 1735.69 342.344 Q1736 341.378 1736.79 341.378 Q1737.1 341.378 1737.41 341.641 Q1737.76 341.861 1737.76 342.256 Q1737.76 342.607 1737.36 343.881 Q1737.01 345.198 1736.26 347.218 Q1735.52 349.239 1734.24 351.347 Q1732.97 353.499 1731.39 355.387 Q1729.85 357.275 1727.57 358.461 Q1725.28 359.691 1722.74 359.691 Q1720.63 359.691 1719.09 358.9 Q1717.6 358.11 1716.85 357.1 Q1716.15 356.09 1715.75 354.465 Q1715.36 352.884 1715.31 352.005 Q1715.27 351.127 1715.27 349.81 Q1715.27 348.448 1715.62 342.871 Q1710.88 344.232 1706.84 344.232 Q1696.87 344.232 1690.33 337.688 Q1683.78 331.145 1683.78 320.209 Q1683.78 312.568 1687.21 304.97 Q1690.63 297.329 1696.08 291.663 Q1701.52 285.954 1708.68 282.397 Q1715.89 278.84 1723 278.84 Q1733.1 278.84 1739.51 285.559 Q1745.97 292.234 1745.97 303.038 M1738.02 300.183 Q1738.02 291.312 1733.67 286.218 Q1729.37 281.079 1722.47 281.079 Q1717.2 281.079 1711.36 284.461 Q1705.57 287.843 1700.87 294.386 Q1696.25 300.93 1693.97 309.142 Q1691.73 317.355 1691.73 323.108 Q1691.73 329.476 1694.23 334.263 Q1696.74 339.006 1701.79 340.982 Q1701.26 339.928 1701.26 338.128 Q1701.26 334.614 1704.07 331.804 Q1706.88 328.949 1710.44 328.949 Q1712.02 328.949 1713.25 329.432 Q1714.52 329.871 1715.31 330.793 Q1716.15 331.716 1716.68 332.594 Q1717.25 333.429 1717.55 334.79 Q1717.91 336.107 1718.04 336.81 Q1718.17 337.469 1718.34 338.655 Q1722.65 336.239 1726.16 332.287 Q1729.68 328.29 1731.83 324.074 Q1733.98 319.814 1735.43 315.203 Q1736.88 310.548 1737.45 306.859 Q1738.02 303.126 1738.02 300.183 M1715.89 338.567 Q1715.89 334.483 1714.57 332.726 Q1713.29 330.925 1710.44 330.925 Q1707.63 330.925 1705.43 333.165 Q1703.24 335.405 1703.24 338.128 Q1703.24 339.489 1703.63 340.367 Q1704.07 341.202 1704.86 341.553 Q1705.65 341.861 1706.14 341.948 Q1706.62 341.992 1707.37 341.992 Q1711.19 341.992 1714.92 340.367 Q1715.58 340.104 1715.71 339.84 Q1715.89 339.577 1715.89 338.567 Z" fill="#000000" fill-rule="nonzero" fill-opacity="1" /><path clip-path="url(#clip940)" d="M1785.87 376.474 Q1785.87 376.72 1785.59 377.673 Q1785.31 378.626 1784.64 380.102 Q1783.99 381.577 1783.1 382.93 Q1782.21 384.252 1780.73 385.236 Q1779.29 386.189 1777.63 386.189 Q1775.41 386.189 1773.94 384.713 Q1772.46 383.237 1772.46 381.024 Q1772.46 380.717 1772.49 380.409 Q1772.52 380.102 1772.56 379.917 Q1772.59 379.702 1772.68 379.364 Q1772.8 378.995 1772.83 378.841 Q1772.89 378.688 1773.05 378.227 Q1773.23 377.735 1773.29 377.55 Q1777.2 367.59 1777.2 363.44 Q1777.2 359.044 1773.78 359.044 Q1770.74 359.044 1767.73 361.257 Q1766.35 362.364 1765.02 364.331 Q1763.7 366.299 1763.46 367.036 Q1763.18 368.635 1762.78 369.865 Q1762.59 370.725 1761.7 374.076 L1760.32 379.764 L1759.12 384.529 Q1758.88 385.205 1758.2 385.697 Q1757.52 386.189 1756.78 386.189 Q1756.17 386.189 1755.55 385.758 Q1754.97 385.359 1754.97 384.406 Q1754.97 383.914 1755.22 383.022 L1764.35 346.747 L1764.53 345.517 Q1764.53 345.148 1764.38 344.964 Q1764.25 344.749 1763.52 344.595 Q1762.81 344.441 1761.4 344.441 Q1760.81 344.441 1760.54 344.41 Q1760.29 344.38 1760.07 344.226 Q1759.86 344.041 1759.86 343.673 Q1759.86 343.15 1760.07 342.873 Q1760.32 342.566 1760.5 342.504 Q1760.69 342.443 1761.06 342.412 Q1761.58 342.381 1763.33 342.228 Q1765.08 342.043 1766.59 341.92 Q1768.1 341.797 1768.74 341.797 Q1769.11 341.797 1769.3 341.982 Q1769.51 342.135 1769.54 342.32 L1769.57 342.474 L1764.65 362.487 Q1768.56 357.66 1773.97 357.66 Q1777.47 357.66 1779.35 359.474 Q1781.22 361.257 1781.22 364.393 Q1781.22 367.989 1777.38 378.227 Q1776.24 381.086 1776.24 382.715 Q1776.24 383.791 1776.58 384.283 Q1776.95 384.775 1777.75 384.775 Q1778.98 384.775 1780.06 384.068 Q1781.16 383.33 1781.93 382.131 Q1782.7 380.901 1783.22 379.671 Q1783.78 378.411 1784.18 376.997 Q1784.42 376.228 1784.54 376.044 Q1784.7 375.859 1785.13 375.859 Q1785.87 375.859 1785.87 376.474 Z" fill="#000000" fill-rule="nonzero" fill-opacity="1" /><polyline clip-path="url(#clip940)" style="stroke:#1e6cd0; stroke-linecap:round; stroke-linejoin:round; stroke-width:18.75; stroke-opacity:1; fill:none" points="1557.57,439.547 1665.75,439.547 "/>
<path clip-path="url(#clip940)" d="M1745.97 414.479 Q1745.97 420.803 1743.69 427.083 Q1741.4 433.319 1737.58 438.37 Q1733.8 443.42 1728.89 447.329 Q1724.01 451.194 1718.78 453.17 Q1719.44 458.44 1720.76 460.416 Q1722.12 462.436 1725.15 462.436 Q1726.91 462.436 1728.8 461.646 Q1730.73 460.855 1732.71 458.791 Q1734.68 456.771 1735.69 453.785 Q1736 452.819 1736.79 452.819 Q1737.1 452.819 1737.41 453.082 Q1737.76 453.302 1737.76 453.697 Q1737.76 454.048 1737.36 455.322 Q1737.01 456.639 1736.26 458.66 Q1735.52 460.68 1734.24 462.788 Q1732.97 464.94 1731.39 466.828 Q1729.85 468.717 1727.57 469.902 Q1725.28 471.132 1722.74 471.132 Q1720.63 471.132 1719.09 470.342 Q1717.6 469.551 1716.85 468.541 Q1716.15 467.531 1715.75 465.906 Q1715.36 464.325 1715.31 463.447 Q1715.27 462.568 1715.27 461.251 Q1715.27 459.889 1715.62 454.312 Q1710.88 455.673 1706.84 455.673 Q1696.87 455.673 1690.33 449.13 Q1683.78 442.586 1683.78 431.651 Q1683.78 424.009 1687.21 416.411 Q1690.63 408.77 1696.08 403.105 Q1701.52 397.395 1708.68 393.838 Q1715.89 390.281 1723 390.281 Q1733.1 390.281 1739.51 397 Q1745.97 403.675 1745.97 414.479 M1738.02 411.624 Q1738.02 402.753 1733.67 397.659 Q1729.37 392.52 1722.47 392.52 Q1717.2 392.52 1711.36 395.902 Q1705.57 399.284 1700.87 405.827 Q1696.25 412.371 1693.97 420.584 Q1691.73 428.796 1691.73 434.549 Q1691.73 440.917 1694.23 445.704 Q1696.74 450.447 1701.79 452.423 Q1701.26 451.369 1701.26 449.569 Q1701.26 446.055 1704.07 443.245 Q1706.88 440.39 1710.44 440.39 Q1712.02 440.39 1713.25 440.873 Q1714.52 441.312 1715.31 442.235 Q1716.15 443.157 1716.68 444.035 Q1717.25 444.87 1717.55 446.231 Q1717.91 447.549 1718.04 448.251 Q1718.17 448.91 1718.34 450.096 Q1722.65 447.68 1726.16 443.728 Q1729.68 439.731 1731.83 435.515 Q1733.98 431.255 1735.43 426.644 Q1736.88 421.989 1737.45 418.3 Q1738.02 414.567 1738.02 411.624 M1715.89 450.008 Q1715.89 445.924 1714.57 444.167 Q1713.29 442.366 1710.44 442.366 Q1707.63 442.366 1705.43 444.606 Q1703.24 446.846 1703.24 449.569 Q1703.24 450.93 1703.63 451.809 Q1704.07 452.643 1704.86 452.994 Q1705.65 453.302 1706.14 453.39 Q1706.62 453.433 1707.37 453.433 Q1711.19 453.433 1714.92 451.809 Q1715.58 451.545 1715.71 451.282 Q1715.89 451.018 1715.89 450.008 Z" fill="#000000" fill-rule="nonzero" fill-opacity="1" /><path clip-path="url(#clip940)" d="M1779.23 480.209 Q1779.47 480.485 1779.47 480.762 Q1779.47 481.039 1778.86 481.838 Q1778.27 482.637 1777.01 483.713 Q1775.75 484.789 1774.12 485.804 Q1772.49 486.818 1770.1 487.495 Q1767.7 488.202 1765.18 488.202 Q1760.47 488.202 1757.71 485.097 Q1754.97 481.992 1754.97 477.534 Q1754.97 473.2 1757.4 469.049 Q1759.83 464.869 1763.76 462.286 Q1767.7 459.673 1771.85 459.673 Q1775.14 459.673 1777.2 461.21 Q1779.26 462.747 1779.26 465.084 Q1779.26 466.898 1778.21 468.004 Q1777.17 469.111 1775.75 469.111 Q1774.77 469.111 1774.09 468.558 Q1773.42 467.974 1773.42 466.898 Q1773.42 465.514 1774.55 464.438 Q1774.98 464.008 1775.48 463.823 Q1776 463.608 1776.31 463.608 Q1776.61 463.577 1777.32 463.577 Q1776.67 462.378 1775.14 461.733 Q1773.63 461.057 1771.91 461.057 Q1769.36 461.057 1766.93 462.84 Q1764.5 464.592 1763.03 467.359 Q1761.55 470.064 1760.6 473.907 Q1759.64 477.719 1759.64 479.932 Q1759.64 482.976 1761.06 484.882 Q1762.47 486.788 1765.3 486.788 Q1765.85 486.788 1766.44 486.757 Q1767.05 486.726 1768.59 486.388 Q1770.16 486.05 1771.54 485.466 Q1772.92 484.882 1774.68 483.621 Q1776.46 482.33 1777.87 480.578 Q1778.37 479.932 1778.7 479.932 Q1778.98 479.932 1779.23 480.209 Z" fill="#000000" fill-rule="nonzero" fill-opacity="1" /></svg>
