<?xml version="1.0" encoding="utf-8"?>
<svg xmlns="http://www.w3.org/2000/svg" xmlns:xlink="http://www.w3.org/1999/xlink" width="600" height="750" viewBox="0 0 2400 3000">
<defs>
  <clipPath id="clip440">
    <rect x="0" y="0" width="2400" height="3000"/>
  </clipPath>
</defs>
<path clip-path="url(#clip440)" d="M0 3000 L2400 3000 L2400 0 L0 0  Z" fill="#ffffff" fill-rule="evenodd" fill-opacity="1"/>
<defs>
  <clipPath id="clip441">
    <rect x="600" y="300" width="2101" height="2101"/>
  </clipPath>
</defs>
<path clip-path="url(#clip440)" d="M329.257 1131.43 L2321.26 1131.43 L2321.26 78.7402 L329.257 78.7402  Z" fill="#ffffff" fill-rule="evenodd" fill-opacity="1"/>
<defs>
  <clipPath id="clip442">
    <rect x="329" y="78" width="1993" height="1054"/>
  </clipPath>
</defs>
<polyline clip-path="url(#clip442)" style="stroke:#000000; stroke-linecap:round; stroke-linejoin:round; stroke-width:2; stroke-opacity:0.1; fill:none" points="692.036,1131.43 692.036,78.7402 "/>
<polyline clip-path="url(#clip442)" style="stroke:#000000; stroke-linecap:round; stroke-linejoin:round; stroke-width:2; stroke-opacity:0.1; fill:none" points="1099.34,1131.43 1099.34,78.7402 "/>
<polyline clip-path="url(#clip442)" style="stroke:#000000; stroke-linecap:round; stroke-linejoin:round; stroke-width:2; stroke-opacity:0.1; fill:none" points="1506.65,1131.43 1506.65,78.7402 "/>
<polyline clip-path="url(#clip442)" style="stroke:#000000; stroke-linecap:round; stroke-linejoin:round; stroke-width:2; stroke-opacity:0.1; fill:none" points="1913.95,1131.43 1913.95,78.7402 "/>
<polyline clip-path="url(#clip442)" style="stroke:#000000; stroke-linecap:round; stroke-linejoin:round; stroke-width:2; stroke-opacity:0.1; fill:none" points="2321.26,1131.43 2321.26,78.7402 "/>
<polyline clip-path="url(#clip442)" style="stroke:#000000; stroke-linecap:round; stroke-linejoin:round; stroke-width:2; stroke-opacity:0.1; fill:none" points="329.257,982.791 2321.26,982.791 "/>
<polyline clip-path="url(#clip442)" style="stroke:#000000; stroke-linecap:round; stroke-linejoin:round; stroke-width:2; stroke-opacity:0.1; fill:none" points="329.257,793.938 2321.26,793.938 "/>
<polyline clip-path="url(#clip442)" style="stroke:#000000; stroke-linecap:round; stroke-linejoin:round; stroke-width:2; stroke-opacity:0.1; fill:none" points="329.257,605.086 2321.26,605.086 "/>
<polyline clip-path="url(#clip442)" style="stroke:#000000; stroke-linecap:round; stroke-linejoin:round; stroke-width:2; stroke-opacity:0.1; fill:none" points="329.257,416.233 2321.26,416.233 "/>
<polyline clip-path="url(#clip442)" style="stroke:#000000; stroke-linecap:round; stroke-linejoin:round; stroke-width:2; stroke-opacity:0.1; fill:none" points="329.257,227.381 2321.26,227.381 "/>
<polyline clip-path="url(#clip440)" style="stroke:#000000; stroke-linecap:round; stroke-linejoin:round; stroke-width:4; stroke-opacity:1; fill:none" points="329.257,1131.43 2321.26,1131.43 "/>
<polyline clip-path="url(#clip440)" style="stroke:#000000; stroke-linecap:round; stroke-linejoin:round; stroke-width:4; stroke-opacity:1; fill:none" points="692.036,1131.43 692.036,1112.53 "/>
<polyline clip-path="url(#clip440)" style="stroke:#000000; stroke-linecap:round; stroke-linejoin:round; stroke-width:4; stroke-opacity:1; fill:none" points="1099.34,1131.43 1099.34,1112.53 "/>
<polyline clip-path="url(#clip440)" style="stroke:#000000; stroke-linecap:round; stroke-linejoin:round; stroke-width:4; stroke-opacity:1; fill:none" points="1506.65,1131.43 1506.65,1112.53 "/>
<polyline clip-path="url(#clip440)" style="stroke:#000000; stroke-linecap:round; stroke-linejoin:round; stroke-width:4; stroke-opacity:1; fill:none" points="1913.95,1131.43 1913.95,1112.53 "/>
<polyline clip-path="url(#clip440)" style="stroke:#000000; stroke-linecap:round; stroke-linejoin:round; stroke-width:4; stroke-opacity:1; fill:none" points="2321.26,1131.43 2321.26,1112.53 "/>
<path clip-path="url(#clip440)" d="M648.402 1178.87 Q641.18 1178.87 637.522 1186 Q633.911 1193.08 633.911 1207.34 Q633.911 1221.55 637.522 1228.68 Q641.18 1235.77 648.402 1235.77 Q655.67 1235.77 659.281 1228.68 Q662.939 1221.55 662.939 1207.34 Q662.939 1193.08 659.281 1186 Q655.67 1178.87 648.402 1178.87 M648.402 1171.46 Q660.022 1171.46 666.133 1180.67 Q672.291 1189.84 672.291 1207.34 Q672.291 1224.79 666.133 1234.01 Q660.022 1243.17 648.402 1243.17 Q636.781 1243.17 630.624 1234.01 Q624.513 1224.79 624.513 1207.34 Q624.513 1189.84 630.624 1180.67 Q636.781 1171.46 648.402 1171.46 Z" fill="#000000" fill-rule="nonzero" fill-opacity="1" /><path clip-path="url(#clip440)" d="M688.726 1230.07 L698.494 1230.07 L698.494 1241.83 L688.726 1241.83 L688.726 1230.07 Z" fill="#000000" fill-rule="nonzero" fill-opacity="1" /><path clip-path="url(#clip440)" d="M726.92 1233.96 L759.559 1233.96 L759.559 1241.83 L715.67 1241.83 L715.67 1233.96 Q720.994 1228.45 730.161 1219.19 Q739.374 1209.89 741.735 1207.2 Q746.225 1202.16 747.985 1198.68 Q749.79 1195.16 749.79 1191.79 Q749.79 1186.28 745.901 1182.8 Q742.059 1179.33 735.855 1179.33 Q731.457 1179.33 726.549 1180.86 Q721.688 1182.39 716.133 1185.49 L716.133 1176.04 Q721.781 1173.78 726.688 1172.62 Q731.596 1171.46 735.67 1171.46 Q746.411 1171.46 752.799 1176.83 Q759.188 1182.2 759.188 1191.18 Q759.188 1195.44 757.568 1199.29 Q755.994 1203.08 751.781 1208.27 Q750.623 1209.61 744.42 1216.04 Q738.216 1222.43 726.92 1233.96 Z" fill="#000000" fill-rule="nonzero" fill-opacity="1" /><path clip-path="url(#clip440)" d="M1053.62 1178.87 Q1046.4 1178.87 1042.74 1186 Q1039.13 1193.08 1039.13 1207.34 Q1039.13 1221.55 1042.74 1228.68 Q1046.4 1235.77 1053.62 1235.77 Q1060.89 1235.77 1064.5 1228.68 Q1068.16 1221.55 1068.16 1207.34 Q1068.16 1193.08 1064.5 1186 Q1060.89 1178.87 1053.62 1178.87 M1053.62 1171.46 Q1065.24 1171.46 1071.36 1180.67 Q1077.51 1189.84 1077.51 1207.34 Q1077.51 1224.79 1071.36 1234.01 Q1065.24 1243.17 1053.62 1243.17 Q1042 1243.17 1035.85 1234.01 Q1029.74 1224.79 1029.74 1207.34 Q1029.74 1189.84 1035.85 1180.67 Q1042 1171.46 1053.62 1171.46 Z" fill="#000000" fill-rule="nonzero" fill-opacity="1" /><path clip-path="url(#clip440)" d="M1093.95 1230.07 L1103.72 1230.07 L1103.72 1241.83 L1093.95 1241.83 L1093.95 1230.07 Z" fill="#000000" fill-rule="nonzero" fill-opacity="1" /><path clip-path="url(#clip440)" d="M1149.78 1180.86 L1126.17 1217.76 L1149.78 1217.76 L1149.78 1180.86 M1147.33 1172.71 L1159.09 1172.71 L1159.09 1217.76 L1168.95 1217.76 L1168.95 1225.54 L1159.09 1225.54 L1159.09 1241.83 L1149.78 1241.83 L1149.78 1225.54 L1118.58 1225.54 L1118.58 1216.51 L1147.33 1172.71 Z" fill="#000000" fill-rule="nonzero" fill-opacity="1" /><path clip-path="url(#clip440)" d="M1461.25 1178.87 Q1454.03 1178.87 1450.37 1186 Q1446.76 1193.08 1446.76 1207.34 Q1446.76 1221.55 1450.37 1228.68 Q1454.03 1235.77 1461.25 1235.77 Q1468.52 1235.77 1472.13 1228.68 Q1475.79 1221.55 1475.79 1207.34 Q1475.79 1193.08 1472.13 1186 Q1468.52 1178.87 1461.25 1178.87 M1461.25 1171.46 Q1472.87 1171.46 1478.99 1180.67 Q1485.14 1189.84 1485.14 1207.34 Q1485.14 1224.79 1478.99 1234.01 Q1472.87 1243.17 1461.25 1243.17 Q1449.63 1243.17 1443.48 1234.01 Q1437.37 1224.79 1437.37 1207.34 Q1437.37 1189.84 1443.48 1180.67 Q1449.63 1171.46 1461.25 1171.46 Z" fill="#000000" fill-rule="nonzero" fill-opacity="1" /><path clip-path="url(#clip440)" d="M1501.58 1230.07 L1511.35 1230.07 L1511.35 1241.83 L1501.58 1241.83 L1501.58 1230.07 Z" fill="#000000" fill-rule="nonzero" fill-opacity="1" /><path clip-path="url(#clip440)" d="M1552.87 1203.54 Q1546.58 1203.54 1542.87 1207.85 Q1539.22 1212.16 1539.22 1219.66 Q1539.22 1227.11 1542.87 1231.46 Q1546.58 1235.77 1552.87 1235.77 Q1559.17 1235.77 1562.83 1231.46 Q1566.53 1227.11 1566.53 1219.66 Q1566.53 1212.16 1562.83 1207.85 Q1559.17 1203.54 1552.87 1203.54 M1571.44 1174.24 L1571.44 1182.76 Q1567.92 1181.09 1564.31 1180.21 Q1560.74 1179.33 1557.23 1179.33 Q1547.97 1179.33 1543.06 1185.58 Q1538.2 1191.83 1537.5 1204.47 Q1540.24 1200.44 1544.36 1198.31 Q1548.48 1196.14 1553.43 1196.14 Q1563.85 1196.14 1569.87 1202.48 Q1575.93 1208.78 1575.93 1219.66 Q1575.93 1230.3 1569.63 1236.74 Q1563.34 1243.17 1552.87 1243.17 Q1540.88 1243.17 1534.54 1234.01 Q1528.2 1224.79 1528.2 1207.34 Q1528.2 1190.95 1535.98 1181.23 Q1543.75 1171.46 1556.86 1171.46 Q1560.37 1171.46 1563.94 1172.16 Q1567.55 1172.85 1571.44 1174.24 Z" fill="#000000" fill-rule="nonzero" fill-opacity="1" /><path clip-path="url(#clip440)" d="M1868.82 1178.87 Q1861.59 1178.87 1857.94 1186 Q1854.32 1193.08 1854.32 1207.34 Q1854.32 1221.55 1857.94 1228.68 Q1861.59 1235.77 1868.82 1235.77 Q1876.08 1235.77 1879.69 1228.68 Q1883.35 1221.55 1883.35 1207.34 Q1883.35 1193.08 1879.69 1186 Q1876.08 1178.87 1868.82 1178.87 M1868.82 1171.46 Q1880.44 1171.46 1886.55 1180.67 Q1892.7 1189.84 1892.7 1207.34 Q1892.7 1224.79 1886.55 1234.01 Q1880.44 1243.17 1868.82 1243.17 Q1857.19 1243.17 1851.04 1234.01 Q1844.93 1224.79 1844.93 1207.34 Q1844.93 1189.84 1851.04 1180.67 Q1857.19 1171.46 1868.82 1171.46 Z" fill="#000000" fill-rule="nonzero" fill-opacity="1" /><path clip-path="url(#clip440)" d="M1909.14 1230.07 L1918.91 1230.07 L1918.91 1241.83 L1909.14 1241.83 L1909.14 1230.07 Z" fill="#000000" fill-rule="nonzero" fill-opacity="1" /><path clip-path="url(#clip440)" d="M1959.28 1209.01 Q1952.61 1209.01 1948.77 1212.57 Q1944.97 1216.14 1944.97 1222.39 Q1944.97 1228.64 1948.77 1232.2 Q1952.61 1235.77 1959.28 1235.77 Q1965.94 1235.77 1969.79 1232.2 Q1973.63 1228.59 1973.63 1222.39 Q1973.63 1216.14 1969.79 1212.57 Q1965.99 1209.01 1959.28 1209.01 M1949.93 1205.03 Q1943.91 1203.54 1940.53 1199.42 Q1937.19 1195.3 1937.19 1189.38 Q1937.19 1181.09 1943.07 1176.28 Q1949 1171.46 1959.28 1171.46 Q1969.6 1171.46 1975.48 1176.28 Q1981.36 1181.09 1981.36 1189.38 Q1981.36 1195.3 1977.98 1199.42 Q1974.65 1203.54 1968.68 1205.03 Q1975.43 1206.6 1979.18 1211.18 Q1982.98 1215.77 1982.98 1222.39 Q1982.98 1232.43 1976.82 1237.8 Q1970.71 1243.17 1959.28 1243.17 Q1947.84 1243.17 1941.69 1237.8 Q1935.57 1232.43 1935.57 1222.39 Q1935.57 1215.77 1939.37 1211.18 Q1943.17 1206.6 1949.93 1205.03 M1946.5 1190.26 Q1946.5 1195.63 1949.83 1198.64 Q1953.21 1201.65 1959.28 1201.65 Q1965.3 1201.65 1968.68 1198.64 Q1972.1 1195.63 1972.1 1190.26 Q1972.1 1184.89 1968.68 1181.88 Q1965.3 1178.87 1959.28 1178.87 Q1953.21 1178.87 1949.83 1181.88 Q1946.5 1184.89 1946.5 1190.26 Z" fill="#000000" fill-rule="nonzero" fill-opacity="1" /><path clip-path="url(#clip440)" d="M2255.57 1233.96 L2270.84 1233.96 L2270.84 1181.23 L2254.22 1184.56 L2254.22 1176.04 L2270.75 1172.71 L2280.1 1172.71 L2280.1 1233.96 L2295.38 1233.96 L2295.38 1241.83 L2255.57 1241.83 L2255.57 1233.96 Z" fill="#000000" fill-rule="nonzero" fill-opacity="1" /><path clip-path="url(#clip440)" d="M2314.27 1230.07 L2324.04 1230.07 L2324.04 1241.83 L2314.27 1241.83 L2314.27 1230.07 Z" fill="#000000" fill-rule="nonzero" fill-opacity="1" /><path clip-path="url(#clip440)" d="M2364.41 1178.87 Q2357.19 1178.87 2353.53 1186 Q2349.92 1193.08 2349.92 1207.34 Q2349.92 1221.55 2353.53 1228.68 Q2357.19 1235.77 2364.41 1235.77 Q2371.68 1235.77 2375.29 1228.68 Q2378.94 1221.55 2378.94 1207.34 Q2378.94 1193.08 2375.29 1186 Q2371.68 1178.87 2364.41 1178.87 M2364.41 1171.46 Q2376.03 1171.46 2382.14 1180.67 Q2388.3 1189.84 2388.3 1207.34 Q2388.3 1224.79 2382.14 1234.01 Q2376.03 1243.17 2364.41 1243.17 Q2352.79 1243.17 2346.63 1234.01 Q2340.52 1224.79 2340.52 1207.34 Q2340.52 1189.84 2346.63 1180.67 Q2352.79 1171.46 2364.41 1171.46 Z" fill="#000000" fill-rule="nonzero" fill-opacity="1" /><path clip-path="url(#clip440)" d="M1243.16 1284.83 Q1243.16 1286.2 1242.58 1288.84 Q1240.74 1296.27 1233.84 1301.38 Q1232.68 1302.33 1230.62 1303.54 Q1233.1 1305.17 1235.26 1308.18 Q1238.47 1313.13 1238.47 1319.82 Q1238.47 1322.93 1237.63 1326.73 Q1235.26 1335.53 1226.93 1341.85 Q1218.55 1348.02 1208.59 1348.02 Q1203.22 1348.02 1199.53 1345.17 Q1195.89 1342.27 1194.47 1337.43 L1187.14 1366.99 Q1186.99 1367.73 1186.04 1367.73 L1185.51 1367.73 Q1184.4 1367.73 1184.4 1366.46 L1201.06 1300.06 Q1202.16 1295.58 1203.96 1291.36 Q1205.75 1287.15 1208.22 1283.35 Q1210.75 1279.56 1213.65 1276.77 Q1216.55 1273.92 1220.13 1272.29 Q1223.72 1270.6 1227.51 1270.6 Q1235.47 1270.6 1240 1276.03 Q1243.16 1279.88 1243.16 1284.83 M1237.1 1282.93 Q1237.1 1279.67 1235.79 1277.4 Q1233.1 1273.08 1227.41 1273.08 Q1223.98 1273.08 1220.71 1274.66 Q1217.5 1276.19 1214.92 1278.82 Q1212.33 1281.46 1210.12 1285.04 Q1207.91 1288.62 1206.27 1292.52 Q1204.69 1296.37 1203.64 1300.59 L1197.16 1326.73 Q1196.52 1329.52 1196.52 1332 Q1196.52 1337.9 1199.79 1341.75 Q1203.06 1345.59 1208.7 1345.59 Q1216.18 1345.59 1222.61 1340.01 Q1228.2 1335 1230.52 1326.2 Q1231.83 1320.67 1231.83 1316.82 Q1231.83 1312.6 1230.31 1309.34 Q1229.2 1306.7 1227.04 1305.12 Q1223.03 1306.54 1218.97 1306.54 Q1217.02 1306.54 1215.97 1306.49 Q1214.97 1306.44 1213.49 1306.23 Q1212.07 1306.02 1211.39 1305.44 Q1210.75 1304.86 1210.75 1303.96 Q1210.75 1303.43 1210.86 1303.22 Q1211.07 1302.38 1211.75 1301.8 Q1212.44 1301.22 1213.23 1300.96 Q1214.02 1300.64 1215.34 1300.48 Q1216.71 1300.32 1217.6 1300.32 Q1218.5 1300.27 1220.03 1300.27 Q1223.61 1300.27 1227.25 1301.69 Q1228.62 1300.96 1230.09 1299.64 Q1234.78 1295.26 1236.37 1288.31 Q1237.1 1285.73 1237.1 1282.93 M1223.82 1303.33 Q1221.61 1302.75 1219.92 1302.75 Q1213.76 1302.75 1213.44 1303.75 Q1213.44 1303.85 1213.65 1303.96 Q1213.86 1304.01 1214.34 1304.07 Q1214.86 1304.07 1215.29 1304.12 Q1215.76 1304.17 1216.55 1304.17 Q1217.34 1304.17 1217.76 1304.17 Q1218.24 1304.17 1219.08 1304.17 Q1221.19 1304.17 1223.82 1303.33 Z" fill="#000000" fill-rule="nonzero" fill-opacity="1" /><path clip-path="url(#clip440)" d="M1291.18 1387.87 Q1291.18 1388.16 1290.85 1389.31 Q1290.52 1390.45 1289.71 1392.22 Q1288.93 1393.99 1287.86 1395.61 Q1286.79 1397.2 1285.02 1398.38 Q1283.29 1399.52 1281.29 1399.52 Q1278.64 1399.52 1276.87 1397.75 Q1275.1 1395.98 1275.1 1393.33 Q1275.1 1392.96 1275.13 1392.59 Q1275.17 1392.22 1275.21 1392 Q1275.24 1391.74 1275.36 1391.33 Q1275.5 1390.89 1275.54 1390.71 Q1275.61 1390.52 1275.8 1389.97 Q1276.02 1389.38 1276.09 1389.16 Q1280.78 1377.21 1280.78 1372.23 Q1280.78 1366.95 1276.68 1366.95 Q1273.03 1366.95 1269.42 1369.61 Q1267.76 1370.93 1266.17 1373.3 Q1264.58 1375.66 1264.29 1376.54 Q1263.96 1378.46 1263.48 1379.94 Q1263.26 1380.97 1262.19 1384.99 L1260.53 1391.81 L1259.09 1397.53 Q1258.79 1398.34 1257.98 1398.93 Q1257.17 1399.52 1256.28 1399.52 Q1255.55 1399.52 1254.81 1399.01 Q1254.11 1398.53 1254.11 1397.38 Q1254.11 1396.79 1254.4 1395.72 L1265.36 1352.19 L1265.58 1350.72 Q1265.58 1350.28 1265.4 1350.05 Q1265.25 1349.8 1264.36 1349.61 Q1263.51 1349.43 1261.82 1349.43 Q1261.12 1349.43 1260.78 1349.39 Q1260.49 1349.35 1260.23 1349.17 Q1259.97 1348.95 1259.97 1348.5 Q1259.97 1347.88 1260.23 1347.55 Q1260.53 1347.18 1260.75 1347.1 Q1260.97 1347.03 1261.41 1346.99 Q1262.04 1346.96 1264.14 1346.77 Q1266.24 1346.55 1268.05 1346.4 Q1269.86 1346.25 1270.63 1346.25 Q1271.08 1346.25 1271.3 1346.48 Q1271.56 1346.66 1271.59 1346.88 L1271.63 1347.07 L1265.73 1371.08 Q1270.41 1365.29 1276.9 1365.29 Q1281.11 1365.29 1283.36 1367.47 Q1285.61 1369.61 1285.61 1373.37 Q1285.61 1377.69 1281 1389.97 Q1279.63 1393.4 1279.63 1395.36 Q1279.63 1396.65 1280.04 1397.24 Q1280.48 1397.83 1281.44 1397.83 Q1282.92 1397.83 1284.21 1396.98 Q1285.54 1396.09 1286.46 1394.65 Q1287.38 1393.18 1288.01 1391.7 Q1288.67 1390.19 1289.15 1388.49 Q1289.45 1387.57 1289.6 1387.35 Q1289.78 1387.13 1290.3 1387.13 Q1291.18 1387.13 1291.18 1387.87 Z" fill="#000000" fill-rule="nonzero" fill-opacity="1" /><path clip-path="url(#clip440)" d="M1302.34 1372.26 Q1302.34 1371.73 1302.76 1370.57 L1340.86 1268.76 Q1340.86 1268.65 1341.12 1268.07 Q1341.39 1267.49 1341.54 1267.12 Q1341.7 1266.7 1342.02 1266.38 Q1342.39 1266.07 1342.81 1266.07 Q1343.86 1266.07 1343.86 1267.39 Q1343.86 1267.49 1343.55 1268.76 L1305.34 1370.68 Q1304.71 1372.52 1304.29 1373.05 Q1303.92 1373.58 1303.28 1373.58 Q1302.34 1373.58 1302.34 1372.26 Z" fill="#000000" fill-rule="nonzero" fill-opacity="1" /><path clip-path="url(#clip440)" d="M1414.54 1284.83 Q1414.54 1286.2 1413.96 1288.84 Q1412.12 1296.27 1405.22 1301.38 Q1404.06 1302.33 1402 1303.54 Q1404.48 1305.17 1406.64 1308.18 Q1409.85 1313.13 1409.85 1319.82 Q1409.85 1322.93 1409.01 1326.73 Q1406.64 1335.53 1398.31 1341.85 Q1389.93 1348.02 1379.97 1348.02 Q1374.6 1348.02 1370.91 1345.17 Q1367.27 1342.27 1365.85 1337.43 L1358.52 1366.99 Q1358.37 1367.73 1357.42 1367.73 L1356.89 1367.73 Q1355.78 1367.73 1355.78 1366.46 L1372.44 1300.06 Q1373.54 1295.58 1375.33 1291.36 Q1377.13 1287.15 1379.6 1283.35 Q1382.13 1279.56 1385.03 1276.77 Q1387.93 1273.92 1391.51 1272.29 Q1395.1 1270.6 1398.89 1270.6 Q1406.85 1270.6 1411.38 1276.03 Q1414.54 1279.88 1414.54 1284.83 M1408.48 1282.93 Q1408.48 1279.67 1407.17 1277.4 Q1404.48 1273.08 1398.79 1273.08 Q1395.36 1273.08 1392.09 1274.66 Q1388.88 1276.19 1386.3 1278.82 Q1383.71 1281.46 1381.5 1285.04 Q1379.29 1288.62 1377.65 1292.52 Q1376.07 1296.37 1375.02 1300.59 L1368.54 1326.73 Q1367.9 1329.52 1367.9 1332 Q1367.9 1337.9 1371.17 1341.75 Q1374.44 1345.59 1380.08 1345.59 Q1387.56 1345.59 1393.99 1340.01 Q1399.58 1335 1401.9 1326.2 Q1403.21 1320.67 1403.21 1316.82 Q1403.21 1312.6 1401.69 1309.34 Q1400.58 1306.7 1398.42 1305.12 Q1394.41 1306.54 1390.35 1306.54 Q1388.4 1306.54 1387.35 1306.49 Q1386.35 1306.44 1384.87 1306.23 Q1383.45 1306.02 1382.77 1305.44 Q1382.13 1304.86 1382.13 1303.96 Q1382.13 1303.43 1382.24 1303.22 Q1382.45 1302.38 1383.13 1301.8 Q1383.82 1301.22 1384.61 1300.96 Q1385.4 1300.64 1386.72 1300.48 Q1388.09 1300.32 1388.98 1300.32 Q1389.88 1300.27 1391.41 1300.27 Q1394.99 1300.27 1398.63 1301.69 Q1400 1300.96 1401.47 1299.64 Q1406.16 1295.26 1407.75 1288.31 Q1408.48 1285.73 1408.48 1282.93 M1395.2 1303.33 Q1392.99 1302.75 1391.3 1302.75 Q1385.14 1302.75 1384.82 1303.75 Q1384.82 1303.85 1385.03 1303.96 Q1385.24 1304.01 1385.72 1304.07 Q1386.24 1304.07 1386.67 1304.12 Q1387.14 1304.17 1387.93 1304.17 Q1388.72 1304.17 1389.14 1304.17 Q1389.62 1304.17 1390.46 1304.17 Q1392.57 1304.17 1395.2 1303.33 Z" fill="#000000" fill-rule="nonzero" fill-opacity="1" /><path clip-path="url(#clip440)" d="M1454.59 1378.62 Q1454.89 1378.95 1454.89 1379.28 Q1454.89 1379.62 1454.15 1380.58 Q1453.45 1381.53 1451.94 1382.83 Q1450.42 1384.12 1448.47 1385.33 Q1446.51 1386.55 1443.64 1387.36 Q1440.76 1388.21 1437.73 1388.21 Q1432.09 1388.21 1428.77 1384.49 Q1425.49 1380.76 1425.49 1375.41 Q1425.49 1370.21 1428.4 1365.23 Q1431.32 1360.21 1436.04 1357.11 Q1440.76 1353.98 1445.74 1353.98 Q1449.69 1353.98 1452.16 1355.82 Q1454.63 1357.67 1454.63 1360.47 Q1454.63 1362.65 1453.38 1363.98 Q1452.12 1365.3 1450.42 1365.3 Q1449.24 1365.3 1448.43 1364.64 Q1447.62 1363.94 1447.62 1362.65 Q1447.62 1360.99 1448.99 1359.7 Q1449.5 1359.18 1450.09 1358.96 Q1450.72 1358.7 1451.09 1358.7 Q1451.46 1358.66 1452.31 1358.66 Q1451.53 1357.22 1449.69 1356.45 Q1447.88 1355.64 1445.81 1355.64 Q1442.75 1355.64 1439.84 1357.78 Q1436.92 1359.88 1435.15 1363.2 Q1433.38 1366.45 1432.24 1371.06 Q1431.09 1375.63 1431.09 1378.29 Q1431.09 1381.94 1432.79 1384.23 Q1434.49 1386.52 1437.88 1386.52 Q1438.55 1386.52 1439.25 1386.48 Q1439.98 1386.44 1441.83 1386.04 Q1443.71 1385.63 1445.37 1384.93 Q1447.03 1384.23 1449.13 1382.72 Q1451.27 1381.17 1452.97 1379.06 Q1453.56 1378.29 1453.97 1378.29 Q1454.3 1378.29 1454.59 1378.62 Z" fill="#000000" fill-rule="nonzero" fill-opacity="1" /><polyline clip-path="url(#clip440)" style="stroke:#000000; stroke-linecap:round; stroke-linejoin:round; stroke-width:4; stroke-opacity:1; fill:none" points="329.257,1131.43 329.257,78.7402 "/>
<polyline clip-path="url(#clip440)" style="stroke:#000000; stroke-linecap:round; stroke-linejoin:round; stroke-width:4; stroke-opacity:1; fill:none" points="329.257,982.791 348.155,982.791 "/>
<polyline clip-path="url(#clip440)" style="stroke:#000000; stroke-linecap:round; stroke-linejoin:round; stroke-width:4; stroke-opacity:1; fill:none" points="329.257,793.938 348.155,793.938 "/>
<polyline clip-path="url(#clip440)" style="stroke:#000000; stroke-linecap:round; stroke-linejoin:round; stroke-width:4; stroke-opacity:1; fill:none" points="329.257,605.086 348.155,605.086 "/>
<polyline clip-path="url(#clip440)" style="stroke:#000000; stroke-linecap:round; stroke-linejoin:round; stroke-width:4; stroke-opacity:1; fill:none" points="329.257,416.233 348.155,416.233 "/>
<polyline clip-path="url(#clip440)" style="stroke:#000000; stroke-linecap:round; stroke-linejoin:round; stroke-width:4; stroke-opacity:1; fill:none" points="329.257,227.381 348.155,227.381 "/>
<path clip-path="url(#clip440)" d="M100.693 983.693 L160.045 983.693 L160.045 991.564 L100.693 991.564 L100.693 983.693 Z" fill="#000000" fill-rule="nonzero" fill-opacity="1" /><path clip-path="url(#clip440)" d="M188.286 1009.48 L220.924 1009.48 L220.924 1017.35 L177.036 1017.35 L177.036 1009.48 Q182.36 1003.97 191.526 994.712 Q200.739 985.406 203.1 982.721 Q207.591 977.675 209.35 974.203 Q211.156 970.684 211.156 967.305 Q211.156 961.795 207.267 958.323 Q203.424 954.851 197.221 954.851 Q192.823 954.851 187.915 956.379 Q183.054 957.907 177.499 961.008 L177.499 951.564 Q183.147 949.296 188.054 948.138 Q192.961 946.981 197.036 946.981 Q207.776 946.981 214.165 952.351 Q220.554 957.721 220.554 966.703 Q220.554 970.962 218.934 974.805 Q217.36 978.601 213.147 983.786 Q211.989 985.129 205.785 991.564 Q199.582 997.953 188.286 1009.48 Z" fill="#000000" fill-rule="nonzero" fill-opacity="1" /><path clip-path="url(#clip440)" d="M260.554 984.527 Q253.887 984.527 250.045 988.092 Q246.248 991.656 246.248 997.906 Q246.248 1004.16 250.045 1007.72 Q253.887 1011.29 260.554 1011.29 Q267.22 1011.29 271.063 1007.72 Q274.905 1004.11 274.905 997.906 Q274.905 991.656 271.063 988.092 Q267.267 984.527 260.554 984.527 M251.202 980.545 Q245.183 979.064 241.804 974.944 Q238.471 970.823 238.471 964.897 Q238.471 956.61 244.35 951.796 Q250.276 946.981 260.554 946.981 Q270.878 946.981 276.757 951.796 Q282.637 956.61 282.637 964.897 Q282.637 970.823 279.257 974.944 Q275.924 979.064 269.952 980.545 Q276.711 982.119 280.461 986.703 Q284.257 991.286 284.257 997.906 Q284.257 1007.95 278.1 1013.32 Q271.989 1018.69 260.554 1018.69 Q249.119 1018.69 242.961 1013.32 Q236.85 1007.95 236.85 997.906 Q236.85 991.286 240.646 986.703 Q244.443 982.119 251.202 980.545 M247.776 965.777 Q247.776 971.147 251.109 974.157 Q254.489 977.166 260.554 977.166 Q266.572 977.166 269.952 974.157 Q273.378 971.147 273.378 965.777 Q273.378 960.407 269.952 957.397 Q266.572 954.388 260.554 954.388 Q254.489 954.388 251.109 957.397 Q247.776 960.407 247.776 965.777 Z" fill="#000000" fill-rule="nonzero" fill-opacity="1" /><path clip-path="url(#clip440)" d="M99.5361 794.841 L158.888 794.841 L158.888 802.711 L99.5361 802.711 L99.5361 794.841 Z" fill="#000000" fill-rule="nonzero" fill-opacity="1" /><path clip-path="url(#clip440)" d="M180.693 820.628 L195.971 820.628 L195.971 767.897 L179.35 771.23 L179.35 762.712 L195.878 759.378 L205.23 759.378 L205.23 820.628 L220.508 820.628 L220.508 828.498 L180.693 828.498 L180.693 820.628 Z" fill="#000000" fill-rule="nonzero" fill-opacity="1" /><path clip-path="url(#clip440)" d="M265.091 767.526 L241.48 804.424 L265.091 804.424 L265.091 767.526 M262.637 759.378 L274.396 759.378 L274.396 804.424 L284.257 804.424 L284.257 812.202 L274.396 812.202 L274.396 828.498 L265.091 828.498 L265.091 812.202 L233.887 812.202 L233.887 803.174 L262.637 759.378 Z" fill="#000000" fill-rule="nonzero" fill-opacity="1" /><path clip-path="url(#clip440)" d="M260.369 576.683 Q253.146 576.683 249.489 583.813 Q245.878 590.896 245.878 605.155 Q245.878 619.368 249.489 626.498 Q253.146 633.581 260.369 633.581 Q267.637 633.581 271.248 626.498 Q274.905 619.368 274.905 605.155 Q274.905 590.896 271.248 583.813 Q267.637 576.683 260.369 576.683 M260.369 569.276 Q271.989 569.276 278.1 578.489 Q284.257 587.655 284.257 605.155 Q284.257 622.609 278.1 631.822 Q271.989 640.988 260.369 640.988 Q248.748 640.988 242.591 631.822 Q236.48 622.609 236.48 605.155 Q236.48 587.655 242.591 578.489 Q248.748 569.276 260.369 569.276 Z" fill="#000000" fill-rule="nonzero" fill-opacity="1" /><path clip-path="url(#clip440)" d="M180.693 442.923 L195.971 442.923 L195.971 390.192 L179.35 393.525 L179.35 385.007 L195.878 381.673 L205.23 381.673 L205.23 442.923 L220.508 442.923 L220.508 450.793 L180.693 450.793 L180.693 442.923 Z" fill="#000000" fill-rule="nonzero" fill-opacity="1" /><path clip-path="url(#clip440)" d="M265.091 389.821 L241.48 426.719 L265.091 426.719 L265.091 389.821 M262.637 381.673 L274.396 381.673 L274.396 426.719 L284.257 426.719 L284.257 434.497 L274.396 434.497 L274.396 450.793 L265.091 450.793 L265.091 434.497 L233.887 434.497 L233.887 425.469 L262.637 381.673 Z" fill="#000000" fill-rule="nonzero" fill-opacity="1" /><path clip-path="url(#clip440)" d="M188.286 254.07 L220.924 254.07 L220.924 261.941 L177.036 261.941 L177.036 254.07 Q182.36 248.561 191.526 239.302 Q200.739 229.997 203.1 227.311 Q207.591 222.265 209.35 218.793 Q211.156 215.274 211.156 211.895 Q211.156 206.386 207.267 202.913 Q203.424 199.441 197.221 199.441 Q192.823 199.441 187.915 200.969 Q183.054 202.497 177.499 205.599 L177.499 196.154 Q183.147 193.886 188.054 192.728 Q192.961 191.571 197.036 191.571 Q207.776 191.571 214.165 196.941 Q220.554 202.311 220.554 211.293 Q220.554 215.552 218.934 219.395 Q217.36 223.191 213.147 228.376 Q211.989 229.719 205.785 236.154 Q199.582 242.543 188.286 254.07 Z" fill="#000000" fill-rule="nonzero" fill-opacity="1" /><path clip-path="url(#clip440)" d="M260.554 229.117 Q253.887 229.117 250.045 232.682 Q246.248 236.246 246.248 242.496 Q246.248 248.746 250.045 252.311 Q253.887 255.876 260.554 255.876 Q267.22 255.876 271.063 252.311 Q274.905 248.7 274.905 242.496 Q274.905 236.246 271.063 232.682 Q267.267 229.117 260.554 229.117 M251.202 225.135 Q245.183 223.654 241.804 219.534 Q238.471 215.413 238.471 209.487 Q238.471 201.2 244.35 196.386 Q250.276 191.571 260.554 191.571 Q270.878 191.571 276.757 196.386 Q282.637 201.2 282.637 209.487 Q282.637 215.413 279.257 219.534 Q275.924 223.654 269.952 225.135 Q276.711 226.71 280.461 231.293 Q284.257 235.876 284.257 242.496 Q284.257 252.543 278.1 257.913 Q271.989 263.283 260.554 263.283 Q249.119 263.283 242.961 257.913 Q236.85 252.543 236.85 242.496 Q236.85 235.876 240.646 231.293 Q244.443 226.71 251.202 225.135 M247.776 210.367 Q247.776 215.737 251.109 218.747 Q254.489 221.756 260.554 221.756 Q266.572 221.756 269.952 218.747 Q273.378 215.737 273.378 210.367 Q273.378 204.997 269.952 201.987 Q266.572 198.978 260.554 198.978 Q254.489 198.978 251.109 201.987 Q247.776 204.997 247.776 210.367 Z" fill="#000000" fill-rule="nonzero" fill-opacity="1" /><path clip-path="url(#clip442)" d="M329.257 2184.12 L329.257 -973.951 L569.671 -973.951 L569.671 2184.12 L329.257 2184.12  Z" fill="#3a873c" fill-rule="evenodd" fill-opacity="0.5"/>
<polyline clip-path="url(#clip442)" style="stroke:#000000; stroke-linecap:round; stroke-linejoin:round; stroke-width:0; stroke-opacity:0.5; fill:none" points="329.257,2184.12 329.257,-973.951 569.671,-973.951 569.671,2184.12 329.257,2184.12 "/>
<path clip-path="url(#clip442)" d="M569.671 2184.12 L569.671 -973.951 L672.706 -973.951 L672.706 2184.12 L569.671 2184.12  Z" fill="#e5b12e" fill-rule="evenodd" fill-opacity="0.5"/>
<polyline clip-path="url(#clip442)" style="stroke:#000000; stroke-linecap:round; stroke-linejoin:round; stroke-width:0; stroke-opacity:0.5; fill:none" points="569.671,2184.12 569.671,-973.951 672.706,-973.951 672.706,2184.12 569.671,2184.12 "/>
<path clip-path="url(#clip442)" d="M672.706 2184.12 L672.706 -973.951 L981.81 -973.951 L981.81 2184.12 L672.706 2184.12  Z" fill="#8c5b89" fill-rule="evenodd" fill-opacity="0.5"/>
<polyline clip-path="url(#clip442)" style="stroke:#000000; stroke-linecap:round; stroke-linejoin:round; stroke-width:0; stroke-opacity:0.5; fill:none" points="672.706,2184.12 672.706,-973.951 981.81,-973.951 981.81,2184.12 672.706,2184.12 "/>
<path clip-path="url(#clip442)" d="M981.81 2184.12 L981.81 -973.951 L2321.26 -973.951 L2321.26 2184.12 L981.81 2184.12  Z" fill="#50b3d1" fill-rule="evenodd" fill-opacity="0.5"/>
<polyline clip-path="url(#clip442)" style="stroke:#000000; stroke-linecap:round; stroke-linejoin:round; stroke-width:0; stroke-opacity:0.5; fill:none" points="981.81,2184.12 981.81,-973.951 2321.26,-973.951 2321.26,2184.12 981.81,2184.12 "/>
<polyline clip-path="url(#clip442)" style="stroke:#148109; stroke-linecap:round; stroke-linejoin:round; stroke-width:16; stroke-opacity:1; fill:none" points="329.257,300.885 363.602,371.556 397.947,421.298 432.292,463.363 466.637,500.885 500.982,534.944 535.327,565.994 569.671,594.177 604.016,619.93 638.361,643.546 672.706,665.12 707.051,684.753 741.396,702.549 775.741,718.621 810.086,733.085 844.43,746.059 878.775,757.663 913.12,768.011 947.465,777.217 981.81,785.387 1016.15,792.623 1050.5,799.02 1084.84,804.665 1119.19,809.639 1153.53,814.015 1187.88,817.861 1222.22,821.237 1256.57,824.197 1290.91,826.79 1325.26,829.059 1359.6,831.043 1393.95,832.776 1428.29,834.288 1462.64,835.607 1496.98,836.756 1531.33,837.756 1565.67,838.626 1600.02,839.381 1634.36,840.037 1668.71,840.605 1703.05,841.097 1737.4,841.522 1771.74,841.889 1806.09,842.205 1840.43,842.476 1874.78,842.709 1909.12,842.908 1943.47,843.078 1977.81,843.222 2012.16,843.344 2046.5,843.447 2080.85,843.533 2115.19,843.604 2149.54,843.663 2183.88,843.711 2218.23,843.749 2252.57,843.78 2286.91,843.804 2321.26,843.821 "/>
<polyline clip-path="url(#clip442)" style="stroke:#d62020; stroke-linecap:round; stroke-linejoin:round; stroke-width:16; stroke-opacity:1; fill:none" points="329.257,78.7402 363.602,169.442 397.947,238.551 432.292,299.097 466.637,354.116 500.982,404.623 535.327,451.037 569.671,493.54 604.016,532.509 638.361,568.199 672.706,600.758 707.051,630.344 741.396,657.126 775.741,681.28 810.086,702.99 844.43,722.44 878.775,739.814 913.12,755.292 947.465,769.048 981.81,781.247 1016.15,792.042 1050.5,801.58 1084.84,809.993 1119.19,817.403 1153.53,823.922 1187.88,829.651 1222.22,834.679 1256.57,839.09 1290.91,842.956 1325.26,846.341 1359.6,849.303 1393.95,851.894 1428.29,854.159 1462.64,856.138 1496.98,857.866 1531.33,859.374 1565.67,860.689 1600.02,861.835 1634.36,862.834 1668.71,863.703 1703.05,864.46 1737.4,865.118 1771.74,865.689 1806.09,866.186 1840.43,866.616 1874.78,866.988 1909.12,867.311 1943.47,867.589 1977.81,867.83 2012.16,868.037 2046.5,868.214 2080.85,868.367 2115.19,868.497 2149.54,868.608 2183.88,868.703 2218.23,868.782 2252.57,868.85 2286.91,868.906 2321.26,868.953 "/>
<polyline clip-path="url(#clip442)" style="stroke:#1e6cd0; stroke-linecap:round; stroke-linejoin:round; stroke-width:16; stroke-opacity:1; fill:none" points="329.257,829.988 363.602,809.647 397.947,790.007 432.292,771.213 466.637,753.365 500.982,736.53 535.327,720.746 569.671,705.995 604.016,692.41 638.361,680.029 672.706,668.791 707.051,658.632 741.396,649.483 775.741,641.272 810.086,633.927 844.43,627.375 878.775,621.545 913.12,616.372 947.465,611.789 981.81,607.739 1016.15,604.163 1050.5,601.012 1084.84,598.238 1119.19,595.799 1153.53,593.656 1187.88,591.774 1222.22,590.123 1256.57,588.675 1290.91,587.405 1325.26,586.291 1359.6,585.315 1393.95,584.46 1428.29,583.71 1462.64,583.053 1496.98,582.477 1531.33,581.972 1565.67,581.529 1600.02,581.14 1634.36,580.798 1668.71,580.499 1703.05,580.235 1737.4,580.004 1771.74,579.8 1806.09,579.621 1840.43,579.463 1874.78,579.325 1909.12,579.202 1943.47,579.094 1977.81,578.999 2012.16,578.915 2046.5,578.841 2080.85,578.775 2115.19,578.717 2149.54,578.665 2183.88,578.619 2218.23,578.579 2252.57,578.543 2286.91,578.511 2321.26,578.483 "/>
<polyline clip-path="url(#clip442)" style="stroke:#000000; stroke-linecap:round; stroke-linejoin:round; stroke-width:16; stroke-opacity:1; fill:none" stroke-dasharray="64, 32, 8, 32" points="-1662.75,605.086 4313.26,605.086 "/>
<path clip-path="url(#clip440)" d="M1879.27 569.253 L2254.86 569.253 L2254.86 113.83 L1879.27 113.83  Z" fill="#ffffff" fill-rule="evenodd" fill-opacity="1"/>
<polyline clip-path="url(#clip440)" style="stroke:#000000; stroke-linecap:round; stroke-linejoin:round; stroke-width:4; stroke-opacity:1; fill:none" points="1879.27,569.253 2254.86,569.253 2254.86,113.83 1879.27,113.83 1879.27,569.253 "/>
<polyline clip-path="url(#clip440)" style="stroke:#148109; stroke-linecap:round; stroke-linejoin:round; stroke-width:32; stroke-opacity:1; fill:none" points="1901.4,227.686 2034.2,227.686 "/>
<path clip-path="url(#clip440)" d="M2078.02 271.162 Q2078.02 271.958 2077.46 272.52 Q2076.9 273.082 2076.1 273.082 Q2074.74 273.082 2074.27 271.817 L2056.43 225.769 Q2056.33 225.582 2056.33 225.113 Q2056.33 224.645 2056.43 224.457 L2074.27 178.409 Q2074.74 177.144 2076.1 177.144 Q2076.9 177.144 2077.46 177.706 Q2078.02 178.268 2078.02 179.065 Q2078.02 179.533 2077.93 179.72 L2060.27 225.113 L2077.93 270.506 Q2078.02 270.693 2078.02 271.162 Z" fill="#000000" fill-rule="nonzero" fill-opacity="1" /><path clip-path="url(#clip440)" d="M2161.75 198.037 Q2161.75 203.283 2157.86 208.108 Q2154.02 212.933 2147.74 215.885 Q2141.51 218.789 2134.82 218.789 L2118.51 218.789 L2112.56 242.774 Q2112.52 242.914 2112.38 243.523 Q2112.24 244.085 2112.24 244.413 Q2112.24 245.584 2113.69 245.865 Q2115.19 246.146 2118.51 246.146 Q2120.67 246.146 2121 246.521 Q2121.18 246.755 2121.18 247.177 Q2121.18 247.833 2121 248.301 Q2120.81 248.723 2120.43 248.863 Q2120.11 249.004 2119.87 249.051 Q2119.64 249.098 2119.26 249.098 Q2118.28 249.098 2116.17 249.004 Q2114.11 248.91 2113.03 248.91 L2106.9 248.817 L2094.72 249.098 Q2093.26 249.098 2093.26 247.927 Q2093.26 247.036 2093.64 246.662 Q2094.01 246.24 2094.44 246.193 Q2094.86 246.146 2095.93 246.146 Q2098.28 246.146 2099.68 246.006 Q2101.09 245.865 2101.98 245.678 Q2102.91 245.444 2103.38 244.788 Q2103.9 244.132 2104.13 243.57 Q2104.37 242.961 2104.69 241.602 L2117.53 190.073 Q2117.9 188.527 2117.9 188.293 Q2117.9 187.497 2117.44 187.216 Q2117.01 186.888 2115.8 186.747 Q2113.45 186.56 2111.67 186.56 Q2110.5 186.56 2110.03 186.513 Q2109.61 186.466 2109.24 186.232 Q2108.91 185.951 2108.91 185.389 Q2108.91 184.499 2109.29 184.124 Q2109.71 183.702 2110.18 183.655 Q2110.64 183.562 2111.77 183.562 L2142.87 183.562 Q2151.82 183.562 2156.79 187.825 Q2161.75 192.087 2161.75 198.037 M2152.85 195.741 Q2152.85 186.56 2139.78 186.56 L2130.6 186.56 Q2127.55 186.56 2126.81 187.122 Q2126.06 187.637 2125.4 190.214 L2118.89 216.306 L2132.43 216.306 Q2141.51 216.306 2147.18 211.2 Q2149.76 208.858 2151.31 203.986 Q2152.85 199.114 2152.85 195.741 Z" fill="#000000" fill-rule="nonzero" fill-opacity="1" /><path clip-path="url(#clip440)" d="M2185.7 230.916 L2176.03 269.741 Q2175.63 271.282 2175.63 272.955 Q2175.63 276.037 2177.66 276.037 Q2178.62 276.037 2179.4 275.414 Q2180.19 274.758 2180.78 273.479 Q2181.4 272.168 2181.8 270.922 Q2182.22 269.676 2182.75 267.741 Q2182.91 266.987 2183.08 266.757 Q2183.24 266.528 2183.7 266.528 Q2184.52 266.528 2184.52 267.184 Q2183.7 271.217 2182.49 273.775 Q2180.71 277.546 2177.44 277.546 Q2174.98 277.546 2173.14 275.84 Q2171.34 274.102 2171.34 271.348 Q2171.34 270.299 2171.66 269.053 L2180.12 235.474 L2180.35 234.163 Q2180.35 233.802 2180.22 233.605 Q2180.09 233.408 2179.3 233.212 Q2178.55 233.015 2177.04 233.015 Q2176.42 233.015 2176.12 232.982 Q2175.86 232.949 2175.6 232.785 Q2175.37 232.621 2175.37 232.261 Q2175.37 231.67 2175.6 231.342 Q2175.86 231.015 2176.06 230.949 Q2176.25 230.883 2176.65 230.851 Q2177.21 230.818 2179.08 230.654 Q2180.94 230.457 2182.55 230.326 Q2184.16 230.195 2184.85 230.195 Q2185.24 230.195 2185.44 230.392 Q2185.67 230.555 2185.7 230.752 L2185.7 230.916 Z" fill="#000000" fill-rule="nonzero" fill-opacity="1" /><path clip-path="url(#clip440)" d="M2217.34 224.457 Q2217.44 224.645 2217.44 225.113 Q2217.44 225.582 2217.34 225.769 L2199.5 271.817 Q2199.03 273.082 2197.72 273.082 Q2196.92 273.082 2196.36 272.52 Q2195.79 271.958 2195.79 271.162 Q2195.79 270.693 2195.89 270.506 L2213.5 225.113 L2195.89 179.72 Q2195.79 179.533 2195.79 179.065 Q2195.79 178.268 2196.36 177.706 Q2196.92 177.144 2197.72 177.144 Q2199.03 177.144 2199.5 178.409 L2217.34 224.457 Z" fill="#000000" fill-rule="nonzero" fill-opacity="1" /><polyline clip-path="url(#clip440)" style="stroke:#d62020; stroke-linecap:round; stroke-linejoin:round; stroke-width:32; stroke-opacity:1; fill:none" points="1901.4,341.542 2034.2,341.542 "/>
<path clip-path="url(#clip440)" d="M2122.67 309.773 Q2122.67 316.519 2120.23 323.218 Q2117.79 329.87 2113.72 335.257 Q2109.69 340.644 2104.44 344.813 Q2099.24 348.936 2093.67 351.044 Q2094.37 356.665 2095.78 358.773 Q2097.23 360.928 2100.46 360.928 Q2102.33 360.928 2104.35 360.085 Q2106.41 359.242 2108.52 357.04 Q2110.63 354.885 2111.7 351.7 Q2112.03 350.669 2112.87 350.669 Q2113.2 350.669 2113.53 350.95 Q2113.91 351.184 2113.91 351.606 Q2113.91 351.981 2113.48 353.339 Q2113.11 354.744 2112.31 356.899 Q2111.52 359.054 2110.16 361.303 Q2108.8 363.598 2107.11 365.612 Q2105.47 367.627 2103.04 368.892 Q2100.6 370.203 2097.88 370.203 Q2095.64 370.203 2094 369.36 Q2092.4 368.517 2091.61 367.439 Q2090.86 366.362 2090.44 364.629 Q2090.01 362.942 2089.97 362.005 Q2089.92 361.069 2089.92 359.663 Q2089.92 358.211 2090.3 352.262 Q2085.24 353.714 2080.93 353.714 Q2070.29 353.714 2063.31 346.734 Q2056.33 339.754 2056.33 328.09 Q2056.33 319.939 2059.99 311.835 Q2063.64 303.684 2069.45 297.641 Q2075.26 291.551 2082.89 287.756 Q2090.58 283.962 2098.17 283.962 Q2108.94 283.962 2115.78 291.129 Q2122.67 298.25 2122.67 309.773 M2114.19 306.728 Q2114.19 297.266 2109.55 291.832 Q2104.96 286.351 2097.6 286.351 Q2091.98 286.351 2085.75 289.958 Q2079.57 293.565 2074.56 300.545 Q2069.64 307.525 2067.2 316.285 Q2064.81 325.045 2064.81 331.181 Q2064.81 337.974 2067.48 343.08 Q2070.15 348.139 2075.54 350.247 Q2074.98 349.123 2074.98 347.202 Q2074.98 343.455 2077.98 340.457 Q2080.97 337.412 2084.77 337.412 Q2086.45 337.412 2087.77 337.927 Q2089.12 338.396 2089.97 339.379 Q2090.86 340.363 2091.42 341.3 Q2092.03 342.19 2092.36 343.642 Q2092.73 345.048 2092.87 345.797 Q2093.01 346.5 2093.2 347.765 Q2097.79 345.188 2101.54 340.972 Q2105.29 336.709 2107.58 332.212 Q2109.88 327.668 2111.42 322.749 Q2112.97 317.784 2113.58 313.849 Q2114.19 309.867 2114.19 306.728 M2090.58 347.671 Q2090.58 343.314 2089.17 341.44 Q2087.81 339.52 2084.77 339.52 Q2081.77 339.52 2079.43 341.909 Q2077.09 344.298 2077.09 347.202 Q2077.09 348.655 2077.51 349.592 Q2077.98 350.482 2078.82 350.856 Q2079.66 351.184 2080.18 351.278 Q2080.69 351.325 2081.49 351.325 Q2085.56 351.325 2089.55 349.592 Q2090.25 349.31 2090.39 349.029 Q2090.58 348.748 2090.58 347.671 Z" fill="#000000" fill-rule="nonzero" fill-opacity="1" /><path clip-path="url(#clip440)" d="M2165.21 388.11 Q2165.21 388.372 2164.92 389.389 Q2164.62 390.405 2163.9 391.979 Q2163.21 393.553 2162.26 394.996 Q2161.31 396.406 2159.74 397.455 Q2158.19 398.472 2156.42 398.472 Q2154.06 398.472 2152.49 396.898 Q2150.91 395.324 2150.91 392.963 Q2150.91 392.635 2150.95 392.307 Q2150.98 391.979 2151.01 391.782 Q2151.05 391.553 2151.14 391.192 Q2151.28 390.799 2151.31 390.635 Q2151.37 390.471 2151.54 389.979 Q2151.73 389.454 2151.8 389.257 Q2155.96 378.633 2155.96 374.206 Q2155.96 369.517 2152.32 369.517 Q2149.08 369.517 2145.86 371.878 Q2144.39 373.058 2142.98 375.157 Q2141.57 377.256 2141.31 378.043 Q2141.01 379.748 2140.59 381.06 Q2140.39 381.978 2139.44 385.552 L2137.96 391.618 L2136.68 396.701 Q2136.42 397.422 2135.7 397.947 Q2134.98 398.472 2134.19 398.472 Q2133.54 398.472 2132.88 398.013 Q2132.26 397.586 2132.26 396.57 Q2132.26 396.045 2132.52 395.094 L2142.26 356.4 L2142.45 355.089 Q2142.45 354.695 2142.29 354.498 Q2142.16 354.269 2141.37 354.105 Q2140.62 353.941 2139.11 353.941 Q2138.49 353.941 2138.19 353.908 Q2137.93 353.875 2137.7 353.711 Q2137.47 353.515 2137.47 353.121 Q2137.47 352.564 2137.7 352.269 Q2137.96 351.941 2138.16 351.875 Q2138.36 351.81 2138.75 351.777 Q2139.31 351.744 2141.18 351.58 Q2143.04 351.383 2144.65 351.252 Q2146.26 351.121 2146.95 351.121 Q2147.34 351.121 2147.54 351.318 Q2147.77 351.482 2147.8 351.678 L2147.83 351.842 L2142.59 373.19 Q2146.75 368.041 2152.52 368.041 Q2156.26 368.041 2158.26 369.976 Q2160.26 371.878 2160.26 375.223 Q2160.26 379.059 2156.16 389.979 Q2154.95 393.028 2154.95 394.766 Q2154.95 395.914 2155.31 396.439 Q2155.7 396.963 2156.55 396.963 Q2157.87 396.963 2159.01 396.209 Q2160.19 395.422 2161.01 394.143 Q2161.83 392.832 2162.39 391.52 Q2162.98 390.176 2163.41 388.667 Q2163.67 387.847 2163.8 387.651 Q2163.97 387.454 2164.42 387.454 Q2165.21 387.454 2165.21 388.11 Z" fill="#000000" fill-rule="nonzero" fill-opacity="1" /><polyline clip-path="url(#clip440)" style="stroke:#1e6cd0; stroke-linecap:round; stroke-linejoin:round; stroke-width:32; stroke-opacity:1; fill:none" points="1901.4,455.397 2034.2,455.397 "/>
<path clip-path="url(#clip440)" d="M2122.67 428.658 Q2122.67 435.403 2120.23 442.102 Q2117.79 448.754 2113.72 454.141 Q2109.69 459.529 2104.44 463.698 Q2099.24 467.82 2093.67 469.928 Q2094.37 475.549 2095.78 477.657 Q2097.23 479.812 2100.46 479.812 Q2102.33 479.812 2104.35 478.969 Q2106.41 478.126 2108.52 475.924 Q2110.63 473.769 2111.7 470.584 Q2112.03 469.553 2112.87 469.553 Q2113.2 469.553 2113.53 469.834 Q2113.91 470.069 2113.91 470.49 Q2113.91 470.865 2113.48 472.223 Q2113.11 473.629 2112.31 475.784 Q2111.52 477.939 2110.16 480.187 Q2108.8 482.483 2107.11 484.497 Q2105.47 486.511 2103.04 487.776 Q2100.6 489.088 2097.88 489.088 Q2095.64 489.088 2094 488.244 Q2092.4 487.401 2091.61 486.324 Q2090.86 485.246 2090.44 483.513 Q2090.01 481.827 2089.97 480.89 Q2089.92 479.953 2089.92 478.548 Q2089.92 477.095 2090.3 471.146 Q2085.24 472.598 2080.93 472.598 Q2070.29 472.598 2063.31 465.618 Q2056.33 458.638 2056.33 446.974 Q2056.33 438.823 2059.99 430.719 Q2063.64 422.568 2069.45 416.525 Q2075.26 410.435 2082.89 406.641 Q2090.58 402.846 2098.17 402.846 Q2108.94 402.846 2115.78 410.013 Q2122.67 417.134 2122.67 428.658 M2114.19 425.613 Q2114.19 416.15 2109.55 410.716 Q2104.96 405.235 2097.6 405.235 Q2091.98 405.235 2085.75 408.842 Q2079.57 412.449 2074.56 419.429 Q2069.64 426.409 2067.2 435.169 Q2064.81 443.929 2064.81 450.066 Q2064.81 456.858 2067.48 461.964 Q2070.15 467.024 2075.54 469.132 Q2074.98 468.007 2074.98 466.087 Q2074.98 462.339 2077.98 459.341 Q2080.97 456.296 2084.77 456.296 Q2086.45 456.296 2087.77 456.812 Q2089.12 457.28 2089.97 458.264 Q2090.86 459.247 2091.42 460.184 Q2092.03 461.074 2092.36 462.527 Q2092.73 463.932 2092.87 464.681 Q2093.01 465.384 2093.2 466.649 Q2097.79 464.072 2101.54 459.856 Q2105.29 455.594 2107.58 451.096 Q2109.88 446.552 2111.42 441.634 Q2112.97 436.668 2113.58 432.733 Q2114.19 428.751 2114.19 425.613 M2090.58 466.555 Q2090.58 462.199 2089.17 460.325 Q2087.81 458.404 2084.77 458.404 Q2081.77 458.404 2079.43 460.793 Q2077.09 463.182 2077.09 466.087 Q2077.09 467.539 2077.51 468.476 Q2077.98 469.366 2078.82 469.741 Q2079.66 470.069 2080.18 470.162 Q2080.69 470.209 2081.49 470.209 Q2085.56 470.209 2089.55 468.476 Q2090.25 468.195 2090.39 467.914 Q2090.58 467.633 2090.58 466.555 Z" fill="#000000" fill-rule="nonzero" fill-opacity="1" /><path clip-path="url(#clip440)" d="M2158.13 498.773 Q2158.39 499.068 2158.39 499.364 Q2158.39 499.659 2157.74 500.511 Q2157.11 501.364 2155.77 502.512 Q2154.42 503.659 2152.69 504.741 Q2150.95 505.823 2148.39 506.545 Q2145.83 507.299 2143.14 507.299 Q2138.13 507.299 2135.17 503.987 Q2132.26 500.675 2132.26 495.92 Q2132.26 491.297 2134.85 486.87 Q2137.44 482.41 2141.63 479.656 Q2145.83 476.869 2150.26 476.869 Q2153.77 476.869 2155.96 478.508 Q2158.16 480.148 2158.16 482.64 Q2158.16 484.575 2157.05 485.755 Q2155.93 486.936 2154.42 486.936 Q2153.37 486.936 2152.65 486.345 Q2151.93 485.722 2151.93 484.575 Q2151.93 483.099 2153.14 481.951 Q2153.6 481.492 2154.13 481.296 Q2154.69 481.066 2155.01 481.066 Q2155.34 481.033 2156.1 481.033 Q2155.41 479.754 2153.77 479.066 Q2152.16 478.344 2150.32 478.344 Q2147.6 478.344 2145.01 480.246 Q2142.42 482.115 2140.85 485.067 Q2139.27 487.952 2138.26 492.051 Q2137.24 496.117 2137.24 498.478 Q2137.24 501.725 2138.75 503.758 Q2140.26 505.791 2143.27 505.791 Q2143.86 505.791 2144.49 505.758 Q2145.14 505.725 2146.78 505.364 Q2148.46 505.004 2149.93 504.381 Q2151.41 503.758 2153.28 502.413 Q2155.18 501.036 2156.69 499.167 Q2157.21 498.478 2157.57 498.478 Q2157.87 498.478 2158.13 498.773 Z" fill="#000000" fill-rule="nonzero" fill-opacity="1" /><path clip-path="url(#clip440)" d="M329.257 2639.44 L2321.26 2639.44 L2321.26 1586.75 L329.257 1586.75  Z" fill="#ffffff" fill-rule="evenodd" fill-opacity="1"/>
<defs>
  <clipPath id="clip443">
    <rect x="329" y="1586" width="1993" height="1054"/>
  </clipPath>
</defs>
<polyline clip-path="url(#clip443)" style="stroke:#000000; stroke-linecap:round; stroke-linejoin:round; stroke-width:2; stroke-opacity:0.1; fill:none" points="801.499,2639.44 801.499,1586.75 "/>
<polyline clip-path="url(#clip443)" style="stroke:#000000; stroke-linecap:round; stroke-linejoin:round; stroke-width:2; stroke-opacity:0.1; fill:none" points="1308.09,2639.44 1308.09,1586.75 "/>
<polyline clip-path="url(#clip443)" style="stroke:#000000; stroke-linecap:round; stroke-linejoin:round; stroke-width:2; stroke-opacity:0.1; fill:none" points="1814.67,2639.44 1814.67,1586.75 "/>
<polyline clip-path="url(#clip443)" style="stroke:#000000; stroke-linecap:round; stroke-linejoin:round; stroke-width:2; stroke-opacity:0.1; fill:none" points="2321.26,2639.44 2321.26,1586.75 "/>
<polyline clip-path="url(#clip443)" style="stroke:#000000; stroke-linecap:round; stroke-linejoin:round; stroke-width:2; stroke-opacity:0.1; fill:none" points="329.257,2544.91 2321.26,2544.91 "/>
<polyline clip-path="url(#clip443)" style="stroke:#000000; stroke-linecap:round; stroke-linejoin:round; stroke-width:2; stroke-opacity:0.1; fill:none" points="329.257,2329 2321.26,2329 "/>
<polyline clip-path="url(#clip443)" style="stroke:#000000; stroke-linecap:round; stroke-linejoin:round; stroke-width:2; stroke-opacity:0.1; fill:none" points="329.257,2113.1 2321.26,2113.1 "/>
<polyline clip-path="url(#clip443)" style="stroke:#000000; stroke-linecap:round; stroke-linejoin:round; stroke-width:2; stroke-opacity:0.1; fill:none" points="329.257,1897.19 2321.26,1897.19 "/>
<polyline clip-path="url(#clip443)" style="stroke:#000000; stroke-linecap:round; stroke-linejoin:round; stroke-width:2; stroke-opacity:0.1; fill:none" points="329.257,1681.29 2321.26,1681.29 "/>
<polyline clip-path="url(#clip440)" style="stroke:#000000; stroke-linecap:round; stroke-linejoin:round; stroke-width:4; stroke-opacity:1; fill:none" points="329.257,2639.44 2321.26,2639.44 "/>
<polyline clip-path="url(#clip440)" style="stroke:#000000; stroke-linecap:round; stroke-linejoin:round; stroke-width:4; stroke-opacity:1; fill:none" points="801.499,2639.44 801.499,2620.55 "/>
<polyline clip-path="url(#clip440)" style="stroke:#000000; stroke-linecap:round; stroke-linejoin:round; stroke-width:4; stroke-opacity:1; fill:none" points="1308.09,2639.44 1308.09,2620.55 "/>
<polyline clip-path="url(#clip440)" style="stroke:#000000; stroke-linecap:round; stroke-linejoin:round; stroke-width:4; stroke-opacity:1; fill:none" points="1814.67,2639.44 1814.67,2620.55 "/>
<polyline clip-path="url(#clip440)" style="stroke:#000000; stroke-linecap:round; stroke-linejoin:round; stroke-width:4; stroke-opacity:1; fill:none" points="2321.26,2639.44 2321.26,2620.55 "/>
<path clip-path="url(#clip440)" d="M757.495 2686.88 Q750.273 2686.88 746.615 2694.01 Q743.004 2701.09 743.004 2715.35 Q743.004 2729.57 746.615 2736.7 Q750.273 2743.78 757.495 2743.78 Q764.763 2743.78 768.374 2736.7 Q772.032 2729.57 772.032 2715.35 Q772.032 2701.09 768.374 2694.01 Q764.763 2686.88 757.495 2686.88 M757.495 2679.47 Q769.115 2679.47 775.226 2688.69 Q781.384 2697.85 781.384 2715.35 Q781.384 2732.81 775.226 2742.02 Q769.115 2751.19 757.495 2751.19 Q745.875 2751.19 739.717 2742.02 Q733.606 2732.81 733.606 2715.35 Q733.606 2697.85 739.717 2688.69 Q745.875 2679.47 757.495 2679.47 Z" fill="#000000" fill-rule="nonzero" fill-opacity="1" /><path clip-path="url(#clip440)" d="M797.819 2738.08 L807.587 2738.08 L807.587 2749.84 L797.819 2749.84 L797.819 2738.08 Z" fill="#000000" fill-rule="nonzero" fill-opacity="1" /><path clip-path="url(#clip440)" d="M829.578 2741.97 L844.856 2741.97 L844.856 2689.24 L828.235 2692.58 L828.235 2684.06 L844.763 2680.72 L854.115 2680.72 L854.115 2741.97 L869.392 2741.97 L869.392 2749.84 L829.578 2749.84 L829.578 2741.97 Z" fill="#000000" fill-rule="nonzero" fill-opacity="1" /><path clip-path="url(#clip440)" d="M1264.45 2686.88 Q1257.23 2686.88 1253.57 2694.01 Q1249.96 2701.09 1249.96 2715.35 Q1249.96 2729.57 1253.57 2736.7 Q1257.23 2743.78 1264.45 2743.78 Q1271.72 2743.78 1275.33 2736.7 Q1278.99 2729.57 1278.99 2715.35 Q1278.99 2701.09 1275.33 2694.01 Q1271.72 2686.88 1264.45 2686.88 M1264.45 2679.47 Q1276.07 2679.47 1282.18 2688.69 Q1288.34 2697.85 1288.34 2715.35 Q1288.34 2732.81 1282.18 2742.02 Q1276.07 2751.19 1264.45 2751.19 Q1252.83 2751.19 1246.67 2742.02 Q1240.56 2732.81 1240.56 2715.35 Q1240.56 2697.85 1246.67 2688.69 Q1252.83 2679.47 1264.45 2679.47 Z" fill="#000000" fill-rule="nonzero" fill-opacity="1" /><path clip-path="url(#clip440)" d="M1304.78 2738.08 L1314.54 2738.08 L1314.54 2749.84 L1304.78 2749.84 L1304.78 2738.08 Z" fill="#000000" fill-rule="nonzero" fill-opacity="1" /><path clip-path="url(#clip440)" d="M1342.97 2741.97 L1375.61 2741.97 L1375.61 2749.84 L1331.72 2749.84 L1331.72 2741.97 Q1337.04 2736.46 1346.21 2727.21 Q1355.42 2717.9 1357.78 2715.21 Q1362.28 2710.17 1364.03 2706.7 Q1365.84 2703.18 1365.84 2699.8 Q1365.84 2694.29 1361.95 2690.82 Q1358.11 2687.34 1351.91 2687.34 Q1347.51 2687.34 1342.6 2688.87 Q1337.74 2690.4 1332.18 2693.5 L1332.18 2684.06 Q1337.83 2681.79 1342.74 2680.63 Q1347.65 2679.47 1351.72 2679.47 Q1362.46 2679.47 1368.85 2684.84 Q1375.24 2690.21 1375.24 2699.2 Q1375.24 2703.46 1373.62 2707.3 Q1372.04 2711.09 1367.83 2716.28 Q1366.67 2717.62 1360.47 2724.06 Q1354.27 2730.45 1342.97 2741.97 Z" fill="#000000" fill-rule="nonzero" fill-opacity="1" /><path clip-path="url(#clip440)" d="M1770.09 2686.88 Q1762.87 2686.88 1759.21 2694.01 Q1755.6 2701.09 1755.6 2715.35 Q1755.6 2729.57 1759.21 2736.7 Q1762.87 2743.78 1770.09 2743.78 Q1777.36 2743.78 1780.97 2736.7 Q1784.63 2729.57 1784.63 2715.35 Q1784.63 2701.09 1780.97 2694.01 Q1777.36 2686.88 1770.09 2686.88 M1770.09 2679.47 Q1781.71 2679.47 1787.82 2688.69 Q1793.98 2697.85 1793.98 2715.35 Q1793.98 2732.81 1787.82 2742.02 Q1781.71 2751.19 1770.09 2751.19 Q1758.47 2751.19 1752.31 2742.02 Q1746.2 2732.81 1746.2 2715.35 Q1746.2 2697.85 1752.31 2688.69 Q1758.47 2679.47 1770.09 2679.47 Z" fill="#000000" fill-rule="nonzero" fill-opacity="1" /><path clip-path="url(#clip440)" d="M1810.41 2738.08 L1820.18 2738.08 L1820.18 2749.84 L1810.41 2749.84 L1810.41 2738.08 Z" fill="#000000" fill-rule="nonzero" fill-opacity="1" /><path clip-path="url(#clip440)" d="M1868.89 2712.58 Q1875.6 2714.01 1879.35 2718.55 Q1883.14 2723.08 1883.14 2729.75 Q1883.14 2739.98 1876.11 2745.58 Q1869.07 2751.19 1856.11 2751.19 Q1851.76 2751.19 1847.13 2750.31 Q1842.54 2749.47 1837.64 2747.76 L1837.64 2738.73 Q1841.52 2741 1846.15 2742.16 Q1850.78 2743.32 1855.83 2743.32 Q1864.63 2743.32 1869.21 2739.84 Q1873.84 2736.37 1873.84 2729.75 Q1873.84 2723.64 1869.53 2720.21 Q1865.27 2716.74 1857.64 2716.74 L1849.58 2716.74 L1849.58 2709.06 L1858.01 2709.06 Q1864.9 2709.06 1868.56 2706.33 Q1872.22 2703.55 1872.22 2698.36 Q1872.22 2693.04 1868.42 2690.21 Q1864.67 2687.34 1857.64 2687.34 Q1853.79 2687.34 1849.4 2688.18 Q1845 2689.01 1839.72 2690.77 L1839.72 2682.44 Q1845.04 2680.96 1849.67 2680.21 Q1854.35 2679.47 1858.47 2679.47 Q1869.12 2679.47 1875.32 2684.33 Q1881.52 2689.15 1881.52 2697.39 Q1881.52 2703.13 1878.24 2707.11 Q1874.95 2711.05 1868.89 2712.58 Z" fill="#000000" fill-rule="nonzero" fill-opacity="1" /><path clip-path="url(#clip440)" d="M2275.54 2686.88 Q2268.32 2686.88 2264.66 2694.01 Q2261.05 2701.09 2261.05 2715.35 Q2261.05 2729.57 2264.66 2736.7 Q2268.32 2743.78 2275.54 2743.78 Q2282.81 2743.78 2286.42 2736.7 Q2290.08 2729.57 2290.08 2715.35 Q2290.08 2701.09 2286.42 2694.01 Q2282.81 2686.88 2275.54 2686.88 M2275.54 2679.47 Q2287.16 2679.47 2293.27 2688.69 Q2299.43 2697.85 2299.43 2715.35 Q2299.43 2732.81 2293.27 2742.02 Q2287.16 2751.19 2275.54 2751.19 Q2263.92 2751.19 2257.76 2742.02 Q2251.65 2732.81 2251.65 2715.35 Q2251.65 2697.85 2257.76 2688.69 Q2263.92 2679.47 2275.54 2679.47 Z" fill="#000000" fill-rule="nonzero" fill-opacity="1" /><path clip-path="url(#clip440)" d="M2315.87 2738.08 L2325.63 2738.08 L2325.63 2749.84 L2315.87 2749.84 L2315.87 2738.08 Z" fill="#000000" fill-rule="nonzero" fill-opacity="1" /><path clip-path="url(#clip440)" d="M2371.7 2688.87 L2348.09 2725.77 L2371.7 2725.77 L2371.7 2688.87 M2369.25 2680.72 L2381 2680.72 L2381 2725.77 L2390.87 2725.77 L2390.87 2733.55 L2381 2733.55 L2381 2749.84 L2371.7 2749.84 L2371.7 2733.55 L2340.5 2733.55 L2340.5 2724.52 L2369.25 2680.72 Z" fill="#000000" fill-rule="nonzero" fill-opacity="1" /><path clip-path="url(#clip440)" d="M1234.19 2818.86 Q1234.19 2818.92 1233.87 2820.81 L1221.86 2868.72 Q1221.22 2871.25 1219.43 2873.78 Q1217.69 2876.36 1214.9 2878.57 Q1212.16 2880.84 1207.94 2882.21 Q1203.78 2883.63 1198.98 2883.63 Q1191.34 2883.63 1187.97 2882 Q1184.65 2880.42 1184.65 2877.05 Q1184.65 2874.09 1186.49 2872.41 Q1188.34 2870.77 1190.45 2870.77 Q1192.45 2870.77 1193.5 2871.93 Q1194.56 2873.09 1194.56 2874.57 Q1194.56 2876.2 1193.45 2877.84 Q1192.34 2879.52 1190.13 2880.15 Q1193.66 2881.26 1198.77 2881.26 Q1209.58 2881.26 1214.21 2869.83 Q1214.32 2869.67 1214.32 2869.61 L1217.9 2855.33 L1217.75 2855.23 Q1216.85 2856.28 1215.43 2857.49 Q1214.06 2858.65 1211.1 2860.08 Q1208.15 2861.5 1205.26 2861.5 Q1199.19 2861.5 1195.03 2856.86 Q1190.92 2852.17 1190.92 2844.42 Q1190.92 2838.78 1193.19 2833.15 Q1195.51 2827.45 1199.09 2823.29 Q1202.73 2819.07 1207.36 2816.44 Q1212.05 2813.8 1216.59 2813.8 Q1219.75 2813.8 1222.44 2815.7 Q1225.12 2817.55 1226.6 2820.6 Q1226.86 2818.07 1228.29 2817.02 Q1229.76 2815.97 1231.03 2815.97 Q1232.45 2815.97 1233.29 2816.76 Q1234.19 2817.49 1234.19 2818.86 M1225.33 2825.45 Q1225.33 2825.14 1225.12 2824.29 Q1224.91 2823.4 1224.28 2821.97 Q1223.7 2820.55 1222.8 2819.29 Q1221.91 2818.02 1220.27 2817.12 Q1218.69 2816.18 1216.69 2816.18 Q1213.42 2816.18 1210.16 2818.92 Q1206.89 2821.6 1204.62 2825.77 Q1202.51 2829.77 1200.51 2837.52 Q1198.56 2845.27 1198.56 2849.22 Q1198.56 2853.12 1200.25 2856.12 Q1201.94 2859.13 1205.57 2859.13 Q1209.79 2859.13 1214.32 2855.23 Q1219.01 2851.17 1219.8 2847.69 L1225.02 2827.09 Q1225.33 2825.82 1225.33 2825.45 Z" fill="#000000" fill-rule="nonzero" fill-opacity="1" /><path clip-path="url(#clip440)" d="M1235.59 2886.95 Q1235.59 2886.43 1236.01 2885.27 L1274.12 2783.45 Q1274.12 2783.34 1274.38 2782.76 Q1274.64 2782.18 1274.8 2781.82 Q1274.96 2781.39 1275.27 2781.08 Q1275.64 2780.76 1276.07 2780.76 Q1277.12 2780.76 1277.12 2782.08 Q1277.12 2782.18 1276.8 2783.45 L1238.6 2885.37 Q1237.96 2887.22 1237.54 2887.74 Q1237.17 2888.27 1236.54 2888.27 Q1235.59 2888.27 1235.59 2886.95 Z" fill="#000000" fill-rule="nonzero" fill-opacity="1" /><path clip-path="url(#clip440)" d="M1342 2846.06 Q1342 2846.48 1341.53 2848.11 Q1341.05 2849.75 1339.89 2852.28 Q1338.79 2854.81 1337.26 2857.12 Q1335.73 2859.39 1333.2 2861.08 Q1330.72 2862.71 1327.88 2862.71 Q1324.08 2862.71 1321.55 2860.18 Q1319.03 2857.65 1319.03 2853.86 Q1319.03 2853.33 1319.08 2852.8 Q1319.13 2852.28 1319.18 2851.96 Q1319.24 2851.59 1319.39 2851.01 Q1319.6 2850.38 1319.66 2850.12 Q1319.76 2849.85 1320.03 2849.06 Q1320.34 2848.22 1320.45 2847.9 Q1327.14 2830.83 1327.14 2823.71 Q1327.14 2816.18 1321.29 2816.18 Q1316.07 2816.18 1310.91 2819.97 Q1308.54 2821.87 1306.27 2825.24 Q1304.01 2828.61 1303.58 2829.88 Q1303.11 2832.62 1302.42 2834.73 Q1302.11 2836.2 1300.58 2841.95 L1298.21 2851.7 L1296.15 2859.86 Q1295.73 2861.02 1294.57 2861.87 Q1293.41 2862.71 1292.15 2862.71 Q1291.09 2862.71 1290.04 2861.97 Q1289.04 2861.29 1289.04 2859.65 Q1289.04 2858.81 1289.46 2857.28 L1300.58 2813.12 L1292.15 2818.34 Q1291.73 2818.55 1291.41 2818.55 Q1290.94 2818.55 1290.51 2818.18 Q1290.09 2817.76 1290.09 2817.23 Q1290.09 2816.6 1290.72 2816.18 L1301.42 2809.59 L1305.11 2795.1 L1305.43 2792.99 Q1305.43 2792.36 1305.16 2792.04 Q1304.95 2791.67 1303.69 2791.41 Q1302.48 2791.14 1300.05 2791.14 Q1299.05 2791.14 1298.58 2791.09 Q1298.16 2791.04 1297.79 2790.77 Q1297.42 2790.46 1297.42 2789.83 Q1297.42 2788.93 1297.79 2788.46 Q1298.21 2787.93 1298.52 2787.82 Q1298.84 2787.72 1299.47 2787.67 Q1300.37 2787.61 1303.37 2787.35 Q1306.38 2787.03 1308.96 2786.82 Q1311.54 2786.61 1312.65 2786.61 Q1313.28 2786.61 1313.6 2786.93 Q1313.97 2787.19 1314.02 2787.51 L1314.07 2787.77 L1309.96 2804.42 L1326.14 2794.57 Q1326.35 2794.36 1326.77 2794.36 Q1327.25 2794.36 1327.67 2794.78 Q1328.09 2795.15 1328.09 2795.68 Q1328.09 2796.41 1327.46 2796.73 L1309.12 2807.95 L1305.64 2822.08 Q1312.33 2813.8 1321.61 2813.8 Q1327.62 2813.8 1330.83 2816.91 Q1334.04 2819.97 1334.04 2825.35 Q1334.04 2831.51 1327.46 2849.06 Q1325.51 2853.96 1325.51 2856.76 Q1325.51 2858.6 1326.09 2859.44 Q1326.72 2860.29 1328.09 2860.29 Q1330.2 2860.29 1332.04 2859.07 Q1333.94 2857.81 1335.26 2855.75 Q1336.57 2853.65 1337.47 2851.54 Q1338.42 2849.38 1339.1 2846.95 Q1339.53 2845.64 1339.74 2845.32 Q1340 2845 1340.74 2845 Q1342 2845 1342 2846.06 Z" fill="#000000" fill-rule="nonzero" fill-opacity="1" /><path clip-path="url(#clip440)" d="M1414.34 2821.34 Q1414.34 2826.24 1411.87 2835.73 Q1410.87 2839.84 1409.5 2843.58 Q1408.18 2847.27 1406.23 2850.85 Q1404.28 2854.44 1402.01 2857.02 Q1399.75 2859.55 1396.79 2861.13 Q1393.84 2862.71 1390.58 2862.71 Q1385.41 2862.71 1382.35 2859.65 Q1379.35 2856.54 1378.4 2851.22 Q1371.34 2862.71 1361.91 2862.71 Q1356.06 2862.71 1353.32 2858.55 Q1350.58 2854.33 1350.58 2847.27 Q1350.58 2841.31 1352.16 2835.15 Q1355.16 2823.45 1361.01 2815.28 Q1361.8 2814.33 1362.96 2814.33 Q1363.65 2814.33 1363.96 2814.54 Q1364.91 2815.12 1364.91 2816.07 Q1364.91 2816.76 1364.38 2817.44 Q1360.69 2822.55 1358.27 2826.93 Q1355.85 2831.3 1354.74 2835.73 Q1353.9 2839.52 1353.9 2842.74 Q1353.9 2848.17 1356.21 2851.54 Q1358.59 2854.91 1363.28 2854.91 Q1367.6 2854.91 1371.39 2852.22 Q1375.19 2849.48 1377.98 2844.9 Q1378.14 2839.89 1379.35 2835.15 Q1380.46 2830.09 1383.04 2830.09 Q1385.09 2830.09 1385.09 2832.88 Q1385.09 2833.83 1384.67 2835.73 Q1383.51 2840.73 1381.41 2845.21 Q1382.14 2849.59 1384.88 2852.28 Q1387.62 2854.91 1392 2854.91 Q1396.06 2854.91 1399.64 2851.96 Q1403.28 2849.01 1405.6 2844.69 Q1407.97 2840.31 1409.28 2835.15 Q1409.71 2833.41 1409.71 2831.2 Q1409.71 2825.29 1405.6 2821.66 Q1404.44 2820.5 1404.44 2818.97 Q1404.44 2817.18 1405.91 2815.54 Q1407.65 2813.8 1409.71 2813.8 Q1411.23 2813.8 1412.18 2814.75 Q1414.34 2816.65 1414.34 2821.34 Z" fill="#000000" fill-rule="nonzero" fill-opacity="1" /><path clip-path="url(#clip440)" d="M1454.35 2873.78 Q1454.64 2874.11 1454.64 2874.45 Q1454.64 2874.78 1453.9 2875.74 Q1453.2 2876.7 1451.69 2877.99 Q1450.18 2879.28 1448.22 2880.5 Q1446.27 2881.71 1443.39 2882.53 Q1440.51 2883.37 1437.49 2883.37 Q1431.84 2883.37 1428.52 2879.65 Q1425.24 2875.92 1425.24 2870.57 Q1425.24 2865.37 1428.15 2860.39 Q1431.07 2855.37 1435.79 2852.28 Q1440.51 2849.14 1445.49 2849.14 Q1449.44 2849.14 1451.91 2850.98 Q1454.38 2852.83 1454.38 2855.63 Q1454.38 2857.81 1453.13 2859.14 Q1451.88 2860.46 1450.18 2860.46 Q1449 2860.46 1448.19 2859.8 Q1447.37 2859.1 1447.37 2857.81 Q1447.37 2856.15 1448.74 2854.86 Q1449.26 2854.34 1449.85 2854.12 Q1450.47 2853.86 1450.84 2853.86 Q1451.21 2853.82 1452.06 2853.82 Q1451.29 2852.39 1449.44 2851.61 Q1447.63 2850.8 1445.57 2850.8 Q1442.51 2850.8 1439.59 2852.94 Q1436.68 2855.04 1434.91 2858.36 Q1433.13 2861.61 1431.99 2866.22 Q1430.85 2870.79 1430.85 2873.45 Q1430.85 2877.1 1432.54 2879.39 Q1434.24 2881.68 1437.64 2881.68 Q1438.3 2881.68 1439 2881.64 Q1439.74 2881.6 1441.58 2881.2 Q1443.46 2880.79 1445.12 2880.09 Q1446.78 2879.39 1448.89 2877.88 Q1451.03 2876.33 1452.72 2874.22 Q1453.31 2873.45 1453.72 2873.45 Q1454.05 2873.45 1454.35 2873.78 Z" fill="#000000" fill-rule="nonzero" fill-opacity="1" /><polyline clip-path="url(#clip440)" style="stroke:#000000; stroke-linecap:round; stroke-linejoin:round; stroke-width:4; stroke-opacity:1; fill:none" points="329.257,2639.44 329.257,1586.75 "/>
<polyline clip-path="url(#clip440)" style="stroke:#000000; stroke-linecap:round; stroke-linejoin:round; stroke-width:4; stroke-opacity:1; fill:none" points="329.257,2544.91 348.155,2544.91 "/>
<polyline clip-path="url(#clip440)" style="stroke:#000000; stroke-linecap:round; stroke-linejoin:round; stroke-width:4; stroke-opacity:1; fill:none" points="329.257,2329 348.155,2329 "/>
<polyline clip-path="url(#clip440)" style="stroke:#000000; stroke-linecap:round; stroke-linejoin:round; stroke-width:4; stroke-opacity:1; fill:none" points="329.257,2113.1 348.155,2113.1 "/>
<polyline clip-path="url(#clip440)" style="stroke:#000000; stroke-linecap:round; stroke-linejoin:round; stroke-width:4; stroke-opacity:1; fill:none" points="329.257,1897.19 348.155,1897.19 "/>
<polyline clip-path="url(#clip440)" style="stroke:#000000; stroke-linecap:round; stroke-linejoin:round; stroke-width:4; stroke-opacity:1; fill:none" points="329.257,1681.29 348.155,1681.29 "/>
<path clip-path="url(#clip440)" d="M100.184 2545.81 L159.536 2545.81 L159.536 2553.68 L100.184 2553.68 L100.184 2545.81 Z" fill="#000000" fill-rule="nonzero" fill-opacity="1" /><path clip-path="url(#clip440)" d="M181.341 2571.6 L196.619 2571.6 L196.619 2518.87 L179.999 2522.2 L179.999 2513.68 L196.526 2510.35 L205.878 2510.35 L205.878 2571.6 L221.156 2571.6 L221.156 2579.47 L181.341 2579.47 L181.341 2571.6 Z" fill="#000000" fill-rule="nonzero" fill-opacity="1" /><path clip-path="url(#clip440)" d="M261.202 2541.18 Q254.906 2541.18 251.202 2545.49 Q247.545 2549.79 247.545 2557.29 Q247.545 2564.75 251.202 2569.1 Q254.906 2573.4 261.202 2573.4 Q267.498 2573.4 271.156 2569.1 Q274.859 2564.75 274.859 2557.29 Q274.859 2549.79 271.156 2545.49 Q267.498 2541.18 261.202 2541.18 M279.767 2511.88 L279.767 2520.39 Q276.248 2518.73 272.637 2517.85 Q269.072 2516.97 265.554 2516.97 Q256.294 2516.97 251.387 2523.22 Q246.526 2529.47 245.832 2542.11 Q248.563 2538.08 252.683 2535.95 Q256.804 2533.77 261.757 2533.77 Q272.174 2533.77 278.193 2540.12 Q284.257 2546.41 284.257 2557.29 Q284.257 2567.94 277.961 2574.38 Q271.665 2580.81 261.202 2580.81 Q249.211 2580.81 242.869 2571.64 Q236.526 2562.43 236.526 2544.98 Q236.526 2528.59 244.304 2518.87 Q252.082 2509.1 265.183 2509.1 Q268.702 2509.1 272.267 2509.79 Q275.878 2510.49 279.767 2511.88 Z" fill="#000000" fill-rule="nonzero" fill-opacity="1" /><path clip-path="url(#clip440)" d="M161.017 2329.91 L220.369 2329.91 L220.369 2337.78 L161.017 2337.78 L161.017 2329.91 Z" fill="#000000" fill-rule="nonzero" fill-opacity="1" /><path clip-path="url(#clip440)" d="M260.554 2330.74 Q253.887 2330.74 250.045 2334.3 Q246.248 2337.87 246.248 2344.12 Q246.248 2350.37 250.045 2353.93 Q253.887 2357.5 260.554 2357.5 Q267.22 2357.5 271.063 2353.93 Q274.905 2350.32 274.905 2344.12 Q274.905 2337.87 271.063 2334.3 Q267.267 2330.74 260.554 2330.74 M251.202 2326.76 Q245.183 2325.28 241.804 2321.16 Q238.471 2317.04 238.471 2311.11 Q238.471 2302.82 244.35 2298.01 Q250.276 2293.19 260.554 2293.19 Q270.878 2293.19 276.757 2298.01 Q282.637 2302.82 282.637 2311.11 Q282.637 2317.04 279.257 2321.16 Q275.924 2325.28 269.952 2326.76 Q276.711 2328.33 280.461 2332.91 Q284.257 2337.5 284.257 2344.12 Q284.257 2354.16 278.1 2359.54 Q271.989 2364.91 260.554 2364.91 Q249.119 2364.91 242.961 2359.54 Q236.85 2354.16 236.85 2344.12 Q236.85 2337.5 240.646 2332.91 Q244.443 2328.33 251.202 2326.76 M247.776 2311.99 Q247.776 2317.36 251.109 2320.37 Q254.489 2323.38 260.554 2323.38 Q266.572 2323.38 269.952 2320.37 Q273.378 2317.36 273.378 2311.99 Q273.378 2306.62 269.952 2303.61 Q266.572 2300.6 260.554 2300.6 Q254.489 2300.6 251.109 2303.61 Q247.776 2306.62 247.776 2311.99 Z" fill="#000000" fill-rule="nonzero" fill-opacity="1" /><path clip-path="url(#clip440)" d="M260.369 2084.7 Q253.146 2084.7 249.489 2091.83 Q245.878 2098.91 245.878 2113.17 Q245.878 2127.38 249.489 2134.51 Q253.146 2141.59 260.369 2141.59 Q267.637 2141.59 271.248 2134.51 Q274.905 2127.38 274.905 2113.17 Q274.905 2098.91 271.248 2091.83 Q267.637 2084.7 260.369 2084.7 M260.369 2077.29 Q271.989 2077.29 278.1 2086.5 Q284.257 2095.67 284.257 2113.17 Q284.257 2130.62 278.1 2139.83 Q271.989 2149 260.369 2149 Q248.748 2149 242.591 2139.83 Q236.48 2130.62 236.48 2113.17 Q236.48 2095.67 242.591 2086.5 Q248.748 2077.29 260.369 2077.29 Z" fill="#000000" fill-rule="nonzero" fill-opacity="1" /><path clip-path="url(#clip440)" d="M260.554 1898.93 Q253.887 1898.93 250.045 1902.49 Q246.248 1906.06 246.248 1912.31 Q246.248 1918.56 250.045 1922.12 Q253.887 1925.69 260.554 1925.69 Q267.22 1925.69 271.063 1922.12 Q274.905 1918.51 274.905 1912.31 Q274.905 1906.06 271.063 1902.49 Q267.267 1898.93 260.554 1898.93 M251.202 1894.95 Q245.183 1893.47 241.804 1889.35 Q238.471 1885.23 238.471 1879.3 Q238.471 1871.01 244.35 1866.2 Q250.276 1861.38 260.554 1861.38 Q270.878 1861.38 276.757 1866.2 Q282.637 1871.01 282.637 1879.3 Q282.637 1885.23 279.257 1889.35 Q275.924 1893.47 269.952 1894.95 Q276.711 1896.52 280.461 1901.11 Q284.257 1905.69 284.257 1912.31 Q284.257 1922.36 278.1 1927.73 Q271.989 1933.1 260.554 1933.1 Q249.119 1933.1 242.961 1927.73 Q236.85 1922.36 236.85 1912.31 Q236.85 1905.69 240.646 1901.11 Q244.443 1896.52 251.202 1894.95 M247.776 1880.18 Q247.776 1885.55 251.109 1888.56 Q254.489 1891.57 260.554 1891.57 Q266.572 1891.57 269.952 1888.56 Q273.378 1885.55 273.378 1880.18 Q273.378 1874.81 269.952 1871.8 Q266.572 1868.79 260.554 1868.79 Q254.489 1868.79 251.109 1871.8 Q247.776 1874.81 247.776 1880.18 Z" fill="#000000" fill-rule="nonzero" fill-opacity="1" /><path clip-path="url(#clip440)" d="M181.341 1707.98 L196.619 1707.98 L196.619 1655.25 L179.999 1658.58 L179.999 1650.06 L196.526 1646.73 L205.878 1646.73 L205.878 1707.98 L221.156 1707.98 L221.156 1715.85 L181.341 1715.85 L181.341 1707.98 Z" fill="#000000" fill-rule="nonzero" fill-opacity="1" /><path clip-path="url(#clip440)" d="M261.202 1677.56 Q254.906 1677.56 251.202 1681.87 Q247.545 1686.17 247.545 1693.67 Q247.545 1701.13 251.202 1705.48 Q254.906 1709.78 261.202 1709.78 Q267.498 1709.78 271.156 1705.48 Q274.859 1701.13 274.859 1693.67 Q274.859 1686.17 271.156 1681.87 Q267.498 1677.56 261.202 1677.56 M279.767 1648.26 L279.767 1656.77 Q276.248 1655.11 272.637 1654.23 Q269.072 1653.35 265.554 1653.35 Q256.294 1653.35 251.387 1659.6 Q246.526 1665.85 245.832 1678.49 Q248.563 1674.46 252.683 1672.33 Q256.804 1670.15 261.757 1670.15 Q272.174 1670.15 278.193 1676.5 Q284.257 1682.79 284.257 1693.67 Q284.257 1704.32 277.961 1710.76 Q271.665 1717.19 261.202 1717.19 Q249.211 1717.19 242.869 1708.02 Q236.526 1698.81 236.526 1681.36 Q236.526 1664.97 244.304 1655.25 Q252.082 1645.48 265.183 1645.48 Q268.702 1645.48 272.267 1646.17 Q275.878 1646.87 279.767 1648.26 Z" fill="#000000" fill-rule="nonzero" fill-opacity="1" /><path clip-path="url(#clip443)" d="M329.257 3692.13 L329.257 534.061 L1084.84 534.061 L1084.84 3692.13 L329.257 3692.13  Z" fill="#3a873c" fill-rule="evenodd" fill-opacity="0.5"/>
<polyline clip-path="url(#clip443)" style="stroke:#000000; stroke-linecap:round; stroke-linejoin:round; stroke-width:0; stroke-opacity:0.5; fill:none" points="329.257,3692.13 329.257,534.061 1084.84,534.061 1084.84,3692.13 329.257,3692.13 "/>
<path clip-path="url(#clip443)" d="M1084.84 3692.13 L1084.84 534.061 L1359.6 534.061 L1359.6 3692.13 L1084.84 3692.13  Z" fill="#e5b12e" fill-rule="evenodd" fill-opacity="0.5"/>
<polyline clip-path="url(#clip443)" style="stroke:#000000; stroke-linecap:round; stroke-linejoin:round; stroke-width:0; stroke-opacity:0.5; fill:none" points="1084.84,3692.13 1084.84,534.061 1359.6,534.061 1359.6,3692.13 1084.84,3692.13 "/>
<path clip-path="url(#clip443)" d="M1359.6 3692.13 L1359.6 534.061 L2321.26 534.061 L2321.26 3692.13 L1359.6 3692.13  Z" fill="#8c5b89" fill-rule="evenodd" fill-opacity="0.5"/>
<polyline clip-path="url(#clip443)" style="stroke:#000000; stroke-linecap:round; stroke-linejoin:round; stroke-width:0; stroke-opacity:0.5; fill:none" points="1359.6,3692.13 1359.6,534.061 2321.26,534.061 2321.26,3692.13 1359.6,3692.13 "/>
<polyline clip-path="url(#clip443)" style="stroke:#148109; stroke-linecap:round; stroke-linejoin:round; stroke-width:16; stroke-opacity:1; fill:none" points="329.257,2015.49 363.602,2016.08 397.947,2017.06 432.292,2018.43 466.637,2020.19 500.982,2022.34 535.327,2024.88 569.671,2027.81 604.016,2031.13 638.361,2034.83 672.706,2038.92 707.051,2043.38 741.396,2048.24 775.741,2053.47 810.086,2059.07 844.43,2065.06 878.775,2071.42 913.12,2078.14 947.465,2085.24 981.81,2092.71 1016.15,2100.53 1050.5,2108.72 1084.84,2117.26 1119.19,2126.16 1153.53,2135.41 1187.88,2145.01 1222.22,2154.96 1256.57,2165.24 1290.91,2175.86 1325.26,2186.81 1359.6,2198.1 1393.95,2209.71 1428.29,2221.64 1462.64,2233.88 1496.98,2246.44 1531.33,2259.31 1565.67,2272.49 1600.02,2285.96 1634.36,2299.72 1668.71,2313.78 1703.05,2328.12 1737.4,2342.74 1771.74,2357.64 1806.09,2372.81 1840.43,2388.27 1874.78,2404.34 1909.12,2420.71 1943.47,2437.39 1977.81,2454.36 2012.16,2471.62 2046.5,2489.18 2080.85,2507.02 2115.19,2525.14 2149.54,2543.54 2183.88,2562.2 2218.23,2581.12 2252.57,2600.31 2286.91,2619.75 2321.26,2639.44 "/>
<polyline clip-path="url(#clip443)" style="stroke:#d62020; stroke-linecap:round; stroke-linejoin:round; stroke-width:16; stroke-opacity:1; fill:none" points="329.257,1983 363.602,1983.44 397.947,1984.17 432.292,1985.2 466.637,1986.51 500.982,1988.12 535.327,1990.01 569.671,1992.2 604.016,1994.66 638.361,1997.41 672.706,2000.44 707.051,2003.74 741.396,2007.32 775.741,2011.17 810.086,2015.29 844.43,2019.67 878.775,2024.31 913.12,2029.2 947.465,2034.35 981.81,2039.74 1016.15,2045.37 1050.5,2051.24 1084.84,2057.34 1119.19,2063.66 1153.53,2070.2 1187.88,2076.96 1222.22,2083.92 1256.57,2091.09 1290.91,2098.45 1325.26,2106.01 1359.6,2113.74 1393.95,2121.65 1428.29,2129.74 1462.64,2137.98 1496.98,2146.38 1531.33,2154.94 1565.67,2163.63 1600.02,2172.46 1634.36,2181.42 1668.71,2190.51 1703.05,2199.71 1737.4,2209.01 1771.74,2218.42 1806.09,2227.93 1840.43,2237.55 1874.78,2247.65 1909.12,2257.89 1943.47,2268.25 1977.81,2278.73 2012.16,2289.33 2046.5,2300.05 2080.85,2310.86 2115.19,2321.78 2149.54,2332.78 2183.88,2343.87 2218.23,2355.04 2252.57,2366.28 2286.91,2377.58 2321.26,2388.94 "/>
<polyline clip-path="url(#clip443)" style="stroke:#1e6cd0; stroke-linecap:round; stroke-linejoin:round; stroke-width:16; stroke-opacity:1; fill:none" points="329.257,2145.71 363.602,2145.86 397.947,2146.11 432.292,2146.47 466.637,2146.92 500.982,2147.48 535.327,2148.14 569.671,2148.9 604.016,2149.77 638.361,2150.74 672.706,2151.82 707.051,2153 741.396,2154.29 775.741,2155.68 810.086,2157.19 844.43,2158.81 878.775,2160.53 913.12,2162.37 947.465,2164.32 981.81,2166.39 1016.15,2168.57 1050.5,2170.86 1084.84,2173.28 1119.19,2175.82 1153.53,2178.47 1187.88,2181.25 1222.22,2184.15 1256.57,2187.18 1290.91,2190.33 1325.26,2193.61 1359.6,2197.02 1393.95,2200.56 1428.29,2204.23 1462.64,2208.03 1496.98,2211.96 1531.33,2216.03 1565.67,2220.23 1600.02,2224.56 1634.36,2229.04 1668.71,2233.65 1703.05,2238.39 1737.4,2243.28 1771.74,2248.3 1806.09,2253.46 1840.43,2258.78 1874.78,2264.47 1909.12,2270.34 1943.47,2276.4 1977.81,2282.65 2012.16,2289.09 2046.5,2295.74 2080.85,2302.59 2115.19,2309.65 2149.54,2316.92 2183.88,2324.41 2218.23,2332.11 2252.57,2340.04 2286.91,2348.2 2321.26,2356.59 "/>
<polyline clip-path="url(#clip443)" style="stroke:#000000; stroke-linecap:round; stroke-linejoin:round; stroke-width:16; stroke-opacity:1; fill:none" stroke-dasharray="64, 32, 8, 32" points="-1662.75,2113.1 4313.26,2113.1 "/>
<path clip-path="url(#clip440)" d="M1879.27 2077.27 L2254.86 2077.27 L2254.86 1621.84 L1879.27 1621.84  Z" fill="#ffffff" fill-rule="evenodd" fill-opacity="1"/>
<polyline clip-path="url(#clip440)" style="stroke:#000000; stroke-linecap:round; stroke-linejoin:round; stroke-width:4; stroke-opacity:1; fill:none" points="1879.27,2077.27 2254.86,2077.27 2254.86,1621.84 1879.27,1621.84 1879.27,2077.27 "/>
<polyline clip-path="url(#clip440)" style="stroke:#148109; stroke-linecap:round; stroke-linejoin:round; stroke-width:32; stroke-opacity:1; fill:none" points="1901.4,1735.7 2034.2,1735.7 "/>
<path clip-path="url(#clip440)" d="M2078.02 1779.17 Q2078.02 1779.97 2077.46 1780.53 Q2076.9 1781.09 2076.1 1781.09 Q2074.74 1781.09 2074.27 1779.83 L2056.43 1733.78 Q2056.33 1733.59 2056.33 1733.13 Q2056.33 1732.66 2056.43 1732.47 L2074.27 1686.42 Q2074.74 1685.16 2076.1 1685.16 Q2076.9 1685.16 2077.46 1685.72 Q2078.02 1686.28 2078.02 1687.08 Q2078.02 1687.55 2077.93 1687.73 L2060.27 1733.13 L2077.93 1778.52 Q2078.02 1778.71 2078.02 1779.17 Z" fill="#000000" fill-rule="nonzero" fill-opacity="1" /><path clip-path="url(#clip440)" d="M2161.75 1706.05 Q2161.75 1711.3 2157.86 1716.12 Q2154.02 1720.95 2147.74 1723.9 Q2141.51 1726.8 2134.82 1726.8 L2118.51 1726.8 L2112.56 1750.79 Q2112.52 1750.93 2112.38 1751.54 Q2112.24 1752.1 2112.24 1752.43 Q2112.24 1753.6 2113.69 1753.88 Q2115.19 1754.16 2118.51 1754.16 Q2120.67 1754.16 2121 1754.53 Q2121.18 1754.77 2121.18 1755.19 Q2121.18 1755.85 2121 1756.31 Q2120.81 1756.74 2120.43 1756.88 Q2120.11 1757.02 2119.87 1757.06 Q2119.64 1757.11 2119.26 1757.11 Q2118.28 1757.11 2116.17 1757.02 Q2114.11 1756.92 2113.03 1756.92 L2106.9 1756.83 L2094.72 1757.11 Q2093.26 1757.11 2093.26 1755.94 Q2093.26 1755.05 2093.64 1754.67 Q2094.01 1754.25 2094.44 1754.21 Q2094.86 1754.16 2095.93 1754.16 Q2098.28 1754.16 2099.68 1754.02 Q2101.09 1753.88 2101.98 1753.69 Q2102.91 1753.46 2103.38 1752.8 Q2103.9 1752.14 2104.13 1751.58 Q2104.37 1750.97 2104.69 1749.61 L2117.53 1698.09 Q2117.9 1696.54 2117.9 1696.31 Q2117.9 1695.51 2117.44 1695.23 Q2117.01 1694.9 2115.8 1694.76 Q2113.45 1694.57 2111.67 1694.57 Q2110.5 1694.57 2110.03 1694.53 Q2109.61 1694.48 2109.24 1694.24 Q2108.91 1693.96 2108.91 1693.4 Q2108.91 1692.51 2109.29 1692.14 Q2109.71 1691.71 2110.18 1691.67 Q2110.64 1691.57 2111.77 1691.57 L2142.87 1691.57 Q2151.82 1691.57 2156.79 1695.84 Q2161.75 1700.1 2161.75 1706.05 M2152.85 1703.75 Q2152.85 1694.57 2139.78 1694.57 L2130.6 1694.57 Q2127.55 1694.57 2126.81 1695.13 Q2126.06 1695.65 2125.4 1698.23 L2118.89 1724.32 L2132.43 1724.32 Q2141.51 1724.32 2147.18 1719.21 Q2149.76 1716.87 2151.31 1712 Q2152.85 1707.13 2152.85 1703.75 Z" fill="#000000" fill-rule="nonzero" fill-opacity="1" /><path clip-path="url(#clip440)" d="M2185.7 1738.93 L2176.03 1777.75 Q2175.63 1779.29 2175.63 1780.97 Q2175.63 1784.05 2177.66 1784.05 Q2178.62 1784.05 2179.4 1783.43 Q2180.19 1782.77 2180.78 1781.49 Q2181.4 1780.18 2181.8 1778.93 Q2182.22 1777.69 2182.75 1775.75 Q2182.91 1775 2183.08 1774.77 Q2183.24 1774.54 2183.7 1774.54 Q2184.52 1774.54 2184.52 1775.2 Q2183.7 1779.23 2182.49 1781.79 Q2180.71 1785.56 2177.44 1785.56 Q2174.98 1785.56 2173.14 1783.85 Q2171.34 1782.11 2171.34 1779.36 Q2171.34 1778.31 2171.66 1777.07 L2180.12 1743.49 L2180.35 1742.17 Q2180.35 1741.81 2180.22 1741.62 Q2180.09 1741.42 2179.3 1741.22 Q2178.55 1741.03 2177.04 1741.03 Q2176.42 1741.03 2176.12 1740.99 Q2175.86 1740.96 2175.6 1740.8 Q2175.37 1740.63 2175.37 1740.27 Q2175.37 1739.68 2175.6 1739.35 Q2175.86 1739.03 2176.06 1738.96 Q2176.25 1738.9 2176.65 1738.86 Q2177.21 1738.83 2179.08 1738.67 Q2180.94 1738.47 2182.55 1738.34 Q2184.16 1738.21 2184.85 1738.21 Q2185.24 1738.21 2185.44 1738.4 Q2185.67 1738.57 2185.7 1738.76 L2185.7 1738.93 Z" fill="#000000" fill-rule="nonzero" fill-opacity="1" /><path clip-path="url(#clip440)" d="M2217.34 1732.47 Q2217.44 1732.66 2217.44 1733.13 Q2217.44 1733.59 2217.34 1733.78 L2199.5 1779.83 Q2199.03 1781.09 2197.72 1781.09 Q2196.92 1781.09 2196.36 1780.53 Q2195.79 1779.97 2195.79 1779.17 Q2195.79 1778.71 2195.89 1778.52 L2213.5 1733.13 L2195.89 1687.73 Q2195.79 1687.55 2195.79 1687.08 Q2195.79 1686.28 2196.36 1685.72 Q2196.92 1685.16 2197.72 1685.16 Q2199.03 1685.16 2199.5 1686.42 L2217.34 1732.47 Z" fill="#000000" fill-rule="nonzero" fill-opacity="1" /><polyline clip-path="url(#clip440)" style="stroke:#d62020; stroke-linecap:round; stroke-linejoin:round; stroke-width:32; stroke-opacity:1; fill:none" points="1901.4,1849.55 2034.2,1849.55 "/>
<path clip-path="url(#clip440)" d="M2122.67 1817.79 Q2122.67 1824.53 2120.23 1831.23 Q2117.79 1837.88 2113.72 1843.27 Q2109.69 1848.66 2104.44 1852.83 Q2099.24 1856.95 2093.67 1859.06 Q2094.37 1864.68 2095.78 1866.79 Q2097.23 1868.94 2100.46 1868.94 Q2102.33 1868.94 2104.35 1868.1 Q2106.41 1867.25 2108.52 1865.05 Q2110.63 1862.9 2111.7 1859.71 Q2112.03 1858.68 2112.87 1858.68 Q2113.2 1858.68 2113.53 1858.96 Q2113.91 1859.2 2113.91 1859.62 Q2113.91 1859.99 2113.48 1861.35 Q2113.11 1862.76 2112.31 1864.91 Q2111.52 1867.07 2110.16 1869.32 Q2108.8 1871.61 2107.11 1873.62 Q2105.47 1875.64 2103.04 1876.9 Q2100.6 1878.22 2097.88 1878.22 Q2095.64 1878.22 2094 1877.37 Q2092.4 1876.53 2091.61 1875.45 Q2090.86 1874.37 2090.44 1872.64 Q2090.01 1870.95 2089.97 1870.02 Q2089.92 1869.08 2089.92 1867.68 Q2089.92 1866.22 2090.3 1860.27 Q2085.24 1861.73 2080.93 1861.73 Q2070.29 1861.73 2063.31 1854.75 Q2056.33 1847.77 2056.33 1836.1 Q2056.33 1827.95 2059.99 1819.85 Q2063.64 1811.7 2069.45 1805.65 Q2075.26 1799.56 2082.89 1795.77 Q2090.58 1791.97 2098.17 1791.97 Q2108.94 1791.97 2115.78 1799.14 Q2122.67 1806.26 2122.67 1817.79 M2114.19 1814.74 Q2114.19 1805.28 2109.55 1799.84 Q2104.96 1794.36 2097.6 1794.36 Q2091.98 1794.36 2085.75 1797.97 Q2079.57 1801.58 2074.56 1808.56 Q2069.64 1815.54 2067.2 1824.3 Q2064.81 1833.06 2064.81 1839.19 Q2064.81 1845.99 2067.48 1851.09 Q2070.15 1856.15 2075.54 1858.26 Q2074.98 1857.14 2074.98 1855.21 Q2074.98 1851.47 2077.98 1848.47 Q2080.97 1845.42 2084.77 1845.42 Q2086.45 1845.42 2087.77 1845.94 Q2089.12 1846.41 2089.97 1847.39 Q2090.86 1848.38 2091.42 1849.31 Q2092.03 1850.2 2092.36 1851.65 Q2092.73 1853.06 2092.87 1853.81 Q2093.01 1854.51 2093.2 1855.78 Q2097.79 1853.2 2101.54 1848.98 Q2105.29 1844.72 2107.58 1840.22 Q2109.88 1835.68 2111.42 1830.76 Q2112.97 1825.8 2113.58 1821.86 Q2114.19 1817.88 2114.19 1814.74 M2090.58 1855.68 Q2090.58 1851.33 2089.17 1849.45 Q2087.81 1847.53 2084.77 1847.53 Q2081.77 1847.53 2079.43 1849.92 Q2077.09 1852.31 2077.09 1855.21 Q2077.09 1856.67 2077.51 1857.6 Q2077.98 1858.49 2078.82 1858.87 Q2079.66 1859.2 2080.18 1859.29 Q2080.69 1859.34 2081.49 1859.34 Q2085.56 1859.34 2089.55 1857.6 Q2090.25 1857.32 2090.39 1857.04 Q2090.58 1856.76 2090.58 1855.68 Z" fill="#000000" fill-rule="nonzero" fill-opacity="1" /><path clip-path="url(#clip440)" d="M2165.21 1896.12 Q2165.21 1896.38 2164.92 1897.4 Q2164.62 1898.42 2163.9 1899.99 Q2163.21 1901.57 2162.26 1903.01 Q2161.31 1904.42 2159.74 1905.47 Q2158.19 1906.48 2156.42 1906.48 Q2154.06 1906.48 2152.49 1904.91 Q2150.91 1903.34 2150.91 1900.98 Q2150.91 1900.65 2150.95 1900.32 Q2150.98 1899.99 2151.01 1899.79 Q2151.05 1899.57 2151.14 1899.2 Q2151.28 1898.81 2151.31 1898.65 Q2151.37 1898.48 2151.54 1897.99 Q2151.73 1897.47 2151.8 1897.27 Q2155.96 1886.65 2155.96 1882.22 Q2155.96 1877.53 2152.32 1877.53 Q2149.08 1877.53 2145.86 1879.89 Q2144.39 1881.07 2142.98 1883.17 Q2141.57 1885.27 2141.31 1886.06 Q2141.01 1887.76 2140.59 1889.07 Q2140.39 1889.99 2139.44 1893.56 L2137.96 1899.63 L2136.68 1904.71 Q2136.42 1905.43 2135.7 1905.96 Q2134.98 1906.48 2134.19 1906.48 Q2133.54 1906.48 2132.88 1906.03 Q2132.26 1905.6 2132.26 1904.58 Q2132.26 1904.06 2132.52 1903.11 L2142.26 1864.41 L2142.45 1863.1 Q2142.45 1862.71 2142.29 1862.51 Q2142.16 1862.28 2141.37 1862.12 Q2140.62 1861.95 2139.11 1861.95 Q2138.49 1861.95 2138.19 1861.92 Q2137.93 1861.89 2137.7 1861.72 Q2137.47 1861.53 2137.47 1861.13 Q2137.47 1860.58 2137.7 1860.28 Q2137.96 1859.95 2138.16 1859.89 Q2138.36 1859.82 2138.75 1859.79 Q2139.31 1859.76 2141.18 1859.59 Q2143.04 1859.4 2144.65 1859.26 Q2146.26 1859.13 2146.95 1859.13 Q2147.34 1859.13 2147.54 1859.33 Q2147.77 1859.49 2147.8 1859.69 L2147.83 1859.85 L2142.59 1881.2 Q2146.75 1876.05 2152.52 1876.05 Q2156.26 1876.05 2158.26 1877.99 Q2160.26 1879.89 2160.26 1883.24 Q2160.26 1887.07 2156.16 1897.99 Q2154.95 1901.04 2154.95 1902.78 Q2154.95 1903.93 2155.31 1904.45 Q2155.7 1904.98 2156.55 1904.98 Q2157.87 1904.98 2159.01 1904.22 Q2160.19 1903.43 2161.01 1902.16 Q2161.83 1900.84 2162.39 1899.53 Q2162.98 1898.19 2163.41 1896.68 Q2163.67 1895.86 2163.8 1895.66 Q2163.97 1895.47 2164.42 1895.47 Q2165.21 1895.47 2165.21 1896.12 Z" fill="#000000" fill-rule="nonzero" fill-opacity="1" /><polyline clip-path="url(#clip440)" style="stroke:#1e6cd0; stroke-linecap:round; stroke-linejoin:round; stroke-width:32; stroke-opacity:1; fill:none" points="1901.4,1963.41 2034.2,1963.41 "/>
<path clip-path="url(#clip440)" d="M2122.67 1936.67 Q2122.67 1943.42 2120.23 1950.11 Q2117.79 1956.77 2113.72 1962.15 Q2109.69 1967.54 2104.44 1971.71 Q2099.24 1975.83 2093.67 1977.94 Q2094.37 1983.56 2095.78 1985.67 Q2097.23 1987.82 2100.46 1987.82 Q2102.33 1987.82 2104.35 1986.98 Q2106.41 1986.14 2108.52 1983.94 Q2110.63 1981.78 2111.7 1978.6 Q2112.03 1977.57 2112.87 1977.57 Q2113.2 1977.57 2113.53 1977.85 Q2113.91 1978.08 2113.91 1978.5 Q2113.91 1978.88 2113.48 1980.24 Q2113.11 1981.64 2112.31 1983.8 Q2111.52 1985.95 2110.16 1988.2 Q2108.8 1990.49 2107.11 1992.51 Q2105.47 1994.52 2103.04 1995.79 Q2100.6 1997.1 2097.88 1997.1 Q2095.64 1997.1 2094 1996.26 Q2092.4 1995.41 2091.61 1994.34 Q2090.86 1993.26 2090.44 1991.53 Q2090.01 1989.84 2089.97 1988.9 Q2089.92 1987.97 2089.92 1986.56 Q2089.92 1985.11 2090.3 1979.16 Q2085.24 1980.61 2080.93 1980.61 Q2070.29 1980.61 2063.31 1973.63 Q2056.33 1966.65 2056.33 1954.99 Q2056.33 1946.84 2059.99 1938.73 Q2063.64 1930.58 2069.45 1924.54 Q2075.26 1918.45 2082.89 1914.65 Q2090.58 1910.86 2098.17 1910.86 Q2108.94 1910.86 2115.78 1918.03 Q2122.67 1925.15 2122.67 1936.67 M2114.19 1933.63 Q2114.19 1924.16 2109.55 1918.73 Q2104.96 1913.25 2097.6 1913.25 Q2091.98 1913.25 2085.75 1916.85 Q2079.57 1920.46 2074.56 1927.44 Q2069.64 1934.42 2067.2 1943.18 Q2064.81 1951.94 2064.81 1958.08 Q2064.81 1964.87 2067.48 1969.98 Q2070.15 1975.04 2075.54 1977.14 Q2074.98 1976.02 2074.98 1974.1 Q2074.98 1970.35 2077.98 1967.35 Q2080.97 1964.31 2084.77 1964.31 Q2086.45 1964.31 2087.77 1964.82 Q2089.12 1965.29 2089.97 1966.28 Q2090.86 1967.26 2091.42 1968.2 Q2092.03 1969.09 2092.36 1970.54 Q2092.73 1971.94 2092.87 1972.69 Q2093.01 1973.4 2093.2 1974.66 Q2097.79 1972.08 2101.54 1967.87 Q2105.29 1963.61 2107.58 1959.11 Q2109.88 1954.56 2111.42 1949.65 Q2112.97 1944.68 2113.58 1940.75 Q2114.19 1936.76 2114.19 1933.63 M2090.58 1974.57 Q2090.58 1970.21 2089.17 1968.34 Q2087.81 1966.42 2084.77 1966.42 Q2081.77 1966.42 2079.43 1968.81 Q2077.09 1971.19 2077.09 1974.1 Q2077.09 1975.55 2077.51 1976.49 Q2077.98 1977.38 2078.82 1977.75 Q2079.66 1978.08 2080.18 1978.17 Q2080.69 1978.22 2081.49 1978.22 Q2085.56 1978.22 2089.55 1976.49 Q2090.25 1976.21 2090.39 1975.93 Q2090.58 1975.65 2090.58 1974.57 Z" fill="#000000" fill-rule="nonzero" fill-opacity="1" /><path clip-path="url(#clip440)" d="M2158.13 2006.79 Q2158.39 2007.08 2158.39 2007.38 Q2158.39 2007.67 2157.74 2008.52 Q2157.11 2009.38 2155.77 2010.52 Q2154.42 2011.67 2152.69 2012.75 Q2150.95 2013.84 2148.39 2014.56 Q2145.83 2015.31 2143.14 2015.31 Q2138.13 2015.31 2135.17 2012 Q2132.26 2008.69 2132.26 2003.93 Q2132.26 1999.31 2134.85 1994.88 Q2137.44 1990.42 2141.63 1987.67 Q2145.83 1984.88 2150.26 1984.88 Q2153.77 1984.88 2155.96 1986.52 Q2158.16 1988.16 2158.16 1990.65 Q2158.16 1992.59 2157.05 1993.77 Q2155.93 1994.95 2154.42 1994.95 Q2153.37 1994.95 2152.65 1994.36 Q2151.93 1993.73 2151.93 1992.59 Q2151.93 1991.11 2153.14 1989.96 Q2153.6 1989.5 2154.13 1989.31 Q2154.69 1989.08 2155.01 1989.08 Q2155.34 1989.05 2156.1 1989.05 Q2155.41 1987.77 2153.77 1987.08 Q2152.16 1986.36 2150.32 1986.36 Q2147.6 1986.36 2145.01 1988.26 Q2142.42 1990.13 2140.85 1993.08 Q2139.27 1995.96 2138.26 2000.06 Q2137.24 2004.13 2137.24 2006.49 Q2137.24 2009.74 2138.75 2011.77 Q2140.26 2013.8 2143.27 2013.8 Q2143.86 2013.8 2144.49 2013.77 Q2145.14 2013.74 2146.78 2013.38 Q2148.46 2013.02 2149.93 2012.39 Q2151.41 2011.77 2153.28 2010.43 Q2155.18 2009.05 2156.69 2007.18 Q2157.21 2006.49 2157.57 2006.49 Q2157.87 2006.49 2158.13 2006.79 Z" fill="#000000" fill-rule="nonzero" fill-opacity="1" /></svg>
